<?xml version="1.0" encoding="UTF-8" standalone="no"?>
<!DOCTYPE svg PUBLIC "-//W3C//DTD SVG 1.1//EN"
 "http://www.w3.org/Graphics/SVG/1.1/DTD/svg11.dtd">
<!-- Generated by graphviz version 2.43.0 (0)
 -->
<!-- Title: ft::irc::processor_dictionary::execute Pages: 1 -->
<svg width="443pt" height="449pt"
 viewBox="0.00 0.00 443.00 449.00" xmlns="http://www.w3.org/2000/svg" xmlns:xlink="http://www.w3.org/1999/xlink">
<g id="graph0" class="graph" transform="scale(1 1) rotate(0) translate(4 445)">
<title>ft::irc::processor_dictionary::execute</title>
<polygon fill="white" stroke="transparent" points="-4,4 -4,-445 439,-445 439,4 -4,4"/>
<!-- Node1 -->
<g id="node1" class="node">
<title>Node1</title>
<g id="a_node1"><a xlink:title=" ">
<polygon fill="#bfbfbf" stroke="black" points="0,-210.5 0,-240.5 114,-240.5 114,-210.5 0,-210.5"/>
<text text-anchor="start" x="8" y="-228.5" font-family="Helvetica,sans-Serif" font-size="10.00">ft::irc::processor</text>
<text text-anchor="middle" x="57" y="-217.5" font-family="Helvetica,sans-Serif" font-size="10.00">_dictionary::execute</text>
</a>
</g>
</g>
<!-- Node2 -->
<g id="node2" class="node">
<title>Node2</title>
<g id="a_node2"><a xlink:href="classft_1_1irc_1_1processor__dictionary.html#a4a332e955e92eb2af421b69d2cf8ecf9" target="_top" xlink:title=" ">
<polygon fill="white" stroke="black" points="179.5,-410.5 179.5,-440.5 274.5,-440.5 274.5,-410.5 179.5,-410.5"/>
<text text-anchor="start" x="187.5" y="-428.5" font-family="Helvetica,sans-Serif" font-size="10.00">ft::irc::processor</text>
<text text-anchor="middle" x="227" y="-417.5" font-family="Helvetica,sans-Serif" font-size="10.00">_dictionary::get</text>
</a>
</g>
</g>
<!-- Node1&#45;&gt;Node2 -->
<g id="edge1" class="edge">
<title>Node1&#45;&gt;Node2</title>
<path fill="none" stroke="midnightblue" d="M61.69,-240.72C70.73,-274.7 97.15,-357.21 150,-401.5 155.76,-406.33 162.5,-410.19 169.54,-413.27"/>
<polygon fill="midnightblue" stroke="midnightblue" points="168.67,-416.69 179.26,-417.02 171.19,-410.16 168.67,-416.69"/>
</g>
<!-- Node4 -->
<g id="node4" class="node">
<title>Node4</title>
<g id="a_node4"><a xlink:href="classft_1_1irc_1_1message.html#ad323e99c45f6feec038a7de683f812a2" target="_top" xlink:title=" ">
<polygon fill="white" stroke="black" points="170.5,-361.5 170.5,-391.5 283.5,-391.5 283.5,-361.5 170.5,-361.5"/>
<text text-anchor="start" x="178.5" y="-379.5" font-family="Helvetica,sans-Serif" font-size="10.00">ft::irc::message::get</text>
<text text-anchor="middle" x="227" y="-368.5" font-family="Helvetica,sans-Serif" font-size="10.00">_command</text>
</a>
</g>
</g>
<!-- Node1&#45;&gt;Node4 -->
<g id="edge3" class="edge">
<title>Node1&#45;&gt;Node4</title>
<path fill="none" stroke="midnightblue" d="M65.1,-240.69C78.19,-267.06 108.6,-321.38 150,-351.5 153.47,-354.03 157.22,-356.31 161.12,-358.37"/>
<polygon fill="midnightblue" stroke="midnightblue" points="159.91,-361.67 170.44,-362.78 162.9,-355.34 159.91,-361.67"/>
</g>
<!-- Node5 -->
<g id="node5" class="node">
<title>Node5</title>
<g id="a_node5"><a xlink:href="classft_1_1irc_1_1user.html#a6abd166e9093025e349bd851099f8f9e" target="_top" xlink:title=" ">
<polygon fill="white" stroke="black" points="165.5,-323 165.5,-342 288.5,-342 288.5,-323 165.5,-323"/>
<text text-anchor="middle" x="227" y="-330" font-family="Helvetica,sans-Serif" font-size="10.00">ft::irc::user::get_mode</text>
</a>
</g>
</g>
<!-- Node1&#45;&gt;Node5 -->
<g id="edge4" class="edge">
<title>Node1&#45;&gt;Node5</title>
<path fill="none" stroke="midnightblue" d="M69.63,-240.74C85.58,-260.56 116.13,-294.82 150,-313.5 154.17,-315.8 158.63,-317.83 163.2,-319.61"/>
<polygon fill="midnightblue" stroke="midnightblue" points="162.14,-322.95 172.73,-322.95 164.45,-316.34 162.14,-322.95"/>
</g>
<!-- Node6 -->
<g id="node6" class="node">
<title>Node6</title>
<g id="a_node6"><a xlink:href="classft_1_1irc_1_1user.html#a7d133deb3a63faa2627b50cbbdf3a607" target="_top" xlink:title=" ">
<polygon fill="white" stroke="black" points="158.5,-285 158.5,-304 295.5,-304 295.5,-285 158.5,-285"/>
<text text-anchor="middle" x="227" y="-292" font-family="Helvetica,sans-Serif" font-size="10.00">ft::irc::user::is_registered</text>
</a>
</g>
</g>
<!-- Node1&#45;&gt;Node6 -->
<g id="edge5" class="edge">
<title>Node1&#45;&gt;Node6</title>
<path fill="none" stroke="midnightblue" d="M81.79,-240.61C99.91,-251.57 125.78,-266.07 150,-275.5 156.39,-277.99 163.2,-280.23 170.03,-282.23"/>
<polygon fill="midnightblue" stroke="midnightblue" points="169.43,-285.7 180,-284.99 171.3,-278.95 169.43,-285.7"/>
</g>
<!-- Node7 -->
<g id="node7" class="node">
<title>Node7</title>
<g id="a_node7"><a xlink:href="structft_1_1irc_1_1make__error.html#a9ce67256e955eeced06d90b853fa01fa" target="_top" xlink:title=" ">
<polygon fill="white" stroke="black" points="157.5,-235.5 157.5,-265.5 296.5,-265.5 296.5,-235.5 157.5,-235.5"/>
<text text-anchor="start" x="165.5" y="-253.5" font-family="Helvetica,sans-Serif" font-size="10.00">ft::irc::make_error</text>
<text text-anchor="middle" x="227" y="-242.5" font-family="Helvetica,sans-Serif" font-size="10.00">::need_more_parameters</text>
</a>
</g>
</g>
<!-- Node1&#45;&gt;Node7 -->
<g id="edge6" class="edge">
<title>Node1&#45;&gt;Node7</title>
<path fill="none" stroke="midnightblue" d="M114.41,-233.89C124.99,-235.47 136.23,-237.14 147.35,-238.8"/>
<polygon fill="midnightblue" stroke="midnightblue" points="147.09,-242.3 157.49,-240.31 148.12,-235.37 147.09,-242.3"/>
</g>
<!-- Node8 -->
<g id="node8" class="node">
<title>Node8</title>
<g id="a_node8"><a xlink:href="structft_1_1irc_1_1make__error.html#a7d1376947e09efd6feb04512a2029ebb" target="_top" xlink:title=" ">
<polygon fill="white" stroke="black" points="175.5,-186.5 175.5,-216.5 278.5,-216.5 278.5,-186.5 175.5,-186.5"/>
<text text-anchor="start" x="183.5" y="-204.5" font-family="Helvetica,sans-Serif" font-size="10.00">ft::irc::make_error</text>
<text text-anchor="middle" x="227" y="-193.5" font-family="Helvetica,sans-Serif" font-size="10.00">::no_privileges</text>
</a>
</g>
</g>
<!-- Node1&#45;&gt;Node8 -->
<g id="edge7" class="edge">
<title>Node1&#45;&gt;Node8</title>
<path fill="none" stroke="midnightblue" d="M114.41,-217.44C130.75,-215.11 148.66,-212.55 165.25,-210.18"/>
<polygon fill="midnightblue" stroke="midnightblue" points="165.98,-213.61 175.39,-208.73 164.99,-206.68 165.98,-213.61"/>
</g>
<!-- Node9 -->
<g id="node9" class="node">
<title>Node9</title>
<g id="a_node9"><a xlink:href="structft_1_1irc_1_1make__error.html#a49645e4bd33462f78ef25521c290437f" target="_top" xlink:title=" ">
<polygon fill="white" stroke="black" points="175.5,-137.5 175.5,-167.5 278.5,-167.5 278.5,-137.5 175.5,-137.5"/>
<text text-anchor="start" x="183.5" y="-155.5" font-family="Helvetica,sans-Serif" font-size="10.00">ft::irc::make_error</text>
<text text-anchor="middle" x="227" y="-144.5" font-family="Helvetica,sans-Serif" font-size="10.00">::not_registered</text>
</a>
</g>
</g>
<!-- Node1&#45;&gt;Node9 -->
<g id="edge8" class="edge">
<title>Node1&#45;&gt;Node9</title>
<path fill="none" stroke="midnightblue" d="M84.02,-210.47C102.15,-200.36 127.09,-187.17 150,-177.5 155.33,-175.25 160.93,-173.07 166.59,-171"/>
<polygon fill="midnightblue" stroke="midnightblue" points="167.85,-174.27 176.1,-167.62 165.51,-167.67 167.85,-174.27"/>
</g>
<!-- Node10 -->
<g id="node10" class="node">
<title>Node10</title>
<g id="a_node10"><a xlink:href="classft_1_1irc_1_1message.html#a34f457ead0453ad914af2cb0482a40b9" target="_top" xlink:title=" ">
<polygon fill="white" stroke="black" points="150,-99 150,-118 304,-118 304,-99 150,-99"/>
<text text-anchor="middle" x="227" y="-106" font-family="Helvetica,sans-Serif" font-size="10.00">ft::irc::message::param_size</text>
</a>
</g>
</g>
<!-- Node1&#45;&gt;Node10 -->
<g id="edge9" class="edge">
<title>Node1&#45;&gt;Node10</title>
<path fill="none" stroke="midnightblue" d="M68.26,-210.2C83.52,-188.66 114.25,-149.67 150,-128.5 154.44,-125.87 159.22,-123.59 164.15,-121.6"/>
<polygon fill="midnightblue" stroke="midnightblue" points="165.54,-124.81 173.75,-118.12 163.16,-118.23 165.54,-124.81"/>
</g>
<!-- Node11 -->
<g id="node11" class="node">
<title>Node11</title>
<g id="a_node11"><a xlink:href="classft_1_1irc_1_1user.html#a1db558d6d694ca943224c2440fe36c50" target="_top" xlink:title=" ">
<polygon fill="white" stroke="black" points="178,-49.5 178,-79.5 276,-79.5 276,-49.5 178,-49.5"/>
<text text-anchor="start" x="186" y="-67.5" font-family="Helvetica,sans-Serif" font-size="10.00">ft::irc::user::send</text>
<text text-anchor="middle" x="227" y="-56.5" font-family="Helvetica,sans-Serif" font-size="10.00">_message</text>
</a>
</g>
</g>
<!-- Node1&#45;&gt;Node11 -->
<g id="edge10" class="edge">
<title>Node1&#45;&gt;Node11</title>
<path fill="none" stroke="midnightblue" d="M64.19,-210.44C76.41,-182.49 106.33,-122.49 150,-89.5 155.51,-85.34 161.75,-81.85 168.22,-78.93"/>
<polygon fill="midnightblue" stroke="midnightblue" points="169.86,-82.04 177.82,-75.05 167.23,-75.55 169.86,-82.04"/>
</g>
<!-- Node12 -->
<g id="node12" class="node">
<title>Node12</title>
<g id="a_node12"><a xlink:href="structft_1_1irc_1_1make__error.html#a67e1d93a440b1db3ddbf9bff22cd2d8b" target="_top" xlink:title=" ">
<polygon fill="white" stroke="black" points="166.5,-0.5 166.5,-30.5 287.5,-30.5 287.5,-0.5 166.5,-0.5"/>
<text text-anchor="start" x="174.5" y="-18.5" font-family="Helvetica,sans-Serif" font-size="10.00">ft::irc::make_error</text>
<text text-anchor="middle" x="227" y="-7.5" font-family="Helvetica,sans-Serif" font-size="10.00">::unknown_command</text>
</a>
</g>
</g>
<!-- Node1&#45;&gt;Node12 -->
<g id="edge11" class="edge">
<title>Node1&#45;&gt;Node12</title>
<path fill="none" stroke="midnightblue" d="M61.3,-210.35C69.74,-175.26 95.35,-87.81 150,-40.5 152.34,-38.47 154.85,-36.61 157.48,-34.9"/>
<polygon fill="midnightblue" stroke="midnightblue" points="159.27,-37.91 166.23,-29.93 155.81,-31.82 159.27,-37.91"/>
</g>
<!-- Node3 -->
<g id="node3" class="node">
<title>Node3</title>
<g id="a_node3"><a xlink:href="classft_1_1irc_1_1processor__dictionary.html#ad4ae0363dd8c877b12114b358b0c2673" target="_top" xlink:title=" ">
<polygon fill="white" stroke="black" points="340,-410.5 340,-440.5 435,-440.5 435,-410.5 340,-410.5"/>
<text text-anchor="start" x="348" y="-428.5" font-family="Helvetica,sans-Serif" font-size="10.00">ft::irc::processor</text>
<text text-anchor="middle" x="387.5" y="-417.5" font-family="Helvetica,sans-Serif" font-size="10.00">_dictionary::init</text>
</a>
</g>
</g>
<!-- Node2&#45;&gt;Node3 -->
<g id="edge2" class="edge">
<title>Node2&#45;&gt;Node3</title>
<path fill="none" stroke="midnightblue" d="M274.7,-425.5C291.95,-425.5 311.7,-425.5 329.75,-425.5"/>
<polygon fill="midnightblue" stroke="midnightblue" points="329.86,-429 339.86,-425.5 329.86,-422 329.86,-429"/>
</g>
</g>
</svg>
