<?xml version="1.0" encoding="UTF-8" standalone="no"?>
<!DOCTYPE svg PUBLIC "-//W3C//DTD SVG 1.1//EN"
 "http://www.w3.org/Graphics/SVG/1.1/DTD/svg11.dtd">
<!-- Generated by graphviz version 2.43.0 (0)
 -->
<!-- Title: ft::irc::user::get_nick Pages: 1 -->
<svg width="465pt" height="171pt"
 viewBox="0.00 0.00 465.00 171.00" xmlns="http://www.w3.org/2000/svg" xmlns:xlink="http://www.w3.org/1999/xlink">
<g id="graph0" class="graph" transform="scale(1 1) rotate(0) translate(4 167)">
<title>ft::irc::user::get_nick</title>
<polygon fill="white" stroke="transparent" points="-4,4 -4,-167 461,-167 461,4 -4,4"/>
<!-- Node1 -->
<g id="node1" class="node">
<title>Node1</title>
<g id="a_node1"><a xlink:title=" ">
<polygon fill="#bfbfbf" stroke="black" points="341,-72 341,-91 457,-91 457,-72 341,-72"/>
<text text-anchor="middle" x="399" y="-79" font-family="Helvetica,sans-Serif" font-size="10.00">ft::irc::user::get_nick</text>
</a>
</g>
</g>
<!-- Node2 -->
<g id="node2" class="node">
<title>Node2</title>
<g id="a_node2"><a xlink:href="classft_1_1irc_1_1channel.html#a0eb614161a17c1778de2b2443ea922e5" target="_top" xlink:title=" ">
<polygon fill="white" stroke="black" points="161,-138 161,-157 304,-157 304,-138 161,-138"/>
<text text-anchor="middle" x="232.5" y="-145" font-family="Helvetica,sans-Serif" font-size="10.00">ft::irc::channel::enter_user</text>
</a>
</g>
</g>
<!-- Node1&#45;&gt;Node2 -->
<g id="edge1" class="edge">
<title>Node1&#45;&gt;Node2</title>
<path fill="none" stroke="midnightblue" d="M372.8,-96.04C354.45,-106.18 328.75,-119.45 305,-128.5 295.52,-132.11 285.08,-135.3 275.18,-137.99"/>
<polygon fill="midnightblue" stroke="midnightblue" points="374.66,-99.01 381.67,-91.07 371.24,-92.9 374.66,-99.01"/>
</g>
<!-- Node4 -->
<g id="node4" class="node">
<title>Node4</title>
<g id="a_node4"><a xlink:href="classft_1_1irc_1_1processor__quit.html#a013c9c33d3e8cd471ca3de624447d359" target="_top" xlink:title=" ">
<polygon fill="white" stroke="black" points="185,-88.5 185,-118.5 280,-118.5 280,-88.5 185,-88.5"/>
<text text-anchor="start" x="193" y="-106.5" font-family="Helvetica,sans-Serif" font-size="10.00">ft::irc::processor</text>
<text text-anchor="middle" x="232.5" y="-95.5" font-family="Helvetica,sans-Serif" font-size="10.00">_quit::execute</text>
</a>
</g>
</g>
<!-- Node1&#45;&gt;Node4 -->
<g id="edge3" class="edge">
<title>Node1&#45;&gt;Node4</title>
<path fill="none" stroke="midnightblue" d="M331,-90.46C313.93,-92.74 295.94,-95.15 280.13,-97.26"/>
<polygon fill="midnightblue" stroke="midnightblue" points="331.48,-93.93 340.93,-89.13 330.55,-86.99 331.48,-93.93"/>
</g>
<!-- Node5 -->
<g id="node5" class="node">
<title>Node5</title>
<g id="a_node5"><a xlink:href="classft_1_1irc_1_1channel.html#a234b5979ee6b122dec7f2de82614c02a" target="_top" xlink:title=" ">
<polygon fill="white" stroke="black" points="160,-50 160,-69 305,-69 305,-50 160,-50"/>
<text text-anchor="middle" x="232.5" y="-57" font-family="Helvetica,sans-Serif" font-size="10.00">ft::irc::channel::leave_user</text>
</a>
</g>
</g>
<!-- Node1&#45;&gt;Node5 -->
<g id="edge4" class="edge">
<title>Node1&#45;&gt;Node5</title>
<path fill="none" stroke="midnightblue" d="M330.91,-72.53C322.26,-71.37 313.38,-70.18 304.67,-69.02"/>
<polygon fill="midnightblue" stroke="midnightblue" points="330.55,-76.01 340.93,-73.87 331.48,-69.07 330.55,-76.01"/>
</g>
<!-- Node8 -->
<g id="node8" class="node">
<title>Node8</title>
<g id="a_node8"><a xlink:href="structft_1_1irc_1_1user_1_1pred__equals__nick.html#aa4bfdd8756482385798ed7fd8197f1e1" target="_top" xlink:title=" ">
<polygon fill="white" stroke="black" points="165.5,-0.5 165.5,-30.5 299.5,-30.5 299.5,-0.5 165.5,-0.5"/>
<text text-anchor="start" x="173.5" y="-18.5" font-family="Helvetica,sans-Serif" font-size="10.00">ft::irc::user::pred</text>
<text text-anchor="middle" x="232.5" y="-7.5" font-family="Helvetica,sans-Serif" font-size="10.00">_equals_nick::operator()</text>
</a>
</g>
</g>
<!-- Node1&#45;&gt;Node8 -->
<g id="edge7" class="edge">
<title>Node1&#45;&gt;Node8</title>
<path fill="none" stroke="midnightblue" d="M368.07,-67.59C349.96,-59.35 326.33,-48.91 305,-40.5 296.44,-37.12 287.21,-33.72 278.33,-30.56"/>
<polygon fill="midnightblue" stroke="midnightblue" points="366.96,-70.93 377.51,-71.91 369.88,-64.56 366.96,-70.93"/>
</g>
<!-- Node3 -->
<g id="node3" class="node">
<title>Node3</title>
<g id="a_node3"><a xlink:href="classft_1_1irc_1_1processor__join.html#a7005b0403c1e6e10aa6f6f05339df357" target="_top" xlink:title=" ">
<polygon fill="white" stroke="black" points="14.5,-132.5 14.5,-162.5 109.5,-162.5 109.5,-132.5 14.5,-132.5"/>
<text text-anchor="start" x="22.5" y="-150.5" font-family="Helvetica,sans-Serif" font-size="10.00">ft::irc::processor</text>
<text text-anchor="middle" x="62" y="-139.5" font-family="Helvetica,sans-Serif" font-size="10.00">_join::execute</text>
</a>
</g>
</g>
<!-- Node2&#45;&gt;Node3 -->
<g id="edge2" class="edge">
<title>Node2&#45;&gt;Node3</title>
<path fill="none" stroke="midnightblue" d="M150.45,-147.5C136.56,-147.5 122.54,-147.5 109.93,-147.5"/>
<polygon fill="midnightblue" stroke="midnightblue" points="150.53,-151 160.53,-147.5 150.53,-144 150.53,-151"/>
</g>
<!-- Node6 -->
<g id="node6" class="node">
<title>Node6</title>
<g id="a_node6"><a xlink:href="classft_1_1irc_1_1user.html#af2aa8fcafc015de38938ccccfed4b1c9" target="_top" xlink:title=" ">
<polygon fill="white" stroke="black" points="0,-64.5 0,-94.5 124,-94.5 124,-64.5 0,-64.5"/>
<text text-anchor="start" x="8" y="-82.5" font-family="Helvetica,sans-Serif" font-size="10.00">ft::irc::user::deregister</text>
<text text-anchor="middle" x="62" y="-71.5" font-family="Helvetica,sans-Serif" font-size="10.00">_from_server</text>
</a>
</g>
</g>
<!-- Node5&#45;&gt;Node6 -->
<g id="edge5" class="edge">
<title>Node5&#45;&gt;Node6</title>
<path fill="none" stroke="midnightblue" d="M149.53,-69.23C140.97,-70.25 132.37,-71.27 124.1,-72.25"/>
<polygon fill="midnightblue" stroke="midnightblue" points="150.03,-72.69 159.55,-68.04 149.21,-65.74 150.03,-72.69"/>
</g>
<!-- Node7 -->
<g id="node7" class="node">
<title>Node7</title>
<g id="a_node7"><a xlink:href="classft_1_1irc_1_1processor__part.html#a4075107cb360cd04c0a11a9904104ad0" target="_top" xlink:title=" ">
<polygon fill="white" stroke="black" points="14.5,-15.5 14.5,-45.5 109.5,-45.5 109.5,-15.5 14.5,-15.5"/>
<text text-anchor="start" x="22.5" y="-33.5" font-family="Helvetica,sans-Serif" font-size="10.00">ft::irc::processor</text>
<text text-anchor="middle" x="62" y="-22.5" font-family="Helvetica,sans-Serif" font-size="10.00">_part::execute</text>
</a>
</g>
</g>
<!-- Node5&#45;&gt;Node7 -->
<g id="edge6" class="edge">
<title>Node5&#45;&gt;Node7</title>
<path fill="none" stroke="midnightblue" d="M165.87,-48.21C147.07,-44.97 126.97,-41.51 109.57,-38.52"/>
<polygon fill="midnightblue" stroke="midnightblue" points="165.41,-51.68 175.86,-49.92 166.6,-44.78 165.41,-51.68"/>
</g>
</g>
</svg>
