<?xml version="1.0" encoding="UTF-8" standalone="no"?>
<!DOCTYPE svg PUBLIC "-//W3C//DTD SVG 1.1//EN"
 "http://www.w3.org/Graphics/SVG/1.1/DTD/svg11.dtd">
<!-- Generated by graphviz version 2.43.0 (0)
 -->
<!-- Title: ft::irc::user::send_message Pages: 1 -->
<svg width="408pt" height="284pt"
 viewBox="0.00 0.00 408.00 284.00" xmlns="http://www.w3.org/2000/svg" xmlns:xlink="http://www.w3.org/1999/xlink">
<g id="graph0" class="graph" transform="scale(1 1) rotate(0) translate(4 280)">
<title>ft::irc::user::send_message</title>
<polygon fill="white" stroke="transparent" points="-4,4 -4,-280 404,-280 404,4 -4,4"/>
<!-- Node1 -->
<g id="node1" class="node">
<title>Node1</title>
<g id="a_node1"><a xlink:title=" ">
<polygon fill="#bfbfbf" stroke="black" points="302,-122.5 302,-152.5 400,-152.5 400,-122.5 302,-122.5"/>
<text text-anchor="start" x="310" y="-140.5" font-family="Helvetica,sans-Serif" font-size="10.00">ft::irc::user::send</text>
<text text-anchor="middle" x="351" y="-129.5" font-family="Helvetica,sans-Serif" font-size="10.00">_message</text>
</a>
</g>
</g>
<!-- Node2 -->
<g id="node2" class="node">
<title>Node2</title>
<g id="a_node2"><a xlink:href="classft_1_1irc_1_1processor__dictionary.html#a50bd8e9f89f6f6a911f5495272cd7d41" target="_top" xlink:title=" ">
<polygon fill="white" stroke="black" points="152,-245.5 152,-275.5 266,-275.5 266,-245.5 152,-245.5"/>
<text text-anchor="start" x="160" y="-263.5" font-family="Helvetica,sans-Serif" font-size="10.00">ft::irc::processor</text>
<text text-anchor="middle" x="209" y="-252.5" font-family="Helvetica,sans-Serif" font-size="10.00">_dictionary::execute</text>
</a>
</g>
</g>
<!-- Node1&#45;&gt;Node2 -->
<g id="edge1" class="edge">
<title>Node1&#45;&gt;Node2</title>
<path fill="none" stroke="midnightblue" d="M334.64,-161.27C319.43,-183.24 294.37,-215.55 266,-236.5 261.49,-239.83 256.45,-242.81 251.29,-245.44"/>
<polygon fill="midnightblue" stroke="midnightblue" points="337.64,-163.08 340.35,-152.83 331.84,-159.15 337.64,-163.08"/>
</g>
<!-- Node4 -->
<g id="node4" class="node">
<title>Node4</title>
<g id="a_node4"><a xlink:href="classft_1_1irc_1_1processor__join.html#a7005b0403c1e6e10aa6f6f05339df357" target="_top" xlink:title=" ">
<polygon fill="white" stroke="black" points="161.5,-196.5 161.5,-226.5 256.5,-226.5 256.5,-196.5 161.5,-196.5"/>
<text text-anchor="start" x="169.5" y="-214.5" font-family="Helvetica,sans-Serif" font-size="10.00">ft::irc::processor</text>
<text text-anchor="middle" x="209" y="-203.5" font-family="Helvetica,sans-Serif" font-size="10.00">_join::execute</text>
</a>
</g>
</g>
<!-- Node1&#45;&gt;Node4 -->
<g id="edge3" class="edge">
<title>Node1&#45;&gt;Node4</title>
<path fill="none" stroke="midnightblue" d="M317.93,-157.94C302.5,-167.43 283.57,-178.55 266,-187.5 259.97,-190.57 253.45,-193.61 247.07,-196.43"/>
<polygon fill="midnightblue" stroke="midnightblue" points="319.92,-160.83 326.57,-152.58 316.23,-154.88 319.92,-160.83"/>
</g>
<!-- Node5 -->
<g id="node5" class="node">
<title>Node5</title>
<g id="a_node5"><a xlink:href="classft_1_1irc_1_1processor__part.html#a4075107cb360cd04c0a11a9904104ad0" target="_top" xlink:title=" ">
<polygon fill="white" stroke="black" points="161.5,-147.5 161.5,-177.5 256.5,-177.5 256.5,-147.5 161.5,-147.5"/>
<text text-anchor="start" x="169.5" y="-165.5" font-family="Helvetica,sans-Serif" font-size="10.00">ft::irc::processor</text>
<text text-anchor="middle" x="209" y="-154.5" font-family="Helvetica,sans-Serif" font-size="10.00">_part::execute</text>
</a>
</g>
</g>
<!-- Node1&#45;&gt;Node5 -->
<g id="edge4" class="edge">
<title>Node1&#45;&gt;Node5</title>
<path fill="none" stroke="midnightblue" d="M291.75,-147.9C280.11,-149.98 268.04,-152.14 256.85,-154.13"/>
<polygon fill="midnightblue" stroke="midnightblue" points="292.59,-151.31 301.82,-146.1 291.36,-144.42 292.59,-151.31"/>
</g>
<!-- Node6 -->
<g id="node6" class="node">
<title>Node6</title>
<g id="a_node6"><a xlink:href="classft_1_1irc_1_1processor__pass.html#a8b0f8638123bb81ce8f4e493e43b45a0" target="_top" xlink:title=" ">
<polygon fill="white" stroke="black" points="161.5,-98.5 161.5,-128.5 256.5,-128.5 256.5,-98.5 161.5,-98.5"/>
<text text-anchor="start" x="169.5" y="-116.5" font-family="Helvetica,sans-Serif" font-size="10.00">ft::irc::processor</text>
<text text-anchor="middle" x="209" y="-105.5" font-family="Helvetica,sans-Serif" font-size="10.00">_pass::execute</text>
</a>
</g>
</g>
<!-- Node1&#45;&gt;Node6 -->
<g id="edge5" class="edge">
<title>Node1&#45;&gt;Node6</title>
<path fill="none" stroke="midnightblue" d="M291.75,-127.51C280.11,-125.52 268.04,-123.45 256.85,-121.53"/>
<polygon fill="midnightblue" stroke="midnightblue" points="291.37,-131 301.82,-129.24 292.56,-124.1 291.37,-131"/>
</g>
<!-- Node7 -->
<g id="node7" class="node">
<title>Node7</title>
<g id="a_node7"><a xlink:href="classft_1_1irc_1_1processor__nick.html#a7a2f0f709488328c04b6ccf0c41ce78e" target="_top" xlink:title=" ">
<polygon fill="white" stroke="black" points="161.5,-49.5 161.5,-79.5 256.5,-79.5 256.5,-49.5 161.5,-49.5"/>
<text text-anchor="start" x="169.5" y="-67.5" font-family="Helvetica,sans-Serif" font-size="10.00">ft::irc::processor</text>
<text text-anchor="middle" x="209" y="-56.5" font-family="Helvetica,sans-Serif" font-size="10.00">_nick::execute</text>
</a>
</g>
</g>
<!-- Node1&#45;&gt;Node7 -->
<g id="edge6" class="edge">
<title>Node1&#45;&gt;Node7</title>
<path fill="none" stroke="midnightblue" d="M316.01,-117.05C300.89,-108.23 282.75,-98 266,-89.5 259.35,-86.13 252.15,-82.73 245.2,-79.57"/>
<polygon fill="midnightblue" stroke="midnightblue" points="314.6,-120.29 324.99,-122.34 318.15,-114.25 314.6,-120.29"/>
</g>
<!-- Node8 -->
<g id="node8" class="node">
<title>Node8</title>
<g id="a_node8"><a xlink:href="classft_1_1irc_1_1processor__user.html#aa42b3fdd743060d5f9afaaff5e46e28f" target="_top" xlink:title=" ">
<polygon fill="white" stroke="black" points="161.5,-0.5 161.5,-30.5 256.5,-30.5 256.5,-0.5 161.5,-0.5"/>
<text text-anchor="start" x="169.5" y="-18.5" font-family="Helvetica,sans-Serif" font-size="10.00">ft::irc::processor</text>
<text text-anchor="middle" x="209" y="-7.5" font-family="Helvetica,sans-Serif" font-size="10.00">_user::execute</text>
</a>
</g>
</g>
<!-- Node1&#45;&gt;Node8 -->
<g id="edge7" class="edge">
<title>Node1&#45;&gt;Node8</title>
<path fill="none" stroke="midnightblue" d="M334.21,-113.96C318.85,-92.53 293.83,-61.15 266,-40.5 261.04,-36.82 255.45,-33.52 249.78,-30.63"/>
<polygon fill="midnightblue" stroke="midnightblue" points="331.38,-116.02 339.98,-122.2 337.11,-112.01 331.38,-116.02"/>
</g>
<!-- Node3 -->
<g id="node3" class="node">
<title>Node3</title>
<g id="a_node3"><a xlink:href="classft_1_1irc_1_1client__handler.html#a239d2ec2a936d74893455a83468669b3" target="_top" xlink:title=" ">
<polygon fill="white" stroke="black" points="0,-245.5 0,-275.5 116,-275.5 116,-245.5 0,-245.5"/>
<text text-anchor="start" x="8" y="-263.5" font-family="Helvetica,sans-Serif" font-size="10.00">ft::irc::client_handler</text>
<text text-anchor="middle" x="58" y="-252.5" font-family="Helvetica,sans-Serif" font-size="10.00">::on_read</text>
</a>
</g>
</g>
<!-- Node2&#45;&gt;Node3 -->
<g id="edge2" class="edge">
<title>Node2&#45;&gt;Node3</title>
<path fill="none" stroke="midnightblue" d="M141.54,-260.5C133.15,-260.5 124.63,-260.5 116.4,-260.5"/>
<polygon fill="midnightblue" stroke="midnightblue" points="141.67,-264 151.67,-260.5 141.67,-257 141.67,-264"/>
</g>
</g>
</svg>
