<?xml version="1.0" encoding="UTF-8" standalone="no"?>
<!DOCTYPE svg PUBLIC "-//W3C//DTD SVG 1.1//EN"
 "http://www.w3.org/Graphics/SVG/1.1/DTD/svg11.dtd">
<!-- Generated by graphviz version 2.43.0 (0)
 -->
<!-- Title: ft::irc::user::deregister_from_server Pages: 1 -->
<svg width="486pt" height="154pt"
 viewBox="0.00 0.00 486.00 154.00" xmlns="http://www.w3.org/2000/svg" xmlns:xlink="http://www.w3.org/1999/xlink">
<g id="graph0" class="graph" transform="scale(1 1) rotate(0) translate(4 150)">
<title>ft::irc::user::deregister_from_server</title>
<polygon fill="white" stroke="transparent" points="-4,4 -4,-150 482,-150 482,4 -4,4"/>
<!-- Node1 -->
<g id="node1" class="node">
<title>Node1</title>
<g id="a_node1"><a xlink:title=" ">
<polygon fill="#bfbfbf" stroke="black" points="0,-55 0,-85 124,-85 124,-55 0,-55"/>
<text text-anchor="start" x="8" y="-73" font-family="Helvetica,sans-Serif" font-size="10.00">ft::irc::user::deregister</text>
<text text-anchor="middle" x="62" y="-62" font-family="Helvetica,sans-Serif" font-size="10.00">_from_server</text>
</a>
</g>
</g>
<!-- Node2 -->
<g id="node2" class="node">
<title>Node2</title>
<g id="a_node2"><a xlink:href="classft_1_1irc_1_1server.html#a12f90407ddc81ee4ab362152740c0a0b" target="_top" xlink:title=" ">
<polygon fill="white" stroke="black" points="160,-126.5 160,-145.5 320,-145.5 320,-126.5 160,-126.5"/>
<text text-anchor="middle" x="240" y="-133.5" font-family="Helvetica,sans-Serif" font-size="10.00">ft::irc::server::deregister_user</text>
</a>
</g>
</g>
<!-- Node1&#45;&gt;Node2 -->
<g id="edge1" class="edge">
<title>Node1&#45;&gt;Node2</title>
<path fill="none" stroke="midnightblue" d="M90.33,-85.21C109.4,-95.32 135.69,-108.3 160,-117 167.11,-119.54 174.7,-121.86 182.26,-123.92"/>
<polygon fill="midnightblue" stroke="midnightblue" points="181.58,-127.36 192.14,-126.49 183.35,-120.58 181.58,-127.36"/>
</g>
<!-- Node3 -->
<g id="node3" class="node">
<title>Node3</title>
<g id="a_node3"><a xlink:href="classft_1_1irc_1_1server.html#a0e7dee7efef3f36af15d1a3b97f3bad9" target="_top" xlink:title=" ">
<polygon fill="white" stroke="black" points="189,-77 189,-107 291,-107 291,-77 189,-77"/>
<text text-anchor="start" x="197" y="-95" font-family="Helvetica,sans-Serif" font-size="10.00">ft::irc::server::find</text>
<text text-anchor="middle" x="240" y="-84" font-family="Helvetica,sans-Serif" font-size="10.00">_channel</text>
</a>
</g>
</g>
<!-- Node1&#45;&gt;Node3 -->
<g id="edge2" class="edge">
<title>Node1&#45;&gt;Node3</title>
<path fill="none" stroke="midnightblue" d="M124.06,-77.63C141.74,-79.84 161.02,-82.25 178.66,-84.46"/>
<polygon fill="midnightblue" stroke="midnightblue" points="178.47,-87.96 188.82,-85.73 179.34,-81.01 178.47,-87.96"/>
</g>
<!-- Node4 -->
<g id="node4" class="node">
<title>Node4</title>
<g id="a_node4"><a xlink:href="classft_1_1irc_1_1channel.html#a234b5979ee6b122dec7f2de82614c02a" target="_top" xlink:title=" ">
<polygon fill="white" stroke="black" points="167.5,-38.5 167.5,-57.5 312.5,-57.5 312.5,-38.5 167.5,-38.5"/>
<text text-anchor="middle" x="240" y="-45.5" font-family="Helvetica,sans-Serif" font-size="10.00">ft::irc::channel::leave_user</text>
</a>
</g>
</g>
<!-- Node1&#45;&gt;Node4 -->
<g id="edge3" class="edge">
<title>Node1&#45;&gt;Node4</title>
<path fill="none" stroke="midnightblue" d="M124.06,-62.37C134.78,-61.03 146.09,-59.61 157.26,-58.22"/>
<polygon fill="midnightblue" stroke="midnightblue" points="157.97,-61.66 167.46,-56.94 157.11,-54.71 157.97,-61.66"/>
</g>
<!-- Node7 -->
<g id="node7" class="node">
<title>Node7</title>
<g id="a_node7"><a xlink:href="classft_1_1irc_1_1server.html#a2f4c8826af7867f18ed67c1b9dabf65f" target="_top" xlink:title=" ">
<polygon fill="white" stroke="black" points="167,-0.5 167,-19.5 313,-19.5 313,-0.5 167,-0.5"/>
<text text-anchor="middle" x="240" y="-7.5" font-family="Helvetica,sans-Serif" font-size="10.00">ft::irc::server::release_nick</text>
</a>
</g>
</g>
<!-- Node1&#45;&gt;Node7 -->
<g id="edge6" class="edge">
<title>Node1&#45;&gt;Node7</title>
<path fill="none" stroke="midnightblue" d="M94.83,-54.99C113.52,-46.57 137.77,-36.32 160,-29 167.62,-26.49 175.75,-24.16 183.8,-22.05"/>
<polygon fill="midnightblue" stroke="midnightblue" points="184.69,-25.44 193.52,-19.59 182.97,-18.65 184.69,-25.44"/>
</g>
<!-- Node5 -->
<g id="node5" class="node">
<title>Node5</title>
<g id="a_node5"><a xlink:href="classft_1_1irc_1_1user.html#af40c547a4bf5e10f4f4bb74936fe6d9e" target="_top" xlink:title=" ">
<polygon fill="white" stroke="black" points="359,-60.5 359,-79.5 475,-79.5 475,-60.5 359,-60.5"/>
<text text-anchor="middle" x="417" y="-67.5" font-family="Helvetica,sans-Serif" font-size="10.00">ft::irc::user::get_nick</text>
</a>
</g>
</g>
<!-- Node4&#45;&gt;Node5 -->
<g id="edge4" class="edge">
<title>Node4&#45;&gt;Node5</title>
<path fill="none" stroke="midnightblue" d="M312.68,-57.01C324.58,-58.51 336.89,-60.05 348.67,-61.54"/>
<polygon fill="midnightblue" stroke="midnightblue" points="348.52,-65.04 358.88,-62.82 349.39,-58.1 348.52,-65.04"/>
</g>
<!-- Node6 -->
<g id="node6" class="node">
<title>Node6</title>
<g id="a_node6"><a xlink:href="classft_1_1irc_1_1server.html#a9fff5c3bf3c7142c557cafbfd22f7767" target="_top" xlink:title=" ">
<polygon fill="white" stroke="black" points="356,-11 356,-41 478,-41 478,-11 356,-11"/>
<text text-anchor="start" x="364" y="-29" font-family="Helvetica,sans-Serif" font-size="10.00">ft::irc::server::remove</text>
<text text-anchor="middle" x="417" y="-18" font-family="Helvetica,sans-Serif" font-size="10.00">_channel</text>
</a>
</g>
</g>
<!-- Node4&#45;&gt;Node6 -->
<g id="edge5" class="edge">
<title>Node4&#45;&gt;Node6</title>
<path fill="none" stroke="midnightblue" d="M312.68,-38.99C323.67,-37.61 335,-36.18 345.95,-34.81"/>
<polygon fill="midnightblue" stroke="midnightblue" points="346.39,-38.28 355.87,-33.56 345.52,-31.33 346.39,-38.28"/>
</g>
</g>
</svg>
