<?xml version="1.0" encoding="UTF-8" standalone="no"?>
<!DOCTYPE svg PUBLIC "-//W3C//DTD SVG 1.1//EN"
 "http://www.w3.org/Graphics/SVG/1.1/DTD/svg11.dtd">
<!-- Generated by graphviz version 2.43.0 (0)
 -->
<!-- Title: ft::irc::processor_join::execute Pages: 1 -->
<!--zoomable 733 -->
<svg id="main" version="1.1" xmlns="http://www.w3.org/2000/svg" xmlns:xlink="http://www.w3.org/1999/xlink" xml:space="preserve" onload="init(evt)">
<style type="text/css"><![CDATA[
.edge:hover path { stroke: red; }
.edge:hover polygon { stroke: red; fill: red; }
]]></style>
<script type="text/javascript"><![CDATA[
var edges = document.getElementsByTagName('g');
if (edges && edges.length) {
  for (var i=0;i<edges.length;i++) {
    if (edges[i].id.substr(0,4)=='edge') {
      edges[i].setAttribute('class','edge');
    }
  }
}
]]></script>
        <defs>
                <circle id="rim" cx="0" cy="0" r="7"/>
                <circle id="rim2" cx="0" cy="0" r="3.5"/>
                <g id="zoomPlus">
                        <use xlink:href="#rim" fill="#404040">
                                <set attributeName="fill" to="#808080" begin="zoomplus.mouseover" end="zoomplus.mouseout"/>
                        </use>
                        <path d="M-4,0h8M0,-4v8" fill="none" stroke="white" stroke-width="1.5" pointer-events="none"/>
                </g>
                <g id="zoomMin">
                        <use xlink:href="#rim" fill="#404040">
                                <set attributeName="fill" to="#808080" begin="zoomminus.mouseover" end="zoomminus.mouseout"/>
                        </use>
                        <path d="M-4,0h8" fill="none" stroke="white" stroke-width="1.5" pointer-events="none"/>
                </g>
                <g id="dirArrow">
                        <path fill="none" stroke="white" stroke-width="1.5" d="M0,-3.0v7 M-2.5,-0.5L0,-3.0L2.5,-0.5"/>
                </g>
               <g id="resetDef">
                       <use xlink:href="#rim2" fill="#404040">
                               <set attributeName="fill" to="#808080" begin="reset.mouseover" end="reset.mouseout"/>
                       </use>
               </g>
        </defs>

<script type="text/javascript">
var viewWidth = 445;
var viewHeight = 733;
var sectionId = 'dynsection-2';
</script>
<script xlink:href="svgpan.js"/>
<svg id="graph" class="graph">
<g id="viewport">
<title>ft::irc::processor_join::execute</title>
<polygon fill="white" stroke="transparent" points="-4,4 -4,-729 441,-729 441,4 -4,4"/>
<!-- Node1 -->
<g id="node1" class="node">
<title>Node1</title>
<g id="a_node1"><a xlink:title=" ">
<polygon fill="#bfbfbf" stroke="black" points="0,-347.5 0,-377.5 95,-377.5 95,-347.5 0,-347.5"/>
<text text-anchor="start" x="8" y="-365.5" font-family="Helvetica,sans-Serif" font-size="10.00">ft::irc::processor</text>
<text text-anchor="middle" x="47.5" y="-354.5" font-family="Helvetica,sans-Serif" font-size="10.00">_join::execute</text>
</a>
</g>
</g>
<!-- Node2 -->
<g id="node2" class="node">
<title>Node2</title>
<g id="a_node2"><a xlink:href="structft_1_1irc_1_1make__error.html#a86cfaaf2f57c77ec211b569b30a4322f" target="_top" xlink:title=" ">
<polygon fill="white" stroke="black" points="154.5,-694.5 154.5,-724.5 261.5,-724.5 261.5,-694.5 154.5,-694.5"/>
<text text-anchor="start" x="162.5" y="-712.5" font-family="Helvetica,sans-Serif" font-size="10.00">ft::irc::make_error</text>
<text text-anchor="middle" x="208" y="-701.5" font-family="Helvetica,sans-Serif" font-size="10.00">::bad_channel_key</text>
</a>
</g>
</g>
<!-- Node1&#45;&gt;Node2 -->
<g id="edge1" class="edge">
<title>Node1&#45;&gt;Node2</title>
<path fill="none" stroke="midnightblue" d="M50.39,-377.51C57.9,-434.88 87.36,-639.35 131,-685.5 135.08,-689.82 139.93,-693.36 145.17,-696.27"/>
<polygon fill="midnightblue" stroke="midnightblue" points="143.77,-699.47 154.31,-700.59 146.76,-693.15 143.77,-699.47"/>
</g>
<!-- Node3 -->
<g id="node3" class="node">
<title>Node3</title>
<g id="a_node3"><a xlink:href="structft_1_1irc_1_1make__error.html#a31a17f572a4ebafb6a40c1fbe972e679" target="_top" xlink:title=" ">
<polygon fill="white" stroke="black" points="142.5,-645.5 142.5,-675.5 273.5,-675.5 273.5,-645.5 142.5,-645.5"/>
<text text-anchor="start" x="150.5" y="-663.5" font-family="Helvetica,sans-Serif" font-size="10.00">ft::irc::make_error</text>
<text text-anchor="middle" x="208" y="-652.5" font-family="Helvetica,sans-Serif" font-size="10.00">::banned_from_channel</text>
</a>
</g>
</g>
<!-- Node1&#45;&gt;Node3 -->
<g id="edge2" class="edge">
<title>Node1&#45;&gt;Node3</title>
<path fill="none" stroke="midnightblue" d="M48.42,-377.68C49.03,-423.48 57.2,-561.71 131,-636.5 132.06,-637.58 133.17,-638.61 134.33,-639.59"/>
<polygon fill="midnightblue" stroke="midnightblue" points="132.31,-642.45 142.48,-645.43 136.39,-636.76 132.31,-642.45"/>
</g>
<!-- Node4 -->
<g id="node4" class="node">
<title>Node4</title>
<g id="a_node4"><a xlink:href="classft_1_1irc_1_1user.html#ad9cf185a314b035b4613b26495032c54" target="_top" xlink:title=" ">
<polygon fill="white" stroke="black" points="151.5,-596.5 151.5,-626.5 264.5,-626.5 264.5,-596.5 151.5,-596.5"/>
<text text-anchor="start" x="159.5" y="-614.5" font-family="Helvetica,sans-Serif" font-size="10.00">ft::irc::user::channel</text>
<text text-anchor="middle" x="208" y="-603.5" font-family="Helvetica,sans-Serif" font-size="10.00">_count</text>
</a>
</g>
</g>
<!-- Node1&#45;&gt;Node4 -->
<g id="edge3" class="edge">
<title>Node1&#45;&gt;Node4</title>
<path fill="none" stroke="midnightblue" d="M49.57,-377.53C53.22,-417.61 68.73,-528 131,-587.5 134.35,-590.71 138.13,-593.48 142.17,-595.89"/>
<polygon fill="midnightblue" stroke="midnightblue" points="140.85,-599.15 151.35,-600.59 144.04,-592.92 140.85,-599.15"/>
</g>
<!-- Node5 -->
<g id="node5" class="node">
<title>Node5</title>
<g id="a_node5"><a xlink:href="structft_1_1irc_1_1make__error.html#a457e9a19162dbe3c7ce8f388eb7df256" target="_top" xlink:title=" ">
<polygon fill="white" stroke="black" points="156.5,-547.5 156.5,-577.5 259.5,-577.5 259.5,-547.5 156.5,-547.5"/>
<text text-anchor="start" x="164.5" y="-565.5" font-family="Helvetica,sans-Serif" font-size="10.00">ft::irc::make_error</text>
<text text-anchor="middle" x="208" y="-554.5" font-family="Helvetica,sans-Serif" font-size="10.00">::channel_is_full</text>
</a>
</g>
</g>
<!-- Node1&#45;&gt;Node5 -->
<g id="edge4" class="edge">
<title>Node1&#45;&gt;Node5</title>
<path fill="none" stroke="midnightblue" d="M51.33,-377.7C58.43,-411.63 80.22,-494.04 131,-538.5 135.78,-542.69 141.3,-546.14 147.12,-549"/>
<polygon fill="midnightblue" stroke="midnightblue" points="145.91,-552.29 156.48,-553.01 148.67,-545.85 145.91,-552.29"/>
</g>
<!-- Node6 -->
<g id="node6" class="node">
<title>Node6</title>
<g id="a_node6"><a xlink:href="classft_1_1irc_1_1server.html#a5cfa990dde96357ed1af1e1e1b0e4f7d" target="_top" xlink:title=" ">
<polygon fill="white" stroke="black" points="149.5,-498.5 149.5,-528.5 266.5,-528.5 266.5,-498.5 149.5,-498.5"/>
<text text-anchor="start" x="157.5" y="-516.5" font-family="Helvetica,sans-Serif" font-size="10.00">ft::irc::server::ensure</text>
<text text-anchor="middle" x="208" y="-505.5" font-family="Helvetica,sans-Serif" font-size="10.00">_channel</text>
</a>
</g>
</g>
<!-- Node1&#45;&gt;Node6 -->
<g id="edge5" class="edge">
<title>Node1&#45;&gt;Node6</title>
<path fill="none" stroke="midnightblue" d="M54.44,-377.69C65.51,-404.08 91.79,-458.42 131,-488.5 133.93,-490.75 137.07,-492.79 140.34,-494.66"/>
<polygon fill="midnightblue" stroke="midnightblue" points="138.77,-497.79 149.27,-499.2 141.94,-491.55 138.77,-497.79"/>
</g>
<!-- Node7 -->
<g id="node7" class="node">
<title>Node7</title>
<g id="a_node7"><a xlink:href="classft_1_1irc_1_1channel.html#a0eb614161a17c1778de2b2443ea922e5" target="_top" xlink:title=" ">
<polygon fill="white" stroke="black" points="136.5,-460 136.5,-479 279.5,-479 279.5,-460 136.5,-460"/>
<text text-anchor="middle" x="208" y="-467" font-family="Helvetica,sans-Serif" font-size="10.00">ft::irc::channel::enter_user</text>
</a>
</g>
</g>
<!-- Node1&#45;&gt;Node7 -->
<g id="edge6" class="edge">
<title>Node1&#45;&gt;Node7</title>
<path fill="none" stroke="midnightblue" d="M58.56,-377.78C72.45,-397.63 99.4,-431.93 131,-450.5 134.69,-452.67 138.63,-454.59 142.69,-456.3"/>
<polygon fill="midnightblue" stroke="midnightblue" points="141.75,-459.68 152.34,-459.9 144.19,-453.12 141.75,-459.68"/>
</g>
<!-- Node9 -->
<g id="node9" class="node">
<title>Node9</title>
<g id="a_node9"><a xlink:href="classft_1_1irc_1_1channel.html#a5bbaa158b69ee9de49c3402cb76c7e09" target="_top" xlink:title=" ">
<polygon fill="white" stroke="black" points="138,-422 138,-441 278,-441 278,-422 138,-422"/>
<text text-anchor="middle" x="208" y="-429" font-family="Helvetica,sans-Serif" font-size="10.00">ft::irc::channel::get_name</text>
</a>
</g>
</g>
<!-- Node1&#45;&gt;Node9 -->
<g id="edge8" class="edge">
<title>Node1&#45;&gt;Node9</title>
<path fill="none" stroke="midnightblue" d="M69.27,-377.51C85.42,-388.56 108.74,-403.22 131,-412.5 136.85,-414.94 143.09,-417.12 149.38,-419.05"/>
<polygon fill="midnightblue" stroke="midnightblue" points="148.68,-422.49 159.26,-421.89 150.62,-415.77 148.68,-422.49"/>
</g>
<!-- Node10 -->
<g id="node10" class="node">
<title>Node10</title>
<g id="a_node10"><a xlink:href="classft_1_1irc_1_1user.html#ae476cc31795df7fbb726b193ab887e75" target="_top" xlink:title=" ">
<polygon fill="white" stroke="black" points="163,-372.5 163,-402.5 253,-402.5 253,-372.5 163,-372.5"/>
<text text-anchor="start" x="171" y="-390.5" font-family="Helvetica,sans-Serif" font-size="10.00">ft::irc::user::get</text>
<text text-anchor="middle" x="208" y="-379.5" font-family="Helvetica,sans-Serif" font-size="10.00">_server</text>
</a>
</g>
</g>
<!-- Node1&#45;&gt;Node10 -->
<g id="edge9" class="edge">
<title>Node1&#45;&gt;Node10</title>
<path fill="none" stroke="midnightblue" d="M95.2,-369.87C113.31,-372.72 134.17,-376.01 152.93,-378.97"/>
<polygon fill="midnightblue" stroke="midnightblue" points="152.39,-382.43 162.81,-380.53 153.48,-375.51 152.39,-382.43"/>
</g>
<!-- Node11 -->
<g id="node11" class="node">
<title>Node11</title>
<g id="a_node11"><a xlink:href="structft_1_1irc_1_1make__error.html#a940c40574d12fc35b96c673f5084dd38" target="_top" xlink:title=" ">
<polygon fill="white" stroke="black" points="148,-323.5 148,-353.5 268,-353.5 268,-323.5 148,-323.5"/>
<text text-anchor="start" x="156" y="-341.5" font-family="Helvetica,sans-Serif" font-size="10.00">ft::irc::make_error</text>
<text text-anchor="middle" x="208" y="-330.5" font-family="Helvetica,sans-Serif" font-size="10.00">::invite_only_channel</text>
</a>
</g>
</g>
<!-- Node1&#45;&gt;Node11 -->
<g id="edge10" class="edge">
<title>Node1&#45;&gt;Node11</title>
<path fill="none" stroke="midnightblue" d="M95.2,-355.43C108.63,-353.4 123.57,-351.13 138.04,-348.94"/>
<polygon fill="midnightblue" stroke="midnightblue" points="138.6,-352.4 147.96,-347.44 137.55,-345.48 138.6,-352.4"/>
</g>
<!-- Node12 -->
<g id="node12" class="node">
<title>Node12</title>
<g id="a_node12"><a xlink:href="structft_1_1irc_1_1string__utils.html#a38cd804a5b73843f0fd63a027dd0dee0" target="_top" xlink:title=" ">
<polygon fill="white" stroke="black" points="142.5,-274.5 142.5,-304.5 273.5,-304.5 273.5,-274.5 142.5,-274.5"/>
<text text-anchor="start" x="150.5" y="-292.5" font-family="Helvetica,sans-Serif" font-size="10.00">ft::irc::string_utils</text>
<text text-anchor="middle" x="208" y="-281.5" font-family="Helvetica,sans-Serif" font-size="10.00">::is_valid_channelname</text>
</a>
</g>
</g>
<!-- Node1&#45;&gt;Node12 -->
<g id="edge11" class="edge">
<title>Node1&#45;&gt;Node12</title>
<path fill="none" stroke="midnightblue" d="M71.63,-347.28C87.8,-337.09 110.14,-323.87 131,-314.5 135.99,-312.26 141.24,-310.11 146.56,-308.09"/>
<polygon fill="midnightblue" stroke="midnightblue" points="147.96,-311.31 156.15,-304.59 145.56,-304.73 147.96,-311.31"/>
</g>
<!-- Node13 -->
<g id="node13" class="node">
<title>Node13</title>
<g id="a_node13"><a xlink:href="classft_1_1irc_1_1user.html#af78a2901a6ffa0a6b2cbfc8a8e83bcaf" target="_top" xlink:title=" ">
<polygon fill="white" stroke="black" points="162,-225.5 162,-255.5 254,-255.5 254,-225.5 162,-225.5"/>
<text text-anchor="start" x="170" y="-243.5" font-family="Helvetica,sans-Serif" font-size="10.00">ft::irc::user::join</text>
<text text-anchor="middle" x="208" y="-232.5" font-family="Helvetica,sans-Serif" font-size="10.00">_channel</text>
</a>
</g>
</g>
<!-- Node1&#45;&gt;Node13 -->
<g id="edge12" class="edge">
<title>Node1&#45;&gt;Node13</title>
<path fill="none" stroke="midnightblue" d="M57.49,-347.44C70.91,-326.21 98.16,-287.58 131,-265.5 137.48,-261.14 144.79,-257.49 152.24,-254.45"/>
<polygon fill="midnightblue" stroke="midnightblue" points="153.56,-257.69 161.7,-250.91 151.11,-251.13 153.56,-257.69"/>
</g>
<!-- Node14 -->
<g id="node14" class="node">
<title>Node14</title>
<g id="a_node14"><a xlink:href="structft_1_1irc_1_1make__error.html#a8ad003c713b8ee5ebbf4691dd2be83fe" target="_top" xlink:title=" ">
<polygon fill="white" stroke="black" points="155,-176.5 155,-206.5 261,-206.5 261,-176.5 155,-176.5"/>
<text text-anchor="start" x="163" y="-194.5" font-family="Helvetica,sans-Serif" font-size="10.00">ft::irc::make_error</text>
<text text-anchor="middle" x="208" y="-183.5" font-family="Helvetica,sans-Serif" font-size="10.00">::no_such_channel</text>
</a>
</g>
</g>
<!-- Node1&#45;&gt;Node14 -->
<g id="edge13" class="edge">
<title>Node1&#45;&gt;Node14</title>
<path fill="none" stroke="midnightblue" d="M52.99,-347.26C62.47,-317.7 87.34,-252.33 131,-216.5 135.36,-212.92 140.25,-209.85 145.4,-207.21"/>
<polygon fill="midnightblue" stroke="midnightblue" points="147.2,-210.24 154.87,-202.92 144.31,-203.86 147.2,-210.24"/>
</g>
<!-- Node15 -->
<g id="node15" class="node">
<title>Node15</title>
<g id="a_node15"><a xlink:href="classft_1_1irc_1_1message.html#a34f457ead0453ad914af2cb0482a40b9" target="_top" xlink:title=" ">
<polygon fill="white" stroke="black" points="131,-138 131,-157 285,-157 285,-138 131,-138"/>
<text text-anchor="middle" x="208" y="-145" font-family="Helvetica,sans-Serif" font-size="10.00">ft::irc::message::param_size</text>
</a>
</g>
</g>
<!-- Node1&#45;&gt;Node15 -->
<g id="edge14" class="edge">
<title>Node1&#45;&gt;Node15</title>
<path fill="none" stroke="midnightblue" d="M50.35,-347.44C55.68,-310.81 74.46,-216.48 131,-167.5 133.4,-165.42 135.99,-163.56 138.71,-161.88"/>
<polygon fill="midnightblue" stroke="midnightblue" points="140.55,-164.87 147.82,-157.16 137.33,-158.66 140.55,-164.87"/>
</g>
<!-- Node16 -->
<g id="node16" class="node">
<title>Node16</title>
<g id="a_node16"><a xlink:href="classft_1_1irc_1_1user.html#a1db558d6d694ca943224c2440fe36c50" target="_top" xlink:title=" ">
<polygon fill="white" stroke="black" points="159,-88.5 159,-118.5 257,-118.5 257,-88.5 159,-88.5"/>
<text text-anchor="start" x="167" y="-106.5" font-family="Helvetica,sans-Serif" font-size="10.00">ft::irc::user::send</text>
<text text-anchor="middle" x="208" y="-95.5" font-family="Helvetica,sans-Serif" font-size="10.00">_message</text>
</a>
</g>
</g>
<!-- Node1&#45;&gt;Node16 -->
<g id="edge15" class="edge">
<title>Node1&#45;&gt;Node16</title>
<path fill="none" stroke="midnightblue" d="M49.38,-347.22C52.6,-305.93 67.13,-191.03 131,-128.5 136.25,-123.36 142.59,-119.27 149.32,-116.03"/>
<polygon fill="midnightblue" stroke="midnightblue" points="150.83,-119.19 158.7,-112.1 148.12,-112.73 150.83,-119.19"/>
</g>
<!-- Node17 -->
<g id="node17" class="node">
<title>Node17</title>
<g id="a_node17"><a xlink:href="classft_1_1irc_1_1message.html#adf434fdc28e74fb166c6046c0ac5c6d5" target="_top" xlink:title=" ">
<polygon fill="white" stroke="black" points="148.5,-50 148.5,-69 267.5,-69 267.5,-50 148.5,-50"/>
<text text-anchor="middle" x="208" y="-57" font-family="Helvetica,sans-Serif" font-size="10.00">ft::irc::message::split</text>
</a>
</g>
</g>
<!-- Node1&#45;&gt;Node17 -->
<g id="edge16" class="edge">
<title>Node1&#45;&gt;Node17</title>
<path fill="none" stroke="midnightblue" d="M48.09,-347.34C47.68,-300.28 53.1,-155.38 131,-79.5 133.57,-77 136.41,-74.8 139.45,-72.86"/>
<polygon fill="midnightblue" stroke="midnightblue" points="141.24,-75.87 148.44,-68.1 137.96,-69.69 141.24,-75.87"/>
</g>
<!-- Node18 -->
<g id="node18" class="node">
<title>Node18</title>
<g id="a_node18"><a xlink:href="structft_1_1irc_1_1make__error.html#af6a6f095493c0242bce7ecac3463753b" target="_top" xlink:title=" ">
<polygon fill="white" stroke="black" points="148,-0.5 148,-30.5 268,-30.5 268,-0.5 148,-0.5"/>
<text text-anchor="start" x="156" y="-18.5" font-family="Helvetica,sans-Serif" font-size="10.00">ft::irc::make_error</text>
<text text-anchor="middle" x="208" y="-7.5" font-family="Helvetica,sans-Serif" font-size="10.00">::too_many_channels</text>
</a>
</g>
</g>
<!-- Node1&#45;&gt;Node18 -->
<g id="edge17" class="edge">
<title>Node1&#45;&gt;Node18</title>
<path fill="none" stroke="midnightblue" d="M50.47,-347.16C58.15,-289.49 87.84,-86.65 131,-40.5 133.45,-37.88 136.17,-35.54 139.09,-33.44"/>
<polygon fill="midnightblue" stroke="midnightblue" points="141.06,-36.35 147.78,-28.16 137.42,-30.37 141.06,-36.35"/>
</g>
<!-- Node8 -->
<g id="node8" class="node">
<title>Node8</title>
<g id="a_node8"><a xlink:href="classft_1_1irc_1_1user.html#af40c547a4bf5e10f4f4bb74936fe6d9e" target="_top" xlink:title=" ">
<polygon fill="white" stroke="black" points="321,-460 321,-479 437,-479 437,-460 321,-460"/>
<text text-anchor="middle" x="379" y="-467" font-family="Helvetica,sans-Serif" font-size="10.00">ft::irc::user::get_nick</text>
</a>
</g>
</g>
<!-- Node7&#45;&gt;Node8 -->
<g id="edge7" class="edge">
<title>Node7&#45;&gt;Node8</title>
<path fill="none" stroke="midnightblue" d="M279.69,-469.5C290,-469.5 300.6,-469.5 310.83,-469.5"/>
<polygon fill="midnightblue" stroke="midnightblue" points="310.93,-473 320.93,-469.5 310.93,-466 310.93,-473"/>
</g>
</g>
</svg>
        <g id="navigator" transform="translate(0 0)" fill="#404254">
                <rect fill="#f2f5e9" fill-opacity="0.5" stroke="#606060" stroke-width=".5" x="0" y="0" width="60" height="60"/>
                <use id="zoomplus" xlink:href="#zoomPlus" x="17" y="9" onmousedown="handleZoom(evt,'in')"/>
                <use id="zoomminus" xlink:href="#zoomMin" x="42" y="9" onmousedown="handleZoom(evt,'out')"/>
                <use id="reset" xlink:href="#resetDef" x="30" y="36" onmousedown="handleReset()"/>
                <g id="arrowUp" xlink:href="#dirArrow" transform="translate(30 24)" onmousedown="handlePan(0,-1)">
                  <use xlink:href="#rim" fill="#404040">
                        <set attributeName="fill" to="#808080" begin="arrowUp.mouseover" end="arrowUp.mouseout"/>
                  </use>
                  <path fill="none" stroke="white" stroke-width="1.5" d="M0,-3.0v7 M-2.5,-0.5L0,-3.0L2.5,-0.5"/>
                </g>
                <g id="arrowRight" xlink:href="#dirArrow" transform="rotate(90) translate(36 -43)" onmousedown="handlePan(1,0)">
                  <use xlink:href="#rim" fill="#404040">
                        <set attributeName="fill" to="#808080" begin="arrowRight.mouseover" end="arrowRight.mouseout"/>
                  </use>
                  <path fill="none" stroke="white" stroke-width="1.5" d="M0,-3.0v7 M-2.5,-0.5L0,-3.0L2.5,-0.5"/>
                </g>
                <g id="arrowDown" xlink:href="#dirArrow" transform="rotate(180) translate(-30 -48)" onmousedown="handlePan(0,1)">
                  <use xlink:href="#rim" fill="#404040">
                        <set attributeName="fill" to="#808080" begin="arrowDown.mouseover" end="arrowDown.mouseout"/>
                  </use>
                  <path fill="none" stroke="white" stroke-width="1.5" d="M0,-3.0v7 M-2.5,-0.5L0,-3.0L2.5,-0.5"/>
                </g>
                <g id="arrowLeft" xlink:href="#dirArrow" transform="rotate(270) translate(-36 17)" onmousedown="handlePan(-1,0)">
                  <use xlink:href="#rim" fill="#404040">
                        <set attributeName="fill" to="#808080" begin="arrowLeft.mouseover" end="arrowLeft.mouseout"/>
                  </use>
                  <path fill="none" stroke="white" stroke-width="1.5" d="M0,-3.0v7 M-2.5,-0.5L0,-3.0L2.5,-0.5"/>
                </g>
        </g>
        <svg viewBox="0 0 15 15" width="100%" height="30px" preserveAspectRatio="xMaxYMin meet">
         <g id="arrow_out" transform="scale(0.3 0.3)">
          <a xlink:href="classft_1_1irc_1_1processor__join_a7005b0403c1e6e10aa6f6f05339df357_cgraph_org.svg" target="_base">
           <rect id="button" ry="5" rx="5" y="6" x="6" height="38" width="38"
                fill="#f2f5e9" fill-opacity="0.5" stroke="#606060" stroke-width="1.0"/>
           <path id="arrow"
             d="M 11.500037,31.436501 C 11.940474,20.09759 22.043105,11.32322 32.158766,21.979434 L 37.068811,17.246167 C 37.068811,17.246167 37.088388,32 37.088388,32 L 22.160133,31.978069 C 22.160133,31.978069 26.997745,27.140456 26.997745,27.140456 C 18.528582,18.264221 13.291696,25.230495 11.500037,31.436501 z"
             style="fill:#404040;"/>
          </a>
         </g>
        </svg>
</svg>
