<?xml version="1.0" encoding="UTF-8" standalone="no"?>
<!DOCTYPE svg PUBLIC "-//W3C//DTD SVG 1.1//EN"
 "http://www.w3.org/Graphics/SVG/1.1/DTD/svg11.dtd">
<!-- Generated by graphviz version 2.43.0 (0)
 -->
<!-- Title: ft::irc::processor_user::execute Pages: 1 -->
<svg width="460pt" height="470pt"
 viewBox="0.00 0.00 460.00 470.00" xmlns="http://www.w3.org/2000/svg" xmlns:xlink="http://www.w3.org/1999/xlink">
<g id="graph0" class="graph" transform="scale(1 1) rotate(0) translate(4 466)">
<title>ft::irc::processor_user::execute</title>
<polygon fill="white" stroke="transparent" points="-4,4 -4,-466 456,-466 456,4 -4,4"/>
<!-- Node1 -->
<g id="node1" class="node">
<title>Node1</title>
<g id="a_node1"><a xlink:title=" ">
<polygon fill="#bfbfbf" stroke="black" points="0,-220.5 0,-250.5 95,-250.5 95,-220.5 0,-220.5"/>
<text text-anchor="start" x="8" y="-238.5" font-family="Helvetica,sans-Serif" font-size="10.00">ft::irc::processor</text>
<text text-anchor="middle" x="47.5" y="-227.5" font-family="Helvetica,sans-Serif" font-size="10.00">_user::execute</text>
</a>
</g>
</g>
<!-- Node2 -->
<g id="node2" class="node">
<title>Node2</title>
<g id="a_node2"><a xlink:href="structft_1_1irc_1_1make__error.html#a6f8fa7cb4070da5f43099f44a0cb6c66" target="_top" xlink:title=" ">
<polygon fill="white" stroke="black" points="142.5,-431.5 142.5,-461.5 256.5,-461.5 256.5,-431.5 142.5,-431.5"/>
<text text-anchor="start" x="150.5" y="-449.5" font-family="Helvetica,sans-Serif" font-size="10.00">ft::irc::make_error</text>
<text text-anchor="middle" x="199.5" y="-438.5" font-family="Helvetica,sans-Serif" font-size="10.00">::already_registered</text>
</a>
</g>
</g>
<!-- Node1&#45;&gt;Node2 -->
<g id="edge1" class="edge">
<title>Node1&#45;&gt;Node2</title>
<path fill="none" stroke="midnightblue" d="M51,-250.7C57.58,-285.93 78.61,-373.84 131,-422.5 132.28,-423.69 133.63,-424.83 135.03,-425.91"/>
<polygon fill="midnightblue" stroke="midnightblue" points="133.27,-428.93 143.55,-431.49 137.11,-423.08 133.27,-428.93"/>
</g>
<!-- Node3 -->
<g id="node3" class="node">
<title>Node3</title>
<g id="a_node3"><a xlink:href="classft_1_1irc_1_1user.html#a080531f81f28fd4b65d15f603d1af818" target="_top" xlink:title=" ">
<polygon fill="white" stroke="black" points="154.5,-382.5 154.5,-412.5 244.5,-412.5 244.5,-382.5 154.5,-382.5"/>
<text text-anchor="start" x="162.5" y="-400.5" font-family="Helvetica,sans-Serif" font-size="10.00">ft::irc::user::get</text>
<text text-anchor="middle" x="199.5" y="-389.5" font-family="Helvetica,sans-Serif" font-size="10.00">_register_state</text>
</a>
</g>
</g>
<!-- Node1&#45;&gt;Node3 -->
<g id="edge2" class="edge">
<title>Node1&#45;&gt;Node3</title>
<path fill="none" stroke="midnightblue" d="M53.69,-250.53C64.07,-278.44 89.95,-338.5 131,-372.5 135.27,-376.04 140.09,-379.1 145.14,-381.74"/>
<polygon fill="midnightblue" stroke="midnightblue" points="143.86,-385.01 154.4,-386.07 146.82,-378.67 143.86,-385.01"/>
</g>
<!-- Node4 -->
<g id="node4" class="node">
<title>Node4</title>
<g id="a_node4"><a xlink:href="classft_1_1irc_1_1user.html#a7d133deb3a63faa2627b50cbbdf3a607" target="_top" xlink:title=" ">
<polygon fill="white" stroke="black" points="131,-344 131,-363 268,-363 268,-344 131,-344"/>
<text text-anchor="middle" x="199.5" y="-351" font-family="Helvetica,sans-Serif" font-size="10.00">ft::irc::user::is_registered</text>
</a>
</g>
</g>
<!-- Node1&#45;&gt;Node4 -->
<g id="edge3" class="edge">
<title>Node1&#45;&gt;Node4</title>
<path fill="none" stroke="midnightblue" d="M57.06,-250.7C70.15,-272.55 97.21,-312.59 131,-334.5 134.15,-336.54 137.52,-338.37 141,-340"/>
<polygon fill="midnightblue" stroke="midnightblue" points="139.88,-343.32 150.46,-343.88 142.54,-336.84 139.88,-343.32"/>
</g>
<!-- Node5 -->
<g id="node5" class="node">
<title>Node5</title>
<g id="a_node5"><a xlink:href="classft_1_1irc_1_1user.html#affa6016f0c81205cd3c60ea6e9706132" target="_top" xlink:title=" ">
<polygon fill="white" stroke="black" points="143.5,-294.5 143.5,-324.5 255.5,-324.5 255.5,-294.5 143.5,-294.5"/>
<text text-anchor="start" x="151.5" y="-312.5" font-family="Helvetica,sans-Serif" font-size="10.00">ft::irc::user::register</text>
<text text-anchor="middle" x="199.5" y="-301.5" font-family="Helvetica,sans-Serif" font-size="10.00">_to_server</text>
</a>
</g>
</g>
<!-- Node1&#45;&gt;Node5 -->
<g id="edge4" class="edge">
<title>Node1&#45;&gt;Node5</title>
<path fill="none" stroke="midnightblue" d="M70.57,-250.57C86.81,-261.23 109.67,-275.37 131,-285.5 134.79,-287.3 138.76,-289.04 142.78,-290.71"/>
<polygon fill="midnightblue" stroke="midnightblue" points="141.65,-294.03 152.24,-294.47 144.24,-287.52 141.65,-294.03"/>
</g>
<!-- Node7 -->
<g id="node7" class="node">
<title>Node7</title>
<g id="a_node7"><a xlink:href="classft_1_1irc_1_1user.html#a1db558d6d694ca943224c2440fe36c50" target="_top" xlink:title=" ">
<polygon fill="white" stroke="black" points="150.5,-245.5 150.5,-275.5 248.5,-275.5 248.5,-245.5 150.5,-245.5"/>
<text text-anchor="start" x="158.5" y="-263.5" font-family="Helvetica,sans-Serif" font-size="10.00">ft::irc::user::send</text>
<text text-anchor="middle" x="199.5" y="-252.5" font-family="Helvetica,sans-Serif" font-size="10.00">_message</text>
</a>
</g>
</g>
<!-- Node1&#45;&gt;Node7 -->
<g id="edge6" class="edge">
<title>Node1&#45;&gt;Node7</title>
<path fill="none" stroke="midnightblue" d="M95.14,-243.27C109.39,-245.65 125.25,-248.29 140.18,-250.78"/>
<polygon fill="midnightblue" stroke="midnightblue" points="139.9,-254.28 150.34,-252.47 141.05,-247.38 139.9,-254.28"/>
</g>
<!-- Node8 -->
<g id="node8" class="node">
<title>Node8</title>
<g id="a_node8"><a xlink:href="classft_1_1irc_1_1user.html#ac0682a75e9f388395205f29af0a15eba" target="_top" xlink:title=" ">
<polygon fill="white" stroke="black" points="155,-196.5 155,-226.5 244,-226.5 244,-196.5 155,-196.5"/>
<text text-anchor="start" x="163" y="-214.5" font-family="Helvetica,sans-Serif" font-size="10.00">ft::irc::user::set</text>
<text text-anchor="middle" x="199.5" y="-203.5" font-family="Helvetica,sans-Serif" font-size="10.00">_hostname</text>
</a>
</g>
</g>
<!-- Node1&#45;&gt;Node8 -->
<g id="edge7" class="edge">
<title>Node1&#45;&gt;Node8</title>
<path fill="none" stroke="midnightblue" d="M95.14,-228.04C110.95,-225.51 128.73,-222.66 145.03,-220.05"/>
<polygon fill="midnightblue" stroke="midnightblue" points="145.64,-223.5 154.96,-218.47 144.53,-216.59 145.64,-223.5"/>
</g>
<!-- Node9 -->
<g id="node9" class="node">
<title>Node9</title>
<g id="a_node9"><a xlink:href="classft_1_1irc_1_1user.html#a4c180ab232dc971d05a466d72daf1e3a" target="_top" xlink:title=" ">
<polygon fill="white" stroke="black" points="155,-147.5 155,-177.5 244,-177.5 244,-147.5 155,-147.5"/>
<text text-anchor="start" x="163" y="-165.5" font-family="Helvetica,sans-Serif" font-size="10.00">ft::irc::user::set</text>
<text text-anchor="middle" x="199.5" y="-154.5" font-family="Helvetica,sans-Serif" font-size="10.00">_realname</text>
</a>
</g>
</g>
<!-- Node1&#45;&gt;Node9 -->
<g id="edge8" class="edge">
<title>Node1&#45;&gt;Node9</title>
<path fill="none" stroke="midnightblue" d="M72.1,-220.31C88.28,-210.25 110.47,-197.19 131,-187.5 135.61,-185.32 140.47,-183.2 145.38,-181.18"/>
<polygon fill="midnightblue" stroke="midnightblue" points="146.84,-184.37 154.83,-177.42 144.25,-177.87 146.84,-184.37"/>
</g>
<!-- Node10 -->
<g id="node10" class="node">
<title>Node10</title>
<g id="a_node10"><a xlink:href="classft_1_1irc_1_1user.html#a9bf0e20ae3e94760f4d135790e2877d8" target="_top" xlink:title=" ">
<polygon fill="white" stroke="black" points="155,-98.5 155,-128.5 244,-128.5 244,-98.5 155,-98.5"/>
<text text-anchor="start" x="163" y="-116.5" font-family="Helvetica,sans-Serif" font-size="10.00">ft::irc::user::set</text>
<text text-anchor="middle" x="199.5" y="-105.5" font-family="Helvetica,sans-Serif" font-size="10.00">_register_state</text>
</a>
</g>
</g>
<!-- Node1&#45;&gt;Node10 -->
<g id="edge9" class="edge">
<title>Node1&#45;&gt;Node10</title>
<path fill="none" stroke="midnightblue" d="M57.83,-220.25C71.46,-199.14 98.75,-161.05 131,-138.5 135.48,-135.37 140.4,-132.57 145.48,-130.1"/>
<polygon fill="midnightblue" stroke="midnightblue" points="147.02,-133.24 154.73,-125.97 144.17,-126.85 147.02,-133.24"/>
</g>
<!-- Node11 -->
<g id="node11" class="node">
<title>Node11</title>
<g id="a_node11"><a xlink:href="classft_1_1irc_1_1user.html#acb0e5c24b4e9431131ab7966b798b4cf" target="_top" xlink:title=" ">
<polygon fill="white" stroke="black" points="155,-49.5 155,-79.5 244,-79.5 244,-49.5 155,-49.5"/>
<text text-anchor="start" x="163" y="-67.5" font-family="Helvetica,sans-Serif" font-size="10.00">ft::irc::user::set</text>
<text text-anchor="middle" x="199.5" y="-56.5" font-family="Helvetica,sans-Serif" font-size="10.00">_servername</text>
</a>
</g>
</g>
<!-- Node1&#45;&gt;Node11 -->
<g id="edge10" class="edge">
<title>Node1&#45;&gt;Node11</title>
<path fill="none" stroke="midnightblue" d="M53.11,-220.4C62.8,-191.09 88,-126.13 131,-89.5 135.45,-85.71 140.52,-82.47 145.85,-79.71"/>
<polygon fill="midnightblue" stroke="midnightblue" points="147.37,-82.86 154.98,-75.49 144.44,-76.51 147.37,-82.86"/>
</g>
<!-- Node12 -->
<g id="node12" class="node">
<title>Node12</title>
<g id="a_node12"><a xlink:href="classft_1_1irc_1_1user.html#a1e0a86674053819cccf1589b95db4060" target="_top" xlink:title=" ">
<polygon fill="white" stroke="black" points="155,-0.5 155,-30.5 244,-30.5 244,-0.5 155,-0.5"/>
<text text-anchor="start" x="163" y="-18.5" font-family="Helvetica,sans-Serif" font-size="10.00">ft::irc::user::set</text>
<text text-anchor="middle" x="199.5" y="-7.5" font-family="Helvetica,sans-Serif" font-size="10.00">_username</text>
</a>
</g>
</g>
<!-- Node1&#45;&gt;Node12 -->
<g id="edge11" class="edge">
<title>Node1&#45;&gt;Node12</title>
<path fill="none" stroke="midnightblue" d="M50.75,-220.25C56.88,-184.01 77.18,-91.92 131,-40.5 135.28,-36.41 140.29,-32.97 145.62,-30.09"/>
<polygon fill="midnightblue" stroke="midnightblue" points="147.25,-33.19 154.8,-25.75 144.26,-26.86 147.25,-33.19"/>
</g>
<!-- Node6 -->
<g id="node6" class="node">
<title>Node6</title>
<g id="a_node6"><a xlink:href="classft_1_1irc_1_1server.html#a9bd0c0f5521a9d823a4d097099ebe4da" target="_top" xlink:title=" ">
<polygon fill="white" stroke="black" points="304,-300 304,-319 452,-319 452,-300 304,-300"/>
<text text-anchor="middle" x="378" y="-307" font-family="Helvetica,sans-Serif" font-size="10.00">ft::irc::server::register_user</text>
</a>
</g>
</g>
<!-- Node5&#45;&gt;Node6 -->
<g id="edge5" class="edge">
<title>Node5&#45;&gt;Node6</title>
<path fill="none" stroke="midnightblue" d="M255.86,-309.5C267.83,-309.5 280.73,-309.5 293.51,-309.5"/>
<polygon fill="midnightblue" stroke="midnightblue" points="293.7,-313 303.7,-309.5 293.7,-306 293.7,-313"/>
</g>
</g>
</svg>
