<?xml version="1.0" encoding="UTF-8" standalone="no"?>
<!DOCTYPE svg PUBLIC "-//W3C//DTD SVG 1.1//EN"
 "http://www.w3.org/Graphics/SVG/1.1/DTD/svg11.dtd">
<!-- Generated by graphviz version 2.43.0 (0)
 -->
<!-- Title: ft::irc::server::find_channel Pages: 1 -->
<svg width="285pt" height="137pt"
 viewBox="0.00 0.00 285.00 137.00" xmlns="http://www.w3.org/2000/svg" xmlns:xlink="http://www.w3.org/1999/xlink">
<g id="graph0" class="graph" transform="scale(1 1) rotate(0) translate(4 133)">
<title>ft::irc::server::find_channel</title>
<polygon fill="white" stroke="transparent" points="-4,4 -4,-133 281,-133 281,4 -4,4"/>
<!-- Node1 -->
<g id="node1" class="node">
<title>Node1</title>
<g id="a_node1"><a xlink:title=" ">
<polygon fill="#bfbfbf" stroke="black" points="175,-49.5 175,-79.5 277,-79.5 277,-49.5 175,-49.5"/>
<text text-anchor="start" x="183" y="-67.5" font-family="Helvetica,sans-Serif" font-size="10.00">ft::irc::server::find</text>
<text text-anchor="middle" x="226" y="-56.5" font-family="Helvetica,sans-Serif" font-size="10.00">_channel</text>
</a>
</g>
</g>
<!-- Node2 -->
<g id="node2" class="node">
<title>Node2</title>
<g id="a_node2"><a xlink:href="classft_1_1irc_1_1user.html#af2aa8fcafc015de38938ccccfed4b1c9" target="_top" xlink:title=" ">
<polygon fill="white" stroke="black" points="7.5,-98.5 7.5,-128.5 131.5,-128.5 131.5,-98.5 7.5,-98.5"/>
<text text-anchor="start" x="15.5" y="-116.5" font-family="Helvetica,sans-Serif" font-size="10.00">ft::irc::user::deregister</text>
<text text-anchor="middle" x="69.5" y="-105.5" font-family="Helvetica,sans-Serif" font-size="10.00">_from_server</text>
</a>
</g>
</g>
<!-- Node1&#45;&gt;Node2 -->
<g id="edge1" class="edge">
<title>Node1&#45;&gt;Node2</title>
<path fill="none" stroke="midnightblue" d="M167.43,-82.76C151.13,-87.93 133.59,-93.49 117.96,-98.45"/>
<polygon fill="midnightblue" stroke="midnightblue" points="168.91,-85.96 177.38,-79.6 166.79,-79.29 168.91,-85.96"/>
</g>
<!-- Node3 -->
<g id="node3" class="node">
<title>Node3</title>
<g id="a_node3"><a xlink:href="classft_1_1irc_1_1processor__part.html#a4075107cb360cd04c0a11a9904104ad0" target="_top" xlink:title=" ">
<polygon fill="white" stroke="black" points="22,-49.5 22,-79.5 117,-79.5 117,-49.5 22,-49.5"/>
<text text-anchor="start" x="30" y="-67.5" font-family="Helvetica,sans-Serif" font-size="10.00">ft::irc::processor</text>
<text text-anchor="middle" x="69.5" y="-56.5" font-family="Helvetica,sans-Serif" font-size="10.00">_part::execute</text>
</a>
</g>
</g>
<!-- Node1&#45;&gt;Node3 -->
<g id="edge2" class="edge">
<title>Node1&#45;&gt;Node3</title>
<path fill="none" stroke="midnightblue" d="M164.61,-64.5C148.79,-64.5 131.98,-64.5 117.01,-64.5"/>
<polygon fill="midnightblue" stroke="midnightblue" points="164.84,-68 174.84,-64.5 164.84,-61 164.84,-68"/>
</g>
<!-- Node4 -->
<g id="node4" class="node">
<title>Node4</title>
<g id="a_node4"><a xlink:href="classft_1_1irc_1_1processor__message__base.html#ab3fba6f27483543b9c7a559fd2e1402b" target="_top" xlink:title=" ">
<polygon fill="white" stroke="black" points="0,-0.5 0,-30.5 139,-30.5 139,-0.5 0,-0.5"/>
<text text-anchor="start" x="8" y="-18.5" font-family="Helvetica,sans-Serif" font-size="10.00">ft::irc::processor</text>
<text text-anchor="middle" x="69.5" y="-7.5" font-family="Helvetica,sans-Serif" font-size="10.00">_message_base::execute</text>
</a>
</g>
</g>
<!-- Node1&#45;&gt;Node4 -->
<g id="edge3" class="edge">
<title>Node1&#45;&gt;Node4</title>
<path fill="none" stroke="midnightblue" d="M167.43,-46.24C151.13,-41.07 133.59,-35.51 117.96,-30.55"/>
<polygon fill="midnightblue" stroke="midnightblue" points="166.79,-49.71 177.38,-49.4 168.91,-43.04 166.79,-49.71"/>
</g>
</g>
</svg>
