<?xml version="1.0" encoding="UTF-8" standalone="no"?>
<!DOCTYPE svg PUBLIC "-//W3C//DTD SVG 1.1//EN"
 "http://www.w3.org/Graphics/SVG/1.1/DTD/svg11.dtd">
<!-- Generated by graphviz version 2.43.0 (0)
 -->
<!-- Title: ft::irc::processor_nick::execute Pages: 1 -->
<!--zoomable 762 -->
<svg id="main" version="1.1" xmlns="http://www.w3.org/2000/svg" xmlns:xlink="http://www.w3.org/1999/xlink" xml:space="preserve" onload="init(evt)">
<style type="text/css"><![CDATA[
.edge:hover path { stroke: red; }
.edge:hover polygon { stroke: red; fill: red; }
]]></style>
<script type="text/javascript"><![CDATA[
var edges = document.getElementsByTagName('g');
if (edges && edges.length) {
  for (var i=0;i<edges.length;i++) {
    if (edges[i].id.substr(0,4)=='edge') {
      edges[i].setAttribute('class','edge');
    }
  }
}
]]></script>
        <defs>
                <circle id="rim" cx="0" cy="0" r="7"/>
                <circle id="rim2" cx="0" cy="0" r="3.5"/>
                <g id="zoomPlus">
                        <use xlink:href="#rim" fill="#404040">
                                <set attributeName="fill" to="#808080" begin="zoomplus.mouseover" end="zoomplus.mouseout"/>
                        </use>
                        <path d="M-4,0h8M0,-4v8" fill="none" stroke="white" stroke-width="1.5" pointer-events="none"/>
                </g>
                <g id="zoomMin">
                        <use xlink:href="#rim" fill="#404040">
                                <set attributeName="fill" to="#808080" begin="zoomminus.mouseover" end="zoomminus.mouseout"/>
                        </use>
                        <path d="M-4,0h8" fill="none" stroke="white" stroke-width="1.5" pointer-events="none"/>
                </g>
                <g id="dirArrow">
                        <path fill="none" stroke="white" stroke-width="1.5" d="M0,-3.0v7 M-2.5,-0.5L0,-3.0L2.5,-0.5"/>
                </g>
               <g id="resetDef">
                       <use xlink:href="#rim2" fill="#404040">
                               <set attributeName="fill" to="#808080" begin="reset.mouseover" end="reset.mouseout"/>
                       </use>
               </g>
        </defs>

<script type="text/javascript">
var viewWidth = 723;
var viewHeight = 762;
var sectionId = 'dynsection-2';
</script>
<script xlink:href="svgpan.js"/>
<svg id="graph" class="graph">
<g id="viewport">
<title>ft::irc::processor_nick::execute</title>
<polygon fill="white" stroke="transparent" points="-4,4 -4,-757.5 719,-757.5 719,4 -4,4"/>
<!-- Node1 -->
<g id="node1" class="node">
<title>Node1</title>
<g id="a_node1"><a xlink:title=" ">
<polygon fill="#bfbfbf" stroke="black" points="0,-494.5 0,-524.5 95,-524.5 95,-494.5 0,-494.5"/>
<text text-anchor="start" x="8" y="-512.5" font-family="Helvetica,sans-Serif" font-size="10.00">ft::irc::processor</text>
<text text-anchor="middle" x="47.5" y="-501.5" font-family="Helvetica,sans-Serif" font-size="10.00">_nick::execute</text>
</a>
</g>
</g>
<!-- Node2 -->
<g id="node2" class="node">
<title>Node2</title>
<g id="a_node2"><a xlink:href="classft_1_1irc_1_1user.html#af02e786035bc1122895f36f9db8f2c9a" target="_top" xlink:title=" ">
<polygon fill="white" stroke="black" points="132,-706 132,-725 267,-725 267,-706 132,-706"/>
<text text-anchor="middle" x="199.5" y="-713" font-family="Helvetica,sans-Serif" font-size="10.00">ft::irc::user::change_nick</text>
</a>
</g>
</g>
<!-- Node1&#45;&gt;Node2 -->
<g id="edge1" class="edge">
<title>Node1&#45;&gt;Node2</title>
<path fill="none" stroke="midnightblue" d="M50.74,-524.68C56.8,-560.25 76.87,-649.51 131,-696.5 132.97,-698.21 135.09,-699.77 137.3,-701.19"/>
<polygon fill="midnightblue" stroke="midnightblue" points="135.84,-704.37 146.31,-705.99 139.13,-698.2 135.84,-704.37"/>
</g>
<!-- Node7 -->
<g id="node7" class="node">
<title>Node7</title>
<g id="a_node7"><a xlink:href="structft_1_1irc_1_1make__error.html#ad5903961eb9531f4dad67b0259119c8e" target="_top" xlink:title=" ">
<polygon fill="white" stroke="black" points="137,-656.5 137,-686.5 262,-686.5 262,-656.5 137,-656.5"/>
<text text-anchor="start" x="145" y="-674.5" font-family="Helvetica,sans-Serif" font-size="10.00">ft::irc::make_error</text>
<text text-anchor="middle" x="199.5" y="-663.5" font-family="Helvetica,sans-Serif" font-size="10.00">::erroneous_nickname</text>
</a>
</g>
</g>
<!-- Node1&#45;&gt;Node7 -->
<g id="edge7" class="edge">
<title>Node1&#45;&gt;Node7</title>
<path fill="none" stroke="midnightblue" d="M53.62,-524.69C63.87,-552.88 89.56,-613.52 131,-647.5 132.55,-648.77 134.17,-649.98 135.85,-651.12"/>
<polygon fill="midnightblue" stroke="midnightblue" points="134.28,-654.26 144.66,-656.35 137.85,-648.24 134.28,-654.26"/>
</g>
<!-- Node8 -->
<g id="node8" class="node">
<title>Node8</title>
<g id="a_node8"><a xlink:href="classft_1_1irc_1_1user.html#a080531f81f28fd4b65d15f603d1af818" target="_top" xlink:title=" ">
<polygon fill="white" stroke="black" points="154.5,-607.5 154.5,-637.5 244.5,-637.5 244.5,-607.5 154.5,-607.5"/>
<text text-anchor="start" x="162.5" y="-625.5" font-family="Helvetica,sans-Serif" font-size="10.00">ft::irc::user::get</text>
<text text-anchor="middle" x="199.5" y="-614.5" font-family="Helvetica,sans-Serif" font-size="10.00">_register_state</text>
</a>
</g>
</g>
<!-- Node1&#45;&gt;Node8 -->
<g id="edge8" class="edge">
<title>Node1&#45;&gt;Node8</title>
<path fill="none" stroke="midnightblue" d="M59.13,-524.6C73.44,-543.93 100.64,-577.34 131,-597.5 135.31,-600.36 140,-602.96 144.82,-605.29"/>
<polygon fill="midnightblue" stroke="midnightblue" points="143.65,-608.6 154.21,-609.46 146.49,-602.2 143.65,-608.6"/>
</g>
<!-- Node9 -->
<g id="node9" class="node">
<title>Node9</title>
<g id="a_node9"><a xlink:href="classft_1_1irc_1_1user.html#a7d133deb3a63faa2627b50cbbdf3a607" target="_top" xlink:title=" ">
<polygon fill="white" stroke="black" points="131,-569 131,-588 268,-588 268,-569 131,-569"/>
<text text-anchor="middle" x="199.5" y="-576" font-family="Helvetica,sans-Serif" font-size="10.00">ft::irc::user::is_registered</text>
</a>
</g>
</g>
<!-- Node1&#45;&gt;Node9 -->
<g id="edge9" class="edge">
<title>Node1&#45;&gt;Node9</title>
<path fill="none" stroke="midnightblue" d="M69.69,-524.55C85.86,-535.48 109.03,-549.96 131,-559.5 136.44,-561.86 142.25,-564.01 148.09,-565.94"/>
<polygon fill="midnightblue" stroke="midnightblue" points="147.31,-569.37 157.9,-568.99 149.39,-562.68 147.31,-569.37"/>
</g>
<!-- Node10 -->
<g id="node10" class="node">
<title>Node10</title>
<g id="a_node10"><a xlink:href="structft_1_1irc_1_1string__utils.html#a2fcf209970f5b02422129e1d9ff28a72" target="_top" xlink:title=" ">
<polygon fill="white" stroke="black" points="149,-519.5 149,-549.5 250,-549.5 250,-519.5 149,-519.5"/>
<text text-anchor="start" x="157" y="-537.5" font-family="Helvetica,sans-Serif" font-size="10.00">ft::irc::string_utils</text>
<text text-anchor="middle" x="199.5" y="-526.5" font-family="Helvetica,sans-Serif" font-size="10.00">::is_valid_nick</text>
</a>
</g>
</g>
<!-- Node1&#45;&gt;Node10 -->
<g id="edge10" class="edge">
<title>Node1&#45;&gt;Node10</title>
<path fill="none" stroke="midnightblue" d="M95.14,-517.27C108.97,-519.58 124.32,-522.14 138.86,-524.56"/>
<polygon fill="midnightblue" stroke="midnightblue" points="138.33,-528.02 148.77,-526.21 139.48,-521.12 138.33,-528.02"/>
</g>
<!-- Node14 -->
<g id="node14" class="node">
<title>Node14</title>
<g id="a_node14"><a xlink:href="structft_1_1irc_1_1make__error.html#ab839953e26290b6d6af9bebee99cb363" target="_top" xlink:title=" ">
<polygon fill="white" stroke="black" points="146,-470.5 146,-500.5 253,-500.5 253,-470.5 146,-470.5"/>
<text text-anchor="start" x="154" y="-488.5" font-family="Helvetica,sans-Serif" font-size="10.00">ft::irc::make_error</text>
<text text-anchor="middle" x="199.5" y="-477.5" font-family="Helvetica,sans-Serif" font-size="10.00">::nickname_in_use</text>
</a>
</g>
</g>
<!-- Node1&#45;&gt;Node14 -->
<g id="edge14" class="edge">
<title>Node1&#45;&gt;Node14</title>
<path fill="none" stroke="midnightblue" d="M95.14,-502.04C107.95,-499.99 122.07,-497.73 135.63,-495.56"/>
<polygon fill="midnightblue" stroke="midnightblue" points="136.55,-498.96 145.87,-493.92 135.44,-492.04 136.55,-498.96"/>
</g>
<!-- Node15 -->
<g id="node15" class="node">
<title>Node15</title>
<g id="a_node15"><a xlink:href="structft_1_1irc_1_1make__error.html#afae7f78584d05823e980db71ab6a19a4" target="_top" xlink:title=" ">
<polygon fill="white" stroke="black" points="139.5,-421.5 139.5,-451.5 259.5,-451.5 259.5,-421.5 139.5,-421.5"/>
<text text-anchor="start" x="147.5" y="-439.5" font-family="Helvetica,sans-Serif" font-size="10.00">ft::irc::make_error</text>
<text text-anchor="middle" x="199.5" y="-428.5" font-family="Helvetica,sans-Serif" font-size="10.00">::no_nickname_given</text>
</a>
</g>
</g>
<!-- Node1&#45;&gt;Node15 -->
<g id="edge15" class="edge">
<title>Node1&#45;&gt;Node15</title>
<path fill="none" stroke="midnightblue" d="M72.1,-494.31C88.28,-484.25 110.47,-471.19 131,-461.5 135.55,-459.36 140.33,-457.27 145.16,-455.27"/>
<polygon fill="midnightblue" stroke="midnightblue" points="146.48,-458.51 154.47,-451.56 143.89,-452.01 146.48,-458.51"/>
</g>
<!-- Node16 -->
<g id="node16" class="node">
<title>Node16</title>
<g id="a_node16"><a xlink:href="classft_1_1irc_1_1user.html#affa6016f0c81205cd3c60ea6e9706132" target="_top" xlink:title=" ">
<polygon fill="white" stroke="black" points="143.5,-308.5 143.5,-338.5 255.5,-338.5 255.5,-308.5 143.5,-308.5"/>
<text text-anchor="start" x="151.5" y="-326.5" font-family="Helvetica,sans-Serif" font-size="10.00">ft::irc::user::register</text>
<text text-anchor="middle" x="199.5" y="-315.5" font-family="Helvetica,sans-Serif" font-size="10.00">_to_server</text>
</a>
</g>
</g>
<!-- Node1&#45;&gt;Node16 -->
<g id="edge16" class="edge">
<title>Node1&#45;&gt;Node16</title>
<path fill="none" stroke="midnightblue" d="M60.78,-494.28C86.99,-461.77 148.59,-385.39 179.75,-346.75"/>
<polygon fill="midnightblue" stroke="midnightblue" points="182.71,-348.65 186.27,-338.67 177.26,-344.26 182.71,-348.65"/>
</g>
<!-- Node28 -->
<g id="node28" class="node">
<title>Node28</title>
<g id="a_node28"><a xlink:href="classft_1_1irc_1_1user.html#a1db558d6d694ca943224c2440fe36c50" target="_top" xlink:title=" ">
<polygon fill="white" stroke="black" points="150.5,-259.5 150.5,-289.5 248.5,-289.5 248.5,-259.5 150.5,-259.5"/>
<text text-anchor="start" x="158.5" y="-277.5" font-family="Helvetica,sans-Serif" font-size="10.00">ft::irc::user::send</text>
<text text-anchor="middle" x="199.5" y="-266.5" font-family="Helvetica,sans-Serif" font-size="10.00">_message</text>
</a>
</g>
</g>
<!-- Node1&#45;&gt;Node28 -->
<g id="edge28" class="edge">
<title>Node1&#45;&gt;Node28</title>
<path fill="none" stroke="midnightblue" d="M50.23,-494.23C55.34,-456.07 73.8,-355.58 131,-299.5 134.11,-296.45 137.63,-293.76 141.38,-291.4"/>
<polygon fill="midnightblue" stroke="midnightblue" points="143.37,-294.31 150.49,-286.47 140.03,-288.16 143.37,-294.31"/>
</g>
<!-- Node29 -->
<g id="node29" class="node">
<title>Node29</title>
<g id="a_node29"><a xlink:href="classft_1_1irc_1_1user.html#a9bf0e20ae3e94760f4d135790e2877d8" target="_top" xlink:title=" ">
<polygon fill="white" stroke="black" points="155,-210.5 155,-240.5 244,-240.5 244,-210.5 155,-210.5"/>
<text text-anchor="start" x="163" y="-228.5" font-family="Helvetica,sans-Serif" font-size="10.00">ft::irc::user::set</text>
<text text-anchor="middle" x="199.5" y="-217.5" font-family="Helvetica,sans-Serif" font-size="10.00">_register_state</text>
</a>
</g>
</g>
<!-- Node1&#45;&gt;Node29 -->
<g id="edge29" class="edge">
<title>Node1&#45;&gt;Node29</title>
<path fill="none" stroke="midnightblue" d="M48.91,-494.36C50.89,-450.54 62.57,-322.18 131,-250.5 135.15,-246.16 140.11,-242.56 145.45,-239.59"/>
<polygon fill="midnightblue" stroke="midnightblue" points="147.19,-242.64 154.69,-235.15 144.16,-236.33 147.19,-242.64"/>
</g>
<!-- Node3 -->
<g id="node3" class="node">
<title>Node3</title>
<g id="a_node3"><a xlink:href="classft_1_1irc_1_1server.html#ab534369c5d538fbf60852889a7d8127b" target="_top" xlink:title=" ">
<polygon fill="white" stroke="black" points="312.5,-734 312.5,-753 443.5,-753 443.5,-734 312.5,-734"/>
<text text-anchor="middle" x="378" y="-741" font-family="Helvetica,sans-Serif" font-size="10.00">ft::irc::server::hold_nick</text>
</a>
</g>
</g>
<!-- Node2&#45;&gt;Node3 -->
<g id="edge2" class="edge">
<title>Node2&#45;&gt;Node3</title>
<path fill="none" stroke="midnightblue" d="M260.75,-725.06C275.66,-727.42 291.76,-729.98 307.08,-732.41"/>
<polygon fill="midnightblue" stroke="midnightblue" points="306.6,-735.88 317.02,-733.99 307.7,-728.96 306.6,-735.88"/>
</g>
<!-- Node6 -->
<g id="node6" class="node">
<title>Node6</title>
<g id="a_node6"><a xlink:href="classft_1_1irc_1_1server.html#a2f4c8826af7867f18ed67c1b9dabf65f" target="_top" xlink:title=" ">
<polygon fill="white" stroke="black" points="305,-696 305,-715 451,-715 451,-696 305,-696"/>
<text text-anchor="middle" x="378" y="-703" font-family="Helvetica,sans-Serif" font-size="10.00">ft::irc::server::release_nick</text>
</a>
</g>
</g>
<!-- Node2&#45;&gt;Node6 -->
<g id="edge5" class="edge">
<title>Node2&#45;&gt;Node6</title>
<path fill="none" stroke="midnightblue" d="M267.23,-711.72C276.26,-711.21 285.61,-710.68 294.88,-710.15"/>
<polygon fill="midnightblue" stroke="midnightblue" points="295.09,-713.65 304.87,-709.59 294.69,-706.66 295.09,-713.65"/>
</g>
<!-- Node4 -->
<g id="node4" class="node">
<title>Node4</title>
<g id="a_node4"><a xlink:href="structft_1_1irc_1_1string__utils.html#a367a22012cc0d2d25959ac3f4e5d33a9" target="_top" xlink:title=" ">
<polygon fill="white" stroke="black" points="488,-709.5 488,-739.5 589,-739.5 589,-709.5 488,-709.5"/>
<text text-anchor="start" x="496" y="-727.5" font-family="Helvetica,sans-Serif" font-size="10.00">ft::irc::string_utils</text>
<text text-anchor="middle" x="538.5" y="-716.5" font-family="Helvetica,sans-Serif" font-size="10.00">::to_lower</text>
</a>
</g>
</g>
<!-- Node3&#45;&gt;Node4 -->
<g id="edge3" class="edge">
<title>Node3&#45;&gt;Node4</title>
<path fill="none" stroke="midnightblue" d="M443.93,-735.72C455.18,-734.37 466.84,-732.97 477.95,-731.64"/>
<polygon fill="midnightblue" stroke="midnightblue" points="478.45,-735.1 487.96,-730.44 477.62,-728.15 478.45,-735.1"/>
</g>
<!-- Node5 -->
<g id="node5" class="node">
<title>Node5</title>
<g id="a_node5"><a xlink:href="namespaceft_1_1irc_1_1__internal.html#aa76c3a369f64725f8b2b52b2131c1111" target="_top" xlink:title=" ">
<polygon fill="white" stroke="black" points="625,-709.5 625,-739.5 715,-739.5 715,-709.5 625,-709.5"/>
<text text-anchor="start" x="633" y="-727.5" font-family="Helvetica,sans-Serif" font-size="10.00">ft::irc::_internal</text>
<text text-anchor="middle" x="670" y="-716.5" font-family="Helvetica,sans-Serif" font-size="10.00">::_to_lower</text>
</a>
</g>
</g>
<!-- Node4&#45;&gt;Node5 -->
<g id="edge4" class="edge">
<title>Node4&#45;&gt;Node5</title>
<path fill="none" stroke="midnightblue" d="M589.2,-724.5C597.51,-724.5 606.18,-724.5 614.61,-724.5"/>
<polygon fill="midnightblue" stroke="midnightblue" points="614.73,-728 624.73,-724.5 614.73,-721 614.73,-728"/>
</g>
<!-- Node6&#45;&gt;Node4 -->
<g id="edge6" class="edge">
<title>Node6&#45;&gt;Node4</title>
<path fill="none" stroke="midnightblue" d="M451.29,-714.17C460.21,-715.24 469.25,-716.32 477.95,-717.36"/>
<polygon fill="midnightblue" stroke="midnightblue" points="477.64,-720.85 487.98,-718.56 478.47,-713.9 477.64,-720.85"/>
</g>
<!-- Node11 -->
<g id="node11" class="node">
<title>Node11</title>
<g id="a_node11"><a xlink:href="namespaceft_1_1irc_1_1__internal.html#aa09b5b82c4d1b76615be6743cbebbc26" target="_top" xlink:title=" ">
<polygon fill="white" stroke="black" points="333,-627.5 333,-657.5 423,-657.5 423,-627.5 333,-627.5"/>
<text text-anchor="start" x="341" y="-645.5" font-family="Helvetica,sans-Serif" font-size="10.00">ft::irc::_internal</text>
<text text-anchor="middle" x="378" y="-634.5" font-family="Helvetica,sans-Serif" font-size="10.00">::_is_digit</text>
</a>
</g>
</g>
<!-- Node10&#45;&gt;Node11 -->
<g id="edge11" class="edge">
<title>Node10&#45;&gt;Node11</title>
<path fill="none" stroke="midnightblue" d="M250.18,-548.45C256.55,-551.49 262.69,-555.13 268,-559.5 291.71,-579.03 279.93,-599.42 304,-618.5 309.75,-623.06 316.4,-626.77 323.29,-629.78"/>
<polygon fill="midnightblue" stroke="midnightblue" points="322.2,-633.11 332.79,-633.47 324.74,-626.58 322.2,-633.11"/>
</g>
<!-- Node12 -->
<g id="node12" class="node">
<title>Node12</title>
<g id="a_node12"><a xlink:href="namespaceft_1_1irc_1_1__internal.html#aac87e93bf38aaa3cfff8f8e8f57a1518" target="_top" xlink:title=" ">
<polygon fill="white" stroke="black" points="333,-578.5 333,-608.5 423,-608.5 423,-578.5 333,-578.5"/>
<text text-anchor="start" x="341" y="-596.5" font-family="Helvetica,sans-Serif" font-size="10.00">ft::irc::_internal</text>
<text text-anchor="middle" x="378" y="-585.5" font-family="Helvetica,sans-Serif" font-size="10.00">::_is_letter</text>
</a>
</g>
</g>
<!-- Node10&#45;&gt;Node12 -->
<g id="edge12" class="edge">
<title>Node10&#45;&gt;Node12</title>
<path fill="none" stroke="midnightblue" d="M244.79,-549.57C263.11,-555.78 284.57,-563.02 304,-569.5 310.29,-571.6 316.89,-573.79 323.45,-575.95"/>
<polygon fill="midnightblue" stroke="midnightblue" points="322.38,-579.28 332.97,-579.09 324.57,-572.64 322.38,-579.28"/>
</g>
<!-- Node13 -->
<g id="node13" class="node">
<title>Node13</title>
<g id="a_node13"><a xlink:href="namespaceft_1_1irc_1_1__internal.html#a4887961e67bbcef2eab718aeff25bfc2" target="_top" xlink:title=" ">
<polygon fill="white" stroke="black" points="333,-529.5 333,-559.5 423,-559.5 423,-529.5 333,-529.5"/>
<text text-anchor="start" x="341" y="-547.5" font-family="Helvetica,sans-Serif" font-size="10.00">ft::irc::_internal</text>
<text text-anchor="middle" x="378" y="-536.5" font-family="Helvetica,sans-Serif" font-size="10.00">::_is_special</text>
</a>
</g>
</g>
<!-- Node10&#45;&gt;Node13 -->
<g id="edge13" class="edge">
<title>Node10&#45;&gt;Node13</title>
<path fill="none" stroke="midnightblue" d="M250.13,-537.31C272.78,-538.6 299.66,-540.12 322.83,-541.43"/>
<polygon fill="midnightblue" stroke="midnightblue" points="322.67,-544.93 332.85,-542 323.06,-537.94 322.67,-544.93"/>
</g>
<!-- Node17 -->
<g id="node17" class="node">
<title>Node17</title>
<g id="a_node17"><a xlink:href="structft_1_1irc_1_1make__reply.html#ad65f94ea29a9d677937915bf6d92aed2" target="_top" xlink:title=" ">
<polygon fill="white" stroke="black" points="326,-480.5 326,-510.5 430,-510.5 430,-480.5 326,-480.5"/>
<text text-anchor="start" x="334" y="-498.5" font-family="Helvetica,sans-Serif" font-size="10.00">ft::irc::make_reply</text>
<text text-anchor="middle" x="378" y="-487.5" font-family="Helvetica,sans-Serif" font-size="10.00">::end_of_motd</text>
</a>
</g>
</g>
<!-- Node16&#45;&gt;Node17 -->
<g id="edge17" class="edge">
<title>Node16&#45;&gt;Node17</title>
<path fill="none" stroke="midnightblue" d="M212.69,-338.59C226.59,-356.02 249.76,-385.74 268,-412.5 285.3,-437.88 279.93,-452.42 304,-471.5 307.85,-474.55 312.1,-477.22 316.56,-479.56"/>
<polygon fill="midnightblue" stroke="midnightblue" points="315.39,-482.87 325.94,-483.89 318.33,-476.52 315.39,-482.87"/>
</g>
<!-- Node18 -->
<g id="node18" class="node">
<title>Node18</title>
<g id="a_node18"><a xlink:href="structft_1_1irc_1_1make__reply.html#af8641b515a8bfe338b4b3ed793cb4677" target="_top" xlink:title=" ">
<polygon fill="white" stroke="black" points="326,-431.5 326,-461.5 430,-461.5 430,-431.5 326,-431.5"/>
<text text-anchor="start" x="334" y="-449.5" font-family="Helvetica,sans-Serif" font-size="10.00">ft::irc::make_reply</text>
<text text-anchor="middle" x="378" y="-438.5" font-family="Helvetica,sans-Serif" font-size="10.00">::luser_channels</text>
</a>
</g>
</g>
<!-- Node16&#45;&gt;Node18 -->
<g id="edge18" class="edge">
<title>Node16&#45;&gt;Node18</title>
<path fill="none" stroke="midnightblue" d="M212.6,-338.77C230.44,-360.32 265.83,-399.6 304,-422.5 307.9,-424.84 312.06,-426.98 316.34,-428.94"/>
<polygon fill="midnightblue" stroke="midnightblue" points="315.26,-432.29 325.84,-432.93 317.97,-425.83 315.26,-432.29"/>
</g>
<!-- Node19 -->
<g id="node19" class="node">
<title>Node19</title>
<g id="a_node19"><a xlink:href="structft_1_1irc_1_1make__reply.html#a03397f6e9db01891c6cf1f1526ead9a5" target="_top" xlink:title=" ">
<polygon fill="white" stroke="black" points="326,-382.5 326,-412.5 430,-412.5 430,-382.5 326,-382.5"/>
<text text-anchor="start" x="334" y="-400.5" font-family="Helvetica,sans-Serif" font-size="10.00">ft::irc::make_reply</text>
<text text-anchor="middle" x="378" y="-389.5" font-family="Helvetica,sans-Serif" font-size="10.00">::luser_client</text>
</a>
</g>
</g>
<!-- Node16&#45;&gt;Node19 -->
<g id="edge19" class="edge">
<title>Node16&#45;&gt;Node19</title>
<path fill="none" stroke="midnightblue" d="M229.04,-338.55C249.57,-349.07 278.09,-363.04 304,-373.5 308.67,-375.39 313.56,-377.24 318.49,-379.03"/>
<polygon fill="midnightblue" stroke="midnightblue" points="317.39,-382.35 327.98,-382.38 319.72,-375.75 317.39,-382.35"/>
</g>
<!-- Node20 -->
<g id="node20" class="node">
<title>Node20</title>
<g id="a_node20"><a xlink:href="structft_1_1irc_1_1make__reply.html#ad75b7d6f4b115c9a700e87ed7a947531" target="_top" xlink:title=" ">
<polygon fill="white" stroke="black" points="326,-333.5 326,-363.5 430,-363.5 430,-333.5 326,-333.5"/>
<text text-anchor="start" x="334" y="-351.5" font-family="Helvetica,sans-Serif" font-size="10.00">ft::irc::make_reply</text>
<text text-anchor="middle" x="378" y="-340.5" font-family="Helvetica,sans-Serif" font-size="10.00">::luser_me</text>
</a>
</g>
</g>
<!-- Node16&#45;&gt;Node20 -->
<g id="edge20" class="edge">
<title>Node16&#45;&gt;Node20</title>
<path fill="none" stroke="midnightblue" d="M255.86,-331.34C274.89,-334.04 296.29,-337.07 315.76,-339.83"/>
<polygon fill="midnightblue" stroke="midnightblue" points="315.35,-343.3 325.74,-341.24 316.33,-336.37 315.35,-343.3"/>
</g>
<!-- Node21 -->
<g id="node21" class="node">
<title>Node21</title>
<g id="a_node21"><a xlink:href="structft_1_1irc_1_1make__reply.html#a71059f2ecea0dcf5b7c3d48a49b27652" target="_top" xlink:title=" ">
<polygon fill="white" stroke="black" points="326,-284.5 326,-314.5 430,-314.5 430,-284.5 326,-284.5"/>
<text text-anchor="start" x="334" y="-302.5" font-family="Helvetica,sans-Serif" font-size="10.00">ft::irc::make_reply</text>
<text text-anchor="middle" x="378" y="-291.5" font-family="Helvetica,sans-Serif" font-size="10.00">::luser_operator</text>
</a>
</g>
</g>
<!-- Node16&#45;&gt;Node21 -->
<g id="edge21" class="edge">
<title>Node16&#45;&gt;Node21</title>
<path fill="none" stroke="midnightblue" d="M255.86,-315.97C274.89,-313.38 296.29,-310.47 315.76,-307.83"/>
<polygon fill="midnightblue" stroke="midnightblue" points="316.3,-311.29 325.74,-306.47 315.36,-304.35 316.3,-311.29"/>
</g>
<!-- Node22 -->
<g id="node22" class="node">
<title>Node22</title>
<g id="a_node22"><a xlink:href="structft_1_1irc_1_1make__reply.html#abb3d19d7dff24cc11ae000c27f2d42f3" target="_top" xlink:title=" ">
<polygon fill="white" stroke="black" points="326,-235.5 326,-265.5 430,-265.5 430,-235.5 326,-235.5"/>
<text text-anchor="start" x="334" y="-253.5" font-family="Helvetica,sans-Serif" font-size="10.00">ft::irc::make_reply</text>
<text text-anchor="middle" x="378" y="-242.5" font-family="Helvetica,sans-Serif" font-size="10.00">::luser_unknown</text>
</a>
</g>
</g>
<!-- Node16&#45;&gt;Node22 -->
<g id="edge22" class="edge">
<title>Node16&#45;&gt;Node22</title>
<path fill="none" stroke="midnightblue" d="M247.6,-308.44C254.56,-305.73 261.55,-302.73 268,-299.5 285.19,-290.88 286.76,-284.02 304,-275.5 308.35,-273.35 312.93,-271.31 317.59,-269.39"/>
<polygon fill="midnightblue" stroke="midnightblue" points="319.18,-272.52 327.21,-265.62 316.62,-266.01 319.18,-272.52"/>
</g>
<!-- Node23 -->
<g id="node23" class="node">
<title>Node23</title>
<g id="a_node23"><a xlink:href="structft_1_1irc_1_1make__reply.html#a09ef279f20aef8d899a8a1f6e1f843c8" target="_top" xlink:title=" ">
<polygon fill="white" stroke="black" points="326,-186.5 326,-216.5 430,-216.5 430,-186.5 326,-186.5"/>
<text text-anchor="start" x="334" y="-204.5" font-family="Helvetica,sans-Serif" font-size="10.00">ft::irc::make_reply</text>
<text text-anchor="middle" x="378" y="-193.5" font-family="Helvetica,sans-Serif" font-size="10.00">::motd</text>
</a>
</g>
</g>
<!-- Node16&#45;&gt;Node23 -->
<g id="edge23" class="edge">
<title>Node16&#45;&gt;Node23</title>
<path fill="none" stroke="midnightblue" d="M255.3,-308.32C259.87,-305.81 264.19,-302.89 268,-299.5 295.03,-275.45 276.83,-250.39 304,-226.5 307.86,-223.1 312.21,-220.16 316.8,-217.62"/>
<polygon fill="midnightblue" stroke="midnightblue" points="318.43,-220.72 325.89,-213.2 315.37,-214.43 318.43,-220.72"/>
</g>
<!-- Node24 -->
<g id="node24" class="node">
<title>Node24</title>
<g id="a_node24"><a xlink:href="structft_1_1irc_1_1make__reply.html#ac487f0bab92e860c91305ed0b7f02dbe" target="_top" xlink:title=" ">
<polygon fill="white" stroke="black" points="326,-137.5 326,-167.5 430,-167.5 430,-137.5 326,-137.5"/>
<text text-anchor="start" x="334" y="-155.5" font-family="Helvetica,sans-Serif" font-size="10.00">ft::irc::make_reply</text>
<text text-anchor="middle" x="378" y="-144.5" font-family="Helvetica,sans-Serif" font-size="10.00">::motd_start</text>
</a>
</g>
</g>
<!-- Node16&#45;&gt;Node24 -->
<g id="edge24" class="edge">
<title>Node16&#45;&gt;Node24</title>
<path fill="none" stroke="midnightblue" d="M255.62,-309.18C260.18,-306.49 264.41,-303.29 268,-299.5 306.87,-258.45 264.89,-218.33 304,-177.5 307.67,-173.67 311.95,-170.42 316.57,-167.68"/>
<polygon fill="midnightblue" stroke="midnightblue" points="318.46,-170.64 325.79,-162.98 315.29,-164.4 318.46,-170.64"/>
</g>
<!-- Node25 -->
<g id="node25" class="node">
<title>Node25</title>
<g id="a_node25"><a xlink:href="structft_1_1irc_1_1make__error.html#ab15f6ba737319065faa48589151ce227" target="_top" xlink:title=" ">
<polygon fill="white" stroke="black" points="326.5,-88.5 326.5,-118.5 429.5,-118.5 429.5,-88.5 326.5,-88.5"/>
<text text-anchor="start" x="334.5" y="-106.5" font-family="Helvetica,sans-Serif" font-size="10.00">ft::irc::make_error</text>
<text text-anchor="middle" x="378" y="-95.5" font-family="Helvetica,sans-Serif" font-size="10.00">::no_motd</text>
</a>
</g>
</g>
<!-- Node16&#45;&gt;Node25 -->
<g id="edge25" class="edge">
<title>Node16&#45;&gt;Node25</title>
<path fill="none" stroke="midnightblue" d="M255.62,-309.67C260.24,-306.88 264.48,-303.53 268,-299.5 319.11,-241.03 252.55,-186.68 304,-128.5 307.77,-124.24 312.3,-120.7 317.24,-117.76"/>
<polygon fill="midnightblue" stroke="midnightblue" points="319.13,-120.73 326.48,-113.11 315.97,-114.48 319.13,-120.73"/>
</g>
<!-- Node26 -->
<g id="node26" class="node">
<title>Node26</title>
<g id="a_node26"><a xlink:href="classft_1_1irc_1_1server.html#a9bd0c0f5521a9d823a4d097099ebe4da" target="_top" xlink:title=" ">
<polygon fill="white" stroke="black" points="304,-50 304,-69 452,-69 452,-50 304,-50"/>
<text text-anchor="middle" x="378" y="-57" font-family="Helvetica,sans-Serif" font-size="10.00">ft::irc::server::register_user</text>
</a>
</g>
</g>
<!-- Node16&#45;&gt;Node26 -->
<g id="edge26" class="edge">
<title>Node16&#45;&gt;Node26</title>
<path fill="none" stroke="midnightblue" d="M255.81,-309.83C260.39,-307.01 264.57,-303.61 268,-299.5 331.5,-223.45 237.72,-153.15 304,-79.5 305.57,-77.75 307.28,-76.15 309.1,-74.69"/>
<polygon fill="midnightblue" stroke="midnightblue" points="311.22,-77.48 317.69,-69.09 307.4,-71.62 311.22,-77.48"/>
</g>
<!-- Node27 -->
<g id="node27" class="node">
<title>Node27</title>
<g id="a_node27"><a xlink:href="structft_1_1irc_1_1make__reply.html#a125ea72202f5f56289961dd1664a0f69" target="_top" xlink:title=" ">
<polygon fill="white" stroke="black" points="326,-0.5 326,-30.5 430,-30.5 430,-0.5 326,-0.5"/>
<text text-anchor="start" x="334" y="-18.5" font-family="Helvetica,sans-Serif" font-size="10.00">ft::irc::make_reply</text>
<text text-anchor="middle" x="378" y="-7.5" font-family="Helvetica,sans-Serif" font-size="10.00">::user_mode_is</text>
</a>
</g>
</g>
<!-- Node16&#45;&gt;Node27 -->
<g id="edge27" class="edge">
<title>Node16&#45;&gt;Node27</title>
<path fill="none" stroke="midnightblue" d="M255.59,-310.11C260.28,-307.24 264.54,-303.74 268,-299.5 341.41,-209.4 230.07,-130.17 304,-40.5 307.57,-36.17 311.92,-32.59 316.71,-29.63"/>
<polygon fill="midnightblue" stroke="midnightblue" points="318.47,-32.66 325.72,-24.94 315.23,-26.45 318.47,-32.66"/>
</g>
</g>
</svg>
        <g id="navigator" transform="translate(0 0)" fill="#404254">
                <rect fill="#f2f5e9" fill-opacity="0.5" stroke="#606060" stroke-width=".5" x="0" y="0" width="60" height="60"/>
                <use id="zoomplus" xlink:href="#zoomPlus" x="17" y="9" onmousedown="handleZoom(evt,'in')"/>
                <use id="zoomminus" xlink:href="#zoomMin" x="42" y="9" onmousedown="handleZoom(evt,'out')"/>
                <use id="reset" xlink:href="#resetDef" x="30" y="36" onmousedown="handleReset()"/>
                <g id="arrowUp" xlink:href="#dirArrow" transform="translate(30 24)" onmousedown="handlePan(0,-1)">
                  <use xlink:href="#rim" fill="#404040">
                        <set attributeName="fill" to="#808080" begin="arrowUp.mouseover" end="arrowUp.mouseout"/>
                  </use>
                  <path fill="none" stroke="white" stroke-width="1.5" d="M0,-3.0v7 M-2.5,-0.5L0,-3.0L2.5,-0.5"/>
                </g>
                <g id="arrowRight" xlink:href="#dirArrow" transform="rotate(90) translate(36 -43)" onmousedown="handlePan(1,0)">
                  <use xlink:href="#rim" fill="#404040">
                        <set attributeName="fill" to="#808080" begin="arrowRight.mouseover" end="arrowRight.mouseout"/>
                  </use>
                  <path fill="none" stroke="white" stroke-width="1.5" d="M0,-3.0v7 M-2.5,-0.5L0,-3.0L2.5,-0.5"/>
                </g>
                <g id="arrowDown" xlink:href="#dirArrow" transform="rotate(180) translate(-30 -48)" onmousedown="handlePan(0,1)">
                  <use xlink:href="#rim" fill="#404040">
                        <set attributeName="fill" to="#808080" begin="arrowDown.mouseover" end="arrowDown.mouseout"/>
                  </use>
                  <path fill="none" stroke="white" stroke-width="1.5" d="M0,-3.0v7 M-2.5,-0.5L0,-3.0L2.5,-0.5"/>
                </g>
                <g id="arrowLeft" xlink:href="#dirArrow" transform="rotate(270) translate(-36 17)" onmousedown="handlePan(-1,0)">
                  <use xlink:href="#rim" fill="#404040">
                        <set attributeName="fill" to="#808080" begin="arrowLeft.mouseover" end="arrowLeft.mouseout"/>
                  </use>
                  <path fill="none" stroke="white" stroke-width="1.5" d="M0,-3.0v7 M-2.5,-0.5L0,-3.0L2.5,-0.5"/>
                </g>
        </g>
        <svg viewBox="0 0 15 15" width="100%" height="30px" preserveAspectRatio="xMaxYMin meet">
         <g id="arrow_out" transform="scale(0.3 0.3)">
          <a xlink:href="classft_1_1irc_1_1processor__nick_a7a2f0f709488328c04b6ccf0c41ce78e_cgraph_org.svg" target="_base">
           <rect id="button" ry="5" rx="5" y="6" x="6" height="38" width="38"
                fill="#f2f5e9" fill-opacity="0.5" stroke="#606060" stroke-width="1.0"/>
           <path id="arrow"
             d="M 11.500037,31.436501 C 11.940474,20.09759 22.043105,11.32322 32.158766,21.979434 L 37.068811,17.246167 C 37.068811,17.246167 37.088388,32 37.088388,32 L 22.160133,31.978069 C 22.160133,31.978069 26.997745,27.140456 26.997745,27.140456 C 18.528582,18.264221 13.291696,25.230495 11.500037,31.436501 z"
             style="fill:#404040;"/>
          </a>
         </g>
        </svg>
</svg>
