<?xml version="1.0" encoding="UTF-8" standalone="no"?>
<!DOCTYPE svg PUBLIC "-//W3C//DTD SVG 1.1//EN"
 "http://www.w3.org/Graphics/SVG/1.1/DTD/svg11.dtd">
<!-- Generated by graphviz version 2.43.0 (0)
 -->
<!-- Title: ft::irc::client_handler::on_read Pages: 1 -->
<!--zoomable 449 -->
<svg id="main" version="1.1" xmlns="http://www.w3.org/2000/svg" xmlns:xlink="http://www.w3.org/1999/xlink" xml:space="preserve" onload="init(evt)">
<style type="text/css"><![CDATA[
.edge:hover path { stroke: red; }
.edge:hover polygon { stroke: red; fill: red; }
]]></style>
<script type="text/javascript"><![CDATA[
var edges = document.getElementsByTagName('g');
if (edges && edges.length) {
  for (var i=0;i<edges.length;i++) {
    if (edges[i].id.substr(0,4)=='edge') {
      edges[i].setAttribute('class','edge');
    }
  }
}
]]></script>
        <defs>
                <circle id="rim" cx="0" cy="0" r="7"/>
                <circle id="rim2" cx="0" cy="0" r="3.5"/>
                <g id="zoomPlus">
                        <use xlink:href="#rim" fill="#404040">
                                <set attributeName="fill" to="#808080" begin="zoomplus.mouseover" end="zoomplus.mouseout"/>
                        </use>
                        <path d="M-4,0h8M0,-4v8" fill="none" stroke="white" stroke-width="1.5" pointer-events="none"/>
                </g>
                <g id="zoomMin">
                        <use xlink:href="#rim" fill="#404040">
                                <set attributeName="fill" to="#808080" begin="zoomminus.mouseover" end="zoomminus.mouseout"/>
                        </use>
                        <path d="M-4,0h8" fill="none" stroke="white" stroke-width="1.5" pointer-events="none"/>
                </g>
                <g id="dirArrow">
                        <path fill="none" stroke="white" stroke-width="1.5" d="M0,-3.0v7 M-2.5,-0.5L0,-3.0L2.5,-0.5"/>
                </g>
               <g id="resetDef">
                       <use xlink:href="#rim2" fill="#404040">
                               <set attributeName="fill" to="#808080" begin="reset.mouseover" end="reset.mouseout"/>
                       </use>
               </g>
        </defs>

<script type="text/javascript">
var viewWidth = 603;
var viewHeight = 449;
var sectionId = 'dynsection-5';
</script>
<script xlink:href="svgpan.js"/>
<svg id="graph" class="graph">
<g id="viewport">
<title>ft::irc::client_handler::on_read</title>
<polygon fill="white" stroke="transparent" points="-4,4 -4,-445 599,-445 599,4 -4,4"/>
<!-- Node1 -->
<g id="node1" class="node">
<title>Node1</title>
<g id="a_node1"><a xlink:title=" ">
<polygon fill="#bfbfbf" stroke="black" points="0,-210.5 0,-240.5 116,-240.5 116,-210.5 0,-210.5"/>
<text text-anchor="start" x="8" y="-228.5" font-family="Helvetica,sans-Serif" font-size="10.00">ft::irc::client_handler</text>
<text text-anchor="middle" x="58" y="-217.5" font-family="Helvetica,sans-Serif" font-size="10.00">::on_read</text>
</a>
</g>
</g>
<!-- Node2 -->
<g id="node2" class="node">
<title>Node2</title>
<g id="a_node2"><a xlink:href="structft_1_1serv_1_1logger.html#a318b50018ef710a34d9ceea9fcac623c" target="_top" xlink:title=" ">
<polygon fill="white" stroke="black" points="152,-260 152,-279 274,-279 274,-260 152,-260"/>
<text text-anchor="middle" x="213" y="-267" font-family="Helvetica,sans-Serif" font-size="10.00">ft::serv::logger::debug</text>
</a>
</g>
</g>
<!-- Node1&#45;&gt;Node2 -->
<g id="edge1" class="edge">
<title>Node1&#45;&gt;Node2</title>
<path fill="none" stroke="midnightblue" d="M111.23,-240.52C130.07,-245.94 151.11,-251.99 169.07,-257.15"/>
<polygon fill="midnightblue" stroke="midnightblue" points="168.12,-260.52 178.69,-259.92 170.05,-253.79 168.12,-260.52"/>
</g>
<!-- Node3 -->
<g id="node3" class="node">
<title>Node3</title>
<g id="a_node3"><a xlink:href="classft_1_1irc_1_1processor__dictionary.html#a50bd8e9f89f6f6a911f5495272cd7d41" target="_top" xlink:title=" ">
<polygon fill="white" stroke="black" points="156,-210.5 156,-240.5 270,-240.5 270,-210.5 156,-210.5"/>
<text text-anchor="start" x="164" y="-228.5" font-family="Helvetica,sans-Serif" font-size="10.00">ft::irc::processor</text>
<text text-anchor="middle" x="213" y="-217.5" font-family="Helvetica,sans-Serif" font-size="10.00">_dictionary::execute</text>
</a>
</g>
</g>
<!-- Node1&#45;&gt;Node3 -->
<g id="edge2" class="edge">
<title>Node1&#45;&gt;Node3</title>
<path fill="none" stroke="midnightblue" d="M116.41,-225.5C125.97,-225.5 135.96,-225.5 145.73,-225.5"/>
<polygon fill="midnightblue" stroke="midnightblue" points="145.8,-229 155.8,-225.5 145.8,-222 145.8,-229"/>
</g>
<!-- Node15 -->
<g id="node15" class="node">
<title>Node15</title>
<g id="a_node15"><a xlink:href="classft_1_1irc_1_1message.html#a076fdbb740cb752dd153e207f076183a" target="_top" xlink:title=" ">
<polygon fill="white" stroke="black" points="159.5,-161.5 159.5,-191.5 266.5,-191.5 266.5,-161.5 159.5,-161.5"/>
<text text-anchor="start" x="167.5" y="-179.5" font-family="Helvetica,sans-Serif" font-size="10.00">ft::irc::message::to</text>
<text text-anchor="middle" x="213" y="-168.5" font-family="Helvetica,sans-Serif" font-size="10.00">_pretty_string</text>
</a>
</g>
</g>
<!-- Node1&#45;&gt;Node15 -->
<g id="edge14" class="edge">
<title>Node1&#45;&gt;Node15</title>
<path fill="none" stroke="midnightblue" d="M106.15,-210.4C121.64,-205.44 139.02,-199.87 155.15,-194.71"/>
<polygon fill="midnightblue" stroke="midnightblue" points="156.55,-197.93 165,-191.55 154.41,-191.27 156.55,-197.93"/>
</g>
<!-- Node4 -->
<g id="node4" class="node">
<title>Node4</title>
<g id="a_node4"><a xlink:href="classft_1_1irc_1_1processor__dictionary.html#a4a332e955e92eb2af421b69d2cf8ecf9" target="_top" xlink:title=" ">
<polygon fill="white" stroke="black" points="339.5,-410.5 339.5,-440.5 434.5,-440.5 434.5,-410.5 339.5,-410.5"/>
<text text-anchor="start" x="347.5" y="-428.5" font-family="Helvetica,sans-Serif" font-size="10.00">ft::irc::processor</text>
<text text-anchor="middle" x="387" y="-417.5" font-family="Helvetica,sans-Serif" font-size="10.00">_dictionary::get</text>
</a>
</g>
</g>
<!-- Node3&#45;&gt;Node4 -->
<g id="edge3" class="edge">
<title>Node3&#45;&gt;Node4</title>
<path fill="none" stroke="midnightblue" d="M262.38,-240.57C266.72,-243.35 270.71,-246.63 274,-250.5 318.71,-303.04 263,-350.99 310,-401.5 315.43,-407.34 322.28,-411.77 329.62,-415.12"/>
<polygon fill="midnightblue" stroke="midnightblue" points="328.52,-418.45 339.11,-418.82 331.06,-411.93 328.52,-418.45"/>
</g>
<!-- Node6 -->
<g id="node6" class="node">
<title>Node6</title>
<g id="a_node6"><a xlink:href="classft_1_1irc_1_1message.html#ad323e99c45f6feec038a7de683f812a2" target="_top" xlink:title=" ">
<polygon fill="white" stroke="black" points="330.5,-361.5 330.5,-391.5 443.5,-391.5 443.5,-361.5 330.5,-361.5"/>
<text text-anchor="start" x="338.5" y="-379.5" font-family="Helvetica,sans-Serif" font-size="10.00">ft::irc::message::get</text>
<text text-anchor="middle" x="387" y="-368.5" font-family="Helvetica,sans-Serif" font-size="10.00">_command</text>
</a>
</g>
</g>
<!-- Node3&#45;&gt;Node6 -->
<g id="edge5" class="edge">
<title>Node3&#45;&gt;Node6</title>
<path fill="none" stroke="midnightblue" d="M261.38,-240.59C266.02,-243.38 270.35,-246.65 274,-250.5 306.8,-285.07 275.89,-318.22 310,-351.5 313.33,-354.75 317.1,-357.58 321.12,-360.04"/>
<polygon fill="midnightblue" stroke="midnightblue" points="319.8,-363.3 330.28,-364.86 323.06,-357.11 319.8,-363.3"/>
</g>
<!-- Node7 -->
<g id="node7" class="node">
<title>Node7</title>
<g id="a_node7"><a xlink:href="classft_1_1irc_1_1user.html#a6abd166e9093025e349bd851099f8f9e" target="_top" xlink:title=" ">
<polygon fill="white" stroke="black" points="325.5,-323 325.5,-342 448.5,-342 448.5,-323 325.5,-323"/>
<text text-anchor="middle" x="387" y="-330" font-family="Helvetica,sans-Serif" font-size="10.00">ft::irc::user::get_mode</text>
</a>
</g>
</g>
<!-- Node3&#45;&gt;Node7 -->
<g id="edge6" class="edge">
<title>Node3&#45;&gt;Node7</title>
<path fill="none" stroke="midnightblue" d="M259.5,-240.59C264.71,-243.41 269.69,-246.69 274,-250.5 298.18,-271.84 284.29,-294.03 310,-313.5 312.47,-315.37 315.1,-317.06 317.84,-318.58"/>
<polygon fill="midnightblue" stroke="midnightblue" points="316.4,-321.77 326.93,-322.9 319.41,-315.45 316.4,-321.77"/>
</g>
<!-- Node8 -->
<g id="node8" class="node">
<title>Node8</title>
<g id="a_node8"><a xlink:href="classft_1_1irc_1_1user.html#a7d133deb3a63faa2627b50cbbdf3a607" target="_top" xlink:title=" ">
<polygon fill="white" stroke="black" points="318.5,-285 318.5,-304 455.5,-304 455.5,-285 318.5,-285"/>
<text text-anchor="middle" x="387" y="-292" font-family="Helvetica,sans-Serif" font-size="10.00">ft::irc::user::is_registered</text>
</a>
</g>
</g>
<!-- Node3&#45;&gt;Node8 -->
<g id="edge7" class="edge">
<title>Node3&#45;&gt;Node8</title>
<path fill="none" stroke="midnightblue" d="M253.62,-240.6C260.53,-243.63 267.57,-246.98 274,-250.5 291.09,-259.85 292.26,-267.45 310,-275.5 315.4,-277.95 321.16,-280.11 327,-282.02"/>
<polygon fill="midnightblue" stroke="midnightblue" points="326.28,-285.46 336.86,-284.99 328.3,-278.76 326.28,-285.46"/>
</g>
<!-- Node9 -->
<g id="node9" class="node">
<title>Node9</title>
<g id="a_node9"><a xlink:href="structft_1_1irc_1_1make__error.html#a9ce67256e955eeced06d90b853fa01fa" target="_top" xlink:title=" ">
<polygon fill="white" stroke="black" points="317.5,-235.5 317.5,-265.5 456.5,-265.5 456.5,-235.5 317.5,-235.5"/>
<text text-anchor="start" x="325.5" y="-253.5" font-family="Helvetica,sans-Serif" font-size="10.00">ft::irc::make_error</text>
<text text-anchor="middle" x="387" y="-242.5" font-family="Helvetica,sans-Serif" font-size="10.00">::need_more_parameters</text>
</a>
</g>
</g>
<!-- Node3&#45;&gt;Node9 -->
<g id="edge8" class="edge">
<title>Node3&#45;&gt;Node9</title>
<path fill="none" stroke="midnightblue" d="M270.32,-233.69C282.15,-235.41 294.83,-237.25 307.3,-239.06"/>
<polygon fill="midnightblue" stroke="midnightblue" points="306.85,-242.53 317.24,-240.51 307.85,-235.6 306.85,-242.53"/>
</g>
<!-- Node10 -->
<g id="node10" class="node">
<title>Node10</title>
<g id="a_node10"><a xlink:href="structft_1_1irc_1_1make__error.html#a7d1376947e09efd6feb04512a2029ebb" target="_top" xlink:title=" ">
<polygon fill="white" stroke="black" points="335.5,-186.5 335.5,-216.5 438.5,-216.5 438.5,-186.5 335.5,-186.5"/>
<text text-anchor="start" x="343.5" y="-204.5" font-family="Helvetica,sans-Serif" font-size="10.00">ft::irc::make_error</text>
<text text-anchor="middle" x="387" y="-193.5" font-family="Helvetica,sans-Serif" font-size="10.00">::no_privileges</text>
</a>
</g>
</g>
<!-- Node3&#45;&gt;Node10 -->
<g id="edge9" class="edge">
<title>Node3&#45;&gt;Node10</title>
<path fill="none" stroke="midnightblue" d="M270.32,-217.64C287.93,-215.18 307.43,-212.46 325.32,-209.97"/>
<polygon fill="midnightblue" stroke="midnightblue" points="325.94,-213.41 335.36,-208.57 324.97,-206.48 325.94,-213.41"/>
</g>
<!-- Node11 -->
<g id="node11" class="node">
<title>Node11</title>
<g id="a_node11"><a xlink:href="structft_1_1irc_1_1make__error.html#a49645e4bd33462f78ef25521c290437f" target="_top" xlink:title=" ">
<polygon fill="white" stroke="black" points="335.5,-137.5 335.5,-167.5 438.5,-167.5 438.5,-137.5 335.5,-137.5"/>
<text text-anchor="start" x="343.5" y="-155.5" font-family="Helvetica,sans-Serif" font-size="10.00">ft::irc::make_error</text>
<text text-anchor="middle" x="387" y="-144.5" font-family="Helvetica,sans-Serif" font-size="10.00">::not_registered</text>
</a>
</g>
</g>
<!-- Node3&#45;&gt;Node11 -->
<g id="edge10" class="edge">
<title>Node3&#45;&gt;Node11</title>
<path fill="none" stroke="midnightblue" d="M254.86,-210.48C261.37,-207.72 267.94,-204.69 274,-201.5 291.02,-192.55 292.71,-185.91 310,-177.5 315,-175.07 320.29,-172.79 325.66,-170.67"/>
<polygon fill="midnightblue" stroke="midnightblue" points="327.23,-173.82 335.36,-167.03 324.77,-167.26 327.23,-173.82"/>
</g>
<!-- Node12 -->
<g id="node12" class="node">
<title>Node12</title>
<g id="a_node12"><a xlink:href="classft_1_1irc_1_1message.html#a34f457ead0453ad914af2cb0482a40b9" target="_top" xlink:title=" ">
<polygon fill="white" stroke="black" points="310,-99 310,-118 464,-118 464,-99 310,-99"/>
<text text-anchor="middle" x="387" y="-106" font-family="Helvetica,sans-Serif" font-size="10.00">ft::irc::message::param_size</text>
</a>
</g>
</g>
<!-- Node3&#45;&gt;Node12 -->
<g id="edge11" class="edge">
<title>Node3&#45;&gt;Node12</title>
<path fill="none" stroke="midnightblue" d="M261.54,-210.45C266.04,-207.89 270.29,-204.93 274,-201.5 300.55,-176.93 281.98,-151.39 310,-128.5 312.72,-126.27 315.67,-124.29 318.77,-122.53"/>
<polygon fill="midnightblue" stroke="midnightblue" points="320.37,-125.65 327.83,-118.13 317.3,-119.35 320.37,-125.65"/>
</g>
<!-- Node13 -->
<g id="node13" class="node">
<title>Node13</title>
<g id="a_node13"><a xlink:href="classft_1_1irc_1_1user.html#a1db558d6d694ca943224c2440fe36c50" target="_top" xlink:title=" ">
<polygon fill="white" stroke="black" points="338,-49.5 338,-79.5 436,-79.5 436,-49.5 338,-49.5"/>
<text text-anchor="start" x="346" y="-67.5" font-family="Helvetica,sans-Serif" font-size="10.00">ft::irc::user::send</text>
<text text-anchor="middle" x="387" y="-56.5" font-family="Helvetica,sans-Serif" font-size="10.00">_message</text>
</a>
</g>
</g>
<!-- Node3&#45;&gt;Node13 -->
<g id="edge12" class="edge">
<title>Node3&#45;&gt;Node13</title>
<path fill="none" stroke="midnightblue" d="M262.95,-210.45C267.01,-207.91 270.79,-204.95 274,-201.5 309.66,-163.27 273.15,-126.6 310,-89.5 315.25,-84.22 321.63,-80.05 328.45,-76.76"/>
<polygon fill="midnightblue" stroke="midnightblue" points="330.06,-79.88 337.94,-72.8 327.36,-73.42 330.06,-79.88"/>
</g>
<!-- Node14 -->
<g id="node14" class="node">
<title>Node14</title>
<g id="a_node14"><a xlink:href="structft_1_1irc_1_1make__error.html#a67e1d93a440b1db3ddbf9bff22cd2d8b" target="_top" xlink:title=" ">
<polygon fill="white" stroke="black" points="326.5,-0.5 326.5,-30.5 447.5,-30.5 447.5,-0.5 326.5,-0.5"/>
<text text-anchor="start" x="334.5" y="-18.5" font-family="Helvetica,sans-Serif" font-size="10.00">ft::irc::make_error</text>
<text text-anchor="middle" x="387" y="-7.5" font-family="Helvetica,sans-Serif" font-size="10.00">::unknown_command</text>
</a>
</g>
</g>
<!-- Node3&#45;&gt;Node14 -->
<g id="edge13" class="edge">
<title>Node3&#45;&gt;Node14</title>
<path fill="none" stroke="midnightblue" d="M263.85,-210.37C267.63,-207.85 271.09,-204.92 274,-201.5 321.52,-145.66 260.75,-94.82 310,-40.5 312.29,-37.98 314.83,-35.71 317.56,-33.67"/>
<polygon fill="midnightblue" stroke="midnightblue" points="319.65,-36.5 326.25,-28.21 315.92,-30.57 319.65,-36.5"/>
</g>
<!-- Node5 -->
<g id="node5" class="node">
<title>Node5</title>
<g id="a_node5"><a xlink:href="classft_1_1irc_1_1processor__dictionary.html#ad4ae0363dd8c877b12114b358b0c2673" target="_top" xlink:title=" ">
<polygon fill="white" stroke="black" points="500,-410.5 500,-440.5 595,-440.5 595,-410.5 500,-410.5"/>
<text text-anchor="start" x="508" y="-428.5" font-family="Helvetica,sans-Serif" font-size="10.00">ft::irc::processor</text>
<text text-anchor="middle" x="547.5" y="-417.5" font-family="Helvetica,sans-Serif" font-size="10.00">_dictionary::init</text>
</a>
</g>
</g>
<!-- Node4&#45;&gt;Node5 -->
<g id="edge4" class="edge">
<title>Node4&#45;&gt;Node5</title>
<path fill="none" stroke="midnightblue" d="M434.7,-425.5C451.95,-425.5 471.7,-425.5 489.75,-425.5"/>
<polygon fill="midnightblue" stroke="midnightblue" points="489.86,-429 499.86,-425.5 489.86,-422 489.86,-429"/>
</g>
</g>
</svg>
        <g id="navigator" transform="translate(0 0)" fill="#404254">
                <rect fill="#f2f5e9" fill-opacity="0.5" stroke="#606060" stroke-width=".5" x="0" y="0" width="60" height="60"/>
                <use id="zoomplus" xlink:href="#zoomPlus" x="17" y="9" onmousedown="handleZoom(evt,'in')"/>
                <use id="zoomminus" xlink:href="#zoomMin" x="42" y="9" onmousedown="handleZoom(evt,'out')"/>
                <use id="reset" xlink:href="#resetDef" x="30" y="36" onmousedown="handleReset()"/>
                <g id="arrowUp" xlink:href="#dirArrow" transform="translate(30 24)" onmousedown="handlePan(0,-1)">
                  <use xlink:href="#rim" fill="#404040">
                        <set attributeName="fill" to="#808080" begin="arrowUp.mouseover" end="arrowUp.mouseout"/>
                  </use>
                  <path fill="none" stroke="white" stroke-width="1.5" d="M0,-3.0v7 M-2.5,-0.5L0,-3.0L2.5,-0.5"/>
                </g>
                <g id="arrowRight" xlink:href="#dirArrow" transform="rotate(90) translate(36 -43)" onmousedown="handlePan(1,0)">
                  <use xlink:href="#rim" fill="#404040">
                        <set attributeName="fill" to="#808080" begin="arrowRight.mouseover" end="arrowRight.mouseout"/>
                  </use>
                  <path fill="none" stroke="white" stroke-width="1.5" d="M0,-3.0v7 M-2.5,-0.5L0,-3.0L2.5,-0.5"/>
                </g>
                <g id="arrowDown" xlink:href="#dirArrow" transform="rotate(180) translate(-30 -48)" onmousedown="handlePan(0,1)">
                  <use xlink:href="#rim" fill="#404040">
                        <set attributeName="fill" to="#808080" begin="arrowDown.mouseover" end="arrowDown.mouseout"/>
                  </use>
                  <path fill="none" stroke="white" stroke-width="1.5" d="M0,-3.0v7 M-2.5,-0.5L0,-3.0L2.5,-0.5"/>
                </g>
                <g id="arrowLeft" xlink:href="#dirArrow" transform="rotate(270) translate(-36 17)" onmousedown="handlePan(-1,0)">
                  <use xlink:href="#rim" fill="#404040">
                        <set attributeName="fill" to="#808080" begin="arrowLeft.mouseover" end="arrowLeft.mouseout"/>
                  </use>
                  <path fill="none" stroke="white" stroke-width="1.5" d="M0,-3.0v7 M-2.5,-0.5L0,-3.0L2.5,-0.5"/>
                </g>
        </g>
        <svg viewBox="0 0 15 15" width="100%" height="30px" preserveAspectRatio="xMaxYMin meet">
         <g id="arrow_out" transform="scale(0.3 0.3)">
          <a xlink:href="classft_1_1irc_1_1client__handler_a239d2ec2a936d74893455a83468669b3_cgraph_org.svg" target="_base">
           <rect id="button" ry="5" rx="5" y="6" x="6" height="38" width="38"
                fill="#f2f5e9" fill-opacity="0.5" stroke="#606060" stroke-width="1.0"/>
           <path id="arrow"
             d="M 11.500037,31.436501 C 11.940474,20.09759 22.043105,11.32322 32.158766,21.979434 L 37.068811,17.246167 C 37.068811,17.246167 37.088388,32 37.088388,32 L 22.160133,31.978069 C 22.160133,31.978069 26.997745,27.140456 26.997745,27.140456 C 18.528582,18.264221 13.291696,25.230495 11.500037,31.436501 z"
             style="fill:#404040;"/>
          </a>
         </g>
        </svg>
</svg>
