<?xml version="1.0" encoding="UTF-8" standalone="no"?>
<!DOCTYPE svg PUBLIC "-//W3C//DTD SVG 1.1//EN"
 "http://www.w3.org/Graphics/SVG/1.1/DTD/svg11.dtd">
<!-- Generated by graphviz version 2.43.0 (0)
 -->
<!-- Title: ft::irc::processor_user::execute Pages: 1 -->
<svg width="460pt" height="578pt"
 viewBox="0.00 0.00 460.00 578.00" xmlns="http://www.w3.org/2000/svg" xmlns:xlink="http://www.w3.org/1999/xlink">
<g id="graph0" class="graph" transform="scale(1 1) rotate(0) translate(4 574)">
<title>ft::irc::processor_user::execute</title>
<polygon fill="white" stroke="transparent" points="-4,4 -4,-574 456,-574 456,4 -4,4"/>
<!-- Node1 -->
<g id="node1" class="node">
<title>Node1</title>
<g id="a_node1"><a xlink:title=" ">
<polygon fill="#bfbfbf" stroke="black" points="0,-220.5 0,-250.5 95,-250.5 95,-220.5 0,-220.5"/>
<text text-anchor="start" x="8" y="-238.5" font-family="Helvetica,sans-Serif" font-size="10.00">ft::irc::processor</text>
<text text-anchor="middle" x="47.5" y="-227.5" font-family="Helvetica,sans-Serif" font-size="10.00">_user::execute</text>
</a>
</g>
</g>
<!-- Node2 -->
<g id="node2" class="node">
<title>Node2</title>
<g id="a_node2"><a xlink:href="structft_1_1irc_1_1make__error.html#a6f8fa7cb4070da5f43099f44a0cb6c66" target="_top" xlink:title=" ">
<polygon fill="white" stroke="black" points="142.5,-431.5 142.5,-461.5 256.5,-461.5 256.5,-431.5 142.5,-431.5"/>
<text text-anchor="start" x="150.5" y="-449.5" font-family="Helvetica,sans-Serif" font-size="10.00">ft::irc::make_error</text>
<text text-anchor="middle" x="199.5" y="-438.5" font-family="Helvetica,sans-Serif" font-size="10.00">::already_registered</text>
</a>
</g>
</g>
<!-- Node1&#45;&gt;Node2 -->
<g id="edge1" class="edge">
<title>Node1&#45;&gt;Node2</title>
<path fill="none" stroke="midnightblue" d="M51,-250.7C57.58,-285.93 78.61,-373.84 131,-422.5 132.28,-423.69 133.63,-424.83 135.03,-425.91"/>
<polygon fill="midnightblue" stroke="midnightblue" points="133.27,-428.93 143.55,-431.49 137.11,-423.08 133.27,-428.93"/>
</g>
<!-- Node3 -->
<g id="node3" class="node">
<title>Node3</title>
<g id="a_node3"><a xlink:href="classft_1_1irc_1_1user.html#a080531f81f28fd4b65d15f603d1af818" target="_top" xlink:title=" ">
<polygon fill="white" stroke="black" points="154.5,-382.5 154.5,-412.5 244.5,-412.5 244.5,-382.5 154.5,-382.5"/>
<text text-anchor="start" x="162.5" y="-400.5" font-family="Helvetica,sans-Serif" font-size="10.00">ft::irc::user::get</text>
<text text-anchor="middle" x="199.5" y="-389.5" font-family="Helvetica,sans-Serif" font-size="10.00">_register_state</text>
</a>
</g>
</g>
<!-- Node1&#45;&gt;Node3 -->
<g id="edge2" class="edge">
<title>Node1&#45;&gt;Node3</title>
<path fill="none" stroke="midnightblue" d="M53.69,-250.53C64.07,-278.44 89.95,-338.5 131,-372.5 135.27,-376.04 140.09,-379.1 145.14,-381.74"/>
<polygon fill="midnightblue" stroke="midnightblue" points="143.86,-385.01 154.4,-386.07 146.82,-378.67 143.86,-385.01"/>
</g>
<!-- Node4 -->
<g id="node4" class="node">
<title>Node4</title>
<g id="a_node4"><a xlink:href="classft_1_1irc_1_1user.html#a7d133deb3a63faa2627b50cbbdf3a607" target="_top" xlink:title=" ">
<polygon fill="white" stroke="black" points="131,-344 131,-363 268,-363 268,-344 131,-344"/>
<text text-anchor="middle" x="199.5" y="-351" font-family="Helvetica,sans-Serif" font-size="10.00">ft::irc::user::is_registered</text>
</a>
</g>
</g>
<!-- Node1&#45;&gt;Node4 -->
<g id="edge3" class="edge">
<title>Node1&#45;&gt;Node4</title>
<path fill="none" stroke="midnightblue" d="M57.06,-250.7C70.15,-272.55 97.21,-312.59 131,-334.5 134.15,-336.54 137.52,-338.37 141,-340"/>
<polygon fill="midnightblue" stroke="midnightblue" points="139.88,-343.32 150.46,-343.88 142.54,-336.84 139.88,-343.32"/>
</g>
<!-- Node5 -->
<g id="node5" class="node">
<title>Node5</title>
<g id="a_node5"><a xlink:href="classft_1_1irc_1_1user.html#affa6016f0c81205cd3c60ea6e9706132" target="_top" xlink:title=" ">
<polygon fill="white" stroke="black" points="143.5,-294.5 143.5,-324.5 255.5,-324.5 255.5,-294.5 143.5,-294.5"/>
<text text-anchor="start" x="151.5" y="-312.5" font-family="Helvetica,sans-Serif" font-size="10.00">ft::irc::user::register</text>
<text text-anchor="middle" x="199.5" y="-301.5" font-family="Helvetica,sans-Serif" font-size="10.00">_to_server</text>
</a>
</g>
</g>
<!-- Node1&#45;&gt;Node5 -->
<g id="edge4" class="edge">
<title>Node1&#45;&gt;Node5</title>
<path fill="none" stroke="midnightblue" d="M70.57,-250.57C86.81,-261.23 109.67,-275.37 131,-285.5 134.79,-287.3 138.76,-289.04 142.78,-290.71"/>
<polygon fill="midnightblue" stroke="midnightblue" points="141.65,-294.03 152.24,-294.47 144.24,-287.52 141.65,-294.03"/>
</g>
<!-- Node17 -->
<g id="node17" class="node">
<title>Node17</title>
<g id="a_node17"><a xlink:href="classft_1_1irc_1_1user.html#a1db558d6d694ca943224c2440fe36c50" target="_top" xlink:title=" ">
<polygon fill="white" stroke="black" points="150.5,-245.5 150.5,-275.5 248.5,-275.5 248.5,-245.5 150.5,-245.5"/>
<text text-anchor="start" x="158.5" y="-263.5" font-family="Helvetica,sans-Serif" font-size="10.00">ft::irc::user::send</text>
<text text-anchor="middle" x="199.5" y="-252.5" font-family="Helvetica,sans-Serif" font-size="10.00">_message</text>
</a>
</g>
</g>
<!-- Node1&#45;&gt;Node17 -->
<g id="edge16" class="edge">
<title>Node1&#45;&gt;Node17</title>
<path fill="none" stroke="midnightblue" d="M95.14,-243.27C109.39,-245.65 125.25,-248.29 140.18,-250.78"/>
<polygon fill="midnightblue" stroke="midnightblue" points="139.9,-254.28 150.34,-252.47 141.05,-247.38 139.9,-254.28"/>
</g>
<!-- Node18 -->
<g id="node18" class="node">
<title>Node18</title>
<g id="a_node18"><a xlink:href="classft_1_1irc_1_1user.html#ac0682a75e9f388395205f29af0a15eba" target="_top" xlink:title=" ">
<polygon fill="white" stroke="black" points="155,-196.5 155,-226.5 244,-226.5 244,-196.5 155,-196.5"/>
<text text-anchor="start" x="163" y="-214.5" font-family="Helvetica,sans-Serif" font-size="10.00">ft::irc::user::set</text>
<text text-anchor="middle" x="199.5" y="-203.5" font-family="Helvetica,sans-Serif" font-size="10.00">_hostname</text>
</a>
</g>
</g>
<!-- Node1&#45;&gt;Node18 -->
<g id="edge17" class="edge">
<title>Node1&#45;&gt;Node18</title>
<path fill="none" stroke="midnightblue" d="M95.14,-228.04C110.95,-225.51 128.73,-222.66 145.03,-220.05"/>
<polygon fill="midnightblue" stroke="midnightblue" points="145.64,-223.5 154.96,-218.47 144.53,-216.59 145.64,-223.5"/>
</g>
<!-- Node19 -->
<g id="node19" class="node">
<title>Node19</title>
<g id="a_node19"><a xlink:href="classft_1_1irc_1_1user.html#a4c180ab232dc971d05a466d72daf1e3a" target="_top" xlink:title=" ">
<polygon fill="white" stroke="black" points="155,-147.5 155,-177.5 244,-177.5 244,-147.5 155,-147.5"/>
<text text-anchor="start" x="163" y="-165.5" font-family="Helvetica,sans-Serif" font-size="10.00">ft::irc::user::set</text>
<text text-anchor="middle" x="199.5" y="-154.5" font-family="Helvetica,sans-Serif" font-size="10.00">_realname</text>
</a>
</g>
</g>
<!-- Node1&#45;&gt;Node19 -->
<g id="edge18" class="edge">
<title>Node1&#45;&gt;Node19</title>
<path fill="none" stroke="midnightblue" d="M72.1,-220.31C88.28,-210.25 110.47,-197.19 131,-187.5 135.61,-185.32 140.47,-183.2 145.38,-181.18"/>
<polygon fill="midnightblue" stroke="midnightblue" points="146.84,-184.37 154.83,-177.42 144.25,-177.87 146.84,-184.37"/>
</g>
<!-- Node20 -->
<g id="node20" class="node">
<title>Node20</title>
<g id="a_node20"><a xlink:href="classft_1_1irc_1_1user.html#a9bf0e20ae3e94760f4d135790e2877d8" target="_top" xlink:title=" ">
<polygon fill="white" stroke="black" points="155,-98.5 155,-128.5 244,-128.5 244,-98.5 155,-98.5"/>
<text text-anchor="start" x="163" y="-116.5" font-family="Helvetica,sans-Serif" font-size="10.00">ft::irc::user::set</text>
<text text-anchor="middle" x="199.5" y="-105.5" font-family="Helvetica,sans-Serif" font-size="10.00">_register_state</text>
</a>
</g>
</g>
<!-- Node1&#45;&gt;Node20 -->
<g id="edge19" class="edge">
<title>Node1&#45;&gt;Node20</title>
<path fill="none" stroke="midnightblue" d="M57.83,-220.25C71.46,-199.14 98.75,-161.05 131,-138.5 135.48,-135.37 140.4,-132.57 145.48,-130.1"/>
<polygon fill="midnightblue" stroke="midnightblue" points="147.02,-133.24 154.73,-125.97 144.17,-126.85 147.02,-133.24"/>
</g>
<!-- Node21 -->
<g id="node21" class="node">
<title>Node21</title>
<g id="a_node21"><a xlink:href="classft_1_1irc_1_1user.html#acb0e5c24b4e9431131ab7966b798b4cf" target="_top" xlink:title=" ">
<polygon fill="white" stroke="black" points="155,-49.5 155,-79.5 244,-79.5 244,-49.5 155,-49.5"/>
<text text-anchor="start" x="163" y="-67.5" font-family="Helvetica,sans-Serif" font-size="10.00">ft::irc::user::set</text>
<text text-anchor="middle" x="199.5" y="-56.5" font-family="Helvetica,sans-Serif" font-size="10.00">_servername</text>
</a>
</g>
</g>
<!-- Node1&#45;&gt;Node21 -->
<g id="edge20" class="edge">
<title>Node1&#45;&gt;Node21</title>
<path fill="none" stroke="midnightblue" d="M53.04,-220.25C62.6,-190.65 87.59,-125.1 131,-88.5 135.45,-84.75 140.52,-81.57 145.85,-78.88"/>
<polygon fill="midnightblue" stroke="midnightblue" points="147.28,-82.07 154.98,-74.79 144.42,-75.68 147.28,-82.07"/>
</g>
<!-- Node22 -->
<g id="node22" class="node">
<title>Node22</title>
<g id="a_node22"><a xlink:href="classft_1_1irc_1_1user.html#a1e0a86674053819cccf1589b95db4060" target="_top" xlink:title=" ">
<polygon fill="white" stroke="black" points="155,-0.5 155,-30.5 244,-30.5 244,-0.5 155,-0.5"/>
<text text-anchor="start" x="163" y="-18.5" font-family="Helvetica,sans-Serif" font-size="10.00">ft::irc::user::set</text>
<text text-anchor="middle" x="199.5" y="-7.5" font-family="Helvetica,sans-Serif" font-size="10.00">_username</text>
</a>
</g>
</g>
<!-- Node1&#45;&gt;Node22 -->
<g id="edge21" class="edge">
<title>Node1&#45;&gt;Node22</title>
<path fill="none" stroke="midnightblue" d="M50.64,-220.39C56.57,-184.06 76.52,-90.97 131,-39.5 135.29,-35.45 140.3,-32.08 145.62,-29.27"/>
<polygon fill="midnightblue" stroke="midnightblue" points="147.17,-32.41 154.8,-25.06 144.26,-26.05 147.17,-32.41"/>
</g>
<!-- Node6 -->
<g id="node6" class="node">
<title>Node6</title>
<g id="a_node6"><a xlink:href="structft_1_1irc_1_1make__reply.html#ad65f94ea29a9d677937915bf6d92aed2" target="_top" xlink:title=" ">
<polygon fill="white" stroke="black" points="326,-539.5 326,-569.5 430,-569.5 430,-539.5 326,-539.5"/>
<text text-anchor="start" x="334" y="-557.5" font-family="Helvetica,sans-Serif" font-size="10.00">ft::irc::make_reply</text>
<text text-anchor="middle" x="378" y="-546.5" font-family="Helvetica,sans-Serif" font-size="10.00">::end_of_motd</text>
</a>
</g>
</g>
<!-- Node5&#45;&gt;Node6 -->
<g id="edge5" class="edge">
<title>Node5&#45;&gt;Node6</title>
<path fill="none" stroke="midnightblue" d="M255.75,-324.08C260.34,-326.95 264.54,-330.39 268,-334.5 324.98,-402.31 245.77,-463.76 304,-530.5 307.67,-534.71 312.1,-538.18 316.93,-541.05"/>
<polygon fill="midnightblue" stroke="midnightblue" points="315.48,-544.24 325.99,-545.58 318.61,-537.98 315.48,-544.24"/>
</g>
<!-- Node7 -->
<g id="node7" class="node">
<title>Node7</title>
<g id="a_node7"><a xlink:href="structft_1_1irc_1_1make__reply.html#af8641b515a8bfe338b4b3ed793cb4677" target="_top" xlink:title=" ">
<polygon fill="white" stroke="black" points="326,-490.5 326,-520.5 430,-520.5 430,-490.5 326,-490.5"/>
<text text-anchor="start" x="334" y="-508.5" font-family="Helvetica,sans-Serif" font-size="10.00">ft::irc::make_reply</text>
<text text-anchor="middle" x="378" y="-497.5" font-family="Helvetica,sans-Serif" font-size="10.00">::luser_channels</text>
</a>
</g>
</g>
<!-- Node5&#45;&gt;Node7 -->
<g id="edge6" class="edge">
<title>Node5&#45;&gt;Node7</title>
<path fill="none" stroke="midnightblue" d="M255.82,-324.49C260.34,-327.28 264.51,-330.58 268,-334.5 312.76,-384.71 258.31,-432.13 304,-481.5 307.74,-485.54 312.17,-488.9 316.97,-491.7"/>
<polygon fill="midnightblue" stroke="midnightblue" points="315.42,-494.84 325.94,-496.14 318.53,-488.57 315.42,-494.84"/>
</g>
<!-- Node8 -->
<g id="node8" class="node">
<title>Node8</title>
<g id="a_node8"><a xlink:href="structft_1_1irc_1_1make__reply.html#a03397f6e9db01891c6cf1f1526ead9a5" target="_top" xlink:title=" ">
<polygon fill="white" stroke="black" points="326,-441.5 326,-471.5 430,-471.5 430,-441.5 326,-441.5"/>
<text text-anchor="start" x="334" y="-459.5" font-family="Helvetica,sans-Serif" font-size="10.00">ft::irc::make_reply</text>
<text text-anchor="middle" x="378" y="-448.5" font-family="Helvetica,sans-Serif" font-size="10.00">::luser_client</text>
</a>
</g>
</g>
<!-- Node5&#45;&gt;Node8 -->
<g id="edge7" class="edge">
<title>Node5&#45;&gt;Node8</title>
<path fill="none" stroke="midnightblue" d="M254.71,-324.53C259.57,-327.31 264.12,-330.61 268,-334.5 300.77,-367.35 270.63,-400.26 304,-432.5 307.74,-436.12 312.04,-439.19 316.63,-441.79"/>
<polygon fill="midnightblue" stroke="midnightblue" points="315.25,-445.01 325.77,-446.26 318.32,-438.72 315.25,-445.01"/>
</g>
<!-- Node9 -->
<g id="node9" class="node">
<title>Node9</title>
<g id="a_node9"><a xlink:href="structft_1_1irc_1_1make__reply.html#ad75b7d6f4b115c9a700e87ed7a947531" target="_top" xlink:title=" ">
<polygon fill="white" stroke="black" points="326,-392.5 326,-422.5 430,-422.5 430,-392.5 326,-392.5"/>
<text text-anchor="start" x="334" y="-410.5" font-family="Helvetica,sans-Serif" font-size="10.00">ft::irc::make_reply</text>
<text text-anchor="middle" x="378" y="-399.5" font-family="Helvetica,sans-Serif" font-size="10.00">::luser_me</text>
</a>
</g>
</g>
<!-- Node5&#45;&gt;Node9 -->
<g id="edge8" class="edge">
<title>Node5&#45;&gt;Node9</title>
<path fill="none" stroke="midnightblue" d="M251.24,-324.54C257.17,-327.36 262.91,-330.66 268,-334.5 289.58,-350.77 282.12,-367.64 304,-383.5 307.91,-386.34 312.18,-388.85 316.62,-391.08"/>
<polygon fill="midnightblue" stroke="midnightblue" points="315.37,-394.35 325.93,-395.25 318.24,-387.97 315.37,-394.35"/>
</g>
<!-- Node10 -->
<g id="node10" class="node">
<title>Node10</title>
<g id="a_node10"><a xlink:href="structft_1_1irc_1_1make__reply.html#a71059f2ecea0dcf5b7c3d48a49b27652" target="_top" xlink:title=" ">
<polygon fill="white" stroke="black" points="326,-343.5 326,-373.5 430,-373.5 430,-343.5 326,-343.5"/>
<text text-anchor="start" x="334" y="-361.5" font-family="Helvetica,sans-Serif" font-size="10.00">ft::irc::make_reply</text>
<text text-anchor="middle" x="378" y="-350.5" font-family="Helvetica,sans-Serif" font-size="10.00">::luser_operator</text>
</a>
</g>
</g>
<!-- Node5&#45;&gt;Node10 -->
<g id="edge9" class="edge">
<title>Node5&#45;&gt;Node10</title>
<path fill="none" stroke="midnightblue" d="M254.9,-324.6C274.22,-329.97 296.09,-336.04 315.94,-341.55"/>
<polygon fill="midnightblue" stroke="midnightblue" points="315.23,-344.98 325.8,-344.29 317.1,-338.24 315.23,-344.98"/>
</g>
<!-- Node11 -->
<g id="node11" class="node">
<title>Node11</title>
<g id="a_node11"><a xlink:href="structft_1_1irc_1_1make__reply.html#abb3d19d7dff24cc11ae000c27f2d42f3" target="_top" xlink:title=" ">
<polygon fill="white" stroke="black" points="326,-294.5 326,-324.5 430,-324.5 430,-294.5 326,-294.5"/>
<text text-anchor="start" x="334" y="-312.5" font-family="Helvetica,sans-Serif" font-size="10.00">ft::irc::make_reply</text>
<text text-anchor="middle" x="378" y="-301.5" font-family="Helvetica,sans-Serif" font-size="10.00">::luser_unknown</text>
</a>
</g>
</g>
<!-- Node5&#45;&gt;Node11 -->
<g id="edge10" class="edge">
<title>Node5&#45;&gt;Node11</title>
<path fill="none" stroke="midnightblue" d="M255.86,-309.5C274.8,-309.5 296.1,-309.5 315.49,-309.5"/>
<polygon fill="midnightblue" stroke="midnightblue" points="315.74,-313 325.74,-309.5 315.74,-306 315.74,-313"/>
</g>
<!-- Node12 -->
<g id="node12" class="node">
<title>Node12</title>
<g id="a_node12"><a xlink:href="structft_1_1irc_1_1make__reply.html#a09ef279f20aef8d899a8a1f6e1f843c8" target="_top" xlink:title=" ">
<polygon fill="white" stroke="black" points="326,-245.5 326,-275.5 430,-275.5 430,-245.5 326,-245.5"/>
<text text-anchor="start" x="334" y="-263.5" font-family="Helvetica,sans-Serif" font-size="10.00">ft::irc::make_reply</text>
<text text-anchor="middle" x="378" y="-252.5" font-family="Helvetica,sans-Serif" font-size="10.00">::motd</text>
</a>
</g>
</g>
<!-- Node5&#45;&gt;Node12 -->
<g id="edge11" class="edge">
<title>Node5&#45;&gt;Node12</title>
<path fill="none" stroke="midnightblue" d="M254.9,-294.4C274.22,-289.03 296.09,-282.96 315.94,-277.45"/>
<polygon fill="midnightblue" stroke="midnightblue" points="317.1,-280.76 325.8,-274.71 315.23,-274.02 317.1,-280.76"/>
</g>
<!-- Node13 -->
<g id="node13" class="node">
<title>Node13</title>
<g id="a_node13"><a xlink:href="structft_1_1irc_1_1make__reply.html#ac487f0bab92e860c91305ed0b7f02dbe" target="_top" xlink:title=" ">
<polygon fill="white" stroke="black" points="326,-196.5 326,-226.5 430,-226.5 430,-196.5 326,-196.5"/>
<text text-anchor="start" x="334" y="-214.5" font-family="Helvetica,sans-Serif" font-size="10.00">ft::irc::make_reply</text>
<text text-anchor="middle" x="378" y="-203.5" font-family="Helvetica,sans-Serif" font-size="10.00">::motd_start</text>
</a>
</g>
</g>
<!-- Node5&#45;&gt;Node13 -->
<g id="edge12" class="edge">
<title>Node5&#45;&gt;Node13</title>
<path fill="none" stroke="midnightblue" d="M252.98,-294.44C258.29,-291.88 263.41,-288.91 268,-285.5 289.69,-269.37 282.22,-252.5 304,-236.5 307.91,-233.63 312.18,-231.07 316.62,-228.79"/>
<polygon fill="midnightblue" stroke="midnightblue" points="318.31,-231.86 325.92,-224.5 315.38,-225.51 318.31,-231.86"/>
</g>
<!-- Node14 -->
<g id="node14" class="node">
<title>Node14</title>
<g id="a_node14"><a xlink:href="structft_1_1irc_1_1make__error.html#ab15f6ba737319065faa48589151ce227" target="_top" xlink:title=" ">
<polygon fill="white" stroke="black" points="326.5,-147.5 326.5,-177.5 429.5,-177.5 429.5,-147.5 326.5,-147.5"/>
<text text-anchor="start" x="334.5" y="-165.5" font-family="Helvetica,sans-Serif" font-size="10.00">ft::irc::make_error</text>
<text text-anchor="middle" x="378" y="-154.5" font-family="Helvetica,sans-Serif" font-size="10.00">::no_motd</text>
</a>
</g>
</g>
<!-- Node5&#45;&gt;Node14 -->
<g id="edge13" class="edge">
<title>Node5&#45;&gt;Node14</title>
<path fill="none" stroke="midnightblue" d="M255.69,-294.74C260.18,-292.14 264.38,-289.09 268,-285.5 300.98,-252.86 270.83,-219.95 304,-187.5 307.95,-183.64 312.52,-180.37 317.41,-177.6"/>
<polygon fill="midnightblue" stroke="midnightblue" points="319.06,-180.7 326.5,-173.16 315.98,-174.41 319.06,-180.7"/>
</g>
<!-- Node15 -->
<g id="node15" class="node">
<title>Node15</title>
<g id="a_node15"><a xlink:href="classft_1_1irc_1_1server.html#a9bd0c0f5521a9d823a4d097099ebe4da" target="_top" xlink:title=" ">
<polygon fill="white" stroke="black" points="304,-109 304,-128 452,-128 452,-109 304,-109"/>
<text text-anchor="middle" x="378" y="-116" font-family="Helvetica,sans-Serif" font-size="10.00">ft::irc::server::register_user</text>
</a>
</g>
</g>
<!-- Node5&#45;&gt;Node15 -->
<g id="edge14" class="edge">
<title>Node5&#45;&gt;Node15</title>
<path fill="none" stroke="midnightblue" d="M255.8,-295.35C260.33,-292.63 264.5,-289.38 268,-285.5 313.09,-235.59 257.09,-186.71 304,-138.5 305.84,-136.6 307.85,-134.88 309.98,-133.32"/>
<polygon fill="midnightblue" stroke="midnightblue" points="311.97,-136.21 318.73,-128.05 308.36,-130.21 311.97,-136.21"/>
</g>
<!-- Node16 -->
<g id="node16" class="node">
<title>Node16</title>
<g id="a_node16"><a xlink:href="structft_1_1irc_1_1make__reply.html#a125ea72202f5f56289961dd1664a0f69" target="_top" xlink:title=" ">
<polygon fill="white" stroke="black" points="326,-59.5 326,-89.5 430,-89.5 430,-59.5 326,-59.5"/>
<text text-anchor="start" x="334" y="-77.5" font-family="Helvetica,sans-Serif" font-size="10.00">ft::irc::make_reply</text>
<text text-anchor="middle" x="378" y="-66.5" font-family="Helvetica,sans-Serif" font-size="10.00">::user_mode_is</text>
</a>
</g>
</g>
<!-- Node5&#45;&gt;Node16 -->
<g id="edge15" class="edge">
<title>Node5&#45;&gt;Node16</title>
<path fill="none" stroke="midnightblue" d="M255.69,-295.73C260.29,-292.93 264.51,-289.56 268,-285.5 322.9,-221.66 248.73,-163.02 304,-99.5 307.63,-95.33 311.98,-91.86 316.73,-88.96"/>
<polygon fill="midnightblue" stroke="midnightblue" points="318.37,-92.05 325.64,-84.35 315.15,-85.84 318.37,-92.05"/>
</g>
</g>
</svg>
