<?xml version="1.0" encoding="UTF-8" standalone="no"?>
<!DOCTYPE svg PUBLIC "-//W3C//DTD SVG 1.1//EN"
 "http://www.w3.org/Graphics/SVG/1.1/DTD/svg11.dtd">
<!-- Generated by graphviz version 2.43.0 (0)
 -->
<!-- Title: ft::irc::processor_nick::execute Pages: 1 -->
<svg width="460pt" height="479pt"
 viewBox="0.00 0.00 460.00 478.50" xmlns="http://www.w3.org/2000/svg" xmlns:xlink="http://www.w3.org/1999/xlink">
<g id="graph0" class="graph" transform="scale(1 1) rotate(0) translate(4 474.5)">
<title>ft::irc::processor_nick::execute</title>
<polygon fill="white" stroke="transparent" points="-4,4 -4,-474.5 456,-474.5 456,4 -4,4"/>
<!-- Node1 -->
<g id="node1" class="node">
<title>Node1</title>
<g id="a_node1"><a xlink:title=" ">
<polygon fill="#bfbfbf" stroke="black" points="0,-220.5 0,-250.5 95,-250.5 95,-220.5 0,-220.5"/>
<text text-anchor="start" x="8" y="-238.5" font-family="Helvetica,sans-Serif" font-size="10.00">ft::irc::processor</text>
<text text-anchor="middle" x="47.5" y="-227.5" font-family="Helvetica,sans-Serif" font-size="10.00">_nick::execute</text>
</a>
</g>
</g>
<!-- Node2 -->
<g id="node2" class="node">
<title>Node2</title>
<g id="a_node2"><a xlink:href="classft_1_1irc_1_1user.html#af02e786035bc1122895f36f9db8f2c9a" target="_top" xlink:title=" ">
<polygon fill="white" stroke="black" points="132,-432 132,-451 267,-451 267,-432 132,-432"/>
<text text-anchor="middle" x="199.5" y="-439" font-family="Helvetica,sans-Serif" font-size="10.00">ft::irc::user::change_nick</text>
</a>
</g>
</g>
<!-- Node1&#45;&gt;Node2 -->
<g id="edge1" class="edge">
<title>Node1&#45;&gt;Node2</title>
<path fill="none" stroke="midnightblue" d="M50.74,-250.68C56.8,-286.25 76.87,-375.51 131,-422.5 132.97,-424.21 135.09,-425.77 137.3,-427.19"/>
<polygon fill="midnightblue" stroke="midnightblue" points="135.84,-430.37 146.31,-431.99 139.13,-424.2 135.84,-430.37"/>
</g>
<!-- Node5 -->
<g id="node5" class="node">
<title>Node5</title>
<g id="a_node5"><a xlink:href="structft_1_1irc_1_1make__error.html#ad5903961eb9531f4dad67b0259119c8e" target="_top" xlink:title=" ">
<polygon fill="white" stroke="black" points="137,-382.5 137,-412.5 262,-412.5 262,-382.5 137,-382.5"/>
<text text-anchor="start" x="145" y="-400.5" font-family="Helvetica,sans-Serif" font-size="10.00">ft::irc::make_error</text>
<text text-anchor="middle" x="199.5" y="-389.5" font-family="Helvetica,sans-Serif" font-size="10.00">::erroneous_nickname</text>
</a>
</g>
</g>
<!-- Node1&#45;&gt;Node5 -->
<g id="edge4" class="edge">
<title>Node1&#45;&gt;Node5</title>
<path fill="none" stroke="midnightblue" d="M53.62,-250.69C63.87,-278.88 89.56,-339.52 131,-373.5 132.55,-374.77 134.17,-375.98 135.85,-377.12"/>
<polygon fill="midnightblue" stroke="midnightblue" points="134.28,-380.26 144.66,-382.35 137.85,-374.24 134.28,-380.26"/>
</g>
<!-- Node6 -->
<g id="node6" class="node">
<title>Node6</title>
<g id="a_node6"><a xlink:href="classft_1_1irc_1_1user.html#a080531f81f28fd4b65d15f603d1af818" target="_top" xlink:title=" ">
<polygon fill="white" stroke="black" points="154.5,-333.5 154.5,-363.5 244.5,-363.5 244.5,-333.5 154.5,-333.5"/>
<text text-anchor="start" x="162.5" y="-351.5" font-family="Helvetica,sans-Serif" font-size="10.00">ft::irc::user::get</text>
<text text-anchor="middle" x="199.5" y="-340.5" font-family="Helvetica,sans-Serif" font-size="10.00">_register_state</text>
</a>
</g>
</g>
<!-- Node1&#45;&gt;Node6 -->
<g id="edge5" class="edge">
<title>Node1&#45;&gt;Node6</title>
<path fill="none" stroke="midnightblue" d="M59.13,-250.6C73.44,-269.93 100.64,-303.34 131,-323.5 135.31,-326.36 140,-328.96 144.82,-331.29"/>
<polygon fill="midnightblue" stroke="midnightblue" points="143.65,-334.6 154.21,-335.46 146.49,-328.2 143.65,-334.6"/>
</g>
<!-- Node7 -->
<g id="node7" class="node">
<title>Node7</title>
<g id="a_node7"><a xlink:href="classft_1_1irc_1_1user.html#a7d133deb3a63faa2627b50cbbdf3a607" target="_top" xlink:title=" ">
<polygon fill="white" stroke="black" points="131,-295 131,-314 268,-314 268,-295 131,-295"/>
<text text-anchor="middle" x="199.5" y="-302" font-family="Helvetica,sans-Serif" font-size="10.00">ft::irc::user::is_registered</text>
</a>
</g>
</g>
<!-- Node1&#45;&gt;Node7 -->
<g id="edge6" class="edge">
<title>Node1&#45;&gt;Node7</title>
<path fill="none" stroke="midnightblue" d="M69.69,-250.55C85.86,-261.48 109.03,-275.96 131,-285.5 136.44,-287.86 142.25,-290.01 148.09,-291.94"/>
<polygon fill="midnightblue" stroke="midnightblue" points="147.31,-295.37 157.9,-294.99 149.39,-288.68 147.31,-295.37"/>
</g>
<!-- Node8 -->
<g id="node8" class="node">
<title>Node8</title>
<g id="a_node8"><a xlink:href="structft_1_1irc_1_1string__utils.html#a2fcf209970f5b02422129e1d9ff28a72" target="_top" xlink:title=" ">
<polygon fill="white" stroke="black" points="149,-245.5 149,-275.5 250,-275.5 250,-245.5 149,-245.5"/>
<text text-anchor="start" x="157" y="-263.5" font-family="Helvetica,sans-Serif" font-size="10.00">ft::irc::string_utils</text>
<text text-anchor="middle" x="199.5" y="-252.5" font-family="Helvetica,sans-Serif" font-size="10.00">::is_valid_nick</text>
</a>
</g>
</g>
<!-- Node1&#45;&gt;Node8 -->
<g id="edge7" class="edge">
<title>Node1&#45;&gt;Node8</title>
<path fill="none" stroke="midnightblue" d="M95.14,-243.27C108.97,-245.58 124.32,-248.14 138.86,-250.56"/>
<polygon fill="midnightblue" stroke="midnightblue" points="138.33,-254.02 148.77,-252.21 139.48,-247.12 138.33,-254.02"/>
</g>
<!-- Node9 -->
<g id="node9" class="node">
<title>Node9</title>
<g id="a_node9"><a xlink:href="structft_1_1irc_1_1make__error.html#ab839953e26290b6d6af9bebee99cb363" target="_top" xlink:title=" ">
<polygon fill="white" stroke="black" points="146,-196.5 146,-226.5 253,-226.5 253,-196.5 146,-196.5"/>
<text text-anchor="start" x="154" y="-214.5" font-family="Helvetica,sans-Serif" font-size="10.00">ft::irc::make_error</text>
<text text-anchor="middle" x="199.5" y="-203.5" font-family="Helvetica,sans-Serif" font-size="10.00">::nickname_in_use</text>
</a>
</g>
</g>
<!-- Node1&#45;&gt;Node9 -->
<g id="edge8" class="edge">
<title>Node1&#45;&gt;Node9</title>
<path fill="none" stroke="midnightblue" d="M95.14,-228.04C107.95,-225.99 122.07,-223.73 135.63,-221.56"/>
<polygon fill="midnightblue" stroke="midnightblue" points="136.55,-224.96 145.87,-219.92 135.44,-218.04 136.55,-224.96"/>
</g>
<!-- Node10 -->
<g id="node10" class="node">
<title>Node10</title>
<g id="a_node10"><a xlink:href="structft_1_1irc_1_1make__error.html#afae7f78584d05823e980db71ab6a19a4" target="_top" xlink:title=" ">
<polygon fill="white" stroke="black" points="139.5,-147.5 139.5,-177.5 259.5,-177.5 259.5,-147.5 139.5,-147.5"/>
<text text-anchor="start" x="147.5" y="-165.5" font-family="Helvetica,sans-Serif" font-size="10.00">ft::irc::make_error</text>
<text text-anchor="middle" x="199.5" y="-154.5" font-family="Helvetica,sans-Serif" font-size="10.00">::no_nickname_given</text>
</a>
</g>
</g>
<!-- Node1&#45;&gt;Node10 -->
<g id="edge9" class="edge">
<title>Node1&#45;&gt;Node10</title>
<path fill="none" stroke="midnightblue" d="M72.1,-220.31C88.28,-210.25 110.47,-197.19 131,-187.5 135.55,-185.36 140.33,-183.27 145.16,-181.27"/>
<polygon fill="midnightblue" stroke="midnightblue" points="146.48,-184.51 154.47,-177.56 143.89,-178.01 146.48,-184.51"/>
</g>
<!-- Node11 -->
<g id="node11" class="node">
<title>Node11</title>
<g id="a_node11"><a xlink:href="classft_1_1irc_1_1user.html#affa6016f0c81205cd3c60ea6e9706132" target="_top" xlink:title=" ">
<polygon fill="white" stroke="black" points="143.5,-98.5 143.5,-128.5 255.5,-128.5 255.5,-98.5 143.5,-98.5"/>
<text text-anchor="start" x="151.5" y="-116.5" font-family="Helvetica,sans-Serif" font-size="10.00">ft::irc::user::register</text>
<text text-anchor="middle" x="199.5" y="-105.5" font-family="Helvetica,sans-Serif" font-size="10.00">_to_server</text>
</a>
</g>
</g>
<!-- Node1&#45;&gt;Node11 -->
<g id="edge10" class="edge">
<title>Node1&#45;&gt;Node11</title>
<path fill="none" stroke="midnightblue" d="M57.83,-220.25C71.46,-199.14 98.75,-161.05 131,-138.5 133.71,-136.6 136.59,-134.83 139.56,-133.18"/>
<polygon fill="midnightblue" stroke="midnightblue" points="141.36,-136.19 148.72,-128.57 138.21,-129.94 141.36,-136.19"/>
</g>
<!-- Node13 -->
<g id="node13" class="node">
<title>Node13</title>
<g id="a_node13"><a xlink:href="classft_1_1irc_1_1user.html#a1db558d6d694ca943224c2440fe36c50" target="_top" xlink:title=" ">
<polygon fill="white" stroke="black" points="150.5,-49.5 150.5,-79.5 248.5,-79.5 248.5,-49.5 150.5,-49.5"/>
<text text-anchor="start" x="158.5" y="-67.5" font-family="Helvetica,sans-Serif" font-size="10.00">ft::irc::user::send</text>
<text text-anchor="middle" x="199.5" y="-56.5" font-family="Helvetica,sans-Serif" font-size="10.00">_message</text>
</a>
</g>
</g>
<!-- Node1&#45;&gt;Node13 -->
<g id="edge12" class="edge">
<title>Node1&#45;&gt;Node13</title>
<path fill="none" stroke="midnightblue" d="M53.04,-220.25C62.6,-190.65 87.59,-125.1 131,-88.5 134.21,-85.79 137.75,-83.38 141.47,-81.24"/>
<polygon fill="midnightblue" stroke="midnightblue" points="143.08,-84.35 150.42,-76.7 139.92,-78.1 143.08,-84.35"/>
</g>
<!-- Node14 -->
<g id="node14" class="node">
<title>Node14</title>
<g id="a_node14"><a xlink:href="classft_1_1irc_1_1user.html#a9bf0e20ae3e94760f4d135790e2877d8" target="_top" xlink:title=" ">
<polygon fill="white" stroke="black" points="155,-0.5 155,-30.5 244,-30.5 244,-0.5 155,-0.5"/>
<text text-anchor="start" x="163" y="-18.5" font-family="Helvetica,sans-Serif" font-size="10.00">ft::irc::user::set</text>
<text text-anchor="middle" x="199.5" y="-7.5" font-family="Helvetica,sans-Serif" font-size="10.00">_register_state</text>
</a>
</g>
</g>
<!-- Node1&#45;&gt;Node14 -->
<g id="edge13" class="edge">
<title>Node1&#45;&gt;Node14</title>
<path fill="none" stroke="midnightblue" d="M50.64,-220.39C56.57,-184.06 76.52,-90.97 131,-39.5 135.29,-35.45 140.3,-32.08 145.62,-29.27"/>
<polygon fill="midnightblue" stroke="midnightblue" points="147.17,-32.41 154.8,-25.06 144.26,-26.05 147.17,-32.41"/>
</g>
<!-- Node3 -->
<g id="node3" class="node">
<title>Node3</title>
<g id="a_node3"><a xlink:href="classft_1_1irc_1_1server.html#ab534369c5d538fbf60852889a7d8127b" target="_top" xlink:title=" ">
<polygon fill="white" stroke="black" points="312.5,-451 312.5,-470 443.5,-470 443.5,-451 312.5,-451"/>
<text text-anchor="middle" x="378" y="-458" font-family="Helvetica,sans-Serif" font-size="10.00">ft::irc::server::hold_nick</text>
</a>
</g>
</g>
<!-- Node2&#45;&gt;Node3 -->
<g id="edge2" class="edge">
<title>Node2&#45;&gt;Node3</title>
<path fill="none" stroke="midnightblue" d="M267.23,-448.68C278.63,-449.91 290.54,-451.19 302.14,-452.44"/>
<polygon fill="midnightblue" stroke="midnightblue" points="301.91,-455.94 312.22,-453.53 302.66,-448.98 301.91,-455.94"/>
</g>
<!-- Node4 -->
<g id="node4" class="node">
<title>Node4</title>
<g id="a_node4"><a xlink:href="classft_1_1irc_1_1server.html#a2f4c8826af7867f18ed67c1b9dabf65f" target="_top" xlink:title=" ">
<polygon fill="white" stroke="black" points="305,-413 305,-432 451,-432 451,-413 305,-413"/>
<text text-anchor="middle" x="378" y="-420" font-family="Helvetica,sans-Serif" font-size="10.00">ft::irc::server::release_nick</text>
</a>
</g>
</g>
<!-- Node2&#45;&gt;Node4 -->
<g id="edge3" class="edge">
<title>Node2&#45;&gt;Node4</title>
<path fill="none" stroke="midnightblue" d="M267.23,-434.32C276.26,-433.34 285.61,-432.34 294.88,-431.34"/>
<polygon fill="midnightblue" stroke="midnightblue" points="295.3,-434.81 304.87,-430.26 294.56,-427.85 295.3,-434.81"/>
</g>
<!-- Node12 -->
<g id="node12" class="node">
<title>Node12</title>
<g id="a_node12"><a xlink:href="classft_1_1irc_1_1server.html#a9bd0c0f5521a9d823a4d097099ebe4da" target="_top" xlink:title=" ">
<polygon fill="white" stroke="black" points="304,-104 304,-123 452,-123 452,-104 304,-104"/>
<text text-anchor="middle" x="378" y="-111" font-family="Helvetica,sans-Serif" font-size="10.00">ft::irc::server::register_user</text>
</a>
</g>
</g>
<!-- Node11&#45;&gt;Node12 -->
<g id="edge11" class="edge">
<title>Node11&#45;&gt;Node12</title>
<path fill="none" stroke="midnightblue" d="M255.86,-113.5C267.83,-113.5 280.73,-113.5 293.51,-113.5"/>
<polygon fill="midnightblue" stroke="midnightblue" points="293.7,-117 303.7,-113.5 293.7,-110 293.7,-117"/>
</g>
</g>
</svg>
