<?xml version="1.0" encoding="UTF-8" standalone="no"?>
<!DOCTYPE svg PUBLIC "-//W3C//DTD SVG 1.1//EN"
 "http://www.w3.org/Graphics/SVG/1.1/DTD/svg11.dtd">
<!-- Generated by graphviz version 2.43.0 (0)
 -->
<!-- Title: ft::irc::user::send_message Pages: 1 -->
<svg width="408pt" height="235pt"
 viewBox="0.00 0.00 408.00 235.00" xmlns="http://www.w3.org/2000/svg" xmlns:xlink="http://www.w3.org/1999/xlink">
<g id="graph0" class="graph" transform="scale(1 1) rotate(0) translate(4 231)">
<title>ft::irc::user::send_message</title>
<polygon fill="white" stroke="transparent" points="-4,4 -4,-231 404,-231 404,4 -4,4"/>
<!-- Node1 -->
<g id="node1" class="node">
<title>Node1</title>
<g id="a_node1"><a xlink:title=" ">
<polygon fill="#bfbfbf" stroke="black" points="302,-98.5 302,-128.5 400,-128.5 400,-98.5 302,-98.5"/>
<text text-anchor="start" x="310" y="-116.5" font-family="Helvetica,sans-Serif" font-size="10.00">ft::irc::user::send</text>
<text text-anchor="middle" x="351" y="-105.5" font-family="Helvetica,sans-Serif" font-size="10.00">_message</text>
</a>
</g>
</g>
<!-- Node2 -->
<g id="node2" class="node">
<title>Node2</title>
<g id="a_node2"><a xlink:href="classft_1_1irc_1_1processor__dictionary.html#a50bd8e9f89f6f6a911f5495272cd7d41" target="_top" xlink:title=" ">
<polygon fill="white" stroke="black" points="152,-196.5 152,-226.5 266,-226.5 266,-196.5 152,-196.5"/>
<text text-anchor="start" x="160" y="-214.5" font-family="Helvetica,sans-Serif" font-size="10.00">ft::irc::processor</text>
<text text-anchor="middle" x="209" y="-203.5" font-family="Helvetica,sans-Serif" font-size="10.00">_dictionary::execute</text>
</a>
</g>
</g>
<!-- Node1&#45;&gt;Node2 -->
<g id="edge1" class="edge">
<title>Node1&#45;&gt;Node2</title>
<path fill="none" stroke="midnightblue" d="M328.38,-136.04C312.28,-151.92 289.16,-172.87 266,-187.5 260.9,-190.72 255.3,-193.7 249.67,-196.38"/>
<polygon fill="midnightblue" stroke="midnightblue" points="331.11,-138.26 335.69,-128.71 326.15,-133.32 331.11,-138.26"/>
</g>
<!-- Node4 -->
<g id="node4" class="node">
<title>Node4</title>
<g id="a_node4"><a xlink:href="classft_1_1irc_1_1processor__join.html#a7005b0403c1e6e10aa6f6f05339df357" target="_top" xlink:title=" ">
<polygon fill="white" stroke="black" points="161.5,-147.5 161.5,-177.5 256.5,-177.5 256.5,-147.5 161.5,-147.5"/>
<text text-anchor="start" x="169.5" y="-165.5" font-family="Helvetica,sans-Serif" font-size="10.00">ft::irc::processor</text>
<text text-anchor="middle" x="209" y="-154.5" font-family="Helvetica,sans-Serif" font-size="10.00">_join::execute</text>
</a>
</g>
</g>
<!-- Node1&#45;&gt;Node4 -->
<g id="edge3" class="edge">
<title>Node1&#45;&gt;Node4</title>
<path fill="none" stroke="midnightblue" d="M297.04,-132.04C282.58,-137.1 267.09,-142.52 253.25,-147.36"/>
<polygon fill="midnightblue" stroke="midnightblue" points="298.57,-135.21 306.85,-128.6 296.26,-128.6 298.57,-135.21"/>
</g>
<!-- Node5 -->
<g id="node5" class="node">
<title>Node5</title>
<g id="a_node5"><a xlink:href="classft_1_1irc_1_1processor__pass.html#a8b0f8638123bb81ce8f4e493e43b45a0" target="_top" xlink:title=" ">
<polygon fill="white" stroke="black" points="161.5,-98.5 161.5,-128.5 256.5,-128.5 256.5,-98.5 161.5,-98.5"/>
<text text-anchor="start" x="169.5" y="-116.5" font-family="Helvetica,sans-Serif" font-size="10.00">ft::irc::processor</text>
<text text-anchor="middle" x="209" y="-105.5" font-family="Helvetica,sans-Serif" font-size="10.00">_pass::execute</text>
</a>
</g>
</g>
<!-- Node1&#45;&gt;Node5 -->
<g id="edge4" class="edge">
<title>Node1&#45;&gt;Node5</title>
<path fill="none" stroke="midnightblue" d="M291.75,-113.5C280.11,-113.5 268.04,-113.5 256.85,-113.5"/>
<polygon fill="midnightblue" stroke="midnightblue" points="291.82,-117 301.82,-113.5 291.82,-110 291.82,-117"/>
</g>
<!-- Node6 -->
<g id="node6" class="node">
<title>Node6</title>
<g id="a_node6"><a xlink:href="classft_1_1irc_1_1processor__nick.html#a7a2f0f709488328c04b6ccf0c41ce78e" target="_top" xlink:title=" ">
<polygon fill="white" stroke="black" points="161.5,-49.5 161.5,-79.5 256.5,-79.5 256.5,-49.5 161.5,-49.5"/>
<text text-anchor="start" x="169.5" y="-67.5" font-family="Helvetica,sans-Serif" font-size="10.00">ft::irc::processor</text>
<text text-anchor="middle" x="209" y="-56.5" font-family="Helvetica,sans-Serif" font-size="10.00">_nick::execute</text>
</a>
</g>
</g>
<!-- Node1&#45;&gt;Node6 -->
<g id="edge5" class="edge">
<title>Node1&#45;&gt;Node6</title>
<path fill="none" stroke="midnightblue" d="M297.04,-94.96C282.58,-89.9 267.09,-84.48 253.25,-79.64"/>
<polygon fill="midnightblue" stroke="midnightblue" points="296.26,-98.4 306.85,-98.4 298.57,-91.79 296.26,-98.4"/>
</g>
<!-- Node7 -->
<g id="node7" class="node">
<title>Node7</title>
<g id="a_node7"><a xlink:href="classft_1_1irc_1_1processor__user.html#aa42b3fdd743060d5f9afaaff5e46e28f" target="_top" xlink:title=" ">
<polygon fill="white" stroke="black" points="161.5,-0.5 161.5,-30.5 256.5,-30.5 256.5,-0.5 161.5,-0.5"/>
<text text-anchor="start" x="169.5" y="-18.5" font-family="Helvetica,sans-Serif" font-size="10.00">ft::irc::processor</text>
<text text-anchor="middle" x="209" y="-7.5" font-family="Helvetica,sans-Serif" font-size="10.00">_user::execute</text>
</a>
</g>
</g>
<!-- Node1&#45;&gt;Node7 -->
<g id="edge6" class="edge">
<title>Node1&#45;&gt;Node7</title>
<path fill="none" stroke="midnightblue" d="M327.96,-91.1C311.82,-75.54 288.82,-55.05 266,-40.5 260.34,-36.89 254.08,-33.55 247.85,-30.55"/>
<polygon fill="midnightblue" stroke="midnightblue" points="325.72,-93.8 335.31,-98.3 330.62,-88.8 325.72,-93.8"/>
</g>
<!-- Node3 -->
<g id="node3" class="node">
<title>Node3</title>
<g id="a_node3"><a xlink:href="classft_1_1irc_1_1client__handler.html#a239d2ec2a936d74893455a83468669b3" target="_top" xlink:title=" ">
<polygon fill="white" stroke="black" points="0,-196.5 0,-226.5 116,-226.5 116,-196.5 0,-196.5"/>
<text text-anchor="start" x="8" y="-214.5" font-family="Helvetica,sans-Serif" font-size="10.00">ft::irc::client_handler</text>
<text text-anchor="middle" x="58" y="-203.5" font-family="Helvetica,sans-Serif" font-size="10.00">::on_read</text>
</a>
</g>
</g>
<!-- Node2&#45;&gt;Node3 -->
<g id="edge2" class="edge">
<title>Node2&#45;&gt;Node3</title>
<path fill="none" stroke="midnightblue" d="M141.54,-211.5C133.15,-211.5 124.63,-211.5 116.4,-211.5"/>
<polygon fill="midnightblue" stroke="midnightblue" points="141.67,-215 151.67,-211.5 141.67,-208 141.67,-215"/>
</g>
</g>
</svg>
