<?xml version="1.0" encoding="UTF-8" standalone="no"?>
<!DOCTYPE svg PUBLIC "-//W3C//DTD SVG 1.1//EN"
 "http://www.w3.org/Graphics/SVG/1.1/DTD/svg11.dtd">
<!-- Generated by graphviz version 2.43.0 (0)
 -->
<!-- Title: ft::irc::processor_join::execute Pages: 1 -->
<svg width="445pt" height="782pt"
 viewBox="0.00 0.00 445.00 782.00" xmlns="http://www.w3.org/2000/svg" xmlns:xlink="http://www.w3.org/1999/xlink">
<g id="graph0" class="graph" transform="scale(1 1) rotate(0) translate(4 778)">
<title>ft::irc::processor_join::execute</title>
<polygon fill="white" stroke="transparent" points="-4,4 -4,-778 441,-778 441,4 -4,4"/>
<!-- Node1 -->
<g id="node1" class="node">
<title>Node1</title>
<g id="a_node1"><a xlink:title=" ">
<polygon fill="#bfbfbf" stroke="black" points="0,-372.5 0,-402.5 95,-402.5 95,-372.5 0,-372.5"/>
<text text-anchor="start" x="8" y="-390.5" font-family="Helvetica,sans-Serif" font-size="10.00">ft::irc::processor</text>
<text text-anchor="middle" x="47.5" y="-379.5" font-family="Helvetica,sans-Serif" font-size="10.00">_join::execute</text>
</a>
</g>
</g>
<!-- Node2 -->
<g id="node2" class="node">
<title>Node2</title>
<g id="a_node2"><a xlink:href="structft_1_1irc_1_1make__error.html#a86cfaaf2f57c77ec211b569b30a4322f" target="_top" xlink:title=" ">
<polygon fill="white" stroke="black" points="154.5,-743.5 154.5,-773.5 261.5,-773.5 261.5,-743.5 154.5,-743.5"/>
<text text-anchor="start" x="162.5" y="-761.5" font-family="Helvetica,sans-Serif" font-size="10.00">ft::irc::make_error</text>
<text text-anchor="middle" x="208" y="-750.5" font-family="Helvetica,sans-Serif" font-size="10.00">::bad_channel_key</text>
</a>
</g>
</g>
<!-- Node1&#45;&gt;Node2 -->
<g id="edge1" class="edge">
<title>Node1&#45;&gt;Node2</title>
<path fill="none" stroke="midnightblue" d="M50.14,-402.78C56.9,-463.2 84.51,-684.51 131,-734.5 135.04,-738.85 139.87,-742.41 145.1,-745.34"/>
<polygon fill="midnightblue" stroke="midnightblue" points="143.68,-748.54 154.22,-749.67 146.69,-742.22 143.68,-748.54"/>
</g>
<!-- Node3 -->
<g id="node3" class="node">
<title>Node3</title>
<g id="a_node3"><a xlink:href="structft_1_1irc_1_1make__error.html#a31a17f572a4ebafb6a40c1fbe972e679" target="_top" xlink:title=" ">
<polygon fill="white" stroke="black" points="142.5,-694.5 142.5,-724.5 273.5,-724.5 273.5,-694.5 142.5,-694.5"/>
<text text-anchor="start" x="150.5" y="-712.5" font-family="Helvetica,sans-Serif" font-size="10.00">ft::irc::make_error</text>
<text text-anchor="middle" x="208" y="-701.5" font-family="Helvetica,sans-Serif" font-size="10.00">::banned_from_channel</text>
</a>
</g>
</g>
<!-- Node1&#45;&gt;Node3 -->
<g id="edge2" class="edge">
<title>Node1&#45;&gt;Node3</title>
<path fill="none" stroke="midnightblue" d="M47.99,-402.59C47.2,-450.85 51.42,-603.02 131,-685.5 132.05,-686.59 133.15,-687.63 134.29,-688.62"/>
<polygon fill="midnightblue" stroke="midnightblue" points="132.25,-691.46 142.39,-694.52 136.37,-685.8 132.25,-691.46"/>
</g>
<!-- Node4 -->
<g id="node4" class="node">
<title>Node4</title>
<g id="a_node4"><a xlink:href="classft_1_1irc_1_1user.html#ad9cf185a314b035b4613b26495032c54" target="_top" xlink:title=" ">
<polygon fill="white" stroke="black" points="151.5,-645.5 151.5,-675.5 264.5,-675.5 264.5,-645.5 151.5,-645.5"/>
<text text-anchor="start" x="159.5" y="-663.5" font-family="Helvetica,sans-Serif" font-size="10.00">ft::irc::user::channel</text>
<text text-anchor="middle" x="208" y="-652.5" font-family="Helvetica,sans-Serif" font-size="10.00">_count</text>
</a>
</g>
</g>
<!-- Node1&#45;&gt;Node4 -->
<g id="edge3" class="edge">
<title>Node1&#45;&gt;Node4</title>
<path fill="none" stroke="midnightblue" d="M48.95,-402.53C51.07,-445.41 63.06,-569.51 131,-636.5 134.3,-639.76 138.05,-642.57 142.05,-645.01"/>
<polygon fill="midnightblue" stroke="midnightblue" points="140.7,-648.25 151.19,-649.75 143.93,-642.04 140.7,-648.25"/>
</g>
<!-- Node5 -->
<g id="node5" class="node">
<title>Node5</title>
<g id="a_node5"><a xlink:href="structft_1_1irc_1_1make__error.html#a457e9a19162dbe3c7ce8f388eb7df256" target="_top" xlink:title=" ">
<polygon fill="white" stroke="black" points="156.5,-596.5 156.5,-626.5 259.5,-626.5 259.5,-596.5 156.5,-596.5"/>
<text text-anchor="start" x="164.5" y="-614.5" font-family="Helvetica,sans-Serif" font-size="10.00">ft::irc::make_error</text>
<text text-anchor="middle" x="208" y="-603.5" font-family="Helvetica,sans-Serif" font-size="10.00">::channel_is_full</text>
</a>
</g>
</g>
<!-- Node1&#45;&gt;Node5 -->
<g id="edge4" class="edge">
<title>Node1&#45;&gt;Node5</title>
<path fill="none" stroke="midnightblue" d="M50.38,-402.76C55.77,-439.92 74.7,-535.81 131,-587.5 135.68,-591.8 141.13,-595.33 146.92,-598.22"/>
<polygon fill="midnightblue" stroke="midnightblue" points="145.67,-601.5 156.24,-602.28 148.46,-595.08 145.67,-601.5"/>
</g>
<!-- Node6 -->
<g id="node6" class="node">
<title>Node6</title>
<g id="a_node6"><a xlink:href="classft_1_1irc_1_1server.html#a5cfa990dde96357ed1af1e1e1b0e4f7d" target="_top" xlink:title=" ">
<polygon fill="white" stroke="black" points="149.5,-547.5 149.5,-577.5 266.5,-577.5 266.5,-547.5 149.5,-547.5"/>
<text text-anchor="start" x="157.5" y="-565.5" font-family="Helvetica,sans-Serif" font-size="10.00">ft::irc::server::ensure</text>
<text text-anchor="middle" x="208" y="-554.5" font-family="Helvetica,sans-Serif" font-size="10.00">_channel</text>
</a>
</g>
</g>
<!-- Node1&#45;&gt;Node6 -->
<g id="edge5" class="edge">
<title>Node1&#45;&gt;Node6</title>
<path fill="none" stroke="midnightblue" d="M52.72,-402.69C61.88,-432.83 86.41,-500.48 131,-537.5 133.9,-539.9 137.03,-542.08 140.32,-544.05"/>
<polygon fill="midnightblue" stroke="midnightblue" points="138.85,-547.23 149.33,-548.79 142.11,-541.03 138.85,-547.23"/>
</g>
<!-- Node7 -->
<g id="node7" class="node">
<title>Node7</title>
<g id="a_node7"><a xlink:href="classft_1_1irc_1_1channel.html#a0eb614161a17c1778de2b2443ea922e5" target="_top" xlink:title=" ">
<polygon fill="white" stroke="black" points="136.5,-509 136.5,-528 279.5,-528 279.5,-509 136.5,-509"/>
<text text-anchor="middle" x="208" y="-516" font-family="Helvetica,sans-Serif" font-size="10.00">ft::irc::channel::enter_user</text>
</a>
</g>
</g>
<!-- Node1&#45;&gt;Node7 -->
<g id="edge6" class="edge">
<title>Node1&#45;&gt;Node7</title>
<path fill="none" stroke="midnightblue" d="M55.45,-402.83C67.33,-427.21 93.89,-474.63 131,-499.5 133.97,-501.49 137.13,-503.27 140.42,-504.87"/>
<polygon fill="midnightblue" stroke="midnightblue" points="139.36,-508.22 149.93,-508.89 142.08,-501.77 139.36,-508.22"/>
</g>
<!-- Node10 -->
<g id="node10" class="node">
<title>Node10</title>
<g id="a_node10"><a xlink:href="classft_1_1irc_1_1channel.html#a5bbaa158b69ee9de49c3402cb76c7e09" target="_top" xlink:title=" ">
<polygon fill="white" stroke="black" points="138,-471 138,-490 278,-490 278,-471 138,-471"/>
<text text-anchor="middle" x="208" y="-478" font-family="Helvetica,sans-Serif" font-size="10.00">ft::irc::channel::get_name</text>
</a>
</g>
</g>
<!-- Node1&#45;&gt;Node10 -->
<g id="edge9" class="edge">
<title>Node1&#45;&gt;Node10</title>
<path fill="none" stroke="midnightblue" d="M61.19,-402.65C76.16,-419.53 102.62,-446.43 131,-461.5 135.47,-463.87 140.24,-465.95 145.13,-467.78"/>
<polygon fill="midnightblue" stroke="midnightblue" points="144.05,-471.11 154.64,-470.99 146.29,-464.48 144.05,-471.11"/>
</g>
<!-- Node11 -->
<g id="node11" class="node">
<title>Node11</title>
<g id="a_node11"><a xlink:href="classft_1_1irc_1_1user.html#ae476cc31795df7fbb726b193ab887e75" target="_top" xlink:title=" ">
<polygon fill="white" stroke="black" points="163,-421.5 163,-451.5 253,-451.5 253,-421.5 163,-421.5"/>
<text text-anchor="start" x="171" y="-439.5" font-family="Helvetica,sans-Serif" font-size="10.00">ft::irc::user::get</text>
<text text-anchor="middle" x="208" y="-428.5" font-family="Helvetica,sans-Serif" font-size="10.00">_server</text>
</a>
</g>
</g>
<!-- Node1&#45;&gt;Node11 -->
<g id="edge10" class="edge">
<title>Node1&#45;&gt;Node11</title>
<path fill="none" stroke="midnightblue" d="M95.2,-401.94C113.39,-407.56 134.36,-414.04 153.19,-419.86"/>
<polygon fill="midnightblue" stroke="midnightblue" points="152.22,-423.23 162.81,-422.84 154.29,-416.54 152.22,-423.23"/>
</g>
<!-- Node12 -->
<g id="node12" class="node">
<title>Node12</title>
<g id="a_node12"><a xlink:href="structft_1_1irc_1_1make__error.html#a940c40574d12fc35b96c673f5084dd38" target="_top" xlink:title=" ">
<polygon fill="white" stroke="black" points="148,-372.5 148,-402.5 268,-402.5 268,-372.5 148,-372.5"/>
<text text-anchor="start" x="156" y="-390.5" font-family="Helvetica,sans-Serif" font-size="10.00">ft::irc::make_error</text>
<text text-anchor="middle" x="208" y="-379.5" font-family="Helvetica,sans-Serif" font-size="10.00">::invite_only_channel</text>
</a>
</g>
</g>
<!-- Node1&#45;&gt;Node12 -->
<g id="edge11" class="edge">
<title>Node1&#45;&gt;Node12</title>
<path fill="none" stroke="midnightblue" d="M95.2,-387.5C108.5,-387.5 123.28,-387.5 137.62,-387.5"/>
<polygon fill="midnightblue" stroke="midnightblue" points="137.96,-391 147.96,-387.5 137.96,-384 137.96,-391"/>
</g>
<!-- Node13 -->
<g id="node13" class="node">
<title>Node13</title>
<g id="a_node13"><a xlink:href="classft_1_1irc_1_1user.html#a43fb91fff5e13afd67f9e642137eca40" target="_top" xlink:title=" ">
<polygon fill="white" stroke="black" points="145,-323.5 145,-353.5 271,-353.5 271,-323.5 145,-323.5"/>
<text text-anchor="start" x="153" y="-341.5" font-family="Helvetica,sans-Serif" font-size="10.00">ft::irc::user::is_channel</text>
<text text-anchor="middle" x="208" y="-330.5" font-family="Helvetica,sans-Serif" font-size="10.00">_member</text>
</a>
</g>
</g>
<!-- Node1&#45;&gt;Node13 -->
<g id="edge12" class="edge">
<title>Node1&#45;&gt;Node13</title>
<path fill="none" stroke="midnightblue" d="M95.2,-373.06C111.99,-367.87 131.15,-361.95 148.81,-356.49"/>
<polygon fill="midnightblue" stroke="midnightblue" points="149.92,-359.81 158.44,-353.51 147.85,-353.12 149.92,-359.81"/>
</g>
<!-- Node14 -->
<g id="node14" class="node">
<title>Node14</title>
<g id="a_node14"><a xlink:href="structft_1_1irc_1_1string__utils.html#a38cd804a5b73843f0fd63a027dd0dee0" target="_top" xlink:title=" ">
<polygon fill="white" stroke="black" points="142.5,-274.5 142.5,-304.5 273.5,-304.5 273.5,-274.5 142.5,-274.5"/>
<text text-anchor="start" x="150.5" y="-292.5" font-family="Helvetica,sans-Serif" font-size="10.00">ft::irc::string_utils</text>
<text text-anchor="middle" x="208" y="-281.5" font-family="Helvetica,sans-Serif" font-size="10.00">::is_valid_channelname</text>
</a>
</g>
</g>
<!-- Node1&#45;&gt;Node14 -->
<g id="edge13" class="edge">
<title>Node1&#45;&gt;Node14</title>
<path fill="none" stroke="midnightblue" d="M61.63,-372.36C76.81,-355.74 103.26,-329.33 131,-313.5 134.04,-311.77 137.21,-310.14 140.47,-308.62"/>
<polygon fill="midnightblue" stroke="midnightblue" points="142.03,-311.77 149.84,-304.61 139.27,-305.33 142.03,-311.77"/>
</g>
<!-- Node16 -->
<g id="node16" class="node">
<title>Node16</title>
<g id="a_node16"><a xlink:href="classft_1_1irc_1_1user.html#af78a2901a6ffa0a6b2cbfc8a8e83bcaf" target="_top" xlink:title=" ">
<polygon fill="white" stroke="black" points="162,-225.5 162,-255.5 254,-255.5 254,-225.5 162,-225.5"/>
<text text-anchor="start" x="170" y="-243.5" font-family="Helvetica,sans-Serif" font-size="10.00">ft::irc::user::join</text>
<text text-anchor="middle" x="208" y="-232.5" font-family="Helvetica,sans-Serif" font-size="10.00">_channel</text>
</a>
</g>
</g>
<!-- Node1&#45;&gt;Node16 -->
<g id="edge15" class="edge">
<title>Node1&#45;&gt;Node16</title>
<path fill="none" stroke="midnightblue" d="M54.68,-372.21C65.95,-346.23 92.31,-293.48 131,-264.5 137.46,-259.66 144.91,-255.79 152.58,-252.68"/>
<polygon fill="midnightblue" stroke="midnightblue" points="153.78,-255.97 161.98,-249.26 151.39,-249.39 153.78,-255.97"/>
</g>
<!-- Node17 -->
<g id="node17" class="node">
<title>Node17</title>
<g id="a_node17"><a xlink:href="structft_1_1irc_1_1make__error.html#a8ad003c713b8ee5ebbf4691dd2be83fe" target="_top" xlink:title=" ">
<polygon fill="white" stroke="black" points="155,-176.5 155,-206.5 261,-206.5 261,-176.5 155,-176.5"/>
<text text-anchor="start" x="163" y="-194.5" font-family="Helvetica,sans-Serif" font-size="10.00">ft::irc::make_error</text>
<text text-anchor="middle" x="208" y="-183.5" font-family="Helvetica,sans-Serif" font-size="10.00">::no_such_channel</text>
</a>
</g>
</g>
<!-- Node1&#45;&gt;Node17 -->
<g id="edge16" class="edge">
<title>Node1&#45;&gt;Node17</title>
<path fill="none" stroke="midnightblue" d="M51.49,-372.39C58.87,-339.07 81.1,-258.8 131,-215.5 135.42,-211.67 140.45,-208.44 145.77,-205.74"/>
<polygon fill="midnightblue" stroke="midnightblue" points="147.24,-208.91 154.95,-201.65 144.39,-202.52 147.24,-208.91"/>
</g>
<!-- Node18 -->
<g id="node18" class="node">
<title>Node18</title>
<g id="a_node18"><a xlink:href="classft_1_1irc_1_1message.html#a34f457ead0453ad914af2cb0482a40b9" target="_top" xlink:title=" ">
<polygon fill="white" stroke="black" points="131,-138 131,-157 285,-157 285,-138 131,-138"/>
<text text-anchor="middle" x="208" y="-145" font-family="Helvetica,sans-Serif" font-size="10.00">ft::irc::message::param_size</text>
</a>
</g>
</g>
<!-- Node1&#45;&gt;Node18 -->
<g id="edge17" class="edge">
<title>Node1&#45;&gt;Node18</title>
<path fill="none" stroke="midnightblue" d="M49.49,-372.23C52.93,-332.09 67.94,-222.85 131,-166.5 132.73,-164.95 134.57,-163.53 136.49,-162.22"/>
<polygon fill="midnightblue" stroke="midnightblue" points="138.43,-165.14 145.4,-157.15 134.97,-159.05 138.43,-165.14"/>
</g>
<!-- Node19 -->
<g id="node19" class="node">
<title>Node19</title>
<g id="a_node19"><a xlink:href="classft_1_1irc_1_1user.html#a1db558d6d694ca943224c2440fe36c50" target="_top" xlink:title=" ">
<polygon fill="white" stroke="black" points="159,-88.5 159,-118.5 257,-118.5 257,-88.5 159,-88.5"/>
<text text-anchor="start" x="167" y="-106.5" font-family="Helvetica,sans-Serif" font-size="10.00">ft::irc::user::send</text>
<text text-anchor="middle" x="208" y="-95.5" font-family="Helvetica,sans-Serif" font-size="10.00">_message</text>
</a>
</g>
</g>
<!-- Node1&#45;&gt;Node19 -->
<g id="edge18" class="edge">
<title>Node1&#45;&gt;Node19</title>
<path fill="none" stroke="midnightblue" d="M48.78,-372.24C50.42,-328.09 61.26,-198.91 131,-128.5 136.24,-123.21 142.62,-119.04 149.43,-115.75"/>
<polygon fill="midnightblue" stroke="midnightblue" points="151.04,-118.87 158.93,-111.79 148.35,-112.41 151.04,-118.87"/>
</g>
<!-- Node20 -->
<g id="node20" class="node">
<title>Node20</title>
<g id="a_node20"><a xlink:href="classft_1_1irc_1_1message.html#adf434fdc28e74fb166c6046c0ac5c6d5" target="_top" xlink:title=" ">
<polygon fill="white" stroke="black" points="148.5,-50 148.5,-69 267.5,-69 267.5,-50 148.5,-50"/>
<text text-anchor="middle" x="208" y="-57" font-family="Helvetica,sans-Serif" font-size="10.00">ft::irc::message::split</text>
</a>
</g>
</g>
<!-- Node1&#45;&gt;Node20 -->
<g id="edge19" class="edge">
<title>Node1&#45;&gt;Node20</title>
<path fill="none" stroke="midnightblue" d="M50.51,-372.29C58.23,-316.07 87.77,-121.05 131,-78.5 133.55,-75.99 136.38,-73.8 139.4,-71.88"/>
<polygon fill="midnightblue" stroke="midnightblue" points="141.13,-74.92 148.36,-67.18 137.88,-68.73 141.13,-74.92"/>
</g>
<!-- Node21 -->
<g id="node21" class="node">
<title>Node21</title>
<g id="a_node21"><a xlink:href="structft_1_1irc_1_1make__error.html#af6a6f095493c0242bce7ecac3463753b" target="_top" xlink:title=" ">
<polygon fill="white" stroke="black" points="148,-0.5 148,-30.5 268,-30.5 268,-0.5 148,-0.5"/>
<text text-anchor="start" x="156" y="-18.5" font-family="Helvetica,sans-Serif" font-size="10.00">ft::irc::make_error</text>
<text text-anchor="middle" x="208" y="-7.5" font-family="Helvetica,sans-Serif" font-size="10.00">::too_many_channels</text>
</a>
</g>
</g>
<!-- Node1&#45;&gt;Node21 -->
<g id="edge20" class="edge">
<title>Node1&#45;&gt;Node21</title>
<path fill="none" stroke="midnightblue" d="M50.15,-372.23C56.98,-311.88 84.81,-90.77 131,-40.5 133.42,-37.86 136.13,-35.5 139.04,-33.39"/>
<polygon fill="midnightblue" stroke="midnightblue" points="141,-36.29 147.69,-28.08 137.34,-30.33 141,-36.29"/>
</g>
<!-- Node8 -->
<g id="node8" class="node">
<title>Node8</title>
<g id="a_node8"><a xlink:href="classft_1_1irc_1_1user.html#af40c547a4bf5e10f4f4bb74936fe6d9e" target="_top" xlink:title=" ">
<polygon fill="white" stroke="black" points="321,-531 321,-550 437,-550 437,-531 321,-531"/>
<text text-anchor="middle" x="379" y="-538" font-family="Helvetica,sans-Serif" font-size="10.00">ft::irc::user::get_nick</text>
</a>
</g>
</g>
<!-- Node7&#45;&gt;Node8 -->
<g id="edge7" class="edge">
<title>Node7&#45;&gt;Node8</title>
<path fill="none" stroke="midnightblue" d="M279.69,-527.7C290,-529.04 300.6,-530.42 310.83,-531.76"/>
<polygon fill="midnightblue" stroke="midnightblue" points="310.56,-535.25 320.93,-533.07 311.47,-528.31 310.56,-535.25"/>
</g>
<!-- Node9 -->
<g id="node9" class="node">
<title>Node9</title>
<g id="a_node9"><a xlink:href="structft_1_1irc_1_1make__reply.html#a39ce3be333c36d7d0ce54cfc7ef59451" target="_top" xlink:title=" ">
<polygon fill="white" stroke="black" points="327,-481.5 327,-511.5 431,-511.5 431,-481.5 327,-481.5"/>
<text text-anchor="start" x="335" y="-499.5" font-family="Helvetica,sans-Serif" font-size="10.00">ft::irc::make_reply</text>
<text text-anchor="middle" x="379" y="-488.5" font-family="Helvetica,sans-Serif" font-size="10.00">::topic</text>
</a>
</g>
</g>
<!-- Node7&#45;&gt;Node9 -->
<g id="edge8" class="edge">
<title>Node7&#45;&gt;Node9</title>
<path fill="none" stroke="midnightblue" d="M279.69,-509.3C292.06,-507.69 304.83,-506.03 316.91,-504.45"/>
<polygon fill="midnightblue" stroke="midnightblue" points="317.4,-507.92 326.87,-503.16 316.5,-500.98 317.4,-507.92"/>
</g>
<!-- Node15 -->
<g id="node15" class="node">
<title>Node15</title>
<g id="a_node15"><a xlink:href="namespaceft_1_1irc_1_1__internal.html#ac421a738f6d955bab8b862fca8bd7159" target="_top" xlink:title=" ">
<polygon fill="white" stroke="black" points="334,-274.5 334,-304.5 424,-304.5 424,-274.5 334,-274.5"/>
<text text-anchor="start" x="342" y="-292.5" font-family="Helvetica,sans-Serif" font-size="10.00">ft::irc::_internal</text>
<text text-anchor="middle" x="379" y="-281.5" font-family="Helvetica,sans-Serif" font-size="10.00">::_is_except</text>
</a>
</g>
</g>
<!-- Node14&#45;&gt;Node15 -->
<g id="edge14" class="edge">
<title>Node14&#45;&gt;Node15</title>
<path fill="none" stroke="midnightblue" d="M273.86,-289.5C290.35,-289.5 307.9,-289.5 323.8,-289.5"/>
<polygon fill="midnightblue" stroke="midnightblue" points="323.98,-293 333.98,-289.5 323.98,-286 323.98,-293"/>
</g>
</g>
</svg>
