<?xml version="1.0" encoding="UTF-8" standalone="no"?>
<!DOCTYPE svg PUBLIC "-//W3C//DTD SVG 1.1//EN"
 "http://www.w3.org/Graphics/SVG/1.1/DTD/svg11.dtd">
<!-- Generated by graphviz version 2.43.0 (0)
 -->
<!-- Title: ft::irc::user::register_to_server Pages: 1 -->
<svg width="304pt" height="519pt"
 viewBox="0.00 0.00 304.00 519.00" xmlns="http://www.w3.org/2000/svg" xmlns:xlink="http://www.w3.org/1999/xlink">
<g id="graph0" class="graph" transform="scale(1 1) rotate(0) translate(4 515)">
<title>ft::irc::user::register_to_server</title>
<polygon fill="white" stroke="transparent" points="-4,4 -4,-515 300,-515 300,4 -4,4"/>
<!-- Node1 -->
<g id="node1" class="node">
<title>Node1</title>
<g id="a_node1"><a xlink:title=" ">
<polygon fill="#bfbfbf" stroke="black" points="0,-235.5 0,-265.5 112,-265.5 112,-235.5 0,-235.5"/>
<text text-anchor="start" x="8" y="-253.5" font-family="Helvetica,sans-Serif" font-size="10.00">ft::irc::user::register</text>
<text text-anchor="middle" x="56" y="-242.5" font-family="Helvetica,sans-Serif" font-size="10.00">_to_server</text>
</a>
</g>
</g>
<!-- Node2 -->
<g id="node2" class="node">
<title>Node2</title>
<g id="a_node2"><a xlink:href="structft_1_1irc_1_1make__reply.html#ad65f94ea29a9d677937915bf6d92aed2" target="_top" xlink:title=" ">
<polygon fill="white" stroke="black" points="170,-480.5 170,-510.5 274,-510.5 274,-480.5 170,-480.5"/>
<text text-anchor="start" x="178" y="-498.5" font-family="Helvetica,sans-Serif" font-size="10.00">ft::irc::make_reply</text>
<text text-anchor="middle" x="222" y="-487.5" font-family="Helvetica,sans-Serif" font-size="10.00">::end_of_motd</text>
</a>
</g>
</g>
<!-- Node1&#45;&gt;Node2 -->
<g id="edge1" class="edge">
<title>Node1&#45;&gt;Node2</title>
<path fill="none" stroke="midnightblue" d="M58.85,-265.55C64.52,-305.14 85.24,-413.16 148,-471.5 151.81,-475.04 156.15,-478.06 160.78,-480.64"/>
<polygon fill="midnightblue" stroke="midnightblue" points="159.43,-483.87 169.96,-485.06 162.47,-477.57 159.43,-483.87"/>
</g>
<!-- Node3 -->
<g id="node3" class="node">
<title>Node3</title>
<g id="a_node3"><a xlink:href="structft_1_1irc_1_1make__reply.html#af8641b515a8bfe338b4b3ed793cb4677" target="_top" xlink:title=" ">
<polygon fill="white" stroke="black" points="170,-431.5 170,-461.5 274,-461.5 274,-431.5 170,-431.5"/>
<text text-anchor="start" x="178" y="-449.5" font-family="Helvetica,sans-Serif" font-size="10.00">ft::irc::make_reply</text>
<text text-anchor="middle" x="222" y="-438.5" font-family="Helvetica,sans-Serif" font-size="10.00">::luser_channels</text>
</a>
</g>
</g>
<!-- Node1&#45;&gt;Node3 -->
<g id="edge2" class="edge">
<title>Node1&#45;&gt;Node3</title>
<path fill="none" stroke="midnightblue" d="M60.81,-265.58C70,-298.86 96.49,-379.04 148,-422.5 151.75,-425.67 155.94,-428.42 160.35,-430.81"/>
<polygon fill="midnightblue" stroke="midnightblue" points="159.13,-434.11 169.66,-435.23 162.13,-427.78 159.13,-434.11"/>
</g>
<!-- Node4 -->
<g id="node4" class="node">
<title>Node4</title>
<g id="a_node4"><a xlink:href="structft_1_1irc_1_1make__reply.html#a03397f6e9db01891c6cf1f1526ead9a5" target="_top" xlink:title=" ">
<polygon fill="white" stroke="black" points="170,-382.5 170,-412.5 274,-412.5 274,-382.5 170,-382.5"/>
<text text-anchor="start" x="178" y="-400.5" font-family="Helvetica,sans-Serif" font-size="10.00">ft::irc::make_reply</text>
<text text-anchor="middle" x="222" y="-389.5" font-family="Helvetica,sans-Serif" font-size="10.00">::luser_client</text>
</a>
</g>
</g>
<!-- Node1&#45;&gt;Node4 -->
<g id="edge3" class="edge">
<title>Node1&#45;&gt;Node4</title>
<path fill="none" stroke="midnightblue" d="M64.28,-265.73C77.42,-291.63 107.52,-344.25 148,-373.5 151.92,-376.33 156.19,-378.84 160.63,-381.06"/>
<polygon fill="midnightblue" stroke="midnightblue" points="159.38,-384.34 169.94,-385.24 162.25,-377.95 159.38,-384.34"/>
</g>
<!-- Node5 -->
<g id="node5" class="node">
<title>Node5</title>
<g id="a_node5"><a xlink:href="structft_1_1irc_1_1make__reply.html#ad75b7d6f4b115c9a700e87ed7a947531" target="_top" xlink:title=" ">
<polygon fill="white" stroke="black" points="170,-333.5 170,-363.5 274,-363.5 274,-333.5 170,-333.5"/>
<text text-anchor="start" x="178" y="-351.5" font-family="Helvetica,sans-Serif" font-size="10.00">ft::irc::make_reply</text>
<text text-anchor="middle" x="222" y="-340.5" font-family="Helvetica,sans-Serif" font-size="10.00">::luser_me</text>
</a>
</g>
</g>
<!-- Node1&#45;&gt;Node5 -->
<g id="edge4" class="edge">
<title>Node1&#45;&gt;Node5</title>
<path fill="none" stroke="midnightblue" d="M72.14,-265.8C89.24,-282.3 118.52,-308.39 148,-324.5 151.93,-326.65 156.07,-328.64 160.32,-330.49"/>
<polygon fill="midnightblue" stroke="midnightblue" points="159.15,-333.79 169.73,-334.3 161.77,-327.3 159.15,-333.79"/>
</g>
<!-- Node6 -->
<g id="node6" class="node">
<title>Node6</title>
<g id="a_node6"><a xlink:href="structft_1_1irc_1_1make__reply.html#a71059f2ecea0dcf5b7c3d48a49b27652" target="_top" xlink:title=" ">
<polygon fill="white" stroke="black" points="170,-284.5 170,-314.5 274,-314.5 274,-284.5 170,-284.5"/>
<text text-anchor="start" x="178" y="-302.5" font-family="Helvetica,sans-Serif" font-size="10.00">ft::irc::make_reply</text>
<text text-anchor="middle" x="222" y="-291.5" font-family="Helvetica,sans-Serif" font-size="10.00">::luser_operator</text>
</a>
</g>
</g>
<!-- Node1&#45;&gt;Node6 -->
<g id="edge5" class="edge">
<title>Node1&#45;&gt;Node6</title>
<path fill="none" stroke="midnightblue" d="M107.54,-265.6C124.46,-270.66 143.48,-276.34 161.04,-281.58"/>
<polygon fill="midnightblue" stroke="midnightblue" points="160.04,-284.94 170.62,-284.45 162.04,-278.23 160.04,-284.94"/>
</g>
<!-- Node7 -->
<g id="node7" class="node">
<title>Node7</title>
<g id="a_node7"><a xlink:href="structft_1_1irc_1_1make__reply.html#abb3d19d7dff24cc11ae000c27f2d42f3" target="_top" xlink:title=" ">
<polygon fill="white" stroke="black" points="170,-235.5 170,-265.5 274,-265.5 274,-235.5 170,-235.5"/>
<text text-anchor="start" x="178" y="-253.5" font-family="Helvetica,sans-Serif" font-size="10.00">ft::irc::make_reply</text>
<text text-anchor="middle" x="222" y="-242.5" font-family="Helvetica,sans-Serif" font-size="10.00">::luser_unknown</text>
</a>
</g>
</g>
<!-- Node1&#45;&gt;Node7 -->
<g id="edge6" class="edge">
<title>Node1&#45;&gt;Node7</title>
<path fill="none" stroke="midnightblue" d="M112.07,-250.5C127.41,-250.5 144.17,-250.5 159.84,-250.5"/>
<polygon fill="midnightblue" stroke="midnightblue" points="159.95,-254 169.95,-250.5 159.95,-247 159.95,-254"/>
</g>
<!-- Node8 -->
<g id="node8" class="node">
<title>Node8</title>
<g id="a_node8"><a xlink:href="structft_1_1irc_1_1make__reply.html#a09ef279f20aef8d899a8a1f6e1f843c8" target="_top" xlink:title=" ">
<polygon fill="white" stroke="black" points="170,-186.5 170,-216.5 274,-216.5 274,-186.5 170,-186.5"/>
<text text-anchor="start" x="178" y="-204.5" font-family="Helvetica,sans-Serif" font-size="10.00">ft::irc::make_reply</text>
<text text-anchor="middle" x="222" y="-193.5" font-family="Helvetica,sans-Serif" font-size="10.00">::motd</text>
</a>
</g>
</g>
<!-- Node1&#45;&gt;Node8 -->
<g id="edge7" class="edge">
<title>Node1&#45;&gt;Node8</title>
<path fill="none" stroke="midnightblue" d="M107.54,-235.4C124.46,-230.34 143.48,-224.66 161.04,-219.42"/>
<polygon fill="midnightblue" stroke="midnightblue" points="162.04,-222.77 170.62,-216.55 160.04,-216.06 162.04,-222.77"/>
</g>
<!-- Node9 -->
<g id="node9" class="node">
<title>Node9</title>
<g id="a_node9"><a xlink:href="structft_1_1irc_1_1make__reply.html#ac487f0bab92e860c91305ed0b7f02dbe" target="_top" xlink:title=" ">
<polygon fill="white" stroke="black" points="170,-137.5 170,-167.5 274,-167.5 274,-137.5 170,-137.5"/>
<text text-anchor="start" x="178" y="-155.5" font-family="Helvetica,sans-Serif" font-size="10.00">ft::irc::make_reply</text>
<text text-anchor="middle" x="222" y="-144.5" font-family="Helvetica,sans-Serif" font-size="10.00">::motd_start</text>
</a>
</g>
</g>
<!-- Node1&#45;&gt;Node9 -->
<g id="edge8" class="edge">
<title>Node1&#45;&gt;Node9</title>
<path fill="none" stroke="midnightblue" d="M72.22,-235.49C89.38,-219.28 118.72,-193.61 148,-177.5 151.94,-175.33 156.09,-173.31 160.35,-171.42"/>
<polygon fill="midnightblue" stroke="midnightblue" points="161.87,-174.58 169.76,-167.51 159.18,-168.11 161.87,-174.58"/>
</g>
<!-- Node10 -->
<g id="node10" class="node">
<title>Node10</title>
<g id="a_node10"><a xlink:href="structft_1_1irc_1_1make__error.html#ab15f6ba737319065faa48589151ce227" target="_top" xlink:title=" ">
<polygon fill="white" stroke="black" points="170.5,-88.5 170.5,-118.5 273.5,-118.5 273.5,-88.5 170.5,-88.5"/>
<text text-anchor="start" x="178.5" y="-106.5" font-family="Helvetica,sans-Serif" font-size="10.00">ft::irc::make_error</text>
<text text-anchor="middle" x="222" y="-95.5" font-family="Helvetica,sans-Serif" font-size="10.00">::no_motd</text>
</a>
</g>
</g>
<!-- Node1&#45;&gt;Node10 -->
<g id="edge9" class="edge">
<title>Node1&#45;&gt;Node10</title>
<path fill="none" stroke="midnightblue" d="M64.35,-235.44C77.6,-209.84 107.86,-157.76 148,-128.5 152.09,-125.52 156.56,-122.87 161.22,-120.53"/>
<polygon fill="midnightblue" stroke="midnightblue" points="162.68,-123.71 170.33,-116.38 159.78,-117.33 162.68,-123.71"/>
</g>
<!-- Node11 -->
<g id="node11" class="node">
<title>Node11</title>
<g id="a_node11"><a xlink:href="classft_1_1irc_1_1server.html#a9bd0c0f5521a9d823a4d097099ebe4da" target="_top" xlink:title=" ">
<polygon fill="white" stroke="black" points="148,-50 148,-69 296,-69 296,-50 148,-50"/>
<text text-anchor="middle" x="222" y="-57" font-family="Helvetica,sans-Serif" font-size="10.00">ft::irc::server::register_user</text>
</a>
</g>
</g>
<!-- Node1&#45;&gt;Node11 -->
<g id="edge10" class="edge">
<title>Node1&#45;&gt;Node11</title>
<path fill="none" stroke="midnightblue" d="M60.68,-235.31C69.61,-201.85 95.6,-121.4 148,-79.5 150.8,-77.26 153.84,-75.27 157.03,-73.5"/>
<polygon fill="midnightblue" stroke="midnightblue" points="158.81,-76.52 166.35,-69.08 155.82,-70.2 158.81,-76.52"/>
</g>
<!-- Node12 -->
<g id="node12" class="node">
<title>Node12</title>
<g id="a_node12"><a xlink:href="structft_1_1irc_1_1make__reply.html#a125ea72202f5f56289961dd1664a0f69" target="_top" xlink:title=" ">
<polygon fill="white" stroke="black" points="170,-0.5 170,-30.5 274,-30.5 274,-0.5 170,-0.5"/>
<text text-anchor="start" x="178" y="-18.5" font-family="Helvetica,sans-Serif" font-size="10.00">ft::irc::make_reply</text>
<text text-anchor="middle" x="222" y="-7.5" font-family="Helvetica,sans-Serif" font-size="10.00">::user_mode_is</text>
</a>
</g>
</g>
<!-- Node1&#45;&gt;Node12 -->
<g id="edge11" class="edge">
<title>Node1&#45;&gt;Node12</title>
<path fill="none" stroke="midnightblue" d="M59.27,-235.4C65.81,-197.19 88.17,-95.78 148,-40.5 151.78,-37.01 156.06,-34 160.62,-31.42"/>
<polygon fill="midnightblue" stroke="midnightblue" points="162.25,-34.51 169.66,-26.94 159.14,-28.24 162.25,-34.51"/>
</g>
</g>
</svg>
