<?xml version="1.0" encoding="UTF-8" standalone="no"?>
<!DOCTYPE svg PUBLIC "-//W3C//DTD SVG 1.1//EN"
 "http://www.w3.org/Graphics/SVG/1.1/DTD/svg11.dtd">
<!-- Generated by graphviz version 2.43.0 (0)
 -->
<!-- Title: ft::irc::processor_part::execute Pages: 1 -->
<svg width="442pt" height="411pt"
 viewBox="0.00 0.00 442.00 410.50" xmlns="http://www.w3.org/2000/svg" xmlns:xlink="http://www.w3.org/1999/xlink">
<g id="graph0" class="graph" transform="scale(1 1) rotate(0) translate(4 406.5)">
<title>ft::irc::processor_part::execute</title>
<polygon fill="white" stroke="transparent" points="-4,4 -4,-406.5 438,-406.5 438,4 -4,4"/>
<!-- Node1 -->
<g id="node1" class="node">
<title>Node1</title>
<g id="a_node1"><a xlink:title=" ">
<polygon fill="#bfbfbf" stroke="black" points="0,-186 0,-216 95,-216 95,-186 0,-186"/>
<text text-anchor="start" x="8" y="-204" font-family="Helvetica,sans-Serif" font-size="10.00">ft::irc::processor</text>
<text text-anchor="middle" x="47.5" y="-193" font-family="Helvetica,sans-Serif" font-size="10.00">_part::execute</text>
</a>
</g>
</g>
<!-- Node2 -->
<g id="node2" class="node">
<title>Node2</title>
<g id="a_node2"><a xlink:href="classft_1_1irc_1_1server.html#a0e7dee7efef3f36af15d1a3b97f3bad9" target="_top" xlink:title=" ">
<polygon fill="white" stroke="black" points="152.5,-372 152.5,-402 254.5,-402 254.5,-372 152.5,-372"/>
<text text-anchor="start" x="160.5" y="-390" font-family="Helvetica,sans-Serif" font-size="10.00">ft::irc::server::find</text>
<text text-anchor="middle" x="203.5" y="-379" font-family="Helvetica,sans-Serif" font-size="10.00">_channel</text>
</a>
</g>
</g>
<!-- Node1&#45;&gt;Node2 -->
<g id="edge1" class="edge">
<title>Node1&#45;&gt;Node2</title>
<path fill="none" stroke="midnightblue" d="M52.12,-216.38C60.44,-248.35 83.92,-322.39 131,-363 134.65,-366.15 138.73,-368.89 143.04,-371.27"/>
<polygon fill="midnightblue" stroke="midnightblue" points="141.61,-374.47 152.14,-375.68 144.66,-368.17 141.61,-374.47"/>
</g>
<!-- Node3 -->
<g id="node3" class="node">
<title>Node3</title>
<g id="a_node3"><a xlink:href="classft_1_1irc_1_1user.html#ae476cc31795df7fbb726b193ab887e75" target="_top" xlink:title=" ">
<polygon fill="white" stroke="black" points="158.5,-323 158.5,-353 248.5,-353 248.5,-323 158.5,-323"/>
<text text-anchor="start" x="166.5" y="-341" font-family="Helvetica,sans-Serif" font-size="10.00">ft::irc::user::get</text>
<text text-anchor="middle" x="203.5" y="-330" font-family="Helvetica,sans-Serif" font-size="10.00">_server</text>
</a>
</g>
</g>
<!-- Node1&#45;&gt;Node3 -->
<g id="edge2" class="edge">
<title>Node1&#45;&gt;Node3</title>
<path fill="none" stroke="midnightblue" d="M55.65,-216.13C67.8,-240.26 94.74,-287.45 131,-314 136.47,-318 142.64,-321.37 149.02,-324.19"/>
<polygon fill="midnightblue" stroke="midnightblue" points="147.86,-327.49 158.45,-327.94 150.45,-320.99 147.86,-327.49"/>
</g>
<!-- Node4 -->
<g id="node4" class="node">
<title>Node4</title>
<g id="a_node4"><a xlink:href="classft_1_1irc_1_1user.html#a43fb91fff5e13afd67f9e642137eca40" target="_top" xlink:title=" ">
<polygon fill="white" stroke="black" points="140.5,-274 140.5,-304 266.5,-304 266.5,-274 140.5,-274"/>
<text text-anchor="start" x="148.5" y="-292" font-family="Helvetica,sans-Serif" font-size="10.00">ft::irc::user::is_channel</text>
<text text-anchor="middle" x="203.5" y="-281" font-family="Helvetica,sans-Serif" font-size="10.00">_member</text>
</a>
</g>
</g>
<!-- Node1&#45;&gt;Node4 -->
<g id="edge3" class="edge">
<title>Node1&#45;&gt;Node4</title>
<path fill="none" stroke="midnightblue" d="M65.1,-216.22C81.03,-230.19 106.25,-250.66 131,-264 134.95,-266.13 139.11,-268.13 143.37,-270.01"/>
<polygon fill="midnightblue" stroke="midnightblue" points="142.2,-273.31 152.78,-273.91 144.88,-266.85 142.2,-273.31"/>
</g>
<!-- Node5 -->
<g id="node5" class="node">
<title>Node5</title>
<g id="a_node5"><a xlink:href="classft_1_1irc_1_1channel.html#a234b5979ee6b122dec7f2de82614c02a" target="_top" xlink:title=" ">
<polygon fill="white" stroke="black" points="131,-235.5 131,-254.5 276,-254.5 276,-235.5 131,-235.5"/>
<text text-anchor="middle" x="203.5" y="-242.5" font-family="Helvetica,sans-Serif" font-size="10.00">ft::irc::channel::leave_user</text>
</a>
</g>
</g>
<!-- Node1&#45;&gt;Node5 -->
<g id="edge4" class="edge">
<title>Node1&#45;&gt;Node5</title>
<path fill="none" stroke="midnightblue" d="M95.16,-214.67C106.86,-218.07 119.38,-221.69 131,-225 139.74,-227.49 149.08,-230.13 158.04,-232.64"/>
<polygon fill="midnightblue" stroke="midnightblue" points="157.36,-236.08 167.93,-235.41 159.24,-229.34 157.36,-236.08"/>
</g>
<!-- Node8 -->
<g id="node8" class="node">
<title>Node8</title>
<g id="a_node8"><a xlink:href="structft_1_1irc_1_1make__error.html#a8ad003c713b8ee5ebbf4691dd2be83fe" target="_top" xlink:title=" ">
<polygon fill="white" stroke="black" points="150.5,-186 150.5,-216 256.5,-216 256.5,-186 150.5,-186"/>
<text text-anchor="start" x="158.5" y="-204" font-family="Helvetica,sans-Serif" font-size="10.00">ft::irc::make_error</text>
<text text-anchor="middle" x="203.5" y="-193" font-family="Helvetica,sans-Serif" font-size="10.00">::no_such_channel</text>
</a>
</g>
</g>
<!-- Node1&#45;&gt;Node8 -->
<g id="edge7" class="edge">
<title>Node1&#45;&gt;Node8</title>
<path fill="none" stroke="midnightblue" d="M95.12,-201C109.29,-201 125.1,-201 140.13,-201"/>
<polygon fill="midnightblue" stroke="midnightblue" points="140.38,-204.5 150.38,-201 140.38,-197.5 140.38,-204.5"/>
</g>
<!-- Node9 -->
<g id="node9" class="node">
<title>Node9</title>
<g id="a_node9"><a xlink:href="structft_1_1irc_1_1make__error.html#a85c1af0e7b2940c1aff650d1a78b9847" target="_top" xlink:title=" ">
<polygon fill="white" stroke="black" points="152,-137 152,-167 255,-167 255,-137 152,-137"/>
<text text-anchor="start" x="160" y="-155" font-family="Helvetica,sans-Serif" font-size="10.00">ft::irc::make_error</text>
<text text-anchor="middle" x="203.5" y="-144" font-family="Helvetica,sans-Serif" font-size="10.00">::not_on_channel</text>
</a>
</g>
</g>
<!-- Node1&#45;&gt;Node9 -->
<g id="edge8" class="edge">
<title>Node1&#45;&gt;Node9</title>
<path fill="none" stroke="midnightblue" d="M95.12,-186.17C111.03,-181.1 129.01,-175.38 145.63,-170.09"/>
<polygon fill="midnightblue" stroke="midnightblue" points="146.77,-173.41 155.24,-167.04 144.65,-166.73 146.77,-173.41"/>
</g>
<!-- Node10 -->
<g id="node10" class="node">
<title>Node10</title>
<g id="a_node10"><a xlink:href="classft_1_1irc_1_1user.html#a3dcb054e616907f4ff2ec8d11563c978" target="_top" xlink:title=" ">
<polygon fill="white" stroke="black" points="156.5,-88 156.5,-118 250.5,-118 250.5,-88 156.5,-88"/>
<text text-anchor="start" x="164.5" y="-106" font-family="Helvetica,sans-Serif" font-size="10.00">ft::irc::user::part</text>
<text text-anchor="middle" x="203.5" y="-95" font-family="Helvetica,sans-Serif" font-size="10.00">_channel</text>
</a>
</g>
</g>
<!-- Node1&#45;&gt;Node10 -->
<g id="edge9" class="edge">
<title>Node1&#45;&gt;Node10</title>
<path fill="none" stroke="midnightblue" d="M61.69,-185.95C76.91,-169.42 103.4,-143.08 131,-127 136,-124.09 141.41,-121.46 146.93,-119.12"/>
<polygon fill="midnightblue" stroke="midnightblue" points="148.26,-122.35 156.28,-115.43 145.69,-115.84 148.26,-122.35"/>
</g>
<!-- Node11 -->
<g id="node11" class="node">
<title>Node11</title>
<g id="a_node11"><a xlink:href="classft_1_1irc_1_1user.html#a1db558d6d694ca943224c2440fe36c50" target="_top" xlink:title=" ">
<polygon fill="white" stroke="black" points="154.5,-39 154.5,-69 252.5,-69 252.5,-39 154.5,-39"/>
<text text-anchor="start" x="162.5" y="-57" font-family="Helvetica,sans-Serif" font-size="10.00">ft::irc::user::send</text>
<text text-anchor="middle" x="203.5" y="-46" font-family="Helvetica,sans-Serif" font-size="10.00">_message</text>
</a>
</g>
</g>
<!-- Node1&#45;&gt;Node11 -->
<g id="edge10" class="edge">
<title>Node1&#45;&gt;Node11</title>
<path fill="none" stroke="midnightblue" d="M54.74,-185.78C66.09,-159.92 92.57,-107.33 131,-78 135.19,-74.8 139.82,-72.02 144.66,-69.6"/>
<polygon fill="midnightblue" stroke="midnightblue" points="146.45,-72.64 154.16,-65.37 143.6,-66.24 146.45,-72.64"/>
</g>
<!-- Node12 -->
<g id="node12" class="node">
<title>Node12</title>
<g id="a_node12"><a xlink:href="classft_1_1irc_1_1message.html#adf434fdc28e74fb166c6046c0ac5c6d5" target="_top" xlink:title=" ">
<polygon fill="white" stroke="black" points="144,-0.5 144,-19.5 263,-19.5 263,-0.5 144,-0.5"/>
<text text-anchor="middle" x="203.5" y="-7.5" font-family="Helvetica,sans-Serif" font-size="10.00">ft::irc::message::split</text>
</a>
</g>
</g>
<!-- Node1&#45;&gt;Node12 -->
<g id="edge11" class="edge">
<title>Node1&#45;&gt;Node12</title>
<path fill="none" stroke="midnightblue" d="M51.29,-185.97C58.33,-152.46 79.98,-71.25 131,-29 133.03,-27.32 135.2,-25.78 137.47,-24.38"/>
<polygon fill="midnightblue" stroke="midnightblue" points="139.38,-27.33 146.64,-19.62 136.15,-21.12 139.38,-27.33"/>
</g>
<!-- Node6 -->
<g id="node6" class="node">
<title>Node6</title>
<g id="a_node6"><a xlink:href="classft_1_1irc_1_1user.html#af40c547a4bf5e10f4f4bb74936fe6d9e" target="_top" xlink:title=" ">
<polygon fill="white" stroke="black" points="315,-257.5 315,-276.5 431,-276.5 431,-257.5 315,-257.5"/>
<text text-anchor="middle" x="373" y="-264.5" font-family="Helvetica,sans-Serif" font-size="10.00">ft::irc::user::get_nick</text>
</a>
</g>
</g>
<!-- Node5&#45;&gt;Node6 -->
<g id="edge5" class="edge">
<title>Node5&#45;&gt;Node6</title>
<path fill="none" stroke="midnightblue" d="M276.02,-254.39C285.55,-255.65 295.3,-256.93 304.76,-258.17"/>
<polygon fill="midnightblue" stroke="midnightblue" points="304.51,-261.67 314.88,-259.5 305.43,-254.73 304.51,-261.67"/>
</g>
<!-- Node7 -->
<g id="node7" class="node">
<title>Node7</title>
<g id="a_node7"><a xlink:href="classft_1_1irc_1_1server.html#a9fff5c3bf3c7142c557cafbfd22f7767" target="_top" xlink:title=" ">
<polygon fill="white" stroke="black" points="312,-208 312,-238 434,-238 434,-208 312,-208"/>
<text text-anchor="start" x="320" y="-226" font-family="Helvetica,sans-Serif" font-size="10.00">ft::irc::server::remove</text>
<text text-anchor="middle" x="373" y="-215" font-family="Helvetica,sans-Serif" font-size="10.00">_channel</text>
</a>
</g>
</g>
<!-- Node5&#45;&gt;Node7 -->
<g id="edge6" class="edge">
<title>Node5&#45;&gt;Node7</title>
<path fill="none" stroke="midnightblue" d="M276.02,-235.61C284.58,-234.48 293.32,-233.33 301.87,-232.21"/>
<polygon fill="midnightblue" stroke="midnightblue" points="302.33,-235.68 311.79,-230.91 301.41,-228.74 302.33,-235.68"/>
</g>
</g>
</svg>
