<?xml version="1.0" encoding="UTF-8" standalone="no"?>
<!DOCTYPE svg PUBLIC "-//W3C//DTD SVG 1.1//EN"
 "http://www.w3.org/Graphics/SVG/1.1/DTD/svg11.dtd">
<!-- Generated by graphviz version 2.43.0 (0)
 -->
<!-- Title: includes/libserv/event_handler_base.cpp Pages: 1 -->
<svg width="604pt" height="263pt"
 viewBox="0.00 0.00 604.00 263.00" xmlns="http://www.w3.org/2000/svg" xmlns:xlink="http://www.w3.org/1999/xlink">
<g id="graph0" class="graph" transform="scale(1 1) rotate(0) translate(4 259)">
<title>includes/libserv/event_handler_base.cpp</title>
<polygon fill="white" stroke="transparent" points="-4,4 -4,-259 600,-259 600,4 -4,4"/>
<!-- Node1 -->
<g id="node1" class="node">
<title>Node1</title>
<g id="a_node1"><a xlink:title=" ">
<polygon fill="#bfbfbf" stroke="black" points="239.5,-224.5 239.5,-254.5 363.5,-254.5 363.5,-224.5 239.5,-224.5"/>
<text text-anchor="start" x="247.5" y="-242.5" font-family="Helvetica,sans-Serif" font-size="10.00">includes/libserv/event</text>
<text text-anchor="middle" x="301.5" y="-231.5" font-family="Helvetica,sans-Serif" font-size="10.00">_handler_base.cpp</text>
</a>
</g>
</g>
<!-- Node2 -->
<g id="node2" class="node">
<title>Node2</title>
<g id="a_node2"><a xlink:href="event__handler__base_8hpp.html" target="_top" xlink:title=" ">
<polygon fill="white" stroke="black" points="112.5,-112.5 112.5,-131.5 248.5,-131.5 248.5,-112.5 112.5,-112.5"/>
<text text-anchor="middle" x="180.5" y="-119.5" font-family="Helvetica,sans-Serif" font-size="10.00">event_handler_base.hpp</text>
</a>
</g>
</g>
<!-- Node1&#45;&gt;Node2 -->
<g id="edge1" class="edge">
<title>Node1&#45;&gt;Node2</title>
<path fill="none" stroke="midnightblue" d="M284.77,-224.21C273.27,-214.25 257.74,-200.56 244.5,-188 227.37,-171.75 208.49,-152.39 195.71,-139.05"/>
<polygon fill="midnightblue" stroke="midnightblue" points="198.04,-136.42 188.6,-131.6 192.97,-141.25 198.04,-136.42"/>
</g>
<!-- Node3 -->
<g id="node3" class="node">
<title>Node3</title>
<g id="a_node3"><a xlink:href="serv__types_8hpp.html" target="_top" xlink:title=" ">
<polygon fill="white" stroke="black" points="39,-56.5 39,-75.5 130,-75.5 130,-56.5 39,-56.5"/>
<text text-anchor="middle" x="84.5" y="-63.5" font-family="Helvetica,sans-Serif" font-size="10.00">serv_types.hpp</text>
</a>
</g>
</g>
<!-- Node1&#45;&gt;Node3 -->
<g id="edge15" class="edge">
<title>Node1&#45;&gt;Node3</title>
<path fill="none" stroke="midnightblue" d="M239.3,-225.67C189.12,-211.75 121.49,-184.15 87.5,-132 78.64,-118.41 78.78,-99.61 80.61,-85.73"/>
<polygon fill="midnightblue" stroke="midnightblue" points="84.06,-86.28 82.29,-75.84 77.16,-85.1 84.06,-86.28"/>
</g>
<!-- Node7 -->
<g id="node7" class="node">
<title>Node7</title>
<g id="a_node7"><a xlink:title=" ">
<polygon fill="white" stroke="#bfbfbf" points="457,-56.5 457,-75.5 596,-75.5 596,-56.5 457,-56.5"/>
<text text-anchor="middle" x="526.5" y="-63.5" font-family="Helvetica,sans-Serif" font-size="10.00">smart_ptr/shared_ptr.hpp</text>
</a>
</g>
</g>
<!-- Node1&#45;&gt;Node7 -->
<g id="edge16" class="edge">
<title>Node1&#45;&gt;Node7</title>
<path fill="none" stroke="midnightblue" d="M363.53,-236.89C406.73,-232.69 463.23,-220.67 501.5,-188 530.91,-162.9 531.3,-113.16 528.95,-85.92"/>
<polygon fill="midnightblue" stroke="midnightblue" points="532.41,-85.33 527.86,-75.76 525.45,-86.08 532.41,-85.33"/>
</g>
<!-- Node8 -->
<g id="node8" class="node">
<title>Node8</title>
<g id="a_node8"><a xlink:title=" ">
<polygon fill="white" stroke="#bfbfbf" points="244,-56.5 244,-75.5 309,-75.5 309,-56.5 244,-56.5"/>
<text text-anchor="middle" x="276.5" y="-63.5" font-family="Helvetica,sans-Serif" font-size="10.00">exception</text>
</a>
</g>
</g>
<!-- Node1&#45;&gt;Node8 -->
<g id="edge17" class="edge">
<title>Node1&#45;&gt;Node8</title>
<path fill="none" stroke="midnightblue" d="M363.69,-225.7C440.14,-207.2 554.34,-168.84 507.5,-112 484.15,-83.67 379.75,-72.94 319.6,-69.06"/>
<polygon fill="midnightblue" stroke="midnightblue" points="319.46,-65.54 309.27,-68.43 319.04,-72.53 319.46,-65.54"/>
</g>
<!-- Node9 -->
<g id="node9" class="node">
<title>Node9</title>
<g id="a_node9"><a xlink:href="event__layer_8hpp.html" target="_top" xlink:title=" ">
<polygon fill="white" stroke="black" points="254,-168.5 254,-187.5 349,-187.5 349,-168.5 254,-168.5"/>
<text text-anchor="middle" x="301.5" y="-175.5" font-family="Helvetica,sans-Serif" font-size="10.00">event_layer.hpp</text>
</a>
</g>
</g>
<!-- Node1&#45;&gt;Node9 -->
<g id="edge8" class="edge">
<title>Node1&#45;&gt;Node9</title>
<path fill="none" stroke="midnightblue" d="M301.5,-224.4C301.5,-216.47 301.5,-206.46 301.5,-197.86"/>
<polygon fill="midnightblue" stroke="midnightblue" points="305,-197.66 301.5,-187.66 298,-197.66 305,-197.66"/>
</g>
<!-- Node2&#45;&gt;Node3 -->
<g id="edge2" class="edge">
<title>Node2&#45;&gt;Node3</title>
<path fill="none" stroke="midnightblue" d="M165.08,-112.32C149.96,-103.82 126.68,-90.73 109.03,-80.8"/>
<polygon fill="midnightblue" stroke="midnightblue" points="110.32,-77.51 99.89,-75.65 106.89,-83.61 110.32,-77.51"/>
</g>
<!-- Node2&#45;&gt;Node7 -->
<g id="edge6" class="edge">
<title>Node2&#45;&gt;Node7</title>
<path fill="none" stroke="midnightblue" d="M235.32,-112.44C296.82,-102.85 396.48,-87.29 461.76,-77.1"/>
<polygon fill="midnightblue" stroke="midnightblue" points="462.59,-80.52 471.93,-75.52 461.51,-73.6 462.59,-80.52"/>
</g>
<!-- Node2&#45;&gt;Node8 -->
<g id="edge7" class="edge">
<title>Node2&#45;&gt;Node8</title>
<path fill="none" stroke="midnightblue" d="M195.92,-112.32C211.04,-103.82 234.32,-90.73 251.97,-80.8"/>
<polygon fill="midnightblue" stroke="midnightblue" points="254.11,-83.61 261.11,-75.65 250.68,-77.51 254.11,-83.61"/>
</g>
<!-- Node4 -->
<g id="node4" class="node">
<title>Node4</title>
<g id="a_node4"><a xlink:title=" ">
<polygon fill="white" stroke="#bfbfbf" points="0,-0.5 0,-19.5 47,-19.5 47,-0.5 0,-0.5"/>
<text text-anchor="middle" x="23.5" y="-7.5" font-family="Helvetica,sans-Serif" font-size="10.00">deque</text>
</a>
</g>
</g>
<!-- Node3&#45;&gt;Node4 -->
<g id="edge3" class="edge">
<title>Node3&#45;&gt;Node4</title>
<path fill="none" stroke="midnightblue" d="M74.7,-56.32C65.68,-48.34 52.09,-36.31 41.18,-26.65"/>
<polygon fill="midnightblue" stroke="midnightblue" points="43.29,-23.84 33.48,-19.83 38.65,-29.08 43.29,-23.84"/>
</g>
<!-- Node5 -->
<g id="node5" class="node">
<title>Node5</title>
<g id="a_node5"><a xlink:title=" ">
<polygon fill="white" stroke="#bfbfbf" points="65.5,-0.5 65.5,-19.5 103.5,-19.5 103.5,-0.5 65.5,-0.5"/>
<text text-anchor="middle" x="84.5" y="-7.5" font-family="Helvetica,sans-Serif" font-size="10.00">map</text>
</a>
</g>
</g>
<!-- Node3&#45;&gt;Node5 -->
<g id="edge4" class="edge">
<title>Node3&#45;&gt;Node5</title>
<path fill="none" stroke="midnightblue" d="M84.5,-56.08C84.5,-49.01 84.5,-38.86 84.5,-29.99"/>
<polygon fill="midnightblue" stroke="midnightblue" points="88,-29.75 84.5,-19.75 81,-29.75 88,-29.75"/>
</g>
<!-- Node6 -->
<g id="node6" class="node">
<title>Node6</title>
<g id="a_node6"><a xlink:title=" ">
<polygon fill="white" stroke="#bfbfbf" points="122,-0.5 122,-19.5 169,-19.5 169,-0.5 122,-0.5"/>
<text text-anchor="middle" x="145.5" y="-7.5" font-family="Helvetica,sans-Serif" font-size="10.00">vector</text>
</a>
</g>
</g>
<!-- Node3&#45;&gt;Node6 -->
<g id="edge5" class="edge">
<title>Node3&#45;&gt;Node6</title>
<path fill="none" stroke="midnightblue" d="M94.3,-56.32C103.32,-48.34 116.91,-36.31 127.82,-26.65"/>
<polygon fill="midnightblue" stroke="midnightblue" points="130.35,-29.08 135.52,-19.83 125.71,-23.84 130.35,-29.08"/>
</g>
<!-- Node9&#45;&gt;Node2 -->
<g id="edge9" class="edge">
<title>Node9&#45;&gt;Node2</title>
<path fill="none" stroke="midnightblue" d="M282.33,-168.44C262.59,-159.64 231.61,-145.81 209.01,-135.72"/>
<polygon fill="midnightblue" stroke="midnightblue" points="210.14,-132.4 199.58,-131.52 207.29,-138.79 210.14,-132.4"/>
</g>
<!-- Node9&#45;&gt;Node3 -->
<g id="edge10" class="edge">
<title>Node9&#45;&gt;Node3</title>
<path fill="none" stroke="midnightblue" d="M253.66,-171.72C202.2,-165.1 124.87,-152.11 103.5,-132 90.93,-120.18 86.53,-100.55 85.06,-85.95"/>
<polygon fill="midnightblue" stroke="midnightblue" points="88.53,-85.32 84.41,-75.56 81.54,-85.76 88.53,-85.32"/>
</g>
<!-- Node9&#45;&gt;Node7 -->
<g id="edge11" class="edge">
<title>Node9&#45;&gt;Node7</title>
<path fill="none" stroke="midnightblue" d="M349.34,-172.2C402.84,-165.88 484.95,-153.04 507.5,-132 520.12,-120.23 524.51,-100.59 525.97,-85.97"/>
<polygon fill="midnightblue" stroke="midnightblue" points="529.48,-85.77 526.6,-75.58 522.5,-85.34 529.48,-85.77"/>
</g>
<!-- Node9&#45;&gt;Node8 -->
<g id="edge13" class="edge">
<title>Node9&#45;&gt;Node8</title>
<path fill="none" stroke="midnightblue" d="M299.54,-168.37C295.5,-150.62 286.2,-109.67 280.73,-85.6"/>
<polygon fill="midnightblue" stroke="midnightblue" points="284.08,-84.57 278.45,-75.59 277.26,-86.12 284.08,-84.57"/>
</g>
<!-- Node10 -->
<g id="node10" class="node">
<title>Node10</title>
<g id="a_node10"><a xlink:title=" ">
<polygon fill="white" stroke="#bfbfbf" points="366.5,-112.5 366.5,-131.5 498.5,-131.5 498.5,-112.5 366.5,-112.5"/>
<text text-anchor="middle" x="432.5" y="-119.5" font-family="Helvetica,sans-Serif" font-size="10.00">smart_ptr/weak_ptr.hpp</text>
</a>
</g>
</g>
<!-- Node9&#45;&gt;Node10 -->
<g id="edge12" class="edge">
<title>Node9&#45;&gt;Node10</title>
<path fill="none" stroke="midnightblue" d="M322.26,-168.44C343.82,-159.56 377.76,-145.56 402.29,-135.45"/>
<polygon fill="midnightblue" stroke="midnightblue" points="403.93,-138.56 411.84,-131.52 401.26,-132.09 403.93,-138.56"/>
</g>
<!-- Node11 -->
<g id="node11" class="node">
<title>Node11</title>
<g id="a_node11"><a xlink:title=" ">
<polygon fill="white" stroke="#bfbfbf" points="304.5,-112.5 304.5,-131.5 348.5,-131.5 348.5,-112.5 304.5,-112.5"/>
<text text-anchor="middle" x="326.5" y="-119.5" font-family="Helvetica,sans-Serif" font-size="10.00">string</text>
</a>
</g>
</g>
<!-- Node9&#45;&gt;Node11 -->
<g id="edge14" class="edge">
<title>Node9&#45;&gt;Node11</title>
<path fill="none" stroke="midnightblue" d="M305.63,-168.08C309.01,-160.77 313.92,-150.18 318.12,-141.1"/>
<polygon fill="midnightblue" stroke="midnightblue" points="321.42,-142.3 322.45,-131.75 315.07,-139.36 321.42,-142.3"/>
</g>
</g>
</svg>
