<?xml version="1.0" encoding="UTF-8" standalone="no"?>
<!DOCTYPE svg PUBLIC "-//W3C//DTD SVG 1.1//EN"
 "http://www.w3.org/Graphics/SVG/1.1/DTD/svg11.dtd">
<!-- Generated by graphviz version 2.43.0 (0)
 -->
<!-- Title: includes/libserv/event_channel_base.hpp Pages: 1 -->
<svg width="751pt" height="218pt"
 viewBox="0.00 0.00 750.50 218.00" xmlns="http://www.w3.org/2000/svg" xmlns:xlink="http://www.w3.org/1999/xlink">
<g id="graph0" class="graph" transform="scale(1 1) rotate(0) translate(4 214)">
<title>includes/libserv/event_channel_base.hpp</title>
<polygon fill="white" stroke="transparent" points="-4,4 -4,-214 746.5,-214 746.5,4 -4,4"/>
<!-- Node1 -->
<g id="node1" class="node">
<title>Node1</title>
<g id="a_node1"><a xlink:title=" ">
<polygon fill="#bfbfbf" stroke="black" points="319.5,-179.5 319.5,-209.5 443.5,-209.5 443.5,-179.5 319.5,-179.5"/>
<text text-anchor="start" x="327.5" y="-197.5" font-family="Helvetica,sans-Serif" font-size="10.00">includes/libserv/event</text>
<text text-anchor="middle" x="381.5" y="-186.5" font-family="Helvetica,sans-Serif" font-size="10.00">_channel_base.hpp</text>
</a>
</g>
</g>
<!-- Node2 -->
<g id="node2" class="node">
<title>Node2</title>
<g id="a_node2"><a xlink:href="byte__buffer_8hpp.html" target="_top" xlink:title=" ">
<polygon fill="white" stroke="black" points="124.5,-118 124.5,-137 216.5,-137 216.5,-118 124.5,-118"/>
<text text-anchor="middle" x="170.5" y="-125" font-family="Helvetica,sans-Serif" font-size="10.00">byte_buffer.hpp</text>
</a>
</g>
</g>
<!-- Node1&#45;&gt;Node2 -->
<g id="edge1" class="edge">
<title>Node1&#45;&gt;Node2</title>
<path fill="none" stroke="midnightblue" d="M335.98,-179.48C297.66,-167.67 243.54,-151 207.76,-139.98"/>
<polygon fill="midnightblue" stroke="midnightblue" points="208.77,-136.63 198.19,-137.03 206.71,-143.32 208.77,-136.63"/>
</g>
<!-- Node3 -->
<g id="node3" class="node">
<title>Node3</title>
<g id="a_node3"><a xlink:href="serv__types_8hpp.html" target="_top" xlink:title=" ">
<polygon fill="white" stroke="black" points="39,-56.5 39,-75.5 130,-75.5 130,-56.5 39,-56.5"/>
<text text-anchor="middle" x="84.5" y="-63.5" font-family="Helvetica,sans-Serif" font-size="10.00">serv_types.hpp</text>
</a>
</g>
</g>
<!-- Node1&#45;&gt;Node3 -->
<g id="edge8" class="edge">
<title>Node1&#45;&gt;Node3</title>
<path fill="none" stroke="midnightblue" d="M319.34,-188.53C250.76,-181.89 146.02,-167.96 115.5,-143 98.13,-128.79 90.4,-103.3 87.02,-85.79"/>
<polygon fill="midnightblue" stroke="midnightblue" points="90.43,-84.94 85.37,-75.63 83.52,-86.06 90.43,-84.94"/>
</g>
<!-- Node9 -->
<g id="node9" class="node">
<title>Node9</title>
<g id="a_node9"><a xlink:title=" ">
<polygon fill="white" stroke="#bfbfbf" points="234.5,-112.5 234.5,-142.5 372.5,-142.5 372.5,-112.5 234.5,-112.5"/>
<text text-anchor="start" x="242.5" y="-130.5" font-family="Helvetica,sans-Serif" font-size="10.00">smart_ptr/enable_shared</text>
<text text-anchor="middle" x="303.5" y="-119.5" font-family="Helvetica,sans-Serif" font-size="10.00">_from_this.hpp</text>
</a>
</g>
</g>
<!-- Node1&#45;&gt;Node9 -->
<g id="edge9" class="edge">
<title>Node1&#45;&gt;Node9</title>
<path fill="none" stroke="midnightblue" d="M364.58,-179.4C353.95,-170.54 340.05,-158.96 328.2,-149.09"/>
<polygon fill="midnightblue" stroke="midnightblue" points="330.31,-146.29 320.39,-142.58 325.83,-151.67 330.31,-146.29"/>
</g>
<!-- Node10 -->
<g id="node10" class="node">
<title>Node10</title>
<g id="a_node10"><a xlink:title=" ">
<polygon fill="white" stroke="#bfbfbf" points="391,-118 391,-137 530,-137 530,-118 391,-118"/>
<text text-anchor="middle" x="460.5" y="-125" font-family="Helvetica,sans-Serif" font-size="10.00">smart_ptr/shared_ptr.hpp</text>
</a>
</g>
</g>
<!-- Node1&#45;&gt;Node10 -->
<g id="edge10" class="edge">
<title>Node1&#45;&gt;Node10</title>
<path fill="none" stroke="midnightblue" d="M398.64,-179.4C411.45,-168.86 428.93,-154.48 442.04,-143.69"/>
<polygon fill="midnightblue" stroke="midnightblue" points="444.43,-146.25 449.93,-137.19 439.99,-140.85 444.43,-146.25"/>
</g>
<!-- Node11 -->
<g id="node11" class="node">
<title>Node11</title>
<g id="a_node11"><a xlink:title=" ">
<polygon fill="white" stroke="#bfbfbf" points="548.5,-118 548.5,-137 680.5,-137 680.5,-118 548.5,-118"/>
<text text-anchor="middle" x="614.5" y="-125" font-family="Helvetica,sans-Serif" font-size="10.00">smart_ptr/weak_ptr.hpp</text>
</a>
</g>
</g>
<!-- Node1&#45;&gt;Node11 -->
<g id="edge11" class="edge">
<title>Node1&#45;&gt;Node11</title>
<path fill="none" stroke="midnightblue" d="M431.77,-179.48C474.35,-167.6 534.61,-150.79 574.11,-139.77"/>
<polygon fill="midnightblue" stroke="midnightblue" points="575.24,-143.09 583.93,-137.03 573.36,-136.34 575.24,-143.09"/>
</g>
<!-- Node12 -->
<g id="node12" class="node">
<title>Node12</title>
<g id="a_node12"><a xlink:title=" ">
<polygon fill="white" stroke="#bfbfbf" points="698.5,-118 698.5,-137 742.5,-137 742.5,-118 698.5,-118"/>
<text text-anchor="middle" x="720.5" y="-125" font-family="Helvetica,sans-Serif" font-size="10.00">string</text>
</a>
</g>
</g>
<!-- Node1&#45;&gt;Node12 -->
<g id="edge12" class="edge">
<title>Node1&#45;&gt;Node12</title>
<path fill="none" stroke="midnightblue" d="M443.72,-188.36C506.76,-181.98 606.55,-168.66 689.5,-143 691.37,-142.42 693.28,-141.75 695.18,-141.02"/>
<polygon fill="midnightblue" stroke="midnightblue" points="696.62,-144.21 704.42,-137.04 693.86,-137.78 696.62,-144.21"/>
</g>
<!-- Node2&#45;&gt;Node3 -->
<g id="edge2" class="edge">
<title>Node2&#45;&gt;Node3</title>
<path fill="none" stroke="midnightblue" d="M158.18,-117.98C144.38,-108.43 121.8,-92.81 105.27,-81.37"/>
<polygon fill="midnightblue" stroke="midnightblue" points="107.01,-78.32 96.8,-75.51 103.03,-84.08 107.01,-78.32"/>
</g>
<!-- Node7 -->
<g id="node7" class="node">
<title>Node7</title>
<g id="a_node7"><a xlink:title=" ">
<polygon fill="white" stroke="#bfbfbf" points="148.5,-56.5 148.5,-75.5 200.5,-75.5 200.5,-56.5 148.5,-56.5"/>
<text text-anchor="middle" x="174.5" y="-63.5" font-family="Helvetica,sans-Serif" font-size="10.00">cassert</text>
</a>
</g>
</g>
<!-- Node2&#45;&gt;Node7 -->
<g id="edge6" class="edge">
<title>Node2&#45;&gt;Node7</title>
<path fill="none" stroke="midnightblue" d="M171.07,-117.98C171.64,-109.58 172.52,-96.48 173.25,-85.66"/>
<polygon fill="midnightblue" stroke="midnightblue" points="176.75,-85.72 173.93,-75.51 169.76,-85.25 176.75,-85.72"/>
</g>
<!-- Node8 -->
<g id="node8" class="node">
<title>Node8</title>
<g id="a_node8"><a xlink:title=" ">
<polygon fill="white" stroke="#bfbfbf" points="218.5,-56.5 218.5,-75.5 268.5,-75.5 268.5,-56.5 218.5,-56.5"/>
<text text-anchor="middle" x="243.5" y="-63.5" font-family="Helvetica,sans-Serif" font-size="10.00">cstring</text>
</a>
</g>
</g>
<!-- Node2&#45;&gt;Node8 -->
<g id="edge7" class="edge">
<title>Node2&#45;&gt;Node8</title>
<path fill="none" stroke="midnightblue" d="M180.96,-117.98C192.45,-108.61 211.13,-93.38 225.09,-82.01"/>
<polygon fill="midnightblue" stroke="midnightblue" points="227.52,-84.54 233.06,-75.51 223.1,-79.11 227.52,-84.54"/>
</g>
<!-- Node4 -->
<g id="node4" class="node">
<title>Node4</title>
<g id="a_node4"><a xlink:title=" ">
<polygon fill="white" stroke="#bfbfbf" points="0,-0.5 0,-19.5 47,-19.5 47,-0.5 0,-0.5"/>
<text text-anchor="middle" x="23.5" y="-7.5" font-family="Helvetica,sans-Serif" font-size="10.00">deque</text>
</a>
</g>
</g>
<!-- Node3&#45;&gt;Node4 -->
<g id="edge3" class="edge">
<title>Node3&#45;&gt;Node4</title>
<path fill="none" stroke="midnightblue" d="M74.7,-56.32C65.68,-48.34 52.09,-36.31 41.18,-26.65"/>
<polygon fill="midnightblue" stroke="midnightblue" points="43.29,-23.84 33.48,-19.83 38.65,-29.08 43.29,-23.84"/>
</g>
<!-- Node5 -->
<g id="node5" class="node">
<title>Node5</title>
<g id="a_node5"><a xlink:title=" ">
<polygon fill="white" stroke="#bfbfbf" points="65.5,-0.5 65.5,-19.5 103.5,-19.5 103.5,-0.5 65.5,-0.5"/>
<text text-anchor="middle" x="84.5" y="-7.5" font-family="Helvetica,sans-Serif" font-size="10.00">map</text>
</a>
</g>
</g>
<!-- Node3&#45;&gt;Node5 -->
<g id="edge4" class="edge">
<title>Node3&#45;&gt;Node5</title>
<path fill="none" stroke="midnightblue" d="M84.5,-56.08C84.5,-49.01 84.5,-38.86 84.5,-29.99"/>
<polygon fill="midnightblue" stroke="midnightblue" points="88,-29.75 84.5,-19.75 81,-29.75 88,-29.75"/>
</g>
<!-- Node6 -->
<g id="node6" class="node">
<title>Node6</title>
<g id="a_node6"><a xlink:title=" ">
<polygon fill="white" stroke="#bfbfbf" points="122,-0.5 122,-19.5 169,-19.5 169,-0.5 122,-0.5"/>
<text text-anchor="middle" x="145.5" y="-7.5" font-family="Helvetica,sans-Serif" font-size="10.00">vector</text>
</a>
</g>
</g>
<!-- Node3&#45;&gt;Node6 -->
<g id="edge5" class="edge">
<title>Node3&#45;&gt;Node6</title>
<path fill="none" stroke="midnightblue" d="M94.3,-56.32C103.32,-48.34 116.91,-36.31 127.82,-26.65"/>
<polygon fill="midnightblue" stroke="midnightblue" points="130.35,-29.08 135.52,-19.83 125.71,-23.84 130.35,-29.08"/>
</g>
</g>
</svg>
