<?xml version="1.0" encoding="UTF-8" standalone="no"?>
<!DOCTYPE svg PUBLIC "-//W3C//DTD SVG 1.1//EN"
 "http://www.w3.org/Graphics/SVG/1.1/DTD/svg11.dtd">
<!-- Generated by graphviz version 2.43.0 (0)
 -->
<!-- Title: includes/libserv/event_worker.kqueue.cpp Pages: 1 -->
<svg width="1748pt" height="330pt"
 viewBox="0.00 0.00 1748.00 330.00" xmlns="http://www.w3.org/2000/svg" xmlns:xlink="http://www.w3.org/1999/xlink">
<g id="graph0" class="graph" transform="scale(1 1) rotate(0) translate(4 326)">
<title>includes/libserv/event_worker.kqueue.cpp</title>
<polygon fill="white" stroke="transparent" points="-4,4 -4,-326 1744,-326 1744,4 -4,4"/>
<!-- Node1 -->
<g id="node1" class="node">
<title>Node1</title>
<g id="a_node1"><a xlink:title=" ">
<polygon fill="#bfbfbf" stroke="black" points="956,-291.5 956,-321.5 1080,-321.5 1080,-291.5 956,-291.5"/>
<text text-anchor="start" x="964" y="-309.5" font-family="Helvetica,sans-Serif" font-size="10.00">includes/libserv/event</text>
<text text-anchor="middle" x="1018" y="-298.5" font-family="Helvetica,sans-Serif" font-size="10.00">_worker.kqueue.cpp</text>
</a>
</g>
</g>
<!-- Node2 -->
<g id="node2" class="node">
<title>Node2</title>
<g id="a_node2"><a xlink:href="event__worker_8hpp.html" target="_top" xlink:title=" ">
<polygon fill="white" stroke="black" points="455.5,-235.5 455.5,-254.5 558.5,-254.5 558.5,-235.5 455.5,-235.5"/>
<text text-anchor="middle" x="507" y="-242.5" font-family="Helvetica,sans-Serif" font-size="10.00">event_worker.hpp</text>
</a>
</g>
</g>
<!-- Node1&#45;&gt;Node2 -->
<g id="edge1" class="edge">
<title>Node1&#45;&gt;Node2</title>
<path fill="none" stroke="midnightblue" d="M955.85,-298.26C857.46,-286.81 666.95,-264.62 568.79,-253.19"/>
<polygon fill="midnightblue" stroke="midnightblue" points="569.06,-249.7 558.72,-252.02 568.25,-256.66 569.06,-249.7"/>
</g>
<!-- Node3 -->
<g id="node3" class="node">
<title>Node3</title>
<g id="a_node3"><a xlink:href="event__channel__base_8hpp.html" target="_top" xlink:title=" ">
<polygon fill="white" stroke="black" points="817.5,-179.5 817.5,-198.5 954.5,-198.5 954.5,-179.5 817.5,-179.5"/>
<text text-anchor="middle" x="886" y="-186.5" font-family="Helvetica,sans-Serif" font-size="10.00">event_channel_base.hpp</text>
</a>
</g>
</g>
<!-- Node1&#45;&gt;Node3 -->
<g id="edge22" class="edge">
<title>Node1&#45;&gt;Node3</title>
<path fill="none" stroke="midnightblue" d="M1001.81,-291.34C976.95,-269.58 929.53,-228.09 903.76,-205.54"/>
<polygon fill="midnightblue" stroke="midnightblue" points="905.74,-202.62 895.91,-198.67 901.13,-207.89 905.74,-202.62"/>
</g>
<!-- Node5 -->
<g id="node5" class="node">
<title>Node5</title>
<g id="a_node5"><a xlink:href="serv__types_8hpp.html" target="_top" xlink:title=" ">
<polygon fill="white" stroke="black" points="611.5,-56.5 611.5,-75.5 702.5,-75.5 702.5,-56.5 611.5,-56.5"/>
<text text-anchor="middle" x="657" y="-63.5" font-family="Helvetica,sans-Serif" font-size="10.00">serv_types.hpp</text>
</a>
</g>
</g>
<!-- Node1&#45;&gt;Node5 -->
<g id="edge31" class="edge">
<title>Node1&#45;&gt;Node5</title>
<path fill="none" stroke="midnightblue" d="M955.98,-303.27C757.71,-295.5 149.03,-266.29 95,-199 29.33,-117.21 446.76,-80.92 601.2,-70.41"/>
<polygon fill="midnightblue" stroke="midnightblue" points="601.67,-73.88 611.42,-69.72 601.2,-66.9 601.67,-73.88"/>
</g>
<!-- Node7 -->
<g id="node7" class="node">
<title>Node7</title>
<g id="a_node7"><a xlink:title=" ">
<polygon fill="white" stroke="#bfbfbf" points="279,-0.5 279,-19.5 317,-19.5 317,-0.5 279,-0.5"/>
<text text-anchor="middle" x="298" y="-7.5" font-family="Helvetica,sans-Serif" font-size="10.00">map</text>
</a>
</g>
</g>
<!-- Node1&#45;&gt;Node7 -->
<g id="edge43" class="edge">
<title>Node1&#45;&gt;Node7</title>
<path fill="none" stroke="midnightblue" d="M955.93,-305.59C779.18,-305.28 275.74,-300.32 118,-255 60.45,-238.47 0,-249.87 0,-190 0,-190 0,-190 0,-126.5 0,-69.25 193.62,-29.25 268.72,-15.89"/>
<polygon fill="midnightblue" stroke="midnightblue" points="269.66,-19.28 278.91,-14.11 268.45,-12.38 269.66,-19.28"/>
</g>
<!-- Node8 -->
<g id="node8" class="node">
<title>Node8</title>
<g id="a_node8"><a xlink:title=" ">
<polygon fill="white" stroke="#bfbfbf" points="1018.5,-0.5 1018.5,-19.5 1065.5,-19.5 1065.5,-0.5 1018.5,-0.5"/>
<text text-anchor="middle" x="1042" y="-7.5" font-family="Helvetica,sans-Serif" font-size="10.00">vector</text>
</a>
</g>
</g>
<!-- Node1&#45;&gt;Node8 -->
<g id="edge45" class="edge">
<title>Node1&#45;&gt;Node8</title>
<path fill="none" stroke="midnightblue" d="M1080.19,-300.78C1132.48,-295.01 1208.21,-282.38 1269,-255 1306.61,-238.06 1324.63,-235.93 1343,-199 1400.13,-84.11 1165.12,-31.73 1075.47,-16.19"/>
<polygon fill="midnightblue" stroke="midnightblue" points="1075.97,-12.73 1065.53,-14.52 1074.81,-19.63 1075.97,-12.73"/>
</g>
<!-- Node9 -->
<g id="node9" class="node">
<title>Node9</title>
<g id="a_node9"><a xlink:title=" ">
<polygon fill="white" stroke="#bfbfbf" points="285,-56.5 285,-75.5 337,-75.5 337,-56.5 285,-56.5"/>
<text text-anchor="middle" x="311" y="-63.5" font-family="Helvetica,sans-Serif" font-size="10.00">cassert</text>
</a>
</g>
</g>
<!-- Node1&#45;&gt;Node9 -->
<g id="edge41" class="edge">
<title>Node1&#45;&gt;Node9</title>
<path fill="none" stroke="midnightblue" d="M955.75,-305.06C789.08,-303.33 335.59,-294.99 192,-255 140.29,-240.6 112.79,-244.92 85,-199 63.81,-164 109.46,-126.41 130,-112 173.5,-81.5 235.59,-71.61 274.57,-68.44"/>
<polygon fill="midnightblue" stroke="midnightblue" points="275.19,-71.91 284.92,-67.71 274.7,-64.92 275.19,-71.91"/>
</g>
<!-- Node12 -->
<g id="node12" class="node">
<title>Node12</title>
<g id="a_node12"><a xlink:title=" ">
<polygon fill="white" stroke="#bfbfbf" points="453.5,-118 453.5,-137 592.5,-137 592.5,-118 453.5,-118"/>
<text text-anchor="middle" x="523" y="-125" font-family="Helvetica,sans-Serif" font-size="10.00">smart_ptr/shared_ptr.hpp</text>
</a>
</g>
</g>
<!-- Node1&#45;&gt;Node12 -->
<g id="edge32" class="edge">
<title>Node1&#45;&gt;Node12</title>
<path fill="none" stroke="midnightblue" d="M990.27,-291.4C950.23,-271.03 873.91,-232.18 809,-199 791.66,-190.13 788.38,-185.46 770,-179 752.1,-172.71 645.19,-151.79 578.02,-138.93"/>
<polygon fill="midnightblue" stroke="midnightblue" points="578.48,-135.45 568,-137.01 577.17,-142.33 578.48,-135.45"/>
</g>
<!-- Node14 -->
<g id="node14" class="node">
<title>Node14</title>
<g id="a_node14"><a xlink:title=" ">
<polygon fill="white" stroke="#bfbfbf" points="1065,-118 1065,-137 1109,-137 1109,-118 1065,-118"/>
<text text-anchor="middle" x="1087" y="-125" font-family="Helvetica,sans-Serif" font-size="10.00">string</text>
</a>
</g>
</g>
<!-- Node1&#45;&gt;Node14 -->
<g id="edge44" class="edge">
<title>Node1&#45;&gt;Node14</title>
<path fill="none" stroke="midnightblue" d="M1033.38,-291.47C1042.77,-282.05 1054.23,-268.87 1061,-255 1078.31,-219.53 1084.11,-173.02 1086.04,-147.43"/>
<polygon fill="midnightblue" stroke="midnightblue" points="1089.55,-147.46 1086.69,-137.26 1082.56,-147.02 1089.55,-147.46"/>
</g>
<!-- Node16 -->
<g id="node16" class="node">
<title>Node16</title>
<g id="a_node16"><a xlink:title=" ">
<polygon fill="white" stroke="#bfbfbf" points="104,-179.5 104,-198.5 266,-198.5 266,-179.5 104,-179.5"/>
<text text-anchor="middle" x="185" y="-186.5" font-family="Helvetica,sans-Serif" font-size="10.00">thread/condition_variable.hpp</text>
</a>
</g>
</g>
<!-- Node1&#45;&gt;Node16 -->
<g id="edge33" class="edge">
<title>Node1&#45;&gt;Node16</title>
<path fill="none" stroke="midnightblue" d="M955.81,-303.19C850.32,-298.56 629.86,-285.82 446,-255 365.65,-241.53 273.58,-216.23 223.1,-201.48"/>
<polygon fill="midnightblue" stroke="midnightblue" points="223.86,-198.05 213.27,-198.59 221.88,-204.77 223.86,-198.05"/>
</g>
<!-- Node17 -->
<g id="node17" class="node">
<title>Node17</title>
<g id="a_node17"><a xlink:title=" ">
<polygon fill="white" stroke="#bfbfbf" points="535,-179.5 535,-198.5 639,-198.5 639,-179.5 535,-179.5"/>
<text text-anchor="middle" x="587" y="-186.5" font-family="Helvetica,sans-Serif" font-size="10.00">thread/mutex.hpp</text>
</a>
</g>
</g>
<!-- Node1&#45;&gt;Node17 -->
<g id="edge34" class="edge">
<title>Node1&#45;&gt;Node17</title>
<path fill="none" stroke="midnightblue" d="M955.92,-297.86C899.8,-290.06 815.32,-276.08 744,-255 696.77,-241.04 644.38,-217.65 613.64,-203.06"/>
<polygon fill="midnightblue" stroke="midnightblue" points="614.98,-199.82 604.45,-198.66 611.96,-206.14 614.98,-199.82"/>
</g>
<!-- Node18 -->
<g id="node18" class="node">
<title>Node18</title>
<g id="a_node18"><a xlink:title=" ">
<polygon fill="white" stroke="#bfbfbf" points="657,-179.5 657,-198.5 761,-198.5 761,-179.5 657,-179.5"/>
<text text-anchor="middle" x="709" y="-186.5" font-family="Helvetica,sans-Serif" font-size="10.00">thread/thread.hpp</text>
</a>
</g>
</g>
<!-- Node1&#45;&gt;Node18 -->
<g id="edge35" class="edge">
<title>Node1&#45;&gt;Node18</title>
<path fill="none" stroke="midnightblue" d="M955.8,-302.28C904.64,-297.43 831.61,-285.29 775,-255 752.95,-243.2 733.34,-221.76 721.34,-206.74"/>
<polygon fill="midnightblue" stroke="midnightblue" points="724.07,-204.54 715.19,-198.76 718.52,-208.81 724.07,-204.54"/>
</g>
<!-- Node20 -->
<g id="node20" class="node">
<title>Node20</title>
<g id="a_node20"><a xlink:href="logger_8hpp.html" target="_top" xlink:title=" ">
<polygon fill="white" stroke="black" points="984,-235.5 984,-254.5 1052,-254.5 1052,-235.5 984,-235.5"/>
<text text-anchor="middle" x="1018" y="-242.5" font-family="Helvetica,sans-Serif" font-size="10.00">logger.hpp</text>
</a>
</g>
</g>
<!-- Node1&#45;&gt;Node20 -->
<g id="edge23" class="edge">
<title>Node1&#45;&gt;Node20</title>
<path fill="none" stroke="midnightblue" d="M1018,-291.4C1018,-283.47 1018,-273.46 1018,-264.86"/>
<polygon fill="midnightblue" stroke="midnightblue" points="1021.5,-264.66 1018,-254.66 1014.5,-264.66 1021.5,-264.66"/>
</g>
<!-- Node22 -->
<g id="node22" class="node">
<title>Node22</title>
<g id="a_node22"><a xlink:href="serv__exception_8hpp.html" target="_top" xlink:title=" ">
<polygon fill="white" stroke="black" points="1123,-235.5 1123,-254.5 1235,-254.5 1235,-235.5 1123,-235.5"/>
<text text-anchor="middle" x="1179" y="-242.5" font-family="Helvetica,sans-Serif" font-size="10.00">serv_exception.hpp</text>
</a>
</g>
</g>
<!-- Node1&#45;&gt;Node22 -->
<g id="edge26" class="edge">
<title>Node1&#45;&gt;Node22</title>
<path fill="none" stroke="midnightblue" d="M1056.15,-291.4C1083.53,-281.28 1120.04,-267.79 1146.13,-258.15"/>
<polygon fill="midnightblue" stroke="midnightblue" points="1147.41,-261.41 1155.57,-254.66 1144.98,-254.84 1147.41,-261.41"/>
</g>
<!-- Node24 -->
<g id="node24" class="node">
<title>Node24</title>
<g id="a_node24"><a xlink:title=" ">
<polygon fill="white" stroke="#bfbfbf" points="1268.5,-179.5 1268.5,-198.5 1333.5,-198.5 1333.5,-179.5 1268.5,-179.5"/>
<text text-anchor="middle" x="1301" y="-186.5" font-family="Helvetica,sans-Serif" font-size="10.00">exception</text>
</a>
</g>
</g>
<!-- Node1&#45;&gt;Node24 -->
<g id="edge42" class="edge">
<title>Node1&#45;&gt;Node24</title>
<path fill="none" stroke="midnightblue" d="M1080.34,-302.02C1128.02,-296.99 1193.86,-284.74 1244,-255 1263.7,-243.32 1280.16,-222.47 1290.25,-207.53"/>
<polygon fill="midnightblue" stroke="midnightblue" points="1293.45,-209.03 1295.93,-198.73 1287.57,-205.23 1293.45,-209.03"/>
</g>
<!-- Node25 -->
<g id="node25" class="node">
<title>Node25</title>
<g id="a_node25"><a xlink:title=" ">
<polygon fill="white" stroke="#bfbfbf" points="1329.5,-235.5 1329.5,-254.5 1402.5,-254.5 1402.5,-235.5 1329.5,-235.5"/>
<text text-anchor="middle" x="1366" y="-242.5" font-family="Helvetica,sans-Serif" font-size="10.00">sys/event.h</text>
</a>
</g>
</g>
<!-- Node1&#45;&gt;Node25 -->
<g id="edge36" class="edge">
<title>Node1&#45;&gt;Node25</title>
<path fill="none" stroke="midnightblue" d="M1080.02,-295.07C1140.12,-284.94 1233.83,-269.06 1315,-255 1316.44,-254.75 1317.9,-254.5 1319.38,-254.24"/>
<polygon fill="midnightblue" stroke="midnightblue" points="1319.99,-257.69 1329.23,-252.52 1318.78,-250.79 1319.99,-257.69"/>
</g>
<!-- Node26 -->
<g id="node26" class="node">
<title>Node26</title>
<g id="a_node26"><a xlink:title=" ">
<polygon fill="white" stroke="#bfbfbf" points="1420.5,-235.5 1420.5,-254.5 1497.5,-254.5 1497.5,-235.5 1420.5,-235.5"/>
<text text-anchor="middle" x="1459" y="-242.5" font-family="Helvetica,sans-Serif" font-size="10.00">sys/socket.h</text>
</a>
</g>
</g>
<!-- Node1&#45;&gt;Node26 -->
<g id="edge37" class="edge">
<title>Node1&#45;&gt;Node26</title>
<path fill="none" stroke="midnightblue" d="M1080.27,-298.72C1156.02,-290.21 1288.02,-274.5 1410.39,-255.18"/>
<polygon fill="midnightblue" stroke="midnightblue" points="1410.98,-258.63 1420.3,-253.61 1409.88,-251.72 1410.98,-258.63"/>
</g>
<!-- Node27 -->
<g id="node27" class="node">
<title>Node27</title>
<g id="a_node27"><a xlink:title=" ">
<polygon fill="white" stroke="#bfbfbf" points="1516,-235.5 1516,-254.5 1584,-254.5 1584,-235.5 1516,-235.5"/>
<text text-anchor="middle" x="1550" y="-242.5" font-family="Helvetica,sans-Serif" font-size="10.00">sys/time.h</text>
</a>
</g>
</g>
<!-- Node1&#45;&gt;Node27 -->
<g id="edge38" class="edge">
<title>Node1&#45;&gt;Node27</title>
<path fill="none" stroke="midnightblue" d="M1080.02,-301.16C1171.21,-294.33 1346.97,-279.42 1505.84,-255.04"/>
<polygon fill="midnightblue" stroke="midnightblue" points="1506.45,-258.48 1515.79,-253.49 1505.37,-251.57 1506.45,-258.48"/>
</g>
<!-- Node28 -->
<g id="node28" class="node">
<title>Node28</title>
<g id="a_node28"><a xlink:title=" ">
<polygon fill="white" stroke="#bfbfbf" points="1602,-235.5 1602,-254.5 1658,-254.5 1658,-235.5 1602,-235.5"/>
<text text-anchor="middle" x="1630" y="-242.5" font-family="Helvetica,sans-Serif" font-size="10.00">unistd.h</text>
</a>
</g>
</g>
<!-- Node1&#45;&gt;Node28 -->
<g id="edge39" class="edge">
<title>Node1&#45;&gt;Node28</title>
<path fill="none" stroke="midnightblue" d="M1080.08,-303.12C1184.11,-298.46 1400.29,-285.91 1591.84,-254.95"/>
<polygon fill="midnightblue" stroke="midnightblue" points="1592.51,-258.39 1601.81,-253.32 1591.37,-251.48 1592.51,-258.39"/>
</g>
<!-- Node29 -->
<g id="node29" class="node">
<title>Node29</title>
<g id="a_node29"><a xlink:title=" ">
<polygon fill="white" stroke="#bfbfbf" points="1676,-235.5 1676,-254.5 1740,-254.5 1740,-235.5 1676,-235.5"/>
<text text-anchor="middle" x="1708" y="-242.5" font-family="Helvetica,sans-Serif" font-size="10.00">algorithm</text>
</a>
</g>
</g>
<!-- Node1&#45;&gt;Node29 -->
<g id="edge40" class="edge">
<title>Node1&#45;&gt;Node29</title>
<path fill="none" stroke="midnightblue" d="M1080.06,-303.53C1194.2,-299.28 1445.16,-287.05 1665.7,-254.99"/>
<polygon fill="midnightblue" stroke="midnightblue" points="1666.46,-258.42 1675.85,-253.5 1665.45,-251.49 1666.46,-258.42"/>
</g>
<!-- Node2&#45;&gt;Node3 -->
<g id="edge2" class="edge">
<title>Node2&#45;&gt;Node3</title>
<path fill="none" stroke="midnightblue" d="M558.51,-236.66C625.1,-227.17 741.35,-210.61 815.93,-199.98"/>
<polygon fill="midnightblue" stroke="midnightblue" points="816.76,-203.4 826.17,-198.52 815.78,-196.47 816.76,-203.4"/>
</g>
<!-- Node2&#45;&gt;Node5 -->
<g id="edge15" class="edge">
<title>Node2&#45;&gt;Node5</title>
<path fill="none" stroke="midnightblue" d="M499.2,-235.37C484.9,-218.89 454.92,-181.15 444,-143 440.21,-129.75 435.32,-122.7 444,-112 463.44,-88.02 544.78,-76.32 601.12,-71"/>
<polygon fill="midnightblue" stroke="midnightblue" points="601.68,-74.46 611.33,-70.07 601.05,-67.49 601.68,-74.46"/>
</g>
<!-- Node2&#45;&gt;Node12 -->
<g id="edge17" class="edge">
<title>Node2&#45;&gt;Node12</title>
<path fill="none" stroke="midnightblue" d="M508.2,-235.32C510.77,-216.76 516.86,-172.84 520.37,-147.47"/>
<polygon fill="midnightblue" stroke="midnightblue" points="523.88,-147.67 521.78,-137.28 516.94,-146.71 523.88,-147.67"/>
</g>
<!-- Node15 -->
<g id="node15" class="node">
<title>Node15</title>
<g id="a_node15"><a xlink:href="task__base_8hpp.html" target="_top" xlink:title=" ">
<polygon fill="white" stroke="black" points="284.5,-179.5 284.5,-198.5 371.5,-198.5 371.5,-179.5 284.5,-179.5"/>
<text text-anchor="middle" x="328" y="-186.5" font-family="Helvetica,sans-Serif" font-size="10.00">task_base.hpp</text>
</a>
</g>
</g>
<!-- Node2&#45;&gt;Node15 -->
<g id="edge16" class="edge">
<title>Node2&#45;&gt;Node15</title>
<path fill="none" stroke="midnightblue" d="M478.64,-235.44C448.26,-226.28 399.89,-211.69 366.18,-201.52"/>
<polygon fill="midnightblue" stroke="midnightblue" points="366.82,-198.05 356.23,-198.52 364.79,-204.76 366.82,-198.05"/>
</g>
<!-- Node2&#45;&gt;Node16 -->
<g id="edge18" class="edge">
<title>Node2&#45;&gt;Node16</title>
<path fill="none" stroke="midnightblue" d="M455.98,-235.44C398.98,-225.89 306.76,-210.42 246,-200.23"/>
<polygon fill="midnightblue" stroke="midnightblue" points="246.22,-196.72 235.78,-198.52 245.07,-203.62 246.22,-196.72"/>
</g>
<!-- Node2&#45;&gt;Node17 -->
<g id="edge19" class="edge">
<title>Node2&#45;&gt;Node17</title>
<path fill="none" stroke="midnightblue" d="M519.85,-235.32C532.22,-226.98 551.13,-214.21 565.74,-204.35"/>
<polygon fill="midnightblue" stroke="midnightblue" points="567.85,-207.15 574.18,-198.65 563.93,-201.35 567.85,-207.15"/>
</g>
<!-- Node2&#45;&gt;Node18 -->
<g id="edge20" class="edge">
<title>Node2&#45;&gt;Node18</title>
<path fill="none" stroke="midnightblue" d="M539.01,-235.44C573.73,-226.16 629.29,-211.31 667.38,-201.13"/>
<polygon fill="midnightblue" stroke="midnightblue" points="668.39,-204.48 677.14,-198.52 666.58,-197.72 668.39,-204.48"/>
</g>
<!-- Node19 -->
<g id="node19" class="node">
<title>Node19</title>
<g id="a_node19"><a xlink:title=" ">
<polygon fill="white" stroke="#bfbfbf" points="389.5,-179.5 389.5,-198.5 440.5,-198.5 440.5,-179.5 389.5,-179.5"/>
<text text-anchor="middle" x="415" y="-186.5" font-family="Helvetica,sans-Serif" font-size="10.00">csignal</text>
</a>
</g>
</g>
<!-- Node2&#45;&gt;Node19 -->
<g id="edge21" class="edge">
<title>Node2&#45;&gt;Node19</title>
<path fill="none" stroke="midnightblue" d="M492.22,-235.32C477.73,-226.82 455.43,-213.73 438.51,-203.8"/>
<polygon fill="midnightblue" stroke="midnightblue" points="440.14,-200.7 429.74,-198.65 436.6,-206.74 440.14,-200.7"/>
</g>
<!-- Node4 -->
<g id="node4" class="node">
<title>Node4</title>
<g id="a_node4"><a xlink:href="byte__buffer_8hpp.html" target="_top" xlink:title=" ">
<polygon fill="white" stroke="black" points="611,-118 611,-137 703,-137 703,-118 611,-118"/>
<text text-anchor="middle" x="657" y="-125" font-family="Helvetica,sans-Serif" font-size="10.00">byte_buffer.hpp</text>
</a>
</g>
</g>
<!-- Node3&#45;&gt;Node4 -->
<g id="edge3" class="edge">
<title>Node3&#45;&gt;Node4</title>
<path fill="none" stroke="midnightblue" d="M852.63,-179.42C817.6,-170.4 760.91,-155.77 712,-143 707.86,-141.92 703.55,-140.79 699.24,-139.66"/>
<polygon fill="midnightblue" stroke="midnightblue" points="699.84,-136.2 689.28,-137.04 698.06,-142.97 699.84,-136.2"/>
</g>
<!-- Node3&#45;&gt;Node5 -->
<g id="edge10" class="edge">
<title>Node3&#45;&gt;Node5</title>
<path fill="none" stroke="midnightblue" d="M930.76,-179.44C979.78,-168.15 1047.76,-145.7 1018,-112 998.16,-89.53 809.24,-75.64 712.91,-69.96"/>
<polygon fill="midnightblue" stroke="midnightblue" points="712.94,-66.46 702.76,-69.37 712.54,-73.45 712.94,-66.46"/>
</g>
<!-- Node11 -->
<g id="node11" class="node">
<title>Node11</title>
<g id="a_node11"><a xlink:title=" ">
<polygon fill="white" stroke="#bfbfbf" points="871,-112.5 871,-142.5 1009,-142.5 1009,-112.5 871,-112.5"/>
<text text-anchor="start" x="879" y="-130.5" font-family="Helvetica,sans-Serif" font-size="10.00">smart_ptr/enable_shared</text>
<text text-anchor="middle" x="940" y="-119.5" font-family="Helvetica,sans-Serif" font-size="10.00">_from_this.hpp</text>
</a>
</g>
</g>
<!-- Node3&#45;&gt;Node11 -->
<g id="edge11" class="edge">
<title>Node3&#45;&gt;Node11</title>
<path fill="none" stroke="midnightblue" d="M893.74,-179.48C900.71,-171.79 911.26,-160.17 920.52,-149.96"/>
<polygon fill="midnightblue" stroke="midnightblue" points="923.14,-152.28 927.27,-142.52 917.96,-147.58 923.14,-152.28"/>
</g>
<!-- Node3&#45;&gt;Node12 -->
<g id="edge12" class="edge">
<title>Node3&#45;&gt;Node12</title>
<path fill="none" stroke="midnightblue" d="M829.62,-179.48C772.27,-170.72 680.85,-156.48 602,-143 594.37,-141.69 586.32,-140.27 578.41,-138.85"/>
<polygon fill="midnightblue" stroke="midnightblue" points="578.97,-135.39 568.5,-137.05 577.71,-142.28 578.97,-135.39"/>
</g>
<!-- Node13 -->
<g id="node13" class="node">
<title>Node13</title>
<g id="a_node13"><a xlink:title=" ">
<polygon fill="white" stroke="#bfbfbf" points="721,-118 721,-137 853,-137 853,-118 721,-118"/>
<text text-anchor="middle" x="787" y="-125" font-family="Helvetica,sans-Serif" font-size="10.00">smart_ptr/weak_ptr.hpp</text>
</a>
</g>
</g>
<!-- Node3&#45;&gt;Node13 -->
<g id="edge13" class="edge">
<title>Node3&#45;&gt;Node13</title>
<path fill="none" stroke="midnightblue" d="M871.82,-179.48C855.64,-169.75 828.97,-153.73 809.86,-142.24"/>
<polygon fill="midnightblue" stroke="midnightblue" points="811.53,-139.16 801.16,-137.01 807.93,-145.16 811.53,-139.16"/>
</g>
<!-- Node3&#45;&gt;Node14 -->
<g id="edge14" class="edge">
<title>Node3&#45;&gt;Node14</title>
<path fill="none" stroke="midnightblue" d="M922.09,-179.45C955.76,-171.16 1007.24,-157.72 1051,-143 1053.13,-142.28 1055.31,-141.51 1057.5,-140.7"/>
<polygon fill="midnightblue" stroke="midnightblue" points="1058.9,-143.91 1066.97,-137.05 1056.38,-137.38 1058.9,-143.91"/>
</g>
<!-- Node4&#45;&gt;Node5 -->
<g id="edge4" class="edge">
<title>Node4&#45;&gt;Node5</title>
<path fill="none" stroke="midnightblue" d="M657,-117.98C657,-109.58 657,-96.48 657,-85.66"/>
<polygon fill="midnightblue" stroke="midnightblue" points="660.5,-85.51 657,-75.51 653.5,-85.51 660.5,-85.51"/>
</g>
<!-- Node4&#45;&gt;Node9 -->
<g id="edge8" class="edge">
<title>Node4&#45;&gt;Node9</title>
<path fill="none" stroke="midnightblue" d="M626.32,-117.97C618.13,-115.85 609.26,-113.71 601,-112 510.3,-93.27 402.18,-78.45 347.12,-71.43"/>
<polygon fill="midnightblue" stroke="midnightblue" points="347.51,-67.95 337.15,-70.17 346.63,-74.9 347.51,-67.95"/>
</g>
<!-- Node10 -->
<g id="node10" class="node">
<title>Node10</title>
<g id="a_node10"><a xlink:title=" ">
<polygon fill="white" stroke="#bfbfbf" points="936,-56.5 936,-75.5 986,-75.5 986,-56.5 936,-56.5"/>
<text text-anchor="middle" x="961" y="-63.5" font-family="Helvetica,sans-Serif" font-size="10.00">cstring</text>
</a>
</g>
</g>
<!-- Node4&#45;&gt;Node10 -->
<g id="edge9" class="edge">
<title>Node4&#45;&gt;Node10</title>
<path fill="none" stroke="midnightblue" d="M687.73,-117.94C695.61,-115.87 704.09,-113.75 712,-112 787.72,-95.21 877.42,-80.17 925.81,-72.46"/>
<polygon fill="midnightblue" stroke="midnightblue" points="926.45,-75.9 935.78,-70.88 925.35,-68.99 926.45,-75.9"/>
</g>
<!-- Node6 -->
<g id="node6" class="node">
<title>Node6</title>
<g id="a_node6"><a xlink:title=" ">
<polygon fill="white" stroke="#bfbfbf" points="633.5,-0.5 633.5,-19.5 680.5,-19.5 680.5,-0.5 633.5,-0.5"/>
<text text-anchor="middle" x="657" y="-7.5" font-family="Helvetica,sans-Serif" font-size="10.00">deque</text>
</a>
</g>
</g>
<!-- Node5&#45;&gt;Node6 -->
<g id="edge5" class="edge">
<title>Node5&#45;&gt;Node6</title>
<path fill="none" stroke="midnightblue" d="M657,-56.08C657,-49.01 657,-38.86 657,-29.99"/>
<polygon fill="midnightblue" stroke="midnightblue" points="660.5,-29.75 657,-19.75 653.5,-29.75 660.5,-29.75"/>
</g>
<!-- Node5&#45;&gt;Node7 -->
<g id="edge6" class="edge">
<title>Node5&#45;&gt;Node7</title>
<path fill="none" stroke="midnightblue" d="M611.17,-58.11C536.12,-46.82 389.15,-24.71 326.93,-15.35"/>
<polygon fill="midnightblue" stroke="midnightblue" points="327.42,-11.89 317.01,-13.86 326.38,-18.81 327.42,-11.89"/>
</g>
<!-- Node5&#45;&gt;Node8 -->
<g id="edge7" class="edge">
<title>Node5&#45;&gt;Node8</title>
<path fill="none" stroke="midnightblue" d="M702.68,-58.59C780.92,-47.62 938.85,-25.47 1008.13,-15.75"/>
<polygon fill="midnightblue" stroke="midnightblue" points="1008.66,-19.21 1018.07,-14.36 1007.68,-12.28 1008.66,-19.21"/>
</g>
<!-- Node20&#45;&gt;Node14 -->
<g id="edge25" class="edge">
<title>Node20&#45;&gt;Node14</title>
<path fill="none" stroke="midnightblue" d="M1023.19,-235.32C1034.47,-216.42 1061.46,-171.25 1076.47,-146.12"/>
<polygon fill="midnightblue" stroke="midnightblue" points="1079.63,-147.66 1081.75,-137.28 1073.62,-144.07 1079.63,-147.66"/>
</g>
<!-- Node21 -->
<g id="node21" class="node">
<title>Node21</title>
<g id="a_node21"><a xlink:title=" ">
<polygon fill="white" stroke="#bfbfbf" points="973,-179.5 973,-198.5 1033,-198.5 1033,-179.5 973,-179.5"/>
<text text-anchor="middle" x="1003" y="-186.5" font-family="Helvetica,sans-Serif" font-size="10.00">iostream</text>
</a>
</g>
</g>
<!-- Node20&#45;&gt;Node21 -->
<g id="edge24" class="edge">
<title>Node20&#45;&gt;Node21</title>
<path fill="none" stroke="midnightblue" d="M1015.52,-235.08C1013.51,-227.85 1010.61,-217.41 1008.11,-208.4"/>
<polygon fill="midnightblue" stroke="midnightblue" points="1011.48,-207.45 1005.43,-198.75 1004.74,-209.32 1011.48,-207.45"/>
</g>
<!-- Node22&#45;&gt;Node5 -->
<g id="edge27" class="edge">
<title>Node22&#45;&gt;Node5</title>
<path fill="none" stroke="midnightblue" d="M1177.94,-235.38C1174.45,-211.2 1161.02,-142.55 1118,-112 1085.58,-88.97 828.09,-74.67 712.65,-69.35"/>
<polygon fill="midnightblue" stroke="midnightblue" points="712.75,-65.85 702.6,-68.89 712.43,-72.84 712.75,-65.85"/>
</g>
<!-- Node22&#45;&gt;Node10 -->
<g id="edge29" class="edge">
<title>Node22&#45;&gt;Node10</title>
<path fill="none" stroke="midnightblue" d="M1180.01,-235.49C1182.25,-212.21 1185.05,-146.86 1151,-112 1129.76,-90.25 1045.03,-76.89 996.19,-70.84"/>
<polygon fill="midnightblue" stroke="midnightblue" points="996.41,-67.34 986.06,-69.62 995.58,-74.29 996.41,-67.34"/>
</g>
<!-- Node23 -->
<g id="node23" class="node">
<title>Node23</title>
<g id="a_node23"><a xlink:title=" ">
<polygon fill="white" stroke="#bfbfbf" points="1203.5,-179.5 1203.5,-198.5 1250.5,-198.5 1250.5,-179.5 1203.5,-179.5"/>
<text text-anchor="middle" x="1227" y="-186.5" font-family="Helvetica,sans-Serif" font-size="10.00">cerrno</text>
</a>
</g>
</g>
<!-- Node22&#45;&gt;Node23 -->
<g id="edge28" class="edge">
<title>Node22&#45;&gt;Node23</title>
<path fill="none" stroke="midnightblue" d="M1186.93,-235.08C1193.85,-227.3 1204.07,-215.8 1212.45,-206.37"/>
<polygon fill="midnightblue" stroke="midnightblue" points="1215.19,-208.55 1219.22,-198.75 1209.96,-203.9 1215.19,-208.55"/>
</g>
<!-- Node22&#45;&gt;Node24 -->
<g id="edge30" class="edge">
<title>Node22&#45;&gt;Node24</title>
<path fill="none" stroke="midnightblue" d="M1198.33,-235.44C1218.32,-226.6 1249.74,-212.69 1272.56,-202.59"/>
<polygon fill="midnightblue" stroke="midnightblue" points="1274.03,-205.76 1281.76,-198.52 1271.2,-199.36 1274.03,-205.76"/>
</g>
</g>
</svg>
