<?xml version="1.0" encoding="UTF-8" standalone="no"?>
<!DOCTYPE svg PUBLIC "-//W3C//DTD SVG 1.1//EN"
 "http://www.w3.org/Graphics/SVG/1.1/DTD/svg11.dtd">
<!-- Generated by graphviz version 2.43.0 (0)
 -->
<!-- Title: includes/libserv/event_worker.hpp Pages: 1 -->
<!--zoomable 274 -->
<svg id="main" version="1.1" xmlns="http://www.w3.org/2000/svg" xmlns:xlink="http://www.w3.org/1999/xlink" xml:space="preserve" onload="init(evt)">
<style type="text/css"><![CDATA[
.edge:hover path { stroke: red; }
.edge:hover polygon { stroke: red; fill: red; }
]]></style>
<script type="text/javascript"><![CDATA[
var edges = document.getElementsByTagName('g');
if (edges && edges.length) {
  for (var i=0;i<edges.length;i++) {
    if (edges[i].id.substr(0,4)=='edge') {
      edges[i].setAttribute('class','edge');
    }
  }
}
]]></script>
        <defs>
                <circle id="rim" cx="0" cy="0" r="7"/>
                <circle id="rim2" cx="0" cy="0" r="3.5"/>
                <g id="zoomPlus">
                        <use xlink:href="#rim" fill="#404040">
                                <set attributeName="fill" to="#808080" begin="zoomplus.mouseover" end="zoomplus.mouseout"/>
                        </use>
                        <path d="M-4,0h8M0,-4v8" fill="none" stroke="white" stroke-width="1.5" pointer-events="none"/>
                </g>
                <g id="zoomMin">
                        <use xlink:href="#rim" fill="#404040">
                                <set attributeName="fill" to="#808080" begin="zoomminus.mouseover" end="zoomminus.mouseout"/>
                        </use>
                        <path d="M-4,0h8" fill="none" stroke="white" stroke-width="1.5" pointer-events="none"/>
                </g>
                <g id="dirArrow">
                        <path fill="none" stroke="white" stroke-width="1.5" d="M0,-3.0v7 M-2.5,-0.5L0,-3.0L2.5,-0.5"/>
                </g>
               <g id="resetDef">
                       <use xlink:href="#rim2" fill="#404040">
                               <set attributeName="fill" to="#808080" begin="reset.mouseover" end="reset.mouseout"/>
                       </use>
               </g>
        </defs>

<script type="text/javascript">
var viewWidth = 1098;
var viewHeight = 274;
var sectionId = 'dynsection-0';
</script>
<script xlink:href="svgpan.js"/>
<svg id="graph" class="graph">
<g id="viewport">
<title>includes/libserv/event_worker.hpp</title>
<polygon fill="white" stroke="transparent" points="-4,4 -4,-270 1094,-270 1094,4 -4,4"/>
<!-- Node1 -->
<g id="node1" class="node">
<title>Node1</title>
<g id="a_node1"><a xlink:title=" ">
<polygon fill="#bfbfbf" stroke="black" points="561.5,-235.5 561.5,-265.5 685.5,-265.5 685.5,-235.5 561.5,-235.5"/>
<text text-anchor="start" x="569.5" y="-253.5" font-family="Helvetica,sans-Serif" font-size="10.00">includes/libserv/event</text>
<text text-anchor="middle" x="623.5" y="-242.5" font-family="Helvetica,sans-Serif" font-size="10.00">_worker.hpp</text>
</a>
</g>
</g>
<!-- Node2 -->
<g id="node2" class="node">
<title>Node2</title>
<g id="a_node2"><a xlink:href="event__channel__base_8hpp.html" target="_top" xlink:title=" ">
<polygon fill="white" stroke="black" points="315,-179.5 315,-198.5 452,-198.5 452,-179.5 315,-179.5"/>
<text text-anchor="middle" x="383.5" y="-186.5" font-family="Helvetica,sans-Serif" font-size="10.00">event_channel_base.hpp</text>
</a>
</g>
</g>
<!-- Node1&#45;&gt;Node2 -->
<g id="edge1" class="edge">
<title>Node1&#45;&gt;Node2</title>
<path fill="none" stroke="midnightblue" d="M566.93,-235.47C524.35,-224.92 466.82,-210.66 427.61,-200.94"/>
<polygon fill="midnightblue" stroke="midnightblue" points="428.36,-197.52 417.81,-198.51 426.68,-204.31 428.36,-197.52"/>
</g>
<!-- Node4 -->
<g id="node4" class="node">
<title>Node4</title>
<g id="a_node4"><a xlink:href="serv__types_8hpp.html" target="_top" xlink:title=" ">
<polygon fill="white" stroke="black" points="39,-56.5 39,-75.5 130,-75.5 130,-56.5 39,-56.5"/>
<text text-anchor="middle" x="84.5" y="-63.5" font-family="Helvetica,sans-Serif" font-size="10.00">serv_types.hpp</text>
</a>
</g>
</g>
<!-- Node1&#45;&gt;Node4 -->
<g id="edge14" class="edge">
<title>Node1&#45;&gt;Node4</title>
<path fill="none" stroke="midnightblue" d="M561.21,-246.22C434.6,-238.16 154.09,-212.67 93.5,-143 80.04,-127.52 79.54,-103.08 81.27,-86.1"/>
<polygon fill="midnightblue" stroke="midnightblue" points="84.79,-86.13 82.68,-75.75 77.86,-85.18 84.79,-86.13"/>
</g>
<!-- Node11 -->
<g id="node11" class="node">
<title>Node11</title>
<g id="a_node11"><a xlink:title=" ">
<polygon fill="white" stroke="#bfbfbf" points="607,-118 607,-137 746,-137 746,-118 607,-118"/>
<text text-anchor="middle" x="676.5" y="-125" font-family="Helvetica,sans-Serif" font-size="10.00">smart_ptr/shared_ptr.hpp</text>
</a>
</g>
</g>
<!-- Node1&#45;&gt;Node11 -->
<g id="edge16" class="edge">
<title>Node1&#45;&gt;Node11</title>
<path fill="none" stroke="midnightblue" d="M561.22,-237.08C520.76,-226.08 479.17,-207.31 500.5,-179 508.35,-168.58 578.53,-150.75 627.85,-139.31"/>
<polygon fill="midnightblue" stroke="midnightblue" points="628.76,-142.69 637.73,-137.04 627.2,-135.87 628.76,-142.69"/>
</g>
<!-- Node14 -->
<g id="node14" class="node">
<title>Node14</title>
<g id="a_node14"><a xlink:href="task__base_8hpp.html" target="_top" xlink:title=" ">
<polygon fill="white" stroke="black" points="509,-179.5 509,-198.5 596,-198.5 596,-179.5 509,-179.5"/>
<text text-anchor="middle" x="552.5" y="-186.5" font-family="Helvetica,sans-Serif" font-size="10.00">task_base.hpp</text>
</a>
</g>
</g>
<!-- Node1&#45;&gt;Node14 -->
<g id="edge15" class="edge">
<title>Node1&#45;&gt;Node14</title>
<path fill="none" stroke="midnightblue" d="M606.67,-235.4C595.83,-226.31 581.72,-214.49 570.63,-205.19"/>
<polygon fill="midnightblue" stroke="midnightblue" points="572.74,-202.4 562.83,-198.66 568.25,-207.76 572.74,-202.4"/>
</g>
<!-- Node15 -->
<g id="node15" class="node">
<title>Node15</title>
<g id="a_node15"><a xlink:title=" ">
<polygon fill="white" stroke="#bfbfbf" points="614.5,-179.5 614.5,-198.5 776.5,-198.5 776.5,-179.5 614.5,-179.5"/>
<text text-anchor="middle" x="695.5" y="-186.5" font-family="Helvetica,sans-Serif" font-size="10.00">thread/condition_variable.hpp</text>
</a>
</g>
</g>
<!-- Node1&#45;&gt;Node15 -->
<g id="edge17" class="edge">
<title>Node1&#45;&gt;Node15</title>
<path fill="none" stroke="midnightblue" d="M640.56,-235.4C651.56,-226.31 665.87,-214.49 677.12,-205.19"/>
<polygon fill="midnightblue" stroke="midnightblue" points="679.54,-207.73 685.02,-198.66 675.09,-202.33 679.54,-207.73"/>
</g>
<!-- Node16 -->
<g id="node16" class="node">
<title>Node16</title>
<g id="a_node16"><a xlink:title=" ">
<polygon fill="white" stroke="#bfbfbf" points="794.5,-179.5 794.5,-198.5 898.5,-198.5 898.5,-179.5 794.5,-179.5"/>
<text text-anchor="middle" x="846.5" y="-186.5" font-family="Helvetica,sans-Serif" font-size="10.00">thread/mutex.hpp</text>
</a>
</g>
</g>
<!-- Node1&#45;&gt;Node16 -->
<g id="edge18" class="edge">
<title>Node1&#45;&gt;Node16</title>
<path fill="none" stroke="midnightblue" d="M676.07,-235.47C715.38,-224.99 768.41,-210.84 804.82,-201.12"/>
<polygon fill="midnightblue" stroke="midnightblue" points="805.86,-204.47 814.62,-198.51 804.05,-197.7 805.86,-204.47"/>
</g>
<!-- Node17 -->
<g id="node17" class="node">
<title>Node17</title>
<g id="a_node17"><a xlink:title=" ">
<polygon fill="white" stroke="#bfbfbf" points="916.5,-179.5 916.5,-198.5 1020.5,-198.5 1020.5,-179.5 916.5,-179.5"/>
<text text-anchor="middle" x="968.5" y="-186.5" font-family="Helvetica,sans-Serif" font-size="10.00">thread/thread.hpp</text>
</a>
</g>
</g>
<!-- Node1&#45;&gt;Node17 -->
<g id="edge19" class="edge">
<title>Node1&#45;&gt;Node17</title>
<path fill="none" stroke="midnightblue" d="M685.58,-238.79C748.98,-227.86 846.71,-211 909.12,-200.24"/>
<polygon fill="midnightblue" stroke="midnightblue" points="909.94,-203.65 919.2,-198.5 908.75,-196.75 909.94,-203.65"/>
</g>
<!-- Node18 -->
<g id="node18" class="node">
<title>Node18</title>
<g id="a_node18"><a xlink:title=" ">
<polygon fill="white" stroke="#bfbfbf" points="1039,-179.5 1039,-198.5 1090,-198.5 1090,-179.5 1039,-179.5"/>
<text text-anchor="middle" x="1064.5" y="-186.5" font-family="Helvetica,sans-Serif" font-size="10.00">csignal</text>
</a>
</g>
</g>
<!-- Node1&#45;&gt;Node18 -->
<g id="edge20" class="edge">
<title>Node1&#45;&gt;Node18</title>
<path fill="none" stroke="midnightblue" d="M685.79,-244.25C763.78,-237.12 901.56,-222.69 1029.03,-198.85"/>
<polygon fill="midnightblue" stroke="midnightblue" points="1029.8,-202.27 1038.97,-196.97 1028.49,-195.39 1029.8,-202.27"/>
</g>
<!-- Node3 -->
<g id="node3" class="node">
<title>Node3</title>
<g id="a_node3"><a xlink:href="byte__buffer_8hpp.html" target="_top" xlink:title=" ">
<polygon fill="white" stroke="black" points="128.5,-118 128.5,-137 220.5,-137 220.5,-118 128.5,-118"/>
<text text-anchor="middle" x="174.5" y="-125" font-family="Helvetica,sans-Serif" font-size="10.00">byte_buffer.hpp</text>
</a>
</g>
</g>
<!-- Node2&#45;&gt;Node3 -->
<g id="edge2" class="edge">
<title>Node2&#45;&gt;Node3</title>
<path fill="none" stroke="midnightblue" d="M353.56,-179.48C316.93,-169.05 254.8,-151.36 214.22,-139.81"/>
<polygon fill="midnightblue" stroke="midnightblue" points="214.97,-136.38 204.39,-137.01 213.05,-143.11 214.97,-136.38"/>
</g>
<!-- Node2&#45;&gt;Node4 -->
<g id="edge9" class="edge">
<title>Node2&#45;&gt;Node4</title>
<path fill="none" stroke="midnightblue" d="M314.95,-183.52C247.17,-177.85 149.39,-165.91 119.5,-143 101.26,-129.01 92.19,-103.28 87.93,-85.66"/>
<polygon fill="midnightblue" stroke="midnightblue" points="91.32,-84.75 85.82,-75.69 84.47,-86.2 91.32,-84.75"/>
</g>
<!-- Node10 -->
<g id="node10" class="node">
<title>Node10</title>
<g id="a_node10"><a xlink:title=" ">
<polygon fill="white" stroke="#bfbfbf" points="238.5,-112.5 238.5,-142.5 376.5,-142.5 376.5,-112.5 238.5,-112.5"/>
<text text-anchor="start" x="246.5" y="-130.5" font-family="Helvetica,sans-Serif" font-size="10.00">smart_ptr/enable_shared</text>
<text text-anchor="middle" x="307.5" y="-119.5" font-family="Helvetica,sans-Serif" font-size="10.00">_from_this.hpp</text>
</a>
</g>
</g>
<!-- Node2&#45;&gt;Node10 -->
<g id="edge10" class="edge">
<title>Node2&#45;&gt;Node10</title>
<path fill="none" stroke="midnightblue" d="M372.61,-179.48C362.41,-171.49 346.78,-159.25 333.39,-148.77"/>
<polygon fill="midnightblue" stroke="midnightblue" points="335.44,-145.93 325.41,-142.52 331.13,-151.44 335.44,-145.93"/>
</g>
<!-- Node2&#45;&gt;Node11 -->
<g id="edge11" class="edge">
<title>Node2&#45;&gt;Node11</title>
<path fill="none" stroke="midnightblue" d="M425.48,-179.48C478.02,-168.8 568,-150.53 624.75,-139.01"/>
<polygon fill="midnightblue" stroke="midnightblue" points="625.49,-142.43 634.6,-137.01 624.1,-135.57 625.49,-142.43"/>
</g>
<!-- Node12 -->
<g id="node12" class="node">
<title>Node12</title>
<g id="a_node12"><a xlink:title=" ">
<polygon fill="white" stroke="#bfbfbf" points="394.5,-118 394.5,-137 526.5,-137 526.5,-118 394.5,-118"/>
<text text-anchor="middle" x="460.5" y="-125" font-family="Helvetica,sans-Serif" font-size="10.00">smart_ptr/weak_ptr.hpp</text>
</a>
</g>
</g>
<!-- Node2&#45;&gt;Node12 -->
<g id="edge12" class="edge">
<title>Node2&#45;&gt;Node12</title>
<path fill="none" stroke="midnightblue" d="M394.53,-179.48C406.77,-170.02 426.73,-154.6 441.49,-143.19"/>
<polygon fill="midnightblue" stroke="midnightblue" points="443.72,-145.89 449.49,-137.01 439.44,-140.35 443.72,-145.89"/>
</g>
<!-- Node13 -->
<g id="node13" class="node">
<title>Node13</title>
<g id="a_node13"><a xlink:title=" ">
<polygon fill="white" stroke="#bfbfbf" points="544.5,-118 544.5,-137 588.5,-137 588.5,-118 544.5,-118"/>
<text text-anchor="middle" x="566.5" y="-125" font-family="Helvetica,sans-Serif" font-size="10.00">string</text>
</a>
</g>
</g>
<!-- Node2&#45;&gt;Node13 -->
<g id="edge13" class="edge">
<title>Node2&#45;&gt;Node13</title>
<path fill="none" stroke="midnightblue" d="M417.79,-179.42C448.92,-171.27 495.87,-158.04 535.5,-143 536.92,-142.46 538.37,-141.88 539.83,-141.28"/>
<polygon fill="midnightblue" stroke="midnightblue" points="541.58,-144.33 549.32,-137.09 538.76,-137.93 541.58,-144.33"/>
</g>
<!-- Node3&#45;&gt;Node4 -->
<g id="edge3" class="edge">
<title>Node3&#45;&gt;Node4</title>
<path fill="none" stroke="midnightblue" d="M161.61,-117.98C147.04,-108.34 123.1,-92.52 105.75,-81.05"/>
<polygon fill="midnightblue" stroke="midnightblue" points="107.64,-78.1 97.37,-75.51 103.78,-83.94 107.64,-78.1"/>
</g>
<!-- Node8 -->
<g id="node8" class="node">
<title>Node8</title>
<g id="a_node8"><a xlink:title=" ">
<polygon fill="white" stroke="#bfbfbf" points="148.5,-56.5 148.5,-75.5 200.5,-75.5 200.5,-56.5 148.5,-56.5"/>
<text text-anchor="middle" x="174.5" y="-63.5" font-family="Helvetica,sans-Serif" font-size="10.00">cassert</text>
</a>
</g>
</g>
<!-- Node3&#45;&gt;Node8 -->
<g id="edge7" class="edge">
<title>Node3&#45;&gt;Node8</title>
<path fill="none" stroke="midnightblue" d="M174.5,-117.98C174.5,-109.58 174.5,-96.48 174.5,-85.66"/>
<polygon fill="midnightblue" stroke="midnightblue" points="178,-85.51 174.5,-75.51 171,-85.51 178,-85.51"/>
</g>
<!-- Node9 -->
<g id="node9" class="node">
<title>Node9</title>
<g id="a_node9"><a xlink:title=" ">
<polygon fill="white" stroke="#bfbfbf" points="218.5,-56.5 218.5,-75.5 268.5,-75.5 268.5,-56.5 218.5,-56.5"/>
<text text-anchor="middle" x="243.5" y="-63.5" font-family="Helvetica,sans-Serif" font-size="10.00">cstring</text>
</a>
</g>
</g>
<!-- Node3&#45;&gt;Node9 -->
<g id="edge8" class="edge">
<title>Node3&#45;&gt;Node9</title>
<path fill="none" stroke="midnightblue" d="M184.39,-117.98C195.15,-108.7 212.57,-93.67 225.72,-82.33"/>
<polygon fill="midnightblue" stroke="midnightblue" points="228.34,-84.69 233.63,-75.51 223.77,-79.39 228.34,-84.69"/>
</g>
<!-- Node5 -->
<g id="node5" class="node">
<title>Node5</title>
<g id="a_node5"><a xlink:title=" ">
<polygon fill="white" stroke="#bfbfbf" points="0,-0.5 0,-19.5 47,-19.5 47,-0.5 0,-0.5"/>
<text text-anchor="middle" x="23.5" y="-7.5" font-family="Helvetica,sans-Serif" font-size="10.00">deque</text>
</a>
</g>
</g>
<!-- Node4&#45;&gt;Node5 -->
<g id="edge4" class="edge">
<title>Node4&#45;&gt;Node5</title>
<path fill="none" stroke="midnightblue" d="M74.7,-56.32C65.68,-48.34 52.09,-36.31 41.18,-26.65"/>
<polygon fill="midnightblue" stroke="midnightblue" points="43.29,-23.84 33.48,-19.83 38.65,-29.08 43.29,-23.84"/>
</g>
<!-- Node6 -->
<g id="node6" class="node">
<title>Node6</title>
<g id="a_node6"><a xlink:title=" ">
<polygon fill="white" stroke="#bfbfbf" points="65.5,-0.5 65.5,-19.5 103.5,-19.5 103.5,-0.5 65.5,-0.5"/>
<text text-anchor="middle" x="84.5" y="-7.5" font-family="Helvetica,sans-Serif" font-size="10.00">map</text>
</a>
</g>
</g>
<!-- Node4&#45;&gt;Node6 -->
<g id="edge5" class="edge">
<title>Node4&#45;&gt;Node6</title>
<path fill="none" stroke="midnightblue" d="M84.5,-56.08C84.5,-49.01 84.5,-38.86 84.5,-29.99"/>
<polygon fill="midnightblue" stroke="midnightblue" points="88,-29.75 84.5,-19.75 81,-29.75 88,-29.75"/>
</g>
<!-- Node7 -->
<g id="node7" class="node">
<title>Node7</title>
<g id="a_node7"><a xlink:title=" ">
<polygon fill="white" stroke="#bfbfbf" points="122,-0.5 122,-19.5 169,-19.5 169,-0.5 122,-0.5"/>
<text text-anchor="middle" x="145.5" y="-7.5" font-family="Helvetica,sans-Serif" font-size="10.00">vector</text>
</a>
</g>
</g>
<!-- Node4&#45;&gt;Node7 -->
<g id="edge6" class="edge">
<title>Node4&#45;&gt;Node7</title>
<path fill="none" stroke="midnightblue" d="M94.3,-56.32C103.32,-48.34 116.91,-36.31 127.82,-26.65"/>
<polygon fill="midnightblue" stroke="midnightblue" points="130.35,-29.08 135.52,-19.83 125.71,-23.84 130.35,-29.08"/>
</g>
</g>
</svg>
        <g id="navigator" transform="translate(0 0)" fill="#404254">
                <rect fill="#f2f5e9" fill-opacity="0.5" stroke="#606060" stroke-width=".5" x="0" y="0" width="60" height="60"/>
                <use id="zoomplus" xlink:href="#zoomPlus" x="17" y="9" onmousedown="handleZoom(evt,'in')"/>
                <use id="zoomminus" xlink:href="#zoomMin" x="42" y="9" onmousedown="handleZoom(evt,'out')"/>
                <use id="reset" xlink:href="#resetDef" x="30" y="36" onmousedown="handleReset()"/>
                <g id="arrowUp" xlink:href="#dirArrow" transform="translate(30 24)" onmousedown="handlePan(0,-1)">
                  <use xlink:href="#rim" fill="#404040">
                        <set attributeName="fill" to="#808080" begin="arrowUp.mouseover" end="arrowUp.mouseout"/>
                  </use>
                  <path fill="none" stroke="white" stroke-width="1.5" d="M0,-3.0v7 M-2.5,-0.5L0,-3.0L2.5,-0.5"/>
                </g>
                <g id="arrowRight" xlink:href="#dirArrow" transform="rotate(90) translate(36 -43)" onmousedown="handlePan(1,0)">
                  <use xlink:href="#rim" fill="#404040">
                        <set attributeName="fill" to="#808080" begin="arrowRight.mouseover" end="arrowRight.mouseout"/>
                  </use>
                  <path fill="none" stroke="white" stroke-width="1.5" d="M0,-3.0v7 M-2.5,-0.5L0,-3.0L2.5,-0.5"/>
                </g>
                <g id="arrowDown" xlink:href="#dirArrow" transform="rotate(180) translate(-30 -48)" onmousedown="handlePan(0,1)">
                  <use xlink:href="#rim" fill="#404040">
                        <set attributeName="fill" to="#808080" begin="arrowDown.mouseover" end="arrowDown.mouseout"/>
                  </use>
                  <path fill="none" stroke="white" stroke-width="1.5" d="M0,-3.0v7 M-2.5,-0.5L0,-3.0L2.5,-0.5"/>
                </g>
                <g id="arrowLeft" xlink:href="#dirArrow" transform="rotate(270) translate(-36 17)" onmousedown="handlePan(-1,0)">
                  <use xlink:href="#rim" fill="#404040">
                        <set attributeName="fill" to="#808080" begin="arrowLeft.mouseover" end="arrowLeft.mouseout"/>
                  </use>
                  <path fill="none" stroke="white" stroke-width="1.5" d="M0,-3.0v7 M-2.5,-0.5L0,-3.0L2.5,-0.5"/>
                </g>
        </g>
        <svg viewBox="0 0 15 15" width="100%" height="30px" preserveAspectRatio="xMaxYMin meet">
         <g id="arrow_out" transform="scale(0.3 0.3)">
          <a xlink:href="event__worker_8hpp__incl_org.svg" target="_base">
           <rect id="button" ry="5" rx="5" y="6" x="6" height="38" width="38"
                fill="#f2f5e9" fill-opacity="0.5" stroke="#606060" stroke-width="1.0"/>
           <path id="arrow"
             d="M 11.500037,31.436501 C 11.940474,20.09759 22.043105,11.32322 32.158766,21.979434 L 37.068811,17.246167 C 37.068811,17.246167 37.088388,32 37.088388,32 L 22.160133,31.978069 C 22.160133,31.978069 26.997745,27.140456 26.997745,27.140456 C 18.528582,18.264221 13.291696,25.230495 11.500037,31.436501 z"
             style="fill:#404040;"/>
          </a>
         </g>
        </svg>
</svg>
