<?xml version="1.0" encoding="UTF-8" standalone="no"?>
<!DOCTYPE svg PUBLIC "-//W3C//DTD SVG 1.1//EN"
 "http://www.w3.org/Graphics/SVG/1.1/DTD/svg11.dtd">
<!-- Generated by graphviz version 2.43.0 (0)
 -->
<!-- Title: Graphical Class Hierarchy Pages: 1 -->
<svg width="295pt" height="919pt"
 viewBox="0.00 0.00 295.00 919.00" xmlns="http://www.w3.org/2000/svg" xmlns:xlink="http://www.w3.org/1999/xlink">
<g id="graph0" class="graph" transform="scale(1 1) rotate(0) translate(4 915)">
<title>Graphical Class Hierarchy</title>
<polygon fill="white" stroke="transparent" points="-4,4 -4,-915 291,-915 291,4 -4,4"/>
<!-- Node0 -->
<g id="node1" class="node">
<title>Node0</title>
<g id="a_node1"><a xlink:href="classft_1_1irc_1_1processor__base.html" target="_top" xlink:title=" ">
<polygon fill="white" stroke="black" points="0,-446 0,-465 123,-465 123,-446 0,-446"/>
<text text-anchor="middle" x="61.5" y="-453" font-family="Helvetica,sans-Serif" font-size="10.00">ft::irc::processor_base</text>
</a>
</g>
</g>
<!-- Node1 -->
<g id="node2" class="node">
<title>Node1</title>
<g id="a_node2"><a xlink:href="classft_1_1irc_1_1processor__error.html" target="_top" xlink:title=" ">
<polygon fill="white" stroke="black" points="175.5,-880.5 175.5,-910.5 270.5,-910.5 270.5,-880.5 175.5,-880.5"/>
<text text-anchor="start" x="183.5" y="-898.5" font-family="Helvetica,sans-Serif" font-size="10.00">ft::irc::processor</text>
<text text-anchor="middle" x="223" y="-887.5" font-family="Helvetica,sans-Serif" font-size="10.00">_error</text>
</a>
</g>
</g>
<!-- Node0&#45;&gt;Node1 -->
<g id="edge1" class="edge">
<title>Node0&#45;&gt;Node1</title>
<path fill="none" stroke="midnightblue" d="M64.64,-475.43C73.01,-549.87 105.68,-810.38 159,-871.5 163.46,-876.62 169.14,-880.64 175.25,-883.82"/>
<polygon fill="midnightblue" stroke="midnightblue" points="68.08,-474.7 63.51,-465.14 61.13,-475.47 68.08,-474.7"/>
</g>
<!-- Node2 -->
<g id="node3" class="node">
<title>Node2</title>
<g id="a_node3"><a xlink:href="classft_1_1irc_1_1processor__invite.html" target="_top" xlink:title=" ">
<polygon fill="white" stroke="black" points="175.5,-831.5 175.5,-861.5 270.5,-861.5 270.5,-831.5 175.5,-831.5"/>
<text text-anchor="start" x="183.5" y="-849.5" font-family="Helvetica,sans-Serif" font-size="10.00">ft::irc::processor</text>
<text text-anchor="middle" x="223" y="-838.5" font-family="Helvetica,sans-Serif" font-size="10.00">_invite</text>
</a>
</g>
</g>
<!-- Node0&#45;&gt;Node2 -->
<g id="edge2" class="edge">
<title>Node0&#45;&gt;Node2</title>
<path fill="none" stroke="midnightblue" d="M61.87,-475.49C61.08,-535.69 66.83,-717.56 159,-821.5 163.53,-826.61 169.24,-830.68 175.36,-833.93"/>
<polygon fill="midnightblue" stroke="midnightblue" points="65.38,-475.2 62.1,-465.13 58.38,-475.05 65.38,-475.2"/>
</g>
<!-- Node3 -->
<g id="node4" class="node">
<title>Node3</title>
<g id="a_node4"><a xlink:href="classft_1_1irc_1_1processor__join.html" target="_top" xlink:title=" ">
<polygon fill="white" stroke="black" points="164,-793 164,-812 282,-812 282,-793 164,-793"/>
<text text-anchor="middle" x="223" y="-800" font-family="Helvetica,sans-Serif" font-size="10.00">ft::irc::processor_join</text>
</a>
</g>
</g>
<!-- Node0&#45;&gt;Node3 -->
<g id="edge3" class="edge">
<title>Node0&#45;&gt;Node3</title>
<path fill="none" stroke="midnightblue" d="M62.22,-475.25C62.53,-531.68 71.34,-695.24 159,-783.5 162.86,-787.39 167.49,-790.49 172.47,-792.96"/>
<polygon fill="midnightblue" stroke="midnightblue" points="65.72,-475.18 62.25,-465.17 58.72,-475.16 65.72,-475.18"/>
</g>
<!-- Node4 -->
<g id="node5" class="node">
<title>Node4</title>
<g id="a_node5"><a xlink:href="classft_1_1irc_1_1processor__kick.html" target="_top" xlink:title=" ">
<polygon fill="white" stroke="black" points="163,-755 163,-774 283,-774 283,-755 163,-755"/>
<text text-anchor="middle" x="223" y="-762" font-family="Helvetica,sans-Serif" font-size="10.00">ft::irc::processor_kick</text>
</a>
</g>
</g>
<!-- Node0&#45;&gt;Node4 -->
<g id="edge4" class="edge">
<title>Node0&#45;&gt;Node4</title>
<path fill="none" stroke="midnightblue" d="M63.12,-475.35C65.84,-527.42 80.47,-669.17 159,-745.5 163.01,-749.4 167.8,-752.51 172.91,-754.98"/>
<polygon fill="midnightblue" stroke="midnightblue" points="66.61,-474.98 62.68,-465.14 59.61,-475.28 66.61,-474.98"/>
</g>
<!-- Node5 -->
<g id="node6" class="node">
<title>Node5</title>
<g id="a_node6"><a xlink:href="classft_1_1irc_1_1processor__kill.html" target="_top" xlink:title=" ">
<polygon fill="white" stroke="black" points="165.5,-717 165.5,-736 280.5,-736 280.5,-717 165.5,-717"/>
<text text-anchor="middle" x="223" y="-724" font-family="Helvetica,sans-Serif" font-size="10.00">ft::irc::processor_kill</text>
</a>
</g>
</g>
<!-- Node0&#45;&gt;Node5 -->
<g id="edge5" class="edge">
<title>Node0&#45;&gt;Node5</title>
<path fill="none" stroke="midnightblue" d="M64.26,-475.26C69.52,-522.49 89.43,-642.81 159,-707.5 163.18,-711.39 168.14,-714.48 173.4,-716.95"/>
<polygon fill="midnightblue" stroke="midnightblue" points="67.72,-474.73 63.23,-465.14 60.76,-475.44 67.72,-474.73"/>
</g>
<!-- Node6 -->
<g id="node7" class="node">
<title>Node6</title>
<g id="a_node7"><a xlink:href="classft_1_1irc_1_1processor__list.html" target="_top" xlink:title=" ">
<polygon fill="white" stroke="black" points="165.5,-679 165.5,-698 280.5,-698 280.5,-679 165.5,-679"/>
<text text-anchor="middle" x="223" y="-686" font-family="Helvetica,sans-Serif" font-size="10.00">ft::irc::processor_list</text>
</a>
</g>
</g>
<!-- Node0&#45;&gt;Node6 -->
<g id="edge6" class="edge">
<title>Node0&#45;&gt;Node6</title>
<path fill="none" stroke="midnightblue" d="M65.79,-475.37C73.82,-517.51 98.38,-616.33 159,-669.5 163.47,-673.42 168.72,-676.53 174.25,-679"/>
<polygon fill="midnightblue" stroke="midnightblue" points="69.19,-474.52 63.98,-465.29 62.3,-475.75 69.19,-474.52"/>
</g>
<!-- Node7 -->
<g id="node8" class="node">
<title>Node7</title>
<g id="a_node8"><a xlink:href="classft_1_1irc_1_1processor__mode.html" target="_top" xlink:title=" ">
<polygon fill="white" stroke="black" points="159,-641 159,-660 287,-660 287,-641 159,-641"/>
<text text-anchor="middle" x="223" y="-648" font-family="Helvetica,sans-Serif" font-size="10.00">ft::irc::processor_mode</text>
</a>
</g>
</g>
<!-- Node0&#45;&gt;Node7 -->
<g id="edge7" class="edge">
<title>Node0&#45;&gt;Node7</title>
<path fill="none" stroke="midnightblue" d="M67.81,-475.03C78.69,-511.34 106.99,-589.35 159,-631.5 163.79,-635.38 169.37,-638.48 175.18,-640.93"/>
<polygon fill="midnightblue" stroke="midnightblue" points="71.11,-473.83 64.99,-465.19 64.38,-475.77 71.11,-473.83"/>
</g>
<!-- Node8 -->
<g id="node9" class="node">
<title>Node8</title>
<g id="a_node9"><a xlink:href="classft_1_1irc_1_1processor__names.html" target="_top" xlink:title=" ">
<polygon fill="white" stroke="black" points="175.5,-591.5 175.5,-621.5 270.5,-621.5 270.5,-591.5 175.5,-591.5"/>
<text text-anchor="start" x="183.5" y="-609.5" font-family="Helvetica,sans-Serif" font-size="10.00">ft::irc::processor</text>
<text text-anchor="middle" x="223" y="-598.5" font-family="Helvetica,sans-Serif" font-size="10.00">_names</text>
</a>
</g>
</g>
<!-- Node0&#45;&gt;Node8 -->
<g id="edge8" class="edge">
<title>Node0&#45;&gt;Node8</title>
<path fill="none" stroke="midnightblue" d="M72.3,-473.95C87.52,-501 119.27,-551.45 159,-581.5 163.97,-585.26 169.59,-588.54 175.37,-591.37"/>
<polygon fill="midnightblue" stroke="midnightblue" points="75.34,-472.21 67.46,-465.13 69.2,-475.58 75.34,-472.21"/>
</g>
<!-- Node9 -->
<g id="node10" class="node">
<title>Node9</title>
<g id="a_node10"><a xlink:href="classft_1_1irc_1_1processor__nick.html" target="_top" xlink:title=" ">
<polygon fill="white" stroke="black" points="163,-553 163,-572 283,-572 283,-553 163,-553"/>
<text text-anchor="middle" x="223" y="-560" font-family="Helvetica,sans-Serif" font-size="10.00">ft::irc::processor_nick</text>
</a>
</g>
</g>
<!-- Node0&#45;&gt;Node9 -->
<g id="edge9" class="edge">
<title>Node0&#45;&gt;Node9</title>
<path fill="none" stroke="midnightblue" d="M77.12,-472.88C94.66,-492.68 125.87,-524.7 159,-543.5 165.66,-547.28 173.14,-550.38 180.57,-552.9"/>
<polygon fill="midnightblue" stroke="midnightblue" points="79.68,-470.48 70.48,-465.22 74.39,-475.07 79.68,-470.48"/>
</g>
<!-- Node10 -->
<g id="node11" class="node">
<title>Node10</title>
<g id="a_node11"><a xlink:href="classft_1_1irc_1_1processor__notice.html" target="_top" xlink:title=" ">
<polygon fill="white" stroke="black" points="175.5,-503.5 175.5,-533.5 270.5,-533.5 270.5,-503.5 175.5,-503.5"/>
<text text-anchor="start" x="183.5" y="-521.5" font-family="Helvetica,sans-Serif" font-size="10.00">ft::irc::processor</text>
<text text-anchor="middle" x="223" y="-510.5" font-family="Helvetica,sans-Serif" font-size="10.00">_notice</text>
</a>
</g>
</g>
<!-- Node0&#45;&gt;Node10 -->
<g id="edge10" class="edge">
<title>Node0&#45;&gt;Node10</title>
<path fill="none" stroke="midnightblue" d="M96.05,-468.75C121.71,-478.89 157.12,-492.87 183.86,-503.43"/>
<polygon fill="midnightblue" stroke="midnightblue" points="97.31,-465.49 86.72,-465.07 94.74,-472 97.31,-465.49"/>
</g>
<!-- Node11 -->
<g id="node12" class="node">
<title>Node11</title>
<g id="a_node12"><a xlink:href="classft_1_1irc_1_1processor__oper.html" target="_top" xlink:title=" ">
<polygon fill="white" stroke="black" points="162,-465 162,-484 284,-484 284,-465 162,-465"/>
<text text-anchor="middle" x="223" y="-472" font-family="Helvetica,sans-Serif" font-size="10.00">ft::irc::processor_oper</text>
</a>
</g>
</g>
<!-- Node0&#45;&gt;Node11 -->
<g id="edge11" class="edge">
<title>Node0&#45;&gt;Node11</title>
<path fill="none" stroke="midnightblue" d="M133.48,-463.95C142.98,-465.09 152.65,-466.24 161.94,-467.35"/>
<polygon fill="midnightblue" stroke="midnightblue" points="133.6,-460.44 123.26,-462.74 132.77,-467.4 133.6,-460.44"/>
</g>
<!-- Node12 -->
<g id="node13" class="node">
<title>Node12</title>
<g id="a_node13"><a xlink:href="classft_1_1irc_1_1processor__part.html" target="_top" xlink:title=" ">
<polygon fill="white" stroke="black" points="163.5,-427 163.5,-446 282.5,-446 282.5,-427 163.5,-427"/>
<text text-anchor="middle" x="223" y="-434" font-family="Helvetica,sans-Serif" font-size="10.00">ft::irc::processor_part</text>
</a>
</g>
</g>
<!-- Node0&#45;&gt;Node12 -->
<g id="edge12" class="edge">
<title>Node0&#45;&gt;Node12</title>
<path fill="none" stroke="midnightblue" d="M133.21,-447.08C143.24,-445.88 153.48,-444.66 163.26,-443.5"/>
<polygon fill="midnightblue" stroke="midnightblue" points="132.77,-443.6 123.26,-448.26 133.6,-450.56 132.77,-443.6"/>
</g>
<!-- Node13 -->
<g id="node14" class="node">
<title>Node13</title>
<g id="a_node14"><a xlink:href="classft_1_1irc_1_1processor__pass.html" target="_top" xlink:title=" ">
<polygon fill="white" stroke="black" points="162,-389 162,-408 284,-408 284,-389 162,-389"/>
<text text-anchor="middle" x="223" y="-396" font-family="Helvetica,sans-Serif" font-size="10.00">ft::irc::processor_pass</text>
</a>
</g>
</g>
<!-- Node0&#45;&gt;Node13 -->
<g id="edge13" class="edge">
<title>Node0&#45;&gt;Node13</title>
<path fill="none" stroke="midnightblue" d="M94.79,-442.01C113.42,-434.43 137.37,-425.01 159,-417.5 168.5,-414.2 178.91,-410.93 188.49,-408.05"/>
<polygon fill="midnightblue" stroke="midnightblue" points="93.23,-438.87 85.31,-445.9 95.89,-445.35 93.23,-438.87"/>
</g>
<!-- Node14 -->
<g id="node15" class="node">
<title>Node14</title>
<g id="a_node15"><a xlink:href="classft_1_1irc_1_1processor__ping.html" target="_top" xlink:title=" ">
<polygon fill="white" stroke="black" points="162.5,-351 162.5,-370 283.5,-370 283.5,-351 162.5,-351"/>
<text text-anchor="middle" x="223" y="-358" font-family="Helvetica,sans-Serif" font-size="10.00">ft::irc::processor_ping</text>
</a>
</g>
</g>
<!-- Node0&#45;&gt;Node14 -->
<g id="edge14" class="edge">
<title>Node0&#45;&gt;Node14</title>
<path fill="none" stroke="midnightblue" d="M79.53,-438.79C97.79,-421.7 128.33,-395.47 159,-379.5 166.19,-375.75 174.24,-372.62 182.12,-370.06"/>
<polygon fill="midnightblue" stroke="midnightblue" points="76.86,-436.49 72.04,-445.93 81.7,-441.56 76.86,-436.49"/>
</g>
<!-- Node15 -->
<g id="node16" class="node">
<title>Node15</title>
<g id="a_node16"><a xlink:href="classft_1_1irc_1_1processor__pong.html" target="_top" xlink:title=" ">
<polygon fill="white" stroke="black" points="161,-313 161,-332 285,-332 285,-313 161,-313"/>
<text text-anchor="middle" x="223" y="-320" font-family="Helvetica,sans-Serif" font-size="10.00">ft::irc::processor_pong</text>
</a>
</g>
</g>
<!-- Node0&#45;&gt;Node15 -->
<g id="edge15" class="edge">
<title>Node0&#45;&gt;Node15</title>
<path fill="none" stroke="midnightblue" d="M73.11,-437.35C88.75,-412.16 120.36,-366.85 159,-341.5 164.92,-337.61 171.67,-334.5 178.5,-332"/>
<polygon fill="midnightblue" stroke="midnightblue" points="70.1,-435.57 67.91,-445.93 76.08,-439.19 70.1,-435.57"/>
</g>
<!-- Node16 -->
<g id="node17" class="node">
<title>Node16</title>
<g id="a_node17"><a xlink:href="classft_1_1irc_1_1processor__privmsg.html" target="_top" xlink:title=" ">
<polygon fill="white" stroke="black" points="175.5,-263.5 175.5,-293.5 270.5,-293.5 270.5,-263.5 175.5,-263.5"/>
<text text-anchor="start" x="183.5" y="-281.5" font-family="Helvetica,sans-Serif" font-size="10.00">ft::irc::processor</text>
<text text-anchor="middle" x="223" y="-270.5" font-family="Helvetica,sans-Serif" font-size="10.00">_privmsg</text>
</a>
</g>
</g>
<!-- Node0&#45;&gt;Node16 -->
<g id="edge16" class="edge">
<title>Node0&#45;&gt;Node16</title>
<path fill="none" stroke="midnightblue" d="M69.97,-436.38C83.28,-404.61 114,-340.75 159,-303.5 163.89,-299.45 169.53,-295.99 175.37,-293.06"/>
<polygon fill="midnightblue" stroke="midnightblue" points="66.64,-435.26 66.12,-445.85 73.13,-437.9 66.64,-435.26"/>
</g>
<!-- Node17 -->
<g id="node18" class="node">
<title>Node17</title>
<g id="a_node18"><a xlink:href="classft_1_1irc_1_1processor__quit.html" target="_top" xlink:title=" ">
<polygon fill="white" stroke="black" points="163.5,-225 163.5,-244 282.5,-244 282.5,-225 163.5,-225"/>
<text text-anchor="middle" x="223" y="-232" font-family="Helvetica,sans-Serif" font-size="10.00">ft::irc::processor_quit</text>
</a>
</g>
</g>
<!-- Node0&#45;&gt;Node17 -->
<g id="edge17" class="edge">
<title>Node0&#45;&gt;Node17</title>
<path fill="none" stroke="midnightblue" d="M66.41,-436.07C75.45,-396.14 101.57,-304.39 159,-254.5 164.02,-250.13 170.01,-246.72 176.25,-244.05"/>
<polygon fill="midnightblue" stroke="midnightblue" points="62.98,-435.37 64.3,-445.88 69.82,-436.84 62.98,-435.37"/>
</g>
<!-- Node18 -->
<g id="node19" class="node">
<title>Node18</title>
<g id="a_node19"><a xlink:href="classft_1_1irc_1_1processor__topic.html" target="_top" xlink:title=" ">
<polygon fill="white" stroke="black" points="175.5,-175.5 175.5,-205.5 270.5,-205.5 270.5,-175.5 175.5,-175.5"/>
<text text-anchor="start" x="183.5" y="-193.5" font-family="Helvetica,sans-Serif" font-size="10.00">ft::irc::processor</text>
<text text-anchor="middle" x="223" y="-182.5" font-family="Helvetica,sans-Serif" font-size="10.00">_topic</text>
</a>
</g>
</g>
<!-- Node0&#45;&gt;Node18 -->
<g id="edge18" class="edge">
<title>Node0&#45;&gt;Node18</title>
<path fill="none" stroke="midnightblue" d="M65.09,-435.82C72.03,-390.78 95.04,-279.17 159,-215.5 163.67,-210.85 169.31,-207.04 175.28,-203.92"/>
<polygon fill="midnightblue" stroke="midnightblue" points="61.62,-435.37 63.66,-445.77 68.55,-436.37 61.62,-435.37"/>
</g>
<!-- Node19 -->
<g id="node20" class="node">
<title>Node19</title>
<g id="a_node20"><a xlink:href="classft_1_1irc_1_1processor__user.html" target="_top" xlink:title=" ">
<polygon fill="white" stroke="black" points="162.5,-137 162.5,-156 283.5,-156 283.5,-137 162.5,-137"/>
<text text-anchor="middle" x="223" y="-144" font-family="Helvetica,sans-Serif" font-size="10.00">ft::irc::processor_user</text>
</a>
</g>
</g>
<!-- Node0&#45;&gt;Node19 -->
<g id="edge19" class="edge">
<title>Node0&#45;&gt;Node19</title>
<path fill="none" stroke="midnightblue" d="M63.21,-435.78C66.14,-384.04 81.23,-243.12 159,-166.5 163.41,-162.15 168.77,-158.75 174.47,-156.08"/>
<polygon fill="midnightblue" stroke="midnightblue" points="59.7,-435.77 62.73,-445.92 66.69,-436.1 59.7,-435.77"/>
</g>
<!-- Node20 -->
<g id="node21" class="node">
<title>Node20</title>
<g id="a_node21"><a xlink:href="classft_1_1irc_1_1processor__who.html" target="_top" xlink:title=" ">
<polygon fill="white" stroke="black" points="163,-99 163,-118 283,-118 283,-99 163,-99"/>
<text text-anchor="middle" x="223" y="-106" font-family="Helvetica,sans-Serif" font-size="10.00">ft::irc::processor_who</text>
</a>
</g>
</g>
<!-- Node0&#45;&gt;Node20 -->
<g id="edge20" class="edge">
<title>Node0&#45;&gt;Node20</title>
<path fill="none" stroke="midnightblue" d="M62.22,-435.75C62.53,-379.32 71.34,-215.76 159,-127.5 162.86,-123.61 167.49,-120.51 172.47,-118.04"/>
<polygon fill="midnightblue" stroke="midnightblue" points="58.72,-435.84 62.25,-445.83 65.72,-435.82 58.72,-435.84"/>
</g>
<!-- Node21 -->
<g id="node22" class="node">
<title>Node21</title>
<g id="a_node22"><a xlink:href="classft_1_1irc_1_1processor__whois.html" target="_top" xlink:title=" ">
<polygon fill="white" stroke="black" points="175.5,-49.5 175.5,-79.5 270.5,-79.5 270.5,-49.5 175.5,-49.5"/>
<text text-anchor="start" x="183.5" y="-67.5" font-family="Helvetica,sans-Serif" font-size="10.00">ft::irc::processor</text>
<text text-anchor="middle" x="223" y="-56.5" font-family="Helvetica,sans-Serif" font-size="10.00">_whois</text>
</a>
</g>
</g>
<!-- Node0&#45;&gt;Node21 -->
<g id="edge21" class="edge">
<title>Node0&#45;&gt;Node21</title>
<path fill="none" stroke="midnightblue" d="M61.87,-435.51C61.08,-375.31 66.83,-193.44 159,-89.5 163.53,-84.39 169.24,-80.32 175.36,-77.07"/>
<polygon fill="midnightblue" stroke="midnightblue" points="58.38,-435.95 62.1,-445.87 65.38,-435.8 58.38,-435.95"/>
</g>
<!-- Node22 -->
<g id="node23" class="node">
<title>Node22</title>
<g id="a_node23"><a xlink:href="classft_1_1irc_1_1processor__whowas.html" target="_top" xlink:title=" ">
<polygon fill="white" stroke="black" points="175.5,-0.5 175.5,-30.5 270.5,-30.5 270.5,-0.5 175.5,-0.5"/>
<text text-anchor="start" x="183.5" y="-18.5" font-family="Helvetica,sans-Serif" font-size="10.00">ft::irc::processor</text>
<text text-anchor="middle" x="223" y="-7.5" font-family="Helvetica,sans-Serif" font-size="10.00">_whowas</text>
</a>
</g>
</g>
<!-- Node0&#45;&gt;Node22 -->
<g id="edge22" class="edge">
<title>Node0&#45;&gt;Node22</title>
<path fill="none" stroke="midnightblue" d="M64.68,-435.64C73.17,-361.47 106.21,-101.83 159,-40.5 163.45,-35.33 169.12,-31.22 175.23,-27.95"/>
<polygon fill="midnightblue" stroke="midnightblue" points="61.16,-435.56 63.53,-445.89 68.12,-436.34 61.16,-435.56"/>
</g>
</g>
</svg>
