<?xml version="1.0" encoding="UTF-8" standalone="no"?>
<!DOCTYPE svg PUBLIC "-//W3C//DTD SVG 1.1//EN"
 "http://www.w3.org/Graphics/SVG/1.1/DTD/svg11.dtd">
<!-- Generated by graphviz version 2.43.0 (0)
 -->
<!-- Title: irc_constants.hpp Pages: 1 -->
<svg width="2265pt" height="308pt"
 viewBox="0.00 0.00 2265.33 308.00" xmlns="http://www.w3.org/2000/svg" xmlns:xlink="http://www.w3.org/1999/xlink">
<g id="graph0" class="graph" transform="scale(1 1) rotate(0) translate(4 304)">
<title>irc_constants.hpp</title>
<polygon fill="white" stroke="transparent" points="-4,4 -4,-304 2261.33,-304 2261.33,4 -4,4"/>
<!-- Node1 -->
<g id="node1" class="node">
<title>Node1</title>
<g id="a_node1"><a xlink:title=" ">
<polygon fill="#bfbfbf" stroke="black" points="908.05,-280.5 908.05,-299.5 1010.05,-299.5 1010.05,-280.5 908.05,-280.5"/>
<text text-anchor="middle" x="959.05" y="-287.5" font-family="Helvetica,sans-Serif" font-size="10.00">irc_constants.hpp</text>
</a>
</g>
</g>
<!-- Node2 -->
<g id="node2" class="node">
<title>Node2</title>
<g id="a_node2"><a xlink:href="bot__handler_8hpp.html" target="_top" xlink:title=" ">
<polygon fill="white" stroke="black" points="417.55,-112.5 417.55,-131.5 512.55,-131.5 512.55,-112.5 417.55,-112.5"/>
<text text-anchor="middle" x="465.05" y="-119.5" font-family="Helvetica,sans-Serif" font-size="10.00">bot_handler.hpp</text>
</a>
</g>
</g>
<!-- Node1&#45;&gt;Node2 -->
<g id="edge1" class="edge">
<title>Node1&#45;&gt;Node2</title>
<path fill="none" stroke="midnightblue" d="M897.8,-286.09C777.57,-278.93 517.86,-255.79 466.05,-188 453.44,-171.5 458.44,-145.14 462.25,-131.62"/>
<polygon fill="midnightblue" stroke="midnightblue" points="897.76,-289.59 907.95,-286.68 898.16,-282.61 897.76,-289.59"/>
</g>
<!-- Node3 -->
<g id="node3" class="node">
<title>Node3</title>
<g id="a_node3"><a xlink:href="bot__main_8cpp.html" target="_top" xlink:title=" ">
<polygon fill="white" stroke="black" points="227.55,-56.5 227.55,-75.5 310.55,-75.5 310.55,-56.5 227.55,-56.5"/>
<text text-anchor="middle" x="269.05" y="-63.5" font-family="Helvetica,sans-Serif" font-size="10.00">bot_main.cpp</text>
</a>
</g>
</g>
<!-- Node1&#45;&gt;Node3 -->
<g id="edge3" class="edge">
<title>Node1&#45;&gt;Node3</title>
<path fill="none" stroke="midnightblue" d="M897.73,-288.3C743.38,-286.07 341.96,-277.14 213.05,-244 156.83,-229.54 126.08,-237.06 95.05,-188 57.98,-129.38 169.84,-91.48 231.41,-75.57"/>
<polygon fill="midnightblue" stroke="midnightblue" points="897.92,-291.81 907.97,-288.45 898.02,-284.81 897.92,-291.81"/>
</g>
<!-- Node4 -->
<g id="node4" class="node">
<title>Node4</title>
<g id="a_node4"><a xlink:href="channel_8cpp.html" target="_top" xlink:title=" ">
<polygon fill="white" stroke="black" points="1079.55,-56.5 1079.55,-75.5 1154.55,-75.5 1154.55,-56.5 1079.55,-56.5"/>
<text text-anchor="middle" x="1117.05" y="-63.5" font-family="Helvetica,sans-Serif" font-size="10.00">channel.cpp</text>
</a>
</g>
</g>
<!-- Node1&#45;&gt;Node4 -->
<g id="edge4" class="edge">
<title>Node1&#45;&gt;Node4</title>
<path fill="none" stroke="midnightblue" d="M948.57,-271.5C925.56,-232.01 874.27,-137.42 895.05,-112 917.89,-84.07 1022.05,-73.06 1079.22,-69.06"/>
<polygon fill="midnightblue" stroke="midnightblue" points="945.65,-273.45 953.75,-280.28 951.68,-269.89 945.65,-273.45"/>
</g>
<!-- Node5 -->
<g id="node5" class="node">
<title>Node5</title>
<g id="a_node5"><a xlink:href="channel_8hpp.html" target="_top" xlink:title=" ">
<polygon fill="white" stroke="black" points="904.05,-112.5 904.05,-131.5 980.05,-131.5 980.05,-112.5 904.05,-112.5"/>
<text text-anchor="middle" x="942.05" y="-119.5" font-family="Helvetica,sans-Serif" font-size="10.00">channel.hpp</text>
</a>
</g>
</g>
<!-- Node1&#45;&gt;Node5 -->
<g id="edge5" class="edge">
<title>Node1&#45;&gt;Node5</title>
<path fill="none" stroke="midnightblue" d="M957.1,-269.93C953.41,-233.92 945.56,-157.23 942.93,-131.57"/>
<polygon fill="midnightblue" stroke="midnightblue" points="953.64,-270.48 958.14,-280.08 960.6,-269.77 953.64,-270.48"/>
</g>
<!-- Node6 -->
<g id="node6" class="node">
<title>Node6</title>
<g id="a_node6"><a xlink:href="processor__channel_8hpp.html" target="_top" xlink:title=" ">
<polygon fill="white" stroke="black" points="1372.05,-56.5 1372.05,-75.5 1500.05,-75.5 1500.05,-56.5 1372.05,-56.5"/>
<text text-anchor="middle" x="1436.05" y="-63.5" font-family="Helvetica,sans-Serif" font-size="10.00">processor_channel.hpp</text>
</a>
</g>
</g>
<!-- Node1&#45;&gt;Node6 -->
<g id="edge62" class="edge">
<title>Node1&#45;&gt;Node6</title>
<path fill="none" stroke="midnightblue" d="M1020.58,-286.78C1146.18,-280.78 1424.96,-259.54 1481.05,-188 1497.98,-166.41 1467.11,-156.65 1455.05,-132 1445.75,-112.99 1440.14,-88.58 1437.62,-75.76"/>
<polygon fill="midnightblue" stroke="midnightblue" points="1020.19,-283.29 1010.36,-287.25 1020.51,-290.28 1020.19,-283.29"/>
</g>
<!-- Node7 -->
<g id="node7" class="node">
<title>Node7</title>
<g id="a_node7"><a xlink:href="processor_8cpp.html" target="_top" xlink:title=" ">
<polygon fill="white" stroke="black" points="1708.55,-0.5 1708.55,-19.5 1791.55,-19.5 1791.55,-0.5 1708.55,-0.5"/>
<text text-anchor="middle" x="1750.05" y="-7.5" font-family="Helvetica,sans-Serif" font-size="10.00">processor.cpp</text>
</a>
</g>
</g>
<!-- Node1&#45;&gt;Node7 -->
<g id="edge60" class="edge">
<title>Node1&#45;&gt;Node7</title>
<path fill="none" stroke="midnightblue" d="M897.86,-287.65C718.3,-283.43 200.9,-269.19 129.05,-244 82.15,-227.56 38.05,-228.7 38.05,-179 38.05,-179 38.05,-179 38.05,-121 38.05,-35.94 134.49,-71.89 218.05,-56 367.87,-27.51 1477.92,-13.96 1708.27,-11.44"/>
<polygon fill="midnightblue" stroke="midnightblue" points="897.85,-291.15 907.93,-287.89 898.02,-284.16 897.85,-291.15"/>
</g>
<!-- Node8 -->
<g id="node8" class="node">
<title>Node8</title>
<g id="a_node8"><a xlink:href="server_8cpp.html" target="_top" xlink:title=" ">
<polygon fill="white" stroke="black" points="2179.55,-56.5 2179.55,-75.5 2246.55,-75.5 2246.55,-56.5 2179.55,-56.5"/>
<text text-anchor="middle" x="2213.05" y="-63.5" font-family="Helvetica,sans-Serif" font-size="10.00">server.cpp</text>
</a>
</g>
</g>
<!-- Node1&#45;&gt;Node8 -->
<g id="edge68" class="edge">
<title>Node1&#45;&gt;Node8</title>
<path fill="none" stroke="midnightblue" d="M1020.58,-288.08C1245.92,-284.49 2018.6,-270.39 2126.05,-244 2182.43,-230.15 2211.3,-235.93 2244.05,-188 2263.14,-160.07 2259.03,-143.99 2248.05,-112 2243.04,-97.4 2231.14,-83.88 2222.61,-75.55"/>
<polygon fill="midnightblue" stroke="midnightblue" points="1020.21,-284.58 1010.27,-288.24 1020.32,-291.58 1020.21,-284.58"/>
</g>
<!-- Node9 -->
<g id="node9" class="node">
<title>Node9</title>
<g id="a_node9"><a xlink:href="user_8cpp.html" target="_top" xlink:title=" ">
<polygon fill="white" stroke="black" points="913.55,-56.5 913.55,-75.5 970.55,-75.5 970.55,-56.5 913.55,-56.5"/>
<text text-anchor="middle" x="942.05" y="-63.5" font-family="Helvetica,sans-Serif" font-size="10.00">user.cpp</text>
</a>
</g>
</g>
<!-- Node1&#45;&gt;Node9 -->
<g id="edge88" class="edge">
<title>Node1&#45;&gt;Node9</title>
<path fill="none" stroke="midnightblue" d="M928.79,-276.49C910.13,-268.27 886.03,-256.7 866.05,-244 832.72,-222.81 819.87,-220.24 797.05,-188 781.78,-166.43 781.56,-158.04 777.05,-132 775.54,-123.24 771.66,-119.06 777.05,-112 793.54,-90.41 870.77,-76.69 913.48,-70.62"/>
<polygon fill="midnightblue" stroke="midnightblue" points="927.44,-279.72 938,-280.48 930.22,-273.29 927.44,-279.72"/>
</g>
<!-- Node10 -->
<g id="node10" class="node">
<title>Node10</title>
<g id="a_node10"><a xlink:href="client__handler_8hpp.html" target="_top" xlink:title=" ">
<polygon fill="white" stroke="black" points="1036.05,-112.5 1036.05,-131.5 1142.05,-131.5 1142.05,-112.5 1036.05,-112.5"/>
<text text-anchor="middle" x="1089.05" y="-119.5" font-family="Helvetica,sans-Serif" font-size="10.00">client_handler.hpp</text>
</a>
</g>
</g>
<!-- Node1&#45;&gt;Node10 -->
<g id="edge11" class="edge">
<title>Node1&#45;&gt;Node10</title>
<path fill="none" stroke="midnightblue" d="M967.28,-271.11C979.26,-246.27 1003.23,-200.69 1032.05,-168 1044.89,-153.44 1062.91,-140.11 1075.23,-131.8"/>
<polygon fill="midnightblue" stroke="midnightblue" points="964.01,-269.85 962.91,-280.39 970.34,-272.84 964.01,-269.85"/>
</g>
<!-- Node11 -->
<g id="node11" class="node">
<title>Node11</title>
<g id="a_node11"><a xlink:href="server__handler_8hpp.html" target="_top" xlink:title=" ">
<polygon fill="white" stroke="black" points="486.05,-56.5 486.05,-75.5 596.05,-75.5 596.05,-56.5 486.05,-56.5"/>
<text text-anchor="middle" x="541.05" y="-63.5" font-family="Helvetica,sans-Serif" font-size="10.00">server_handler.hpp</text>
</a>
</g>
</g>
<!-- Node1&#45;&gt;Node11 -->
<g id="edge79" class="edge">
<title>Node1&#45;&gt;Node11</title>
<path fill="none" stroke="midnightblue" d="M897.76,-287.09C771.87,-282.69 488.19,-270.12 395.05,-244 341.85,-229.08 313.02,-235.06 284.05,-188 235.45,-109.05 396.83,-80.8 486,-71.36"/>
<polygon fill="midnightblue" stroke="midnightblue" points="897.88,-290.6 908,-287.44 898.12,-283.6 897.88,-290.6"/>
</g>
<!-- Node12 -->
<g id="node12" class="node">
<title>Node12</title>
<g id="a_node12"><a xlink:href="main_8cpp.html" target="_top" xlink:title=" ">
<polygon fill="white" stroke="black" points="510.05,-0.5 510.05,-19.5 572.05,-19.5 572.05,-0.5 510.05,-0.5"/>
<text text-anchor="middle" x="541.05" y="-7.5" font-family="Helvetica,sans-Serif" font-size="10.00">main.cpp</text>
</a>
</g>
</g>
<!-- Node1&#45;&gt;Node12 -->
<g id="edge14" class="edge">
<title>Node1&#45;&gt;Node12</title>
<path fill="none" stroke="midnightblue" d="M897.88,-287.9C695.62,-284.03 59.3,-269.84 24.05,-244 -0.78,-225.79 0.05,-209.8 0.05,-179 0.05,-179 0.05,-179 0.05,-121 0.05,-90.2 -0.43,-74.68 24.05,-56 62.73,-26.48 404.2,-14.74 509.96,-11.79"/>
<polygon fill="midnightblue" stroke="midnightblue" points="897.96,-291.4 908.03,-288.09 898.1,-284.4 897.96,-291.4"/>
</g>
<!-- Node13 -->
<g id="node13" class="node">
<title>Node13</title>
<g id="a_node13"><a xlink:href="message_8cpp.html" target="_top" xlink:title=" ">
<polygon fill="white" stroke="black" points="1390.55,-168.5 1390.55,-187.5 1471.55,-187.5 1471.55,-168.5 1390.55,-168.5"/>
<text text-anchor="middle" x="1431.05" y="-175.5" font-family="Helvetica,sans-Serif" font-size="10.00">message.cpp</text>
</a>
</g>
</g>
<!-- Node1&#45;&gt;Node13 -->
<g id="edge15" class="edge">
<title>Node1&#45;&gt;Node13</title>
<path fill="none" stroke="midnightblue" d="M1020.47,-279.18C1069.58,-270.94 1140.06,-258.26 1201.05,-244 1275.2,-226.67 1361.22,-200.79 1404,-187.52"/>
<polygon fill="midnightblue" stroke="midnightblue" points="1019.61,-275.77 1010.32,-280.87 1020.76,-282.68 1019.61,-275.77"/>
</g>
<!-- Node14 -->
<g id="node14" class="node">
<title>Node14</title>
<g id="a_node14"><a xlink:href="message_8hpp.html" target="_top" xlink:title=" ">
<polygon fill="white" stroke="black" points="1110.05,-224.5 1110.05,-243.5 1192.05,-243.5 1192.05,-224.5 1110.05,-224.5"/>
<text text-anchor="middle" x="1151.05" y="-231.5" font-family="Helvetica,sans-Serif" font-size="10.00">message.hpp</text>
</a>
</g>
</g>
<!-- Node1&#45;&gt;Node14 -->
<g id="edge16" class="edge">
<title>Node1&#45;&gt;Node14</title>
<path fill="none" stroke="midnightblue" d="M999.23,-277.7C1035.47,-267.51 1087.97,-252.74 1120.77,-243.52"/>
<polygon fill="midnightblue" stroke="midnightblue" points="998.15,-274.37 989.48,-280.44 1000.05,-281.11 998.15,-274.37"/>
</g>
<!-- Node15 -->
<g id="node15" class="node">
<title>Node15</title>
<g id="a_node15"><a xlink:href="message__decoder_8hpp.html" target="_top" xlink:title=" ">
<polygon fill="white" stroke="black" points="292.55,-168.5 292.55,-187.5 417.55,-187.5 417.55,-168.5 292.55,-168.5"/>
<text text-anchor="middle" x="355.05" y="-175.5" font-family="Helvetica,sans-Serif" font-size="10.00">message_decoder.hpp</text>
</a>
</g>
</g>
<!-- Node1&#45;&gt;Node15 -->
<g id="edge58" class="edge">
<title>Node1&#45;&gt;Node15</title>
<path fill="none" stroke="midnightblue" d="M897.75,-288.4C777.41,-286.46 514.78,-278.31 432.05,-244 401.67,-231.4 374.39,-202.25 362.03,-187.66"/>
<polygon fill="midnightblue" stroke="midnightblue" points="897.85,-291.9 907.9,-288.55 897.96,-284.9 897.85,-291.9"/>
</g>
<!-- Node16 -->
<g id="node16" class="node">
<title>Node16</title>
<g id="a_node16"><a xlink:href="message__encoder_8hpp.html" target="_top" xlink:title=" ">
<polygon fill="white" stroke="black" points="474.55,-168.5 474.55,-187.5 599.55,-187.5 599.55,-168.5 474.55,-168.5"/>
<text text-anchor="middle" x="537.05" y="-175.5" font-family="Helvetica,sans-Serif" font-size="10.00">message_encoder.hpp</text>
</a>
</g>
</g>
<!-- Node1&#45;&gt;Node16 -->
<g id="edge59" class="edge">
<title>Node1&#45;&gt;Node16</title>
<path fill="none" stroke="midnightblue" d="M897.96,-279.33C851.32,-271.4 785.65,-259.05 729.05,-244 666.47,-227.36 594.66,-201.06 559.22,-187.58"/>
<polygon fill="midnightblue" stroke="midnightblue" points="897.46,-282.8 907.91,-281 898.63,-275.89 897.46,-282.8"/>
</g>
<!-- Node17 -->
<g id="node17" class="node">
<title>Node17</title>
<g id="a_node17"><a xlink:href="processor_8hpp.html" target="_top" xlink:title=" ">
<polygon fill="white" stroke="black" points="1756.05,-168.5 1756.05,-187.5 1840.05,-187.5 1840.05,-168.5 1756.05,-168.5"/>
<text text-anchor="middle" x="1798.05" y="-175.5" font-family="Helvetica,sans-Serif" font-size="10.00">processor.hpp</text>
</a>
</g>
</g>
<!-- Node1&#45;&gt;Node17 -->
<g id="edge61" class="edge">
<title>Node1&#45;&gt;Node17</title>
<path fill="none" stroke="midnightblue" d="M1020.49,-289.1C1198.26,-288.91 1704.45,-284.76 1766.05,-244 1785.77,-230.95 1793.79,-202.01 1796.65,-187.56"/>
<polygon fill="midnightblue" stroke="midnightblue" points="1020.26,-285.6 1010.26,-289.11 1020.27,-292.6 1020.26,-285.6"/>
</g>
<!-- Node18 -->
<g id="node18" class="node">
<title>Node18</title>
<g id="a_node18"><a xlink:href="processor__misc_8hpp.html" target="_top" xlink:title=" ">
<polygon fill="white" stroke="black" points="2033.55,-112.5 2033.55,-131.5 2146.55,-131.5 2146.55,-112.5 2033.55,-112.5"/>
<text text-anchor="middle" x="2090.05" y="-119.5" font-family="Helvetica,sans-Serif" font-size="10.00">processor_misc.hpp</text>
</a>
</g>
</g>
<!-- Node1&#45;&gt;Node18 -->
<g id="edge63" class="edge">
<title>Node1&#45;&gt;Node18</title>
<path fill="none" stroke="midnightblue" d="M1020.22,-289.26C1195.37,-289.49 1696.31,-286.3 1854.05,-244 1946.55,-219.19 2044.54,-154.82 2078.03,-131.55"/>
<polygon fill="midnightblue" stroke="midnightblue" points="1020.15,-285.76 1010.15,-289.24 1020.14,-292.76 1020.15,-285.76"/>
</g>
<!-- Node19 -->
<g id="node19" class="node">
<title>Node19</title>
<g id="a_node19"><a xlink:href="processor__register_8hpp.html" target="_top" xlink:title=" ">
<polygon fill="white" stroke="black" points="1849.55,-112.5 1849.55,-131.5 1976.55,-131.5 1976.55,-112.5 1849.55,-112.5"/>
<text text-anchor="middle" x="1913.05" y="-119.5" font-family="Helvetica,sans-Serif" font-size="10.00">processor_register.hpp</text>
</a>
</g>
</g>
<!-- Node1&#45;&gt;Node19 -->
<g id="edge64" class="edge">
<title>Node1&#45;&gt;Node19</title>
<path fill="none" stroke="midnightblue" d="M1020.31,-288.35C1205.79,-286.03 1753.03,-276.49 1826.05,-244 1875.46,-222.02 1902.18,-155.28 1910.33,-131.52"/>
<polygon fill="midnightblue" stroke="midnightblue" points="1020.14,-284.85 1010.19,-288.47 1020.23,-291.85 1020.14,-284.85"/>
</g>
<!-- Node20 -->
<g id="node20" class="node">
<title>Node20</title>
<g id="a_node20"><a xlink:href="processor__send__message_8hpp.html" target="_top" xlink:title=" ">
<polygon fill="white" stroke="black" points="1668.55,-112.5 1668.55,-131.5 1831.55,-131.5 1831.55,-112.5 1668.55,-112.5"/>
<text text-anchor="middle" x="1750.05" y="-119.5" font-family="Helvetica,sans-Serif" font-size="10.00">processor_send_message.hpp</text>
</a>
</g>
</g>
<!-- Node1&#45;&gt;Node20 -->
<g id="edge65" class="edge">
<title>Node1&#45;&gt;Node20</title>
<path fill="none" stroke="midnightblue" d="M1020.18,-287.68C1199.56,-283.53 1716.4,-269.47 1788.05,-244 1833.36,-227.9 1892.16,-207.72 1865.05,-168 1852,-148.88 1829.49,-137.88 1807.83,-131.55"/>
<polygon fill="midnightblue" stroke="midnightblue" points="1020.04,-284.18 1010.12,-287.91 1020.2,-291.18 1020.04,-284.18"/>
</g>
<!-- Node21 -->
<g id="node21" class="node">
<title>Node21</title>
<g id="a_node21"><a xlink:href="processor__user_8hpp.html" target="_top" xlink:title=" ">
<polygon fill="white" stroke="black" points="1464.05,-112.5 1464.05,-131.5 1574.05,-131.5 1574.05,-112.5 1464.05,-112.5"/>
<text text-anchor="middle" x="1519.05" y="-119.5" font-family="Helvetica,sans-Serif" font-size="10.00">processor_user.hpp</text>
</a>
</g>
</g>
<!-- Node1&#45;&gt;Node21 -->
<g id="edge66" class="edge">
<title>Node1&#45;&gt;Node21</title>
<path fill="none" stroke="midnightblue" d="M1020.45,-288.95C1164.84,-288.2 1516.45,-282.4 1552.05,-244 1575.02,-219.23 1562.56,-200.1 1552.05,-168 1547.35,-153.64 1536.12,-140.07 1528.07,-131.66"/>
<polygon fill="midnightblue" stroke="midnightblue" points="1020.41,-285.45 1010.42,-289 1020.44,-292.45 1020.41,-285.45"/>
</g>
<!-- Node22 -->
<g id="node22" class="node">
<title>Node22</title>
<g id="a_node22"><a xlink:href="reply_8hpp.html" target="_top" xlink:title=" ">
<polygon fill="white" stroke="black" points="1120.55,-168.5 1120.55,-187.5 1181.55,-187.5 1181.55,-168.5 1120.55,-168.5"/>
<text text-anchor="middle" x="1151.05" y="-175.5" font-family="Helvetica,sans-Serif" font-size="10.00">reply.hpp</text>
</a>
</g>
</g>
<!-- Node1&#45;&gt;Node22 -->
<g id="edge67" class="edge">
<title>Node1&#45;&gt;Node22</title>
<path fill="none" stroke="midnightblue" d="M982.96,-275.3C1023.1,-252.3 1102.89,-206.59 1136.06,-187.59"/>
<polygon fill="midnightblue" stroke="midnightblue" points="981.06,-272.36 974.12,-280.37 984.53,-278.43 981.06,-272.36"/>
</g>
<!-- Node23 -->
<g id="node23" class="node">
<title>Node23</title>
<g id="a_node23"><a xlink:href="string__line__encoder_8hpp.html" target="_top" xlink:title=" ">
<polygon fill="white" stroke="black" points="618.05,-168.5 618.05,-187.5 750.05,-187.5 750.05,-168.5 618.05,-168.5"/>
<text text-anchor="middle" x="684.05" y="-175.5" font-family="Helvetica,sans-Serif" font-size="10.00">string_line_encoder.hpp</text>
</a>
</g>
</g>
<!-- Node1&#45;&gt;Node23 -->
<g id="edge83" class="edge">
<title>Node1&#45;&gt;Node23</title>
<path fill="none" stroke="midnightblue" d="M897.58,-282.11C857.94,-275.94 806.12,-264.56 764.05,-244 734.15,-229.39 705.47,-201.69 692.02,-187.64"/>
<polygon fill="midnightblue" stroke="midnightblue" points="897.24,-285.6 907.64,-283.61 898.27,-278.68 897.24,-285.6"/>
</g>
<!-- Node24 -->
<g id="node24" class="node">
<title>Node24</title>
<g id="a_node24"><a xlink:href="server_8hpp.html" target="_top" xlink:title=" ">
<polygon fill="white" stroke="black" points="806.05,-168.5 806.05,-187.5 874.05,-187.5 874.05,-168.5 806.05,-168.5"/>
<text text-anchor="middle" x="840.05" y="-175.5" font-family="Helvetica,sans-Serif" font-size="10.00">server.hpp</text>
</a>
</g>
</g>
<!-- Node1&#45;&gt;Node24 -->
<g id="edge69" class="edge">
<title>Node1&#45;&gt;Node24</title>
<path fill="none" stroke="midnightblue" d="M932.96,-275.57C918.78,-267.54 901.46,-256.48 888.05,-244 869.37,-226.6 852.99,-201.09 845.08,-187.79"/>
<polygon fill="midnightblue" stroke="midnightblue" points="931.31,-278.66 941.76,-280.4 934.67,-272.52 931.31,-278.66"/>
</g>
<!-- Node25 -->
<g id="node25" class="node">
<title>Node25</title>
<g id="a_node25"><a xlink:href="string__line__decoder_8hpp.html" target="_top" xlink:title=" ">
<polygon fill="white" stroke="black" points="104.05,-168.5 104.05,-187.5 236.05,-187.5 236.05,-168.5 104.05,-168.5"/>
<text text-anchor="middle" x="170.05" y="-175.5" font-family="Helvetica,sans-Serif" font-size="10.00">string_line_decoder.hpp</text>
</a>
</g>
</g>
<!-- Node1&#45;&gt;Node25 -->
<g id="edge80" class="edge">
<title>Node1&#45;&gt;Node25</title>
<path fill="none" stroke="midnightblue" d="M897.79,-287.25C736.69,-282.33 309.52,-267.26 250.05,-244 218.72,-231.74 190.26,-202.43 177.36,-187.73"/>
<polygon fill="midnightblue" stroke="midnightblue" points="897.9,-290.75 908.01,-287.56 898.12,-283.75 897.9,-290.75"/>
</g>
<!-- Node26 -->
<g id="node26" class="node">
<title>Node26</title>
<g id="a_node26"><a xlink:href="string__utils_8hpp.html" target="_top" xlink:title=" ">
<polygon fill="white" stroke="black" points="2124.05,-168.5 2124.05,-187.5 2216.05,-187.5 2216.05,-168.5 2124.05,-168.5"/>
<text text-anchor="middle" x="2170.05" y="-175.5" font-family="Helvetica,sans-Serif" font-size="10.00">string_utils.hpp</text>
</a>
</g>
</g>
<!-- Node1&#45;&gt;Node26 -->
<g id="edge84" class="edge">
<title>Node1&#45;&gt;Node26</title>
<path fill="none" stroke="midnightblue" d="M1020.48,-288.98C1242.74,-288.6 1997.16,-284.31 2097.05,-244 2126.64,-232.06 2152.14,-202.6 2163.6,-187.8"/>
<polygon fill="midnightblue" stroke="midnightblue" points="1020.3,-285.48 1010.31,-289 1020.31,-292.48 1020.3,-285.48"/>
</g>
<!-- Node27 -->
<g id="node27" class="node">
<title>Node27</title>
<g id="a_node27"><a xlink:href="user_8hpp.html" target="_top" xlink:title=" ">
<polygon fill="white" stroke="black" points="1699.05,-224.5 1699.05,-243.5 1757.05,-243.5 1757.05,-224.5 1699.05,-224.5"/>
<text text-anchor="middle" x="1728.05" y="-231.5" font-family="Helvetica,sans-Serif" font-size="10.00">user.hpp</text>
</a>
</g>
</g>
<!-- Node1&#45;&gt;Node27 -->
<g id="edge89" class="edge">
<title>Node1&#45;&gt;Node27</title>
<path fill="none" stroke="midnightblue" d="M1020.54,-285.33C1138.44,-278.19 1404.44,-261.58 1628.05,-244 1651.86,-242.13 1678.82,-239.68 1698.75,-237.81"/>
<polygon fill="midnightblue" stroke="midnightblue" points="1020.05,-281.85 1010.28,-285.95 1020.47,-288.84 1020.05,-281.85"/>
</g>
<!-- Node2&#45;&gt;Node3 -->
<g id="edge2" class="edge">
<title>Node2&#45;&gt;Node3</title>
<path fill="none" stroke="midnightblue" d="M424.03,-109.7C387.04,-99.51 333.45,-84.74 299.96,-75.52"/>
<polygon fill="midnightblue" stroke="midnightblue" points="423.43,-113.16 434,-112.44 425.28,-106.41 423.43,-113.16"/>
</g>
<!-- Node5&#45;&gt;Node4 -->
<g id="edge6" class="edge">
<title>Node5&#45;&gt;Node4</title>
<path fill="none" stroke="midnightblue" d="M979.53,-109.44C1012.52,-99.26 1059.81,-84.66 1089.45,-75.52"/>
<polygon fill="midnightblue" stroke="midnightblue" points="978.3,-106.15 969.78,-112.44 980.37,-112.84 978.3,-106.15"/>
</g>
<!-- Node5&#45;&gt;Node6 -->
<g id="edge7" class="edge">
<title>Node5&#45;&gt;Node6</title>
<path fill="none" stroke="midnightblue" d="M990.18,-112.55C991.48,-112.36 992.78,-112.18 994.05,-112 1127.97,-93.62 1285.67,-79.31 1371.84,-72.12"/>
<polygon fill="midnightblue" stroke="midnightblue" points="989.41,-109.12 980.06,-114.11 990.48,-116.04 989.41,-109.12"/>
</g>
<!-- Node5&#45;&gt;Node8 -->
<g id="edge9" class="edge">
<title>Node5&#45;&gt;Node8</title>
<path fill="none" stroke="midnightblue" d="M990.24,-112.43C991.53,-112.27 992.8,-112.13 994.05,-112 1462.17,-63.07 2036.25,-65.18 2179.49,-66.59"/>
<polygon fill="midnightblue" stroke="midnightblue" points="989.75,-108.96 980.31,-113.78 990.69,-115.9 989.75,-108.96"/>
</g>
<!-- Node5&#45;&gt;Node9 -->
<g id="edge10" class="edge">
<title>Node5&#45;&gt;Node9</title>
<path fill="none" stroke="midnightblue" d="M942.05,-101.8C942.05,-92.91 942.05,-82.78 942.05,-75.75"/>
<polygon fill="midnightblue" stroke="midnightblue" points="938.55,-102.08 942.05,-112.08 945.55,-102.08 938.55,-102.08"/>
</g>
<!-- Node6&#45;&gt;Node7 -->
<g id="edge8" class="edge">
<title>Node6&#45;&gt;Node7</title>
<path fill="none" stroke="midnightblue" d="M1495.86,-54.72C1557.96,-44.03 1653.53,-27.6 1708.07,-18.22"/>
<polygon fill="midnightblue" stroke="midnightblue" points="1495.07,-51.3 1485.81,-56.44 1496.26,-58.2 1495.07,-51.3"/>
</g>
<!-- Node10&#45;&gt;Node11 -->
<g id="edge12" class="edge">
<title>Node10&#45;&gt;Node11</title>
<path fill="none" stroke="midnightblue" d="M1025.89,-114.78C917.67,-104.11 698.57,-82.52 596.15,-72.43"/>
<polygon fill="midnightblue" stroke="midnightblue" points="1025.71,-118.28 1036.01,-115.77 1026.4,-111.31 1025.71,-118.28"/>
</g>
<!-- Node11&#45;&gt;Node12 -->
<g id="edge13" class="edge">
<title>Node11&#45;&gt;Node12</title>
<path fill="none" stroke="midnightblue" d="M541.05,-45.8C541.05,-36.91 541.05,-26.78 541.05,-19.75"/>
<polygon fill="midnightblue" stroke="midnightblue" points="537.55,-46.08 541.05,-56.08 544.55,-46.08 537.55,-46.08"/>
</g>
<!-- Node14&#45;&gt;Node4 -->
<g id="edge17" class="edge">
<title>Node14&#45;&gt;Node4</title>
<path fill="none" stroke="midnightblue" d="M1131.49,-217.7C1117.06,-204.49 1101.6,-184.91 1112.05,-168 1130.86,-137.57 1165.24,-162.43 1184.05,-132 1188.73,-124.44 1188.23,-119.84 1184.05,-112 1174.76,-94.56 1155.38,-82.68 1139.84,-75.53"/>
<polygon fill="midnightblue" stroke="midnightblue" points="1129.36,-220.49 1139.23,-224.33 1133.91,-215.17 1129.36,-220.49"/>
</g>
<!-- Node14&#45;&gt;Node6 -->
<g id="edge39" class="edge">
<title>Node14&#45;&gt;Node6</title>
<path fill="none" stroke="midnightblue" d="M1166.15,-216.91C1180.14,-202.68 1202.05,-182.05 1224.05,-168 1257.94,-146.36 1270.64,-149.05 1307.05,-132 1348.16,-112.75 1395.62,-88.23 1419.91,-75.51"/>
<polygon fill="midnightblue" stroke="midnightblue" points="1163.3,-214.82 1158.88,-224.46 1168.34,-219.68 1163.3,-214.82"/>
</g>
<!-- Node14&#45;&gt;Node9 -->
<g id="edge57" class="edge">
<title>Node14&#45;&gt;Node9</title>
<path fill="none" stroke="midnightblue" d="M1128.75,-218.4C1112.5,-205.8 1094.81,-186.71 1104.05,-168 1115.7,-144.41 1139.4,-155.59 1151.05,-132 1154.99,-124.03 1156.64,-118.92 1151.05,-112 1128.72,-84.35 1022.85,-72.89 970.92,-68.87"/>
<polygon fill="midnightblue" stroke="midnightblue" points="1126.82,-221.32 1136.97,-224.36 1130.94,-215.66 1126.82,-221.32"/>
</g>
<!-- Node14&#45;&gt;Node10 -->
<g id="edge18" class="edge">
<title>Node14&#45;&gt;Node10</title>
<path fill="none" stroke="midnightblue" d="M1100.03,-225.34C1077.7,-219.18 1053.56,-208.06 1040.05,-188 1026,-167.14 1055.18,-143.86 1074.26,-131.62"/>
<polygon fill="midnightblue" stroke="midnightblue" points="1099.23,-228.75 1109.78,-227.76 1100.92,-221.96 1099.23,-228.75"/>
</g>
<!-- Node14&#45;&gt;Node13 -->
<g id="edge19" class="edge">
<title>Node14&#45;&gt;Node13</title>
<path fill="none" stroke="midnightblue" d="M1202.13,-223.15C1256.25,-212.71 1340.6,-196.44 1390.38,-186.84"/>
<polygon fill="midnightblue" stroke="midnightblue" points="1201.22,-219.76 1192.07,-225.09 1202.55,-226.63 1201.22,-219.76"/>
</g>
<!-- Node14&#45;&gt;Node15 -->
<g id="edge20" class="edge">
<title>Node14&#45;&gt;Node15</title>
<path fill="none" stroke="midnightblue" d="M1099.54,-229.89C985.41,-222.93 702.63,-205.36 466.05,-188 450.34,-186.85 433.38,-185.52 417.56,-184.24"/>
<polygon fill="midnightblue" stroke="midnightblue" points="1099.53,-233.39 1109.73,-230.51 1099.96,-226.41 1099.53,-233.39"/>
</g>
<!-- Node14&#45;&gt;Node16 -->
<g id="edge23" class="edge">
<title>Node14&#45;&gt;Node16</title>
<path fill="none" stroke="midnightblue" d="M1099.82,-229.46C1003.55,-222.65 789.15,-206.72 609.05,-188 606.05,-187.69 602.97,-187.35 599.86,-187.01"/>
<polygon fill="midnightblue" stroke="midnightblue" points="1099.64,-232.95 1109.86,-230.17 1100.13,-225.97 1099.64,-232.95"/>
</g>
<!-- Node14&#45;&gt;Node17 -->
<g id="edge26" class="edge">
<title>Node14&#45;&gt;Node17</title>
<path fill="none" stroke="midnightblue" d="M1202.53,-228.7C1326.8,-218.33 1641.35,-192.08 1755.68,-182.54"/>
<polygon fill="midnightblue" stroke="midnightblue" points="1202.18,-225.22 1192.51,-229.54 1202.77,-232.2 1202.18,-225.22"/>
</g>
<!-- Node14&#45;&gt;Node18 -->
<g id="edge40" class="edge">
<title>Node14&#45;&gt;Node18</title>
<path fill="none" stroke="midnightblue" d="M1200.17,-222.29C1246.63,-211.96 1312.9,-196.65 1338.05,-188 1358.36,-181.01 1361.2,-173.17 1382.05,-168 1643.07,-103.27 1717.85,-151.59 1986.05,-132 2001.42,-130.88 2018.04,-129.51 2033.4,-128.18"/>
<polygon fill="midnightblue" stroke="midnightblue" points="1199.29,-218.9 1190.28,-224.48 1200.8,-225.74 1199.29,-218.9"/>
</g>
<!-- Node14&#45;&gt;Node19 -->
<g id="edge41" class="edge">
<title>Node14&#45;&gt;Node19</title>
<path fill="none" stroke="midnightblue" d="M1192.49,-221.71C1222.59,-213.21 1264.17,-200.86 1300.05,-188 1321.81,-180.2 1325.57,-173.36 1348.05,-168 1561.77,-117.09 1622.43,-153.63 1841.05,-132 1843.81,-131.73 1846.63,-131.43 1849.47,-131.13"/>
<polygon fill="midnightblue" stroke="midnightblue" points="1191.43,-218.37 1182.75,-224.44 1193.32,-225.11 1191.43,-218.37"/>
</g>
<!-- Node14&#45;&gt;Node20 -->
<g id="edge42" class="edge">
<title>Node14&#45;&gt;Node20</title>
<path fill="none" stroke="midnightblue" d="M1182.38,-220.61C1204.88,-211.66 1235.89,-199.23 1263.05,-188 1284.03,-179.32 1288.07,-173.66 1310.05,-168 1375.77,-151.07 1560.48,-136.07 1668.55,-128.4"/>
<polygon fill="midnightblue" stroke="midnightblue" points="1181,-217.39 1173,-224.34 1183.58,-223.9 1181,-217.39"/>
</g>
<!-- Node14&#45;&gt;Node21 -->
<g id="edge43" class="edge">
<title>Node14&#45;&gt;Node21</title>
<path fill="none" stroke="midnightblue" d="M1172.31,-218.91C1195.77,-204.02 1235.09,-180.93 1272.05,-168 1335.82,-145.69 1412.92,-133.9 1463.83,-128.07"/>
<polygon fill="midnightblue" stroke="midnightblue" points="1170.36,-216 1163.86,-224.36 1174.16,-221.88 1170.36,-216"/>
</g>
<!-- Node14&#45;&gt;Node22 -->
<g id="edge44" class="edge">
<title>Node14&#45;&gt;Node22</title>
<path fill="none" stroke="midnightblue" d="M1151.05,-213.8C1151.05,-204.91 1151.05,-194.78 1151.05,-187.75"/>
<polygon fill="midnightblue" stroke="midnightblue" points="1147.55,-214.08 1151.05,-224.08 1154.55,-214.08 1147.55,-214.08"/>
</g>
<!-- Node14&#45;&gt;Node23 -->
<g id="edge54" class="edge">
<title>Node14&#45;&gt;Node23</title>
<path fill="none" stroke="midnightblue" d="M1099.83,-227.08C1014.77,-217.24 844.46,-197.55 750.35,-186.67"/>
<polygon fill="midnightblue" stroke="midnightblue" points="1099.68,-230.58 1110.02,-228.26 1100.49,-223.63 1099.68,-230.58"/>
</g>
<!-- Node15&#45;&gt;Node2 -->
<g id="edge21" class="edge">
<title>Node15&#45;&gt;Node2</title>
<path fill="none" stroke="midnightblue" d="M381.81,-163.86C402.21,-153.85 429.72,-140.35 447.42,-131.65"/>
<polygon fill="midnightblue" stroke="midnightblue" points="380.16,-160.78 372.73,-168.32 383.24,-167.06 380.16,-160.78"/>
</g>
<!-- Node15&#45;&gt;Node11 -->
<g id="edge22" class="edge">
<title>Node15&#45;&gt;Node11</title>
<path fill="none" stroke="midnightblue" d="M365.66,-159.49C375.31,-144.9 390.81,-124.56 409.05,-112 435.57,-93.74 470.17,-82.3 497.28,-75.53"/>
<polygon fill="midnightblue" stroke="midnightblue" points="362.59,-157.78 360.19,-168.1 368.5,-161.54 362.59,-157.78"/>
</g>
<!-- Node16&#45;&gt;Node2 -->
<g id="edge24" class="edge">
<title>Node16&#45;&gt;Node2</title>
<path fill="none" stroke="midnightblue" d="M517.19,-162.1C504.23,-152.38 487.75,-140.03 476.83,-131.83"/>
<polygon fill="midnightblue" stroke="midnightblue" points="515.38,-165.12 525.48,-168.32 519.58,-159.52 515.38,-165.12"/>
</g>
<!-- Node16&#45;&gt;Node11 -->
<g id="edge25" class="edge">
<title>Node16&#45;&gt;Node11</title>
<path fill="none" stroke="midnightblue" d="M537.73,-158.35C538.61,-134.25 540.1,-93.31 540.74,-75.59"/>
<polygon fill="midnightblue" stroke="midnightblue" points="534.23,-158.25 537.37,-168.37 541.23,-158.5 534.23,-158.25"/>
</g>
<!-- Node17&#45;&gt;Node2 -->
<g id="edge27" class="edge">
<title>Node17&#45;&gt;Node2</title>
<path fill="none" stroke="midnightblue" d="M1745.9,-174.89C1531.35,-166.2 718.42,-133.26 512.62,-124.93"/>
<polygon fill="midnightblue" stroke="midnightblue" points="1745.82,-178.39 1755.96,-175.29 1746.11,-171.39 1745.82,-178.39"/>
</g>
<!-- Node17&#45;&gt;Node6 -->
<g id="edge30" class="edge">
<title>Node17&#45;&gt;Node6</title>
<path fill="none" stroke="midnightblue" d="M1758.88,-165.5C1731.03,-157.02 1692.89,-144.77 1660.05,-132 1640.03,-124.21 1636.33,-119.08 1616.05,-112 1570.43,-96.08 1516.48,-83.37 1479.61,-75.57"/>
<polygon fill="midnightblue" stroke="midnightblue" points="1758.06,-168.91 1768.64,-168.45 1760.08,-162.21 1758.06,-168.91"/>
</g>
<!-- Node17&#45;&gt;Node7 -->
<g id="edge29" class="edge">
<title>Node17&#45;&gt;Node7</title>
<path fill="none" stroke="midnightblue" d="M1850.11,-171.71C1899.76,-165.46 1969.38,-153.14 1986.05,-132 1991.56,-125.02 1990.95,-119.42 1986.05,-112 1942.73,-46.34 1846.97,-23.21 1791.66,-15.18"/>
<polygon fill="midnightblue" stroke="midnightblue" points="1849.66,-168.24 1840.15,-172.91 1850.5,-175.18 1849.66,-168.24"/>
</g>
<!-- Node17&#45;&gt;Node10 -->
<g id="edge28" class="edge">
<title>Node17&#45;&gt;Node10</title>
<path fill="none" stroke="midnightblue" d="M1745.65,-173.01C1614.71,-163.04 1274.26,-137.11 1142.35,-127.06"/>
<polygon fill="midnightblue" stroke="midnightblue" points="1745.59,-176.51 1755.82,-173.78 1746.12,-169.53 1745.59,-176.51"/>
</g>
<!-- Node17&#45;&gt;Node18 -->
<g id="edge31" class="edge">
<title>Node17&#45;&gt;Node18</title>
<path fill="none" stroke="midnightblue" d="M1850.11,-167.37C1905.23,-157.18 1991.37,-141.25 2044.06,-131.5"/>
<polygon fill="midnightblue" stroke="midnightblue" points="1849.4,-163.95 1840.2,-169.21 1850.67,-170.83 1849.4,-163.95"/>
</g>
<!-- Node17&#45;&gt;Node19 -->
<g id="edge33" class="edge">
<title>Node17&#45;&gt;Node19</title>
<path fill="none" stroke="midnightblue" d="M1825.53,-164.1C1847.02,-154.01 1876.27,-140.27 1894.92,-131.52"/>
<polygon fill="midnightblue" stroke="midnightblue" points="1823.84,-161.02 1816.27,-168.44 1826.81,-167.36 1823.84,-161.02"/>
</g>
<!-- Node17&#45;&gt;Node20 -->
<g id="edge35" class="edge">
<title>Node17&#45;&gt;Node20</title>
<path fill="none" stroke="midnightblue" d="M1783.32,-160.43C1774.91,-150.97 1764.7,-139.48 1757.83,-131.75"/>
<polygon fill="midnightblue" stroke="midnightblue" points="1780.87,-162.93 1790.13,-168.08 1786.1,-158.28 1780.87,-162.93"/>
</g>
<!-- Node17&#45;&gt;Node21 -->
<g id="edge37" class="edge">
<title>Node17&#45;&gt;Node21</title>
<path fill="none" stroke="midnightblue" d="M1745.84,-166.9C1693.23,-156.71 1612.9,-141.16 1563.31,-131.57"/>
<polygon fill="midnightblue" stroke="midnightblue" points="1745.5,-170.39 1755.98,-168.86 1746.83,-163.52 1745.5,-170.39"/>
</g>
<!-- Node18&#45;&gt;Node7 -->
<g id="edge32" class="edge">
<title>Node18&#45;&gt;Node7</title>
<path fill="none" stroke="midnightblue" d="M2076.61,-104.07C2063.59,-88.92 2042.41,-67.38 2019.05,-56 1944.78,-19.8 1846.77,-12.04 1791.9,-10.77"/>
<polygon fill="midnightblue" stroke="midnightblue" points="2074.22,-106.67 2083.3,-112.13 2079.61,-102.2 2074.22,-106.67"/>
</g>
<!-- Node19&#45;&gt;Node7 -->
<g id="edge34" class="edge">
<title>Node19&#45;&gt;Node7</title>
<path fill="none" stroke="midnightblue" d="M1891.88,-106.71C1857.54,-83.53 1790.7,-38.43 1762.78,-19.59"/>
<polygon fill="midnightblue" stroke="midnightblue" points="1890.01,-109.68 1900.26,-112.37 1893.93,-103.87 1890.01,-109.68"/>
</g>
<!-- Node20&#45;&gt;Node7 -->
<g id="edge36" class="edge">
<title>Node20&#45;&gt;Node7</title>
<path fill="none" stroke="midnightblue" d="M1750.05,-102.35C1750.05,-78.25 1750.05,-37.31 1750.05,-19.59"/>
<polygon fill="midnightblue" stroke="midnightblue" points="1746.55,-102.37 1750.05,-112.37 1753.55,-102.37 1746.55,-102.37"/>
</g>
<!-- Node21&#45;&gt;Node7 -->
<g id="edge38" class="edge">
<title>Node21&#45;&gt;Node7</title>
<path fill="none" stroke="midnightblue" d="M1546.31,-108.02C1594.08,-85.27 1691.69,-38.79 1732.01,-19.59"/>
<polygon fill="midnightblue" stroke="midnightblue" points="1544.7,-104.91 1537.18,-112.37 1547.71,-111.23 1544.7,-104.91"/>
</g>
<!-- Node22&#45;&gt;Node2 -->
<g id="edge45" class="edge">
<title>Node22&#45;&gt;Node2</title>
<path fill="none" stroke="midnightblue" d="M1110.02,-173.77C990.1,-164.33 640.55,-136.81 512.65,-126.75"/>
<polygon fill="midnightblue" stroke="midnightblue" points="1110,-177.28 1120.24,-174.57 1110.55,-170.3 1110,-177.28"/>
</g>
<!-- Node22&#45;&gt;Node4 -->
<g id="edge46" class="edge">
<title>Node22&#45;&gt;Node4</title>
<path fill="none" stroke="midnightblue" d="M1183.36,-164.15C1208.2,-152.27 1236.08,-133.28 1222.05,-112 1207.15,-89.4 1178.29,-78.11 1154.59,-72.49"/>
<polygon fill="midnightblue" stroke="midnightblue" points="1181.75,-161.04 1174.08,-168.35 1184.63,-167.42 1181.75,-161.04"/>
</g>
<!-- Node22&#45;&gt;Node5 -->
<g id="edge47" class="edge">
<title>Node22&#45;&gt;Node5</title>
<path fill="none" stroke="midnightblue" d="M1110.38,-166.49C1070.91,-156.29 1011.74,-141.01 975.09,-131.54"/>
<polygon fill="midnightblue" stroke="midnightblue" points="1109.66,-169.92 1120.21,-169.03 1111.41,-163.14 1109.66,-169.92"/>
</g>
<!-- Node22&#45;&gt;Node6 -->
<g id="edge49" class="edge">
<title>Node22&#45;&gt;Node6</title>
<path fill="none" stroke="midnightblue" d="M1182.85,-164.73C1241.1,-142.25 1363.53,-94.99 1413.79,-75.59"/>
<polygon fill="midnightblue" stroke="midnightblue" points="1181.48,-161.5 1173.42,-168.37 1184.01,-168.03 1181.48,-161.5"/>
</g>
<!-- Node22&#45;&gt;Node10 -->
<g id="edge48" class="edge">
<title>Node22&#45;&gt;Node10</title>
<path fill="none" stroke="midnightblue" d="M1133.3,-161.54C1122.24,-151.91 1108.42,-139.87 1099.19,-131.83"/>
<polygon fill="midnightblue" stroke="midnightblue" points="1131.25,-164.4 1141.09,-168.32 1135.85,-159.12 1131.25,-164.4"/>
</g>
<!-- Node22&#45;&gt;Node18 -->
<g id="edge50" class="edge">
<title>Node22&#45;&gt;Node18</title>
<path fill="none" stroke="midnightblue" d="M1192.21,-174.96C1337.9,-167.71 1828.87,-143.03 1986.05,-132 2001.42,-130.92 2018.05,-129.57 2033.4,-128.24"/>
<polygon fill="midnightblue" stroke="midnightblue" points="1191.74,-171.48 1181.93,-175.47 1192.09,-178.47 1191.74,-171.48"/>
</g>
<!-- Node22&#45;&gt;Node19 -->
<g id="edge51" class="edge">
<title>Node22&#45;&gt;Node19</title>
<path fill="none" stroke="midnightblue" d="M1192.12,-174.64C1320.58,-167.22 1713.77,-144.09 1841.05,-132 1843.81,-131.74 1846.63,-131.45 1849.47,-131.15"/>
<polygon fill="midnightblue" stroke="midnightblue" points="1191.71,-171.16 1181.93,-175.23 1192.11,-178.15 1191.71,-171.16"/>
</g>
<!-- Node22&#45;&gt;Node20 -->
<g id="edge52" class="edge">
<title>Node22&#45;&gt;Node20</title>
<path fill="none" stroke="midnightblue" d="M1191.63,-173.34C1289.18,-164.55 1538.41,-142.08 1668.39,-130.36"/>
<polygon fill="midnightblue" stroke="midnightblue" points="1191.23,-169.86 1181.58,-174.25 1191.85,-176.84 1191.23,-169.86"/>
</g>
<!-- Node22&#45;&gt;Node21 -->
<g id="edge53" class="edge">
<title>Node22&#45;&gt;Node21</title>
<path fill="none" stroke="midnightblue" d="M1191.86,-171.01C1258.19,-161.28 1389.44,-142.02 1463.97,-131.08"/>
<polygon fill="midnightblue" stroke="midnightblue" points="1191.18,-167.57 1181.79,-172.49 1192.2,-174.5 1191.18,-167.57"/>
</g>
<!-- Node23&#45;&gt;Node2 -->
<g id="edge55" class="edge">
<title>Node23&#45;&gt;Node2</title>
<path fill="none" stroke="midnightblue" d="M639.54,-166.02C598.17,-155.82 537.41,-140.84 499.59,-131.52"/>
<polygon fill="midnightblue" stroke="midnightblue" points="638.8,-169.45 649.35,-168.44 640.48,-162.65 638.8,-169.45"/>
</g>
<!-- Node23&#45;&gt;Node11 -->
<g id="edge56" class="edge">
<title>Node23&#45;&gt;Node11</title>
<path fill="none" stroke="midnightblue" d="M664.71,-162.12C634.35,-138.77 576.5,-94.27 552.22,-75.59"/>
<polygon fill="midnightblue" stroke="midnightblue" points="662.77,-165.05 672.83,-168.37 667.04,-159.5 662.77,-165.05"/>
</g>
<!-- Node24&#45;&gt;Node2 -->
<g id="edge70" class="edge">
<title>Node24&#45;&gt;Node2</title>
<path fill="none" stroke="midnightblue" d="M795.81,-170.63C724.79,-160.4 585.93,-140.41 512.77,-129.87"/>
<polygon fill="midnightblue" stroke="midnightblue" points="795.38,-174.1 805.78,-172.06 796.38,-167.18 795.38,-174.1"/>
</g>
<!-- Node24&#45;&gt;Node4 -->
<g id="edge71" class="edge">
<title>Node24&#45;&gt;Node4</title>
<path fill="none" stroke="midnightblue" d="M828.17,-159.46C820.09,-145.14 812.74,-125.19 824.05,-112 840.5,-92.84 1003.92,-76.61 1079.31,-70.08"/>
<polygon fill="midnightblue" stroke="midnightblue" points="825.42,-161.66 833.66,-168.32 831.37,-157.97 825.42,-161.66"/>
</g>
<!-- Node24&#45;&gt;Node6 -->
<g id="edge74" class="edge">
<title>Node24&#45;&gt;Node6</title>
<path fill="none" stroke="midnightblue" d="M849.61,-159.3C858.98,-143.89 874.79,-122.44 895.05,-112 936.55,-90.62 1237.85,-75.38 1371.97,-69.58"/>
<polygon fill="midnightblue" stroke="midnightblue" points="846.34,-157.96 844.4,-168.37 852.42,-161.44 846.34,-157.96"/>
</g>
<!-- Node24&#45;&gt;Node8 -->
<g id="edge76" class="edge">
<title>Node24&#45;&gt;Node8</title>
<path fill="none" stroke="midnightblue" d="M883.9,-166.13C914,-158.1 954.57,-146.13 989.05,-132 1006.71,-124.76 1008.61,-116.93 1027.05,-112 1140.89,-81.57 1998.24,-69.59 2179.47,-67.39"/>
<polygon fill="midnightblue" stroke="midnightblue" points="882.91,-162.77 874.12,-168.7 884.69,-169.54 882.91,-162.77"/>
</g>
<!-- Node24&#45;&gt;Node9 -->
<g id="edge78" class="edge">
<title>Node24&#45;&gt;Node9</title>
<path fill="none" stroke="midnightblue" d="M815.11,-163.13C795.08,-150.18 772.38,-130.18 786.05,-112 801.35,-91.67 872.63,-77.64 913.34,-71.13"/>
<polygon fill="midnightblue" stroke="midnightblue" points="813.34,-166.15 823.7,-168.39 816.99,-160.18 813.34,-166.15"/>
</g>
<!-- Node24&#45;&gt;Node10 -->
<g id="edge72" class="edge">
<title>Node24&#45;&gt;Node10</title>
<path fill="none" stroke="midnightblue" d="M884.02,-167.46C930.93,-157.29 1004.54,-141.33 1049.62,-131.55"/>
<polygon fill="midnightblue" stroke="midnightblue" points="883.18,-164.06 874.15,-169.6 884.67,-170.91 883.18,-164.06"/>
</g>
<!-- Node24&#45;&gt;Node11 -->
<g id="edge77" class="edge">
<title>Node24&#45;&gt;Node11</title>
<path fill="none" stroke="midnightblue" d="M805.05,-165.24C778.81,-156.34 742.08,-143.7 710.05,-132 656.76,-112.53 594.6,-88.2 562.57,-75.55"/>
<polygon fill="midnightblue" stroke="midnightblue" points="803.96,-168.57 814.55,-168.46 806.2,-161.94 803.96,-168.57"/>
</g>
<!-- Node24&#45;&gt;Node12 -->
<g id="edge73" class="edge">
<title>Node24&#45;&gt;Node12</title>
<path fill="none" stroke="midnightblue" d="M815.31,-163.27C755.67,-130.15 605.28,-46.66 556.55,-19.61"/>
<polygon fill="midnightblue" stroke="midnightblue" points="813.96,-166.51 824.4,-168.31 817.35,-160.39 813.96,-166.51"/>
</g>
<!-- Node24&#45;&gt;Node19 -->
<g id="edge75" class="edge">
<title>Node24&#45;&gt;Node19</title>
<path fill="none" stroke="midnightblue" d="M884.44,-175.47C1052.68,-169.62 1651.1,-148.12 1841.05,-132 1843.81,-131.77 1846.63,-131.51 1849.48,-131.22"/>
<polygon fill="midnightblue" stroke="midnightblue" points="884.09,-171.98 874.22,-175.83 884.33,-178.98 884.09,-171.98"/>
</g>
<!-- Node25&#45;&gt;Node2 -->
<g id="edge81" class="edge">
<title>Node25&#45;&gt;Node2</title>
<path fill="none" stroke="midnightblue" d="M226.86,-166.6C282.61,-156.4 366.62,-141.02 418.53,-131.52"/>
<polygon fill="midnightblue" stroke="midnightblue" points="226,-163.2 216.8,-168.44 227.26,-170.09 226,-163.2"/>
</g>
<!-- Node25&#45;&gt;Node11 -->
<g id="edge82" class="edge">
<title>Node25&#45;&gt;Node11</title>
<path fill="none" stroke="midnightblue" d="M185.19,-160.45C200.12,-145.25 224.38,-123.4 250.05,-112 327.03,-77.82 425.45,-69 485.83,-67.05"/>
<polygon fill="midnightblue" stroke="midnightblue" points="182.26,-158.45 177.9,-168.11 187.33,-163.28 182.26,-158.45"/>
</g>
<!-- Node26&#45;&gt;Node6 -->
<g id="edge85" class="edge">
<title>Node26&#45;&gt;Node6</title>
<path fill="none" stroke="midnightblue" d="M2171.59,-158.07C2171.67,-143.19 2169.02,-123.16 2156.05,-112 2106.98,-69.78 1667.55,-66.4 1500.29,-66.67"/>
<polygon fill="midnightblue" stroke="midnightblue" points="2168.09,-158.07 2171.14,-168.22 2175.08,-158.39 2168.09,-158.07"/>
</g>
<!-- Node26&#45;&gt;Node8 -->
<g id="edge87" class="edge">
<title>Node26&#45;&gt;Node8</title>
<path fill="none" stroke="midnightblue" d="M2177.83,-159.1C2181.35,-150.88 2185.5,-140.98 2189.05,-132 2196.93,-112.09 2205.45,-88.44 2209.92,-75.88"/>
<polygon fill="midnightblue" stroke="midnightblue" points="2174.56,-157.85 2173.81,-168.42 2180.99,-160.62 2174.56,-157.85"/>
</g>
<!-- Node26&#45;&gt;Node19 -->
<g id="edge86" class="edge">
<title>Node26&#45;&gt;Node19</title>
<path fill="none" stroke="midnightblue" d="M2119.35,-166.35C2070.78,-156.14 1998.43,-140.94 1953.58,-131.52"/>
<polygon fill="midnightblue" stroke="midnightblue" points="2118.82,-169.81 2129.33,-168.44 2120.26,-162.96 2118.82,-169.81"/>
</g>
<!-- Node27&#45;&gt;Node4 -->
<g id="edge90" class="edge">
<title>Node27&#45;&gt;Node4</title>
<path fill="none" stroke="midnightblue" d="M1703.72,-219.43C1676.69,-204.86 1631.4,-181.94 1590.05,-168 1508.1,-140.36 1251.76,-91.8 1154.76,-73.89"/>
<polygon fill="midnightblue" stroke="midnightblue" points="1702.35,-222.67 1712.81,-224.39 1705.7,-216.53 1702.35,-222.67"/>
</g>
<!-- Node27&#45;&gt;Node6 -->
<g id="edge93" class="edge">
<title>Node27&#45;&gt;Node6</title>
<path fill="none" stroke="midnightblue" d="M1721.51,-214.63C1715.65,-200.38 1705.84,-180.94 1692.05,-168 1664.8,-142.42 1648.97,-149.71 1616.05,-132 1600.95,-123.87 1598.71,-119.01 1583.05,-112 1546.88,-95.8 1503.21,-83.26 1472.91,-75.57"/>
<polygon fill="midnightblue" stroke="midnightblue" points="1718.37,-216.24 1725.22,-224.32 1724.91,-213.73 1718.37,-216.24"/>
</g>
<!-- Node27&#45;&gt;Node8 -->
<g id="edge98" class="edge">
<title>Node27&#45;&gt;Node8</title>
<path fill="none" stroke="midnightblue" d="M1767.49,-232.42C1879.66,-230.35 2194.38,-221.58 2225.05,-188 2254.24,-156.05 2228.99,-97.68 2217.77,-75.69"/>
<polygon fill="midnightblue" stroke="midnightblue" points="1767.22,-228.92 1757.29,-232.6 1767.35,-235.92 1767.22,-228.92"/>
</g>
<!-- Node27&#45;&gt;Node9 -->
<g id="edge99" class="edge">
<title>Node27&#45;&gt;Node9</title>
<path fill="none" stroke="midnightblue" d="M1691.29,-221.32C1663.43,-212.39 1624.25,-199.68 1590.05,-188 1565.04,-179.46 1559.62,-174.69 1534.05,-168 1424.36,-139.29 1073.73,-86.46 970.75,-71.22"/>
<polygon fill="midnightblue" stroke="midnightblue" points="1690.42,-224.71 1701.01,-224.43 1692.55,-218.05 1690.42,-224.71"/>
</g>
<!-- Node27&#45;&gt;Node10 -->
<g id="edge91" class="edge">
<title>Node27&#45;&gt;Node10</title>
<path fill="none" stroke="midnightblue" d="M1688.82,-222.35C1624.45,-204.91 1501.48,-171.84 1481.05,-168 1361.05,-145.44 1218.11,-132.48 1142.36,-126.69"/>
<polygon fill="midnightblue" stroke="midnightblue" points="1688.06,-225.76 1698.62,-225 1689.89,-219.01 1688.06,-225.76"/>
</g>
<!-- Node27&#45;&gt;Node17 -->
<g id="edge92" class="edge">
<title>Node27&#45;&gt;Node17</title>
<path fill="none" stroke="midnightblue" d="M1747.37,-218.1C1759.96,-208.38 1775.98,-196.03 1786.6,-187.83"/>
<polygon fill="midnightblue" stroke="midnightblue" points="1745.08,-215.44 1739.3,-224.32 1749.35,-220.99 1745.08,-215.44"/>
</g>
<!-- Node27&#45;&gt;Node18 -->
<g id="edge94" class="edge">
<title>Node27&#45;&gt;Node18</title>
<path fill="none" stroke="midnightblue" d="M1767.29,-222.51C1799.97,-213.65 1847.68,-200.47 1889.05,-188 1952.61,-168.85 2026.77,-144.29 2064.77,-131.54"/>
<polygon fill="midnightblue" stroke="midnightblue" points="1765.98,-219.23 1757.24,-225.22 1767.81,-225.99 1765.98,-219.23"/>
</g>
<!-- Node27&#45;&gt;Node19 -->
<g id="edge95" class="edge">
<title>Node27&#45;&gt;Node19</title>
<path fill="none" stroke="midnightblue" d="M1766.99,-226.83C1796.13,-220.72 1835.83,-209.13 1865.05,-188 1885.97,-172.88 1901.61,-145.91 1908.76,-131.94"/>
<polygon fill="midnightblue" stroke="midnightblue" points="1766.29,-223.4 1757.16,-228.77 1767.64,-230.27 1766.29,-223.4"/>
</g>
<!-- Node27&#45;&gt;Node20 -->
<g id="edge96" class="edge">
<title>Node27&#45;&gt;Node20</title>
<path fill="none" stroke="midnightblue" d="M1767.41,-229.8C1795.27,-225.24 1830.79,-214.27 1849.05,-188 1868.24,-160.4 1822.53,-141.54 1787,-131.51"/>
<polygon fill="midnightblue" stroke="midnightblue" points="1766.58,-226.38 1757.17,-231.25 1767.56,-233.31 1766.58,-226.38"/>
</g>
<!-- Node27&#45;&gt;Node21 -->
<g id="edge97" class="edge">
<title>Node27&#45;&gt;Node21</title>
<path fill="none" stroke="midnightblue" d="M1716.11,-216.28C1704.78,-201.58 1686.49,-180.62 1666.05,-168 1636.3,-149.63 1598.51,-138.28 1568.69,-131.57"/>
<polygon fill="midnightblue" stroke="midnightblue" points="1713.44,-218.56 1722.22,-224.5 1719.06,-214.38 1713.44,-218.56"/>
</g>
</g>
</svg>
