<?xml version="1.0" encoding="UTF-8" standalone="no"?>
<!DOCTYPE svg PUBLIC "-//W3C//DTD SVG 1.1//EN"
 "http://www.w3.org/Graphics/SVG/1.1/DTD/svg11.dtd">
<!-- Generated by graphviz version 2.43.0 (0)
 -->
<!-- Title: irc_constants.hpp Pages: 1 -->
<svg width="2401pt" height="308pt"
 viewBox="0.00 0.00 2400.62 308.00" xmlns="http://www.w3.org/2000/svg" xmlns:xlink="http://www.w3.org/1999/xlink">
<g id="graph0" class="graph" transform="scale(1 1) rotate(0) translate(4 304)">
<title>irc_constants.hpp</title>
<polygon fill="white" stroke="transparent" points="-4,4 -4,-304 2396.62,-304 2396.62,4 -4,4"/>
<!-- Node1 -->
<g id="node1" class="node">
<title>Node1</title>
<g id="a_node1"><a xlink:title=" ">
<polygon fill="#bfbfbf" stroke="black" points="923,-280.5 923,-299.5 1025,-299.5 1025,-280.5 923,-280.5"/>
<text text-anchor="middle" x="974" y="-287.5" font-family="Helvetica,sans-Serif" font-size="10.00">irc_constants.hpp</text>
</a>
</g>
</g>
<!-- Node2 -->
<g id="node2" class="node">
<title>Node2</title>
<g id="a_node2"><a xlink:href="bot__handler_8hpp.html" target="_top" xlink:title=" ">
<polygon fill="white" stroke="black" points="416.5,-112.5 416.5,-131.5 511.5,-131.5 511.5,-112.5 416.5,-112.5"/>
<text text-anchor="middle" x="464" y="-119.5" font-family="Helvetica,sans-Serif" font-size="10.00">bot_handler.hpp</text>
</a>
</g>
</g>
<!-- Node1&#45;&gt;Node2 -->
<g id="edge1" class="edge">
<title>Node1&#45;&gt;Node2</title>
<path fill="none" stroke="midnightblue" d="M912.58,-287.59C782.16,-283.12 484.75,-264.57 427,-188 412.85,-169.24 437.2,-144.51 452.69,-131.64"/>
<polygon fill="midnightblue" stroke="midnightblue" points="912.69,-291.1 922.8,-287.93 912.92,-284.1 912.69,-291.1"/>
</g>
<!-- Node3 -->
<g id="node3" class="node">
<title>Node3</title>
<g id="a_node3"><a xlink:href="bot__main_8cpp.html" target="_top" xlink:title=" ">
<polygon fill="white" stroke="black" points="206.5,-56.5 206.5,-75.5 289.5,-75.5 289.5,-56.5 206.5,-56.5"/>
<text text-anchor="middle" x="248" y="-63.5" font-family="Helvetica,sans-Serif" font-size="10.00">bot_main.cpp</text>
</a>
</g>
</g>
<!-- Node1&#45;&gt;Node3 -->
<g id="edge3" class="edge">
<title>Node1&#45;&gt;Node3</title>
<path fill="none" stroke="midnightblue" d="M912.51,-288.56C730.21,-286.85 201.04,-278.92 132,-244 96.77,-226.18 70.73,-204.41 86,-168 108.05,-115.43 173.6,-87.91 214.24,-75.51"/>
<polygon fill="midnightblue" stroke="midnightblue" points="912.7,-292.06 922.73,-288.65 912.76,-285.06 912.7,-292.06"/>
</g>
<!-- Node4 -->
<g id="node4" class="node">
<title>Node4</title>
<g id="a_node4"><a xlink:href="channel_8cpp.html" target="_top" xlink:title=" ">
<polygon fill="white" stroke="black" points="1263.5,-56.5 1263.5,-75.5 1338.5,-75.5 1338.5,-56.5 1263.5,-56.5"/>
<text text-anchor="middle" x="1301" y="-63.5" font-family="Helvetica,sans-Serif" font-size="10.00">channel.cpp</text>
</a>
</g>
</g>
<!-- Node1&#45;&gt;Node4 -->
<g id="edge4" class="edge">
<title>Node1&#45;&gt;Node4</title>
<path fill="none" stroke="midnightblue" d="M960.01,-272.37C954.15,-264.34 948.01,-254.24 945,-244 935.46,-211.6 925.8,-195.79 945,-168 981.61,-115.01 1179.25,-83.07 1263.22,-71.71"/>
<polygon fill="midnightblue" stroke="midnightblue" points="957.41,-274.73 966.33,-280.46 962.93,-270.42 957.41,-274.73"/>
</g>
<!-- Node5 -->
<g id="node5" class="node">
<title>Node5</title>
<g id="a_node5"><a xlink:href="channel_8hpp.html" target="_top" xlink:title=" ">
<polygon fill="white" stroke="black" points="1462,-112.5 1462,-131.5 1538,-131.5 1538,-112.5 1462,-112.5"/>
<text text-anchor="middle" x="1500" y="-119.5" font-family="Helvetica,sans-Serif" font-size="10.00">channel.hpp</text>
</a>
</g>
</g>
<!-- Node1&#45;&gt;Node5 -->
<g id="edge5" class="edge">
<title>Node1&#45;&gt;Node5</title>
<path fill="none" stroke="midnightblue" d="M1034.99,-282.31C1148.76,-268.86 1387.91,-235.68 1455,-188 1475.81,-173.21 1490.14,-145.6 1496.41,-131.6"/>
<polygon fill="midnightblue" stroke="midnightblue" points="1034.56,-278.84 1025.04,-283.48 1035.38,-285.79 1034.56,-278.84"/>
</g>
<!-- Node6 -->
<g id="node6" class="node">
<title>Node6</title>
<g id="a_node6"><a xlink:href="processor__channel_8hpp.html" target="_top" xlink:title=" ">
<polygon fill="white" stroke="black" points="1692,-56.5 1692,-75.5 1820,-75.5 1820,-56.5 1692,-56.5"/>
<text text-anchor="middle" x="1756" y="-63.5" font-family="Helvetica,sans-Serif" font-size="10.00">processor_channel.hpp</text>
</a>
</g>
</g>
<!-- Node1&#45;&gt;Node6 -->
<g id="edge64" class="edge">
<title>Node1&#45;&gt;Node6</title>
<path fill="none" stroke="midnightblue" d="M1035.3,-288.59C1117.34,-286.64 1266.67,-278.16 1389,-244 1445.69,-228.17 1455.9,-213.39 1509,-188 1595.59,-146.59 1698.47,-95.61 1738.69,-75.62"/>
<polygon fill="midnightblue" stroke="midnightblue" points="1035.08,-285.09 1025.16,-288.8 1035.23,-292.09 1035.08,-285.09"/>
</g>
<!-- Node7 -->
<g id="node7" class="node">
<title>Node7</title>
<g id="a_node7"><a xlink:href="processor_8cpp.html" target="_top" xlink:title=" ">
<polygon fill="white" stroke="black" points="1828.5,-0.5 1828.5,-19.5 1911.5,-19.5 1911.5,-0.5 1828.5,-0.5"/>
<text text-anchor="middle" x="1870" y="-7.5" font-family="Helvetica,sans-Serif" font-size="10.00">processor.cpp</text>
</a>
</g>
</g>
<!-- Node1&#45;&gt;Node7 -->
<g id="edge62" class="edge">
<title>Node1&#45;&gt;Node7</title>
<path fill="none" stroke="midnightblue" d="M912.97,-285.98C843.64,-278.88 740,-255.48 740,-179 740,-179 740,-179 740,-121 740,-9.39 1624.58,-9.17 1828.44,-10.6"/>
<polygon fill="midnightblue" stroke="midnightblue" points="912.65,-289.47 922.94,-286.92 913.31,-282.5 912.65,-289.47"/>
</g>
<!-- Node8 -->
<g id="node8" class="node">
<title>Node8</title>
<g id="a_node8"><a xlink:href="processor__send__message_8hpp.html" target="_top" xlink:title=" ">
<polygon fill="white" stroke="black" points="1481.5,-56.5 1481.5,-75.5 1644.5,-75.5 1644.5,-56.5 1481.5,-56.5"/>
<text text-anchor="middle" x="1563" y="-63.5" font-family="Helvetica,sans-Serif" font-size="10.00">processor_send_message.hpp</text>
</a>
</g>
</g>
<!-- Node1&#45;&gt;Node8 -->
<g id="edge67" class="edge">
<title>Node1&#45;&gt;Node8</title>
<path fill="none" stroke="midnightblue" d="M1035.22,-289.27C1134.83,-287.11 1335.21,-271.65 1478,-188 1512.08,-168.04 1525.85,-165.35 1547,-132 1558.33,-114.14 1561.64,-88.82 1562.6,-75.68"/>
<polygon fill="midnightblue" stroke="midnightblue" points="1034.97,-285.78 1025.03,-289.46 1035.09,-292.78 1034.97,-285.78"/>
</g>
<!-- Node9 -->
<g id="node9" class="node">
<title>Node9</title>
<g id="a_node9"><a xlink:href="server_8cpp.html" target="_top" xlink:title=" ">
<polygon fill="white" stroke="black" points="2317.5,-56.5 2317.5,-75.5 2384.5,-75.5 2384.5,-56.5 2317.5,-56.5"/>
<text text-anchor="middle" x="2351" y="-63.5" font-family="Helvetica,sans-Serif" font-size="10.00">server.cpp</text>
</a>
</g>
</g>
<!-- Node1&#45;&gt;Node9 -->
<g id="edge70" class="edge">
<title>Node1&#45;&gt;Node9</title>
<path fill="none" stroke="midnightblue" d="M1035.22,-288.19C1273.41,-284.86 2131.07,-271.07 2250,-244 2310.55,-230.22 2341.29,-238.08 2378,-188 2398.03,-160.67 2394.54,-144.2 2384,-112 2379.3,-97.64 2368.07,-84.07 2360.02,-75.66"/>
<polygon fill="midnightblue" stroke="midnightblue" points="1034.96,-284.69 1025.01,-288.33 1035.06,-291.69 1034.96,-284.69"/>
</g>
<!-- Node10 -->
<g id="node10" class="node">
<title>Node10</title>
<g id="a_node10"><a xlink:href="user_8cpp.html" target="_top" xlink:title=" ">
<polygon fill="white" stroke="black" points="997.5,-56.5 997.5,-75.5 1054.5,-75.5 1054.5,-56.5 997.5,-56.5"/>
<text text-anchor="middle" x="1026" y="-63.5" font-family="Helvetica,sans-Serif" font-size="10.00">user.cpp</text>
</a>
</g>
</g>
<!-- Node1&#45;&gt;Node10 -->
<g id="edge91" class="edge">
<title>Node1&#45;&gt;Node10</title>
<path fill="none" stroke="midnightblue" d="M922.3,-277.99C864.57,-262.58 781.16,-229.32 797,-168 804.12,-140.46 805.26,-129.09 828,-112 878.73,-73.89 956.01,-67.12 997.42,-66.47"/>
<polygon fill="midnightblue" stroke="midnightblue" points="921.48,-281.4 932.03,-280.49 923.22,-274.62 921.48,-281.4"/>
</g>
<!-- Node11 -->
<g id="node11" class="node">
<title>Node11</title>
<g id="a_node11"><a xlink:href="client__handler_8hpp.html" target="_top" xlink:title=" ">
<polygon fill="white" stroke="black" points="1186,-112.5 1186,-131.5 1292,-131.5 1292,-112.5 1186,-112.5"/>
<text text-anchor="middle" x="1239" y="-119.5" font-family="Helvetica,sans-Serif" font-size="10.00">client_handler.hpp</text>
</a>
</g>
</g>
<!-- Node1&#45;&gt;Node11 -->
<g id="edge13" class="edge">
<title>Node1&#45;&gt;Node11</title>
<path fill="none" stroke="midnightblue" d="M964.7,-271.42C952.45,-245.55 935.19,-197.14 960,-168 974.45,-151.03 1109.01,-135.47 1185.85,-127.88"/>
<polygon fill="midnightblue" stroke="midnightblue" points="961.61,-273.05 969.21,-280.44 967.87,-269.93 961.61,-273.05"/>
</g>
<!-- Node12 -->
<g id="node12" class="node">
<title>Node12</title>
<g id="a_node12"><a xlink:href="server__handler_8hpp.html" target="_top" xlink:title=" ">
<polygon fill="white" stroke="black" points="485,-56.5 485,-75.5 595,-75.5 595,-56.5 485,-56.5"/>
<text text-anchor="middle" x="540" y="-63.5" font-family="Helvetica,sans-Serif" font-size="10.00">server_handler.hpp</text>
</a>
</g>
</g>
<!-- Node1&#45;&gt;Node12 -->
<g id="edge82" class="edge">
<title>Node1&#45;&gt;Node12</title>
<path fill="none" stroke="midnightblue" d="M912.71,-289.56C791.57,-289.66 513.38,-284.93 284,-244 197.75,-228.61 147.42,-258.2 95,-188 46.32,-122.81 355.44,-84.86 484.9,-71.99"/>
<polygon fill="midnightblue" stroke="midnightblue" points="912.9,-293.06 922.89,-289.54 912.88,-286.06 912.9,-293.06"/>
</g>
<!-- Node13 -->
<g id="node13" class="node">
<title>Node13</title>
<g id="a_node13"><a xlink:href="main_8cpp.html" target="_top" xlink:title=" ">
<polygon fill="white" stroke="black" points="509,-0.5 509,-19.5 571,-19.5 571,-0.5 509,-0.5"/>
<text text-anchor="middle" x="540" y="-7.5" font-family="Helvetica,sans-Serif" font-size="10.00">main.cpp</text>
</a>
</g>
</g>
<!-- Node1&#45;&gt;Node13 -->
<g id="edge16" class="edge">
<title>Node1&#45;&gt;Node13</title>
<path fill="none" stroke="midnightblue" d="M912.68,-287.72C726.34,-283.58 174.74,-269.3 98,-244 48.36,-227.63 0,-231.27 0,-179 0,-179 0,-179 0,-121 0,-16.47 393.38,-10.24 508.63,-10.66"/>
<polygon fill="midnightblue" stroke="midnightblue" points="912.78,-291.23 922.85,-287.95 912.93,-284.23 912.78,-291.23"/>
</g>
<!-- Node14 -->
<g id="node14" class="node">
<title>Node14</title>
<g id="a_node14"><a xlink:href="message_8cpp.html" target="_top" xlink:title=" ">
<polygon fill="white" stroke="black" points="968.5,-168.5 968.5,-187.5 1049.5,-187.5 1049.5,-168.5 968.5,-168.5"/>
<text text-anchor="middle" x="1009" y="-175.5" font-family="Helvetica,sans-Serif" font-size="10.00">message.cpp</text>
</a>
</g>
</g>
<!-- Node1&#45;&gt;Node14 -->
<g id="edge17" class="edge">
<title>Node1&#45;&gt;Node14</title>
<path fill="none" stroke="midnightblue" d="M979.83,-270.67C987.48,-246.62 1000.6,-205.39 1006.27,-187.59"/>
<polygon fill="midnightblue" stroke="midnightblue" points="976.44,-269.78 976.75,-280.37 983.11,-271.9 976.44,-269.78"/>
</g>
<!-- Node15 -->
<g id="node15" class="node">
<title>Node15</title>
<g id="a_node15"><a xlink:href="message_8hpp.html" target="_top" xlink:title=" ">
<polygon fill="white" stroke="black" points="1113,-224.5 1113,-243.5 1195,-243.5 1195,-224.5 1113,-224.5"/>
<text text-anchor="middle" x="1154" y="-231.5" font-family="Helvetica,sans-Serif" font-size="10.00">message.hpp</text>
</a>
</g>
</g>
<!-- Node1&#45;&gt;Node15 -->
<g id="edge18" class="edge">
<title>Node1&#45;&gt;Node15</title>
<path fill="none" stroke="midnightblue" d="M1012.11,-277.57C1046.06,-267.38 1094.99,-252.7 1125.61,-243.52"/>
<polygon fill="midnightblue" stroke="midnightblue" points="1011.09,-274.22 1002.52,-280.44 1013.11,-280.92 1011.09,-274.22"/>
</g>
<!-- Node16 -->
<g id="node16" class="node">
<title>Node16</title>
<g id="a_node16"><a xlink:href="message__decoder_8hpp.html" target="_top" xlink:title=" ">
<polygon fill="white" stroke="black" points="254.5,-168.5 254.5,-187.5 379.5,-187.5 379.5,-168.5 254.5,-168.5"/>
<text text-anchor="middle" x="317" y="-175.5" font-family="Helvetica,sans-Serif" font-size="10.00">message_decoder.hpp</text>
</a>
</g>
</g>
<!-- Node1&#45;&gt;Node16 -->
<g id="edge60" class="edge">
<title>Node1&#45;&gt;Node16</title>
<path fill="none" stroke="midnightblue" d="M912.68,-288.96C783.28,-288.12 486.57,-281.97 394,-244 363.57,-231.52 336.31,-202.31 323.97,-187.68"/>
<polygon fill="midnightblue" stroke="midnightblue" points="912.8,-292.46 922.82,-289.02 912.84,-285.46 912.8,-292.46"/>
</g>
<!-- Node17 -->
<g id="node17" class="node">
<title>Node17</title>
<g id="a_node17"><a xlink:href="message__encoder_8hpp.html" target="_top" xlink:title=" ">
<polygon fill="white" stroke="black" points="586.5,-168.5 586.5,-187.5 711.5,-187.5 711.5,-168.5 586.5,-168.5"/>
<text text-anchor="middle" x="649" y="-175.5" font-family="Helvetica,sans-Serif" font-size="10.00">message_encoder.hpp</text>
</a>
</g>
</g>
<!-- Node1&#45;&gt;Node17 -->
<g id="edge61" class="edge">
<title>Node1&#45;&gt;Node17</title>
<path fill="none" stroke="midnightblue" d="M912.68,-286.67C860.78,-282.68 785.56,-272.06 726,-244 696.56,-230.13 669.25,-202.1 656.52,-187.81"/>
<polygon fill="midnightblue" stroke="midnightblue" points="912.51,-290.17 922.74,-287.38 913.01,-283.18 912.51,-290.17"/>
</g>
<!-- Node18 -->
<g id="node18" class="node">
<title>Node18</title>
<g id="a_node18"><a xlink:href="processor_8hpp.html" target="_top" xlink:title=" ">
<polygon fill="white" stroke="black" points="1727,-168.5 1727,-187.5 1811,-187.5 1811,-168.5 1727,-168.5"/>
<text text-anchor="middle" x="1769" y="-175.5" font-family="Helvetica,sans-Serif" font-size="10.00">processor.hpp</text>
</a>
</g>
</g>
<!-- Node1&#45;&gt;Node18 -->
<g id="edge63" class="edge">
<title>Node1&#45;&gt;Node18</title>
<path fill="none" stroke="midnightblue" d="M1035.32,-288.89C1206.22,-288.09 1679.18,-282.39 1737,-244 1756.7,-230.92 1764.72,-202 1767.6,-187.55"/>
<polygon fill="midnightblue" stroke="midnightblue" points="1035.21,-285.39 1025.23,-288.93 1035.24,-292.39 1035.21,-285.39"/>
</g>
<!-- Node19 -->
<g id="node19" class="node">
<title>Node19</title>
<g id="a_node19"><a xlink:href="processor__misc_8hpp.html" target="_top" xlink:title=" ">
<polygon fill="white" stroke="black" points="2026.5,-112.5 2026.5,-131.5 2139.5,-131.5 2139.5,-112.5 2026.5,-112.5"/>
<text text-anchor="middle" x="2083" y="-119.5" font-family="Helvetica,sans-Serif" font-size="10.00">processor_misc.hpp</text>
</a>
</g>
</g>
<!-- Node1&#45;&gt;Node19 -->
<g id="edge65" class="edge">
<title>Node1&#45;&gt;Node19</title>
<path fill="none" stroke="midnightblue" d="M1035.14,-288.48C1201.21,-286.63 1657.92,-278.46 1804,-244 1910.88,-218.78 2028.26,-154.67 2068.53,-131.51"/>
<polygon fill="midnightblue" stroke="midnightblue" points="1035.06,-284.98 1025.1,-288.59 1035.14,-291.98 1035.06,-284.98"/>
</g>
<!-- Node20 -->
<g id="node20" class="node">
<title>Node20</title>
<g id="a_node20"><a xlink:href="processor__register_8hpp.html" target="_top" xlink:title=" ">
<polygon fill="white" stroke="black" points="2157.5,-112.5 2157.5,-131.5 2284.5,-131.5 2284.5,-112.5 2157.5,-112.5"/>
<text text-anchor="middle" x="2221" y="-119.5" font-family="Helvetica,sans-Serif" font-size="10.00">processor_register.hpp</text>
</a>
</g>
</g>
<!-- Node1&#45;&gt;Node20 -->
<g id="edge66" class="edge">
<title>Node1&#45;&gt;Node20</title>
<path fill="none" stroke="midnightblue" d="M1035.29,-287.94C1207.36,-284.64 1692.53,-272.95 1849,-244 1987.57,-218.36 2145.9,-154.79 2200.92,-131.62"/>
<polygon fill="midnightblue" stroke="midnightblue" points="1035.07,-284.44 1025.14,-288.13 1035.2,-291.44 1035.07,-284.44"/>
</g>
<!-- Node21 -->
<g id="node21" class="node">
<title>Node21</title>
<g id="a_node21"><a xlink:href="processor__user_8hpp.html" target="_top" xlink:title=" ">
<polygon fill="white" stroke="black" points="1898,-112.5 1898,-131.5 2008,-131.5 2008,-112.5 1898,-112.5"/>
<text text-anchor="middle" x="1953" y="-119.5" font-family="Helvetica,sans-Serif" font-size="10.00">processor_user.hpp</text>
</a>
</g>
</g>
<!-- Node1&#45;&gt;Node21 -->
<g id="edge68" class="edge">
<title>Node1&#45;&gt;Node21</title>
<path fill="none" stroke="midnightblue" d="M1035.13,-288.35C1194.9,-286.2 1622.01,-277.41 1759,-244 1818.14,-229.58 1833.36,-221.79 1884,-188 1909.19,-171.19 1933.81,-144.97 1945.67,-131.54"/>
<polygon fill="midnightblue" stroke="midnightblue" points="1034.96,-284.85 1025,-288.48 1035.05,-291.85 1034.96,-284.85"/>
</g>
<!-- Node22 -->
<g id="node22" class="node">
<title>Node22</title>
<g id="a_node22"><a xlink:href="reply_8hpp.html" target="_top" xlink:title=" ">
<polygon fill="white" stroke="black" points="1384.5,-168.5 1384.5,-187.5 1445.5,-187.5 1445.5,-168.5 1384.5,-168.5"/>
<text text-anchor="middle" x="1415" y="-175.5" font-family="Helvetica,sans-Serif" font-size="10.00">reply.hpp</text>
</a>
</g>
</g>
<!-- Node1&#45;&gt;Node22 -->
<g id="edge69" class="edge">
<title>Node1&#45;&gt;Node22</title>
<path fill="none" stroke="midnightblue" d="M1034.98,-278.88C1081.56,-270.71 1147.2,-258.26 1204,-244 1272.22,-226.87 1351.05,-200.9 1390.23,-187.57"/>
<polygon fill="midnightblue" stroke="midnightblue" points="1034.3,-275.45 1025.04,-280.61 1035.5,-282.34 1034.3,-275.45"/>
</g>
<!-- Node23 -->
<g id="node23" class="node">
<title>Node23</title>
<g id="a_node23"><a xlink:href="string__line__encoder_8hpp.html" target="_top" xlink:title=" ">
<polygon fill="white" stroke="black" points="436,-168.5 436,-187.5 568,-187.5 568,-168.5 436,-168.5"/>
<text text-anchor="middle" x="502" y="-175.5" font-family="Helvetica,sans-Serif" font-size="10.00">string_line_encoder.hpp</text>
</a>
</g>
</g>
<!-- Node1&#45;&gt;Node23 -->
<g id="edge86" class="edge">
<title>Node1&#45;&gt;Node23</title>
<path fill="none" stroke="midnightblue" d="M912.8,-282.38C855.06,-275.41 766.36,-262.8 691,-244 628.55,-228.42 557.37,-201.29 522.9,-187.53"/>
<polygon fill="midnightblue" stroke="midnightblue" points="912.51,-285.87 922.85,-283.58 913.34,-278.92 912.51,-285.87"/>
</g>
<!-- Node24 -->
<g id="node24" class="node">
<title>Node24</title>
<g id="a_node24"><a xlink:href="server_8hpp.html" target="_top" xlink:title=" ">
<polygon fill="white" stroke="black" points="806,-168.5 806,-187.5 874,-187.5 874,-168.5 806,-168.5"/>
<text text-anchor="middle" x="840" y="-175.5" font-family="Helvetica,sans-Serif" font-size="10.00">server.hpp</text>
</a>
</g>
</g>
<!-- Node1&#45;&gt;Node24 -->
<g id="edge71" class="edge">
<title>Node1&#45;&gt;Node24</title>
<path fill="none" stroke="midnightblue" d="M941.53,-276.24C924.45,-268.53 903.83,-257.56 888,-244 868.4,-227.21 852.18,-200.97 844.6,-187.55"/>
<polygon fill="midnightblue" stroke="midnightblue" points="940.54,-279.62 951.11,-280.39 943.33,-273.2 940.54,-279.62"/>
</g>
<!-- Node25 -->
<g id="node25" class="node">
<title>Node25</title>
<g id="a_node25"><a xlink:href="string__line__decoder_8hpp.html" target="_top" xlink:title=" ">
<polygon fill="white" stroke="black" points="104,-168.5 104,-187.5 236,-187.5 236,-168.5 104,-168.5"/>
<text text-anchor="middle" x="170" y="-175.5" font-family="Helvetica,sans-Serif" font-size="10.00">string_line_decoder.hpp</text>
</a>
</g>
</g>
<!-- Node1&#45;&gt;Node25 -->
<g id="edge83" class="edge">
<title>Node1&#45;&gt;Node25</title>
<path fill="none" stroke="midnightblue" d="M912.94,-289.8C801.33,-290.1 557.43,-285.39 357,-244 293.72,-230.93 222.53,-202 189.18,-187.56"/>
<polygon fill="midnightblue" stroke="midnightblue" points="913.01,-293.3 923,-289.76 912.98,-286.3 913.01,-293.3"/>
</g>
<!-- Node26 -->
<g id="node26" class="node">
<title>Node26</title>
<g id="a_node26"><a xlink:href="string__utils_8hpp.html" target="_top" xlink:title=" ">
<polygon fill="white" stroke="black" points="2258,-168.5 2258,-187.5 2350,-187.5 2350,-168.5 2258,-168.5"/>
<text text-anchor="middle" x="2304" y="-175.5" font-family="Helvetica,sans-Serif" font-size="10.00">string_utils.hpp</text>
</a>
</g>
</g>
<!-- Node1&#45;&gt;Node26 -->
<g id="edge87" class="edge">
<title>Node1&#45;&gt;Node26</title>
<path fill="none" stroke="midnightblue" d="M1035.09,-288.94C1269.81,-288.42 2106.14,-283.78 2218,-244 2251.15,-232.21 2281.99,-202.68 2296.04,-187.83"/>
<polygon fill="midnightblue" stroke="midnightblue" points="1035.02,-285.44 1025.03,-288.96 1035.03,-292.44 1035.02,-285.44"/>
</g>
<!-- Node27 -->
<g id="node27" class="node">
<title>Node27</title>
<g id="a_node27"><a xlink:href="user_8hpp.html" target="_top" xlink:title=" ">
<polygon fill="white" stroke="black" points="1670,-224.5 1670,-243.5 1728,-243.5 1728,-224.5 1670,-224.5"/>
<text text-anchor="middle" x="1699" y="-231.5" font-family="Helvetica,sans-Serif" font-size="10.00">user.hpp</text>
</a>
</g>
</g>
<!-- Node1&#45;&gt;Node27 -->
<g id="edge92" class="edge">
<title>Node1&#45;&gt;Node27</title>
<path fill="none" stroke="midnightblue" d="M1035.19,-286.25C1151.87,-280.69 1414.15,-266.69 1634,-244 1645.79,-242.78 1658.72,-241.07 1669.93,-239.46"/>
<polygon fill="midnightblue" stroke="midnightblue" points="1034.85,-282.76 1025.03,-286.73 1035.18,-289.76 1034.85,-282.76"/>
</g>
<!-- Node2&#45;&gt;Node3 -->
<g id="edge2" class="edge">
<title>Node2&#45;&gt;Node3</title>
<path fill="none" stroke="midnightblue" d="M419.84,-109.96C379.04,-99.76 319.29,-84.82 282.07,-75.52"/>
<polygon fill="midnightblue" stroke="midnightblue" points="419.22,-113.41 429.77,-112.44 420.92,-106.62 419.22,-113.41"/>
</g>
<!-- Node5&#45;&gt;Node4 -->
<g id="edge6" class="edge">
<title>Node5&#45;&gt;Node4</title>
<path fill="none" stroke="midnightblue" d="M1458.35,-109.7C1420.79,-99.51 1366.39,-84.74 1332.38,-75.52"/>
<polygon fill="midnightblue" stroke="midnightblue" points="1457.9,-113.2 1468.47,-112.44 1459.73,-106.45 1457.9,-113.2"/>
</g>
<!-- Node5&#45;&gt;Node6 -->
<g id="edge7" class="edge">
<title>Node5&#45;&gt;Node6</title>
<path fill="none" stroke="midnightblue" d="M1547.96,-110.88C1596.33,-100.68 1670.16,-85.11 1715.63,-75.52"/>
<polygon fill="midnightblue" stroke="midnightblue" points="1547.11,-107.49 1538.05,-112.97 1548.56,-114.33 1547.11,-107.49"/>
</g>
<!-- Node5&#45;&gt;Node8 -->
<g id="edge9" class="edge">
<title>Node5&#45;&gt;Node8</title>
<path fill="none" stroke="midnightblue" d="M1518.04,-105.54C1529.27,-95.91 1543.32,-83.87 1552.69,-75.83"/>
<polygon fill="midnightblue" stroke="midnightblue" points="1515.44,-103.16 1510.12,-112.32 1519.99,-108.47 1515.44,-103.16"/>
</g>
<!-- Node5&#45;&gt;Node9 -->
<g id="edge11" class="edge">
<title>Node5&#45;&gt;Node9</title>
<path fill="none" stroke="midnightblue" d="M1548.37,-117.93C1703.32,-108.1 2184.94,-77.54 2317.13,-69.15"/>
<polygon fill="midnightblue" stroke="midnightblue" points="1547.98,-114.45 1538.22,-118.57 1548.42,-121.43 1547.98,-114.45"/>
</g>
<!-- Node5&#45;&gt;Node10 -->
<g id="edge12" class="edge">
<title>Node5&#45;&gt;Node10</title>
<path fill="none" stroke="midnightblue" d="M1451.66,-115.49C1353.52,-104.31 1133.54,-79.25 1054.76,-70.28"/>
<polygon fill="midnightblue" stroke="midnightblue" points="1451.28,-118.97 1461.61,-116.63 1452.07,-112.02 1451.28,-118.97"/>
</g>
<!-- Node6&#45;&gt;Node7 -->
<g id="edge8" class="edge">
<title>Node6&#45;&gt;Node7</title>
<path fill="none" stroke="midnightblue" d="M1783.24,-52.1C1804.54,-42.01 1833.54,-28.27 1852.02,-19.52"/>
<polygon fill="midnightblue" stroke="midnightblue" points="1781.6,-49 1774.06,-56.44 1784.6,-55.33 1781.6,-49"/>
</g>
<!-- Node8&#45;&gt;Node7 -->
<g id="edge10" class="edge">
<title>Node8&#45;&gt;Node7</title>
<path fill="none" stroke="midnightblue" d="M1621.82,-54.65C1682.37,-44 1775.17,-27.68 1828.47,-18.3"/>
<polygon fill="midnightblue" stroke="midnightblue" points="1620.89,-51.26 1611.65,-56.44 1622.1,-58.16 1620.89,-51.26"/>
</g>
<!-- Node11&#45;&gt;Node12 -->
<g id="edge14" class="edge">
<title>Node11&#45;&gt;Node12</title>
<path fill="none" stroke="midnightblue" d="M1175.67,-116.11C1040.08,-105.63 723.67,-81.19 595.44,-71.28"/>
<polygon fill="midnightblue" stroke="midnightblue" points="1175.65,-119.62 1185.89,-116.9 1176.19,-112.64 1175.65,-119.62"/>
</g>
<!-- Node12&#45;&gt;Node13 -->
<g id="edge15" class="edge">
<title>Node12&#45;&gt;Node13</title>
<path fill="none" stroke="midnightblue" d="M540,-45.8C540,-36.91 540,-26.78 540,-19.75"/>
<polygon fill="midnightblue" stroke="midnightblue" points="536.5,-46.08 540,-56.08 543.5,-46.08 536.5,-46.08"/>
</g>
<!-- Node15&#45;&gt;Node4 -->
<g id="edge19" class="edge">
<title>Node15&#45;&gt;Node4</title>
<path fill="none" stroke="midnightblue" d="M1138.01,-216.74C1115.6,-191.97 1080.34,-144.26 1106,-112 1125.25,-87.8 1212.01,-75.5 1263.08,-70.25"/>
<polygon fill="midnightblue" stroke="midnightblue" points="1135.61,-219.3 1145.01,-224.21 1140.72,-214.52 1135.61,-219.3"/>
</g>
<!-- Node15&#45;&gt;Node6 -->
<g id="edge40" class="edge">
<title>Node15&#45;&gt;Node6</title>
<path fill="none" stroke="midnightblue" d="M1151.3,-214.23C1148.59,-187.18 1148.26,-137.68 1177,-112 1216.64,-76.59 1601.03,-80.34 1654,-76 1666.23,-75 1679.27,-73.88 1691.81,-72.79"/>
<polygon fill="midnightblue" stroke="midnightblue" points="1147.84,-214.81 1152.53,-224.31 1154.79,-213.96 1147.84,-214.81"/>
</g>
<!-- Node15&#45;&gt;Node8 -->
<g id="edge43" class="edge">
<title>Node15&#45;&gt;Node8</title>
<path fill="none" stroke="midnightblue" d="M1145.36,-215.23C1134.06,-189.1 1118.51,-140.38 1144,-112 1166.09,-87.41 1365.87,-75.11 1481.4,-70"/>
<polygon fill="midnightblue" stroke="midnightblue" points="1142.18,-216.7 1149.53,-224.33 1148.55,-213.78 1142.18,-216.7"/>
</g>
<!-- Node15&#45;&gt;Node10 -->
<g id="edge59" class="edge">
<title>Node15&#45;&gt;Node10</title>
<path fill="none" stroke="midnightblue" d="M1135.6,-218.17C1117.11,-203.83 1087.37,-182.24 1059,-168 1014.91,-145.87 982.67,-172.14 954,-132 937.07,-108.29 975.9,-86.94 1002.86,-75.59"/>
<polygon fill="midnightblue" stroke="midnightblue" points="1133.46,-220.95 1143.48,-224.38 1137.79,-215.45 1133.46,-220.95"/>
</g>
<!-- Node15&#45;&gt;Node11 -->
<g id="edge20" class="edge">
<title>Node15&#45;&gt;Node11</title>
<path fill="none" stroke="midnightblue" d="M1174.48,-218.33C1184.82,-210.21 1197.04,-199.46 1206,-188 1220.19,-169.85 1230.88,-144.66 1235.88,-131.61"/>
<polygon fill="midnightblue" stroke="midnightblue" points="1172.21,-215.65 1166.35,-224.48 1176.44,-221.24 1172.21,-215.65"/>
</g>
<!-- Node15&#45;&gt;Node14 -->
<g id="edge21" class="edge">
<title>Node15&#45;&gt;Node14</title>
<path fill="none" stroke="midnightblue" d="M1121.52,-220.91C1094.26,-210.75 1056.01,-196.51 1031.87,-187.52"/>
<polygon fill="midnightblue" stroke="midnightblue" points="1120.43,-224.23 1131.02,-224.44 1122.87,-217.67 1120.43,-224.23"/>
</g>
<!-- Node15&#45;&gt;Node16 -->
<g id="edge22" class="edge">
<title>Node15&#45;&gt;Node16</title>
<path fill="none" stroke="midnightblue" d="M1102.74,-230.18C983.92,-223.56 680.44,-206.21 427,-188 411.62,-186.89 395.03,-185.59 379.52,-184.33"/>
<polygon fill="midnightblue" stroke="midnightblue" points="1102.81,-233.69 1112.99,-230.75 1103.2,-226.7 1102.81,-233.69"/>
</g>
<!-- Node15&#45;&gt;Node17 -->
<g id="edge25" class="edge">
<title>Node15&#45;&gt;Node17</title>
<path fill="none" stroke="midnightblue" d="M1102.64,-227.51C1009.46,-217.54 812.88,-196.52 711.85,-185.72"/>
<polygon fill="midnightblue" stroke="midnightblue" points="1102.36,-231 1112.67,-228.58 1103.1,-224.04 1102.36,-231"/>
</g>
<!-- Node15&#45;&gt;Node18 -->
<g id="edge28" class="edge">
<title>Node15&#45;&gt;Node18</title>
<path fill="none" stroke="midnightblue" d="M1205.61,-228.47C1324.75,-218.01 1617.13,-192.33 1726.66,-182.72"/>
<polygon fill="midnightblue" stroke="midnightblue" points="1204.96,-225.01 1195.31,-229.37 1205.57,-231.98 1204.96,-225.01"/>
</g>
<!-- Node15&#45;&gt;Node19 -->
<g id="edge41" class="edge">
<title>Node15&#45;&gt;Node19</title>
<path fill="none" stroke="midnightblue" d="M1205.43,-231.88C1345.21,-228.5 1729.82,-216.78 1853,-188 1875.5,-182.74 1879.05,-175.24 1901,-168 1947.98,-152.5 2003.34,-139.54 2040.56,-131.57"/>
<polygon fill="midnightblue" stroke="midnightblue" points="1205.32,-228.39 1195.4,-232.12 1205.49,-235.38 1205.32,-228.39"/>
</g>
<!-- Node15&#45;&gt;Node20 -->
<g id="edge42" class="edge">
<title>Node15&#45;&gt;Node20</title>
<path fill="none" stroke="midnightblue" d="M1205.81,-232.66C1351.37,-231.26 1761.83,-224.13 1891,-188 1909.38,-182.86 1910.88,-173.98 1929,-168 1950.34,-160.96 2079.31,-142.47 2158.54,-131.51"/>
<polygon fill="midnightblue" stroke="midnightblue" points="1205.35,-229.16 1195.39,-232.76 1205.42,-236.16 1205.35,-229.16"/>
</g>
<!-- Node15&#45;&gt;Node21 -->
<g id="edge44" class="edge">
<title>Node15&#45;&gt;Node21</title>
<path fill="none" stroke="midnightblue" d="M1205.4,-232.08C1340.68,-229.26 1704.2,-218.93 1820,-188 1826.11,-186.37 1901.58,-148.76 1936.04,-131.51"/>
<polygon fill="midnightblue" stroke="midnightblue" points="1205.22,-228.58 1195.29,-232.29 1205.36,-235.58 1205.22,-228.58"/>
</g>
<!-- Node15&#45;&gt;Node22 -->
<g id="edge45" class="edge">
<title>Node15&#45;&gt;Node22</title>
<path fill="none" stroke="midnightblue" d="M1205,-222.45C1258.33,-211.41 1340.26,-194.46 1384.37,-185.34"/>
<polygon fill="midnightblue" stroke="midnightblue" points="1204.15,-219.05 1195.07,-224.5 1205.57,-225.9 1204.15,-219.05"/>
</g>
<!-- Node15&#45;&gt;Node23 -->
<g id="edge56" class="edge">
<title>Node15&#45;&gt;Node23</title>
<path fill="none" stroke="midnightblue" d="M1102.54,-229.67C1001.75,-223 771.31,-206.99 578,-188 574.83,-187.69 571.58,-187.36 568.3,-187.01"/>
<polygon fill="midnightblue" stroke="midnightblue" points="1102.53,-233.18 1112.74,-230.34 1102.99,-226.19 1102.53,-233.18"/>
</g>
<!-- Node16&#45;&gt;Node2 -->
<g id="edge23" class="edge">
<title>Node16&#45;&gt;Node2</title>
<path fill="none" stroke="midnightblue" d="M349.92,-164.91C377.56,-154.75 416.34,-140.51 440.82,-131.52"/>
<polygon fill="midnightblue" stroke="midnightblue" points="348.47,-161.71 340.29,-168.44 350.89,-168.28 348.47,-161.71"/>
</g>
<!-- Node16&#45;&gt;Node12 -->
<g id="edge24" class="edge">
<title>Node16&#45;&gt;Node12</title>
<path fill="none" stroke="midnightblue" d="M334.76,-161.91C352.4,-147.52 380.69,-126.02 408,-112 439.88,-95.63 479.01,-83.15 506.36,-75.53"/>
<polygon fill="midnightblue" stroke="midnightblue" points="332.47,-159.26 327,-168.34 336.94,-164.65 332.47,-159.26"/>
</g>
<!-- Node17&#45;&gt;Node2 -->
<g id="edge26" class="edge">
<title>Node17&#45;&gt;Node2</title>
<path fill="none" stroke="midnightblue" d="M609.83,-165.57C574.93,-155.38 524.65,-140.7 493.18,-131.52"/>
<polygon fill="midnightblue" stroke="midnightblue" points="609.11,-169 619.69,-168.44 611.07,-162.28 609.11,-169"/>
</g>
<!-- Node17&#45;&gt;Node12 -->
<g id="edge27" class="edge">
<title>Node17&#45;&gt;Node12</title>
<path fill="none" stroke="midnightblue" d="M633.35,-161.21C609.99,-137.63 566.78,-94.03 548.51,-75.59"/>
<polygon fill="midnightblue" stroke="midnightblue" points="630.92,-163.73 640.45,-168.37 635.89,-158.8 630.92,-163.73"/>
</g>
<!-- Node18&#45;&gt;Node2 -->
<g id="edge29" class="edge">
<title>Node18&#45;&gt;Node2</title>
<path fill="none" stroke="midnightblue" d="M1716.46,-174.83C1504.61,-166.06 714.79,-133.38 511.8,-124.98"/>
<polygon fill="midnightblue" stroke="midnightblue" points="1716.55,-178.33 1726.69,-175.25 1716.84,-171.34 1716.55,-178.33"/>
</g>
<!-- Node18&#45;&gt;Node6 -->
<g id="edge32" class="edge">
<title>Node18&#45;&gt;Node6</title>
<path fill="none" stroke="midnightblue" d="M1788.53,-161.29C1801.96,-148.45 1816.05,-129.61 1808,-112 1800.61,-95.82 1784.2,-83.23 1771.78,-75.53"/>
<polygon fill="midnightblue" stroke="midnightblue" points="1786.02,-158.84 1780.87,-168.1 1790.67,-164.07 1786.02,-158.84"/>
</g>
<!-- Node18&#45;&gt;Node7 -->
<g id="edge31" class="edge">
<title>Node18&#45;&gt;Node7</title>
<path fill="none" stroke="midnightblue" d="M1791.31,-162.45C1802.07,-154.51 1814.46,-143.88 1823,-132 1849.7,-94.85 1863.61,-40.53 1868.22,-19.63"/>
<polygon fill="midnightblue" stroke="midnightblue" points="1789.29,-159.59 1783.13,-168.21 1793.32,-165.31 1789.29,-159.59"/>
</g>
<!-- Node18&#45;&gt;Node8 -->
<g id="edge37" class="edge">
<title>Node18&#45;&gt;Node8</title>
<path fill="none" stroke="midnightblue" d="M1746.06,-163.16C1723.42,-149.65 1687.69,-128.75 1656,-112 1630.63,-98.59 1600.64,-84.36 1581.72,-75.58"/>
<polygon fill="midnightblue" stroke="midnightblue" points="1744.53,-166.33 1754.91,-168.46 1748.13,-160.32 1744.53,-166.33"/>
</g>
<!-- Node18&#45;&gt;Node11 -->
<g id="edge30" class="edge">
<title>Node18&#45;&gt;Node11</title>
<path fill="none" stroke="midnightblue" d="M1717,-171.7C1615.99,-161.41 1394.24,-138.82 1292.24,-128.42"/>
<polygon fill="midnightblue" stroke="midnightblue" points="1716.67,-175.19 1726.97,-172.72 1717.38,-168.22 1716.67,-175.19"/>
</g>
<!-- Node18&#45;&gt;Node19 -->
<g id="edge33" class="edge">
<title>Node18&#45;&gt;Node19</title>
<path fill="none" stroke="midnightblue" d="M1820.88,-168.08C1879.86,-157.93 1975.48,-141.49 2033.47,-131.52"/>
<polygon fill="midnightblue" stroke="midnightblue" points="1820.28,-164.63 1811.02,-169.77 1821.47,-171.53 1820.28,-164.63"/>
</g>
<!-- Node18&#45;&gt;Node20 -->
<g id="edge35" class="edge">
<title>Node18&#45;&gt;Node20</title>
<path fill="none" stroke="midnightblue" d="M1821.53,-170.89C1894.87,-162.33 2032.09,-146.23 2149,-132 2151.75,-131.67 2154.56,-131.32 2157.4,-130.97"/>
<polygon fill="midnightblue" stroke="midnightblue" points="1820.71,-167.46 1811.18,-172.09 1821.52,-174.41 1820.71,-167.46"/>
</g>
<!-- Node18&#45;&gt;Node21 -->
<g id="edge38" class="edge">
<title>Node18&#45;&gt;Node21</title>
<path fill="none" stroke="midnightblue" d="M1807.95,-165.57C1842.66,-155.38 1892.68,-140.7 1923.98,-131.52"/>
<polygon fill="midnightblue" stroke="midnightblue" points="1806.77,-162.27 1798.16,-168.44 1808.74,-168.99 1806.77,-162.27"/>
</g>
<!-- Node19&#45;&gt;Node7 -->
<g id="edge34" class="edge">
<title>Node19&#45;&gt;Node7</title>
<path fill="none" stroke="midnightblue" d="M2057.31,-107.73C2013.07,-84.88 1923.66,-38.71 1886.64,-19.59"/>
<polygon fill="midnightblue" stroke="midnightblue" points="2055.8,-110.89 2066.29,-112.37 2059.01,-104.67 2055.8,-110.89"/>
</g>
<!-- Node20&#45;&gt;Node7 -->
<g id="edge36" class="edge">
<title>Node20&#45;&gt;Node7</title>
<path fill="none" stroke="midnightblue" d="M2183.92,-109.38C2113.08,-87.18 1960.02,-39.21 1897.47,-19.61"/>
<polygon fill="midnightblue" stroke="midnightblue" points="2183.16,-112.81 2193.75,-112.46 2185.25,-106.13 2183.16,-112.81"/>
</g>
<!-- Node21&#45;&gt;Node7 -->
<g id="edge39" class="edge">
<title>Node21&#45;&gt;Node7</title>
<path fill="none" stroke="midnightblue" d="M1940.38,-104.27C1922.44,-80.49 1890.21,-37.79 1876.48,-19.59"/>
<polygon fill="midnightblue" stroke="midnightblue" points="1937.67,-106.49 1946.49,-112.37 1943.26,-102.28 1937.67,-106.49"/>
</g>
<!-- Node22&#45;&gt;Node2 -->
<g id="edge46" class="edge">
<title>Node22&#45;&gt;Node2</title>
<path fill="none" stroke="midnightblue" d="M1374.03,-174.67C1220.06,-165.93 676.44,-135.06 511.68,-125.71"/>
<polygon fill="midnightblue" stroke="midnightblue" points="1374.25,-178.19 1384.44,-175.26 1374.65,-171.2 1374.25,-178.19"/>
</g>
<!-- Node22&#45;&gt;Node4 -->
<g id="edge47" class="edge">
<title>Node22&#45;&gt;Node4</title>
<path fill="none" stroke="midnightblue" d="M1405.89,-159.1C1398.18,-145.15 1386.15,-125.87 1372,-112 1356.16,-96.47 1334.1,-83.52 1318.79,-75.56"/>
<polygon fill="midnightblue" stroke="midnightblue" points="1402.92,-160.98 1410.71,-168.17 1409.11,-157.7 1402.92,-160.98"/>
</g>
<!-- Node22&#45;&gt;Node5 -->
<g id="edge48" class="edge">
<title>Node22&#45;&gt;Node5</title>
<path fill="none" stroke="midnightblue" d="M1437.19,-162.9C1452.78,-153 1473.13,-140.07 1486.38,-131.65"/>
<polygon fill="midnightblue" stroke="midnightblue" points="1435.22,-160.01 1428.66,-168.32 1438.97,-165.92 1435.22,-160.01"/>
</g>
<!-- Node22&#45;&gt;Node6 -->
<g id="edge50" class="edge">
<title>Node22&#45;&gt;Node6</title>
<path fill="none" stroke="midnightblue" d="M1451.03,-165.38C1519.84,-143.18 1668.54,-95.21 1729.31,-75.61"/>
<polygon fill="midnightblue" stroke="midnightblue" points="1449.92,-162.06 1441.47,-168.46 1452.07,-168.72 1449.92,-162.06"/>
</g>
<!-- Node22&#45;&gt;Node8 -->
<g id="edge53" class="edge">
<title>Node22&#45;&gt;Node8</title>
<path fill="none" stroke="midnightblue" d="M1421.78,-158.85C1427.97,-144.44 1438.39,-124.69 1453,-112 1473.88,-93.87 1503.04,-82.39 1526.09,-75.57"/>
<polygon fill="midnightblue" stroke="midnightblue" points="1418.49,-157.63 1418.02,-168.21 1424.99,-160.23 1418.49,-157.63"/>
</g>
<!-- Node22&#45;&gt;Node10 -->
<g id="edge55" class="edge">
<title>Node22&#45;&gt;Node10</title>
<path fill="none" stroke="midnightblue" d="M1400.07,-160.83C1384.97,-145.58 1360.18,-123.4 1334,-112 1237.88,-70.15 1110.56,-65.88 1054.53,-66.28"/>
<polygon fill="midnightblue" stroke="midnightblue" points="1397.59,-163.3 1407.04,-168.08 1402.64,-158.45 1397.59,-163.3"/>
</g>
<!-- Node22&#45;&gt;Node11 -->
<g id="edge49" class="edge">
<title>Node22&#45;&gt;Node11</title>
<path fill="none" stroke="midnightblue" d="M1377.31,-165.44C1344.13,-155.26 1296.57,-140.66 1266.76,-131.52"/>
<polygon fill="midnightblue" stroke="midnightblue" points="1376.53,-168.86 1387.11,-168.44 1378.58,-162.16 1376.53,-168.86"/>
</g>
<!-- Node22&#45;&gt;Node19 -->
<g id="edge51" class="edge">
<title>Node22&#45;&gt;Node19</title>
<path fill="none" stroke="midnightblue" d="M1455.76,-174.81C1553.02,-169.41 1806.32,-154.22 2017,-132 2019.99,-131.68 2023.05,-131.34 2026.14,-130.98"/>
<polygon fill="midnightblue" stroke="midnightblue" points="1455.55,-171.32 1445.76,-175.36 1455.94,-178.31 1455.55,-171.32"/>
</g>
<!-- Node22&#45;&gt;Node20 -->
<g id="edge52" class="edge">
<title>Node22&#45;&gt;Node20</title>
<path fill="none" stroke="midnightblue" d="M1455.95,-175.4C1567.4,-170.84 1885.46,-156.52 2149,-132 2151.76,-131.74 2154.58,-131.46 2157.42,-131.17"/>
<polygon fill="midnightblue" stroke="midnightblue" points="1455.67,-171.91 1445.82,-175.81 1455.95,-178.9 1455.67,-171.91"/>
</g>
<!-- Node22&#45;&gt;Node21 -->
<g id="edge54" class="edge">
<title>Node22&#45;&gt;Node21</title>
<path fill="none" stroke="midnightblue" d="M1456,-172.88C1551.62,-163.29 1789.5,-139.41 1897.77,-128.54"/>
<polygon fill="midnightblue" stroke="midnightblue" points="1455.46,-169.42 1445.86,-173.9 1456.16,-176.39 1455.46,-169.42"/>
</g>
<!-- Node23&#45;&gt;Node2 -->
<g id="edge57" class="edge">
<title>Node23&#45;&gt;Node2</title>
<path fill="none" stroke="midnightblue" d="M489.94,-159.86C483.36,-150.5 475.49,-139.33 470.16,-131.75"/>
<polygon fill="midnightblue" stroke="midnightblue" points="487.11,-161.92 495.73,-168.08 492.83,-157.89 487.11,-161.92"/>
</g>
<!-- Node23&#45;&gt;Node12 -->
<g id="edge58" class="edge">
<title>Node23&#45;&gt;Node12</title>
<path fill="none" stroke="midnightblue" d="M510.07,-159.21C513.64,-151.01 517.76,-141.1 521,-132 528.1,-112.06 534.61,-88.03 537.85,-75.51"/>
<polygon fill="midnightblue" stroke="midnightblue" points="506.81,-157.93 505.94,-168.49 513.2,-160.78 506.81,-157.93"/>
</g>
<!-- Node24&#45;&gt;Node2 -->
<g id="edge72" class="edge">
<title>Node24&#45;&gt;Node2</title>
<path fill="none" stroke="midnightblue" d="M795.98,-170.68C724.81,-160.46 585.06,-140.39 511.64,-129.84"/>
<polygon fill="midnightblue" stroke="midnightblue" points="795.57,-174.16 805.97,-172.11 796.57,-167.23 795.57,-174.16"/>
</g>
<!-- Node24&#45;&gt;Node4 -->
<g id="edge73" class="edge">
<title>Node24&#45;&gt;Node4</title>
<path fill="none" stroke="midnightblue" d="M845.72,-158.17C851.36,-143.04 861.57,-122.62 878,-112 910.02,-91.3 1165.62,-74.72 1263.26,-69.08"/>
<polygon fill="midnightblue" stroke="midnightblue" points="842.27,-157.44 842.39,-168.04 848.9,-159.68 842.27,-157.44"/>
</g>
<!-- Node24&#45;&gt;Node6 -->
<g id="edge76" class="edge">
<title>Node24&#45;&gt;Node6</title>
<path fill="none" stroke="midnightblue" d="M883.88,-166.17C918.12,-157.51 966.81,-144.75 1009,-132 1035.5,-123.99 1040.83,-117.34 1068,-112 1324.04,-61.67 1393.79,-95.47 1654,-76 1666.23,-75.08 1679.28,-74.01 1691.82,-72.93"/>
<polygon fill="midnightblue" stroke="midnightblue" points="883.02,-162.78 874.18,-168.61 884.73,-169.57 883.02,-162.78"/>
</g>
<!-- Node24&#45;&gt;Node8 -->
<g id="edge78" class="edge">
<title>Node24&#45;&gt;Node8</title>
<path fill="none" stroke="midnightblue" d="M869.38,-164.41C906.19,-149.25 971.52,-124.28 1030,-112 1113.9,-94.39 1354,-78.77 1481.37,-71.44"/>
<polygon fill="midnightblue" stroke="midnightblue" points="867.67,-161.34 859.79,-168.41 870.37,-167.8 867.67,-161.34"/>
</g>
<!-- Node24&#45;&gt;Node9 -->
<g id="edge79" class="edge">
<title>Node24&#45;&gt;Node9</title>
<path fill="none" stroke="midnightblue" d="M884.18,-167.61C962.02,-151.21 1120.7,-118.47 1177,-112 1406.61,-85.61 2149.73,-70.68 2317.24,-67.6"/>
<polygon fill="midnightblue" stroke="midnightblue" points="883.26,-164.23 874.2,-169.72 884.7,-171.08 883.26,-164.23"/>
</g>
<!-- Node24&#45;&gt;Node10 -->
<g id="edge81" class="edge">
<title>Node24&#45;&gt;Node10</title>
<path fill="none" stroke="midnightblue" d="M834.4,-158.66C831.26,-144.43 829.77,-125 840,-112 859.26,-87.52 950.09,-74.76 997.31,-69.68"/>
<polygon fill="midnightblue" stroke="midnightblue" points="831.01,-159.57 836.95,-168.34 837.78,-157.78 831.01,-159.57"/>
</g>
<!-- Node24&#45;&gt;Node11 -->
<g id="edge74" class="edge">
<title>Node24&#45;&gt;Node11</title>
<path fill="none" stroke="midnightblue" d="M884.37,-171C958.29,-160.99 1106.35,-140.95 1185.76,-130.2"/>
<polygon fill="midnightblue" stroke="midnightblue" points="883.46,-167.59 874.02,-172.4 884.4,-174.52 883.46,-167.59"/>
</g>
<!-- Node24&#45;&gt;Node12 -->
<g id="edge80" class="edge">
<title>Node24&#45;&gt;Node12</title>
<path fill="none" stroke="midnightblue" d="M795.98,-166.38C763.96,-158.19 719.79,-145.94 682,-132 635.45,-114.83 582.89,-88.99 556.7,-75.65"/>
<polygon fill="midnightblue" stroke="midnightblue" points="795.38,-169.84 805.93,-168.89 797.09,-163.05 795.38,-169.84"/>
</g>
<!-- Node24&#45;&gt;Node13 -->
<g id="edge75" class="edge">
<title>Node24&#45;&gt;Node13</title>
<path fill="none" stroke="midnightblue" d="M815.18,-163.27C755.34,-130.15 604.44,-46.66 555.55,-19.61"/>
<polygon fill="midnightblue" stroke="midnightblue" points="813.85,-166.53 824.29,-168.31 817.24,-160.4 813.85,-166.53"/>
</g>
<!-- Node24&#45;&gt;Node20 -->
<g id="edge77" class="edge">
<title>Node24&#45;&gt;Node20</title>
<path fill="none" stroke="midnightblue" d="M884.12,-173.22C906.78,-171.4 934.85,-169.32 960,-168 1487.96,-140.22 1621.89,-172.83 2149,-132 2151.76,-131.79 2154.58,-131.54 2157.43,-131.28"/>
<polygon fill="midnightblue" stroke="midnightblue" points="883.79,-169.73 874.11,-174.03 884.36,-176.71 883.79,-169.73"/>
</g>
<!-- Node25&#45;&gt;Node2 -->
<g id="edge84" class="edge">
<title>Node25&#45;&gt;Node2</title>
<path fill="none" stroke="midnightblue" d="M226.62,-166.6C282.18,-156.4 365.9,-141.02 417.63,-131.52"/>
<polygon fill="midnightblue" stroke="midnightblue" points="225.79,-163.19 216.59,-168.44 227.05,-170.08 225.79,-163.19"/>
</g>
<!-- Node25&#45;&gt;Node12 -->
<g id="edge85" class="edge">
<title>Node25&#45;&gt;Node12</title>
<path fill="none" stroke="midnightblue" d="M204.64,-165.28C244.74,-151.84 312.87,-129.42 372,-112 418.2,-98.39 472.04,-84.27 506.07,-75.56"/>
<polygon fill="midnightblue" stroke="midnightblue" points="203.43,-161.99 195.07,-168.49 205.66,-168.62 203.43,-161.99"/>
</g>
<!-- Node26&#45;&gt;Node6 -->
<g id="edge88" class="edge">
<title>Node26&#45;&gt;Node6</title>
<path fill="none" stroke="midnightblue" d="M2306.75,-158.28C2307.77,-143.51 2306.37,-123.55 2294,-112 2259.99,-80.27 1955.26,-70.69 1820.09,-67.99"/>
<polygon fill="midnightblue" stroke="midnightblue" points="2303.26,-158 2305.65,-168.33 2310.22,-158.77 2303.26,-158"/>
</g>
<!-- Node26&#45;&gt;Node9 -->
<g id="edge90" class="edge">
<title>Node26&#45;&gt;Node9</title>
<path fill="none" stroke="midnightblue" d="M2313.7,-159.23C2318.01,-151.04 2322.99,-141.14 2327,-132 2335.69,-112.17 2344.03,-88.09 2348.21,-75.54"/>
<polygon fill="midnightblue" stroke="midnightblue" points="2310.54,-157.72 2308.9,-168.19 2316.71,-161.02 2310.54,-157.72"/>
</g>
<!-- Node26&#45;&gt;Node20 -->
<g id="edge89" class="edge">
<title>Node26&#45;&gt;Node20</title>
<path fill="none" stroke="midnightblue" d="M2281.9,-162.62C2266.74,-152.76 2247.12,-139.99 2234.3,-131.65"/>
<polygon fill="midnightblue" stroke="midnightblue" points="2280.37,-165.8 2290.66,-168.32 2284.19,-159.94 2280.37,-165.8"/>
</g>
<!-- Node27&#45;&gt;Node4 -->
<g id="edge93" class="edge">
<title>Node27&#45;&gt;Node4</title>
<path fill="none" stroke="midnightblue" d="M1684.21,-216.92C1658.88,-190.46 1604.32,-138.06 1547,-112 1477.83,-80.56 1388.27,-71.08 1338.52,-68.22"/>
<polygon fill="midnightblue" stroke="midnightblue" points="1681.71,-219.37 1691.11,-224.25 1686.8,-214.57 1681.71,-219.37"/>
</g>
<!-- Node27&#45;&gt;Node6 -->
<g id="edge96" class="edge">
<title>Node27&#45;&gt;Node6</title>
<path fill="none" stroke="midnightblue" d="M1701.13,-213.92C1703.44,-200.11 1708.22,-181.56 1718,-168 1734.44,-145.2 1756.95,-156.9 1770,-132 1779.64,-113.6 1768.8,-88.94 1761.52,-75.92"/>
<polygon fill="midnightblue" stroke="midnightblue" points="1697.61,-213.81 1699.71,-224.2 1704.54,-214.77 1697.61,-213.81"/>
</g>
<!-- Node27&#45;&gt;Node8 -->
<g id="edge99" class="edge">
<title>Node27&#45;&gt;Node8</title>
<path fill="none" stroke="midnightblue" d="M1689.55,-215.59C1675.73,-191.01 1648.33,-145.38 1618,-112 1605.06,-97.75 1587.47,-84.16 1575.7,-75.71"/>
<polygon fill="midnightblue" stroke="midnightblue" points="1686.56,-217.42 1694.46,-224.47 1692.68,-214.03 1686.56,-217.42"/>
</g>
<!-- Node27&#45;&gt;Node9 -->
<g id="edge101" class="edge">
<title>Node27&#45;&gt;Node9</title>
<path fill="none" stroke="midnightblue" d="M1738.47,-233.36C1874.31,-234.2 2316.59,-233.4 2359,-188 2388.46,-156.46 2365.61,-97.84 2355.33,-75.74"/>
<polygon fill="midnightblue" stroke="midnightblue" points="1738.14,-229.86 1728.12,-233.29 1738.09,-236.86 1738.14,-229.86"/>
</g>
<!-- Node27&#45;&gt;Node10 -->
<g id="edge102" class="edge">
<title>Node27&#45;&gt;Node10</title>
<path fill="none" stroke="midnightblue" d="M1659.38,-230.66C1584.42,-225.71 1424.95,-212.57 1376,-188 1333.59,-166.71 1343.16,-133.79 1301,-112 1258.35,-89.95 1116.5,-75.04 1054.93,-69.45"/>
<polygon fill="midnightblue" stroke="midnightblue" points="1659.6,-234.18 1669.8,-231.33 1660.05,-227.19 1659.6,-234.18"/>
</g>
<!-- Node27&#45;&gt;Node11 -->
<g id="edge94" class="edge">
<title>Node27&#45;&gt;Node11</title>
<path fill="none" stroke="midnightblue" d="M1659.61,-231.7C1572.84,-228.31 1368.04,-217.37 1306,-188 1278.46,-174.96 1255.24,-146.02 1244.84,-131.56"/>
<polygon fill="midnightblue" stroke="midnightblue" points="1659.7,-235.2 1669.83,-232.08 1659.97,-228.21 1659.7,-235.2"/>
</g>
<!-- Node27&#45;&gt;Node18 -->
<g id="edge95" class="edge">
<title>Node27&#45;&gt;Node18</title>
<path fill="none" stroke="midnightblue" d="M1718.31,-218.1C1730.91,-208.38 1746.93,-196.03 1757.55,-187.83"/>
<polygon fill="midnightblue" stroke="midnightblue" points="1716.03,-215.44 1710.25,-224.32 1720.3,-220.99 1716.03,-215.44"/>
</g>
<!-- Node27&#45;&gt;Node19 -->
<g id="edge97" class="edge">
<title>Node27&#45;&gt;Node19</title>
<path fill="none" stroke="midnightblue" d="M1738.05,-224.42C1775.65,-215.95 1834.02,-202.22 1884,-188 1947.8,-169.85 2021.77,-144.54 2058.98,-131.51"/>
<polygon fill="midnightblue" stroke="midnightblue" points="1737.01,-221.07 1728.02,-226.67 1738.54,-227.9 1737.01,-221.07"/>
</g>
<!-- Node27&#45;&gt;Node20 -->
<g id="edge98" class="edge">
<title>Node27&#45;&gt;Node20</title>
<path fill="none" stroke="midnightblue" d="M1738.4,-225.56C1784.08,-216.86 1861.59,-201.89 1928,-188 2020.06,-168.75 2127.96,-144.33 2183.6,-131.6"/>
<polygon fill="midnightblue" stroke="midnightblue" points="1737.5,-222.17 1728.33,-227.47 1738.8,-229.04 1737.5,-222.17"/>
</g>
<!-- Node27&#45;&gt;Node21 -->
<g id="edge100" class="edge">
<title>Node27&#45;&gt;Node21</title>
<path fill="none" stroke="midnightblue" d="M1738.11,-224.91C1769.93,-217.55 1815.54,-205.2 1853,-188 1887.81,-172.02 1924.53,-145.19 1942.22,-131.54"/>
<polygon fill="midnightblue" stroke="midnightblue" points="1737.27,-221.51 1728.29,-227.13 1738.81,-228.34 1737.27,-221.51"/>
</g>
</g>
</svg>
