<?xml version="1.0" encoding="UTF-8" standalone="no"?>
<!DOCTYPE svg PUBLIC "-//W3C//DTD SVG 1.1//EN"
 "http://www.w3.org/Graphics/SVG/1.1/DTD/svg11.dtd">
<!-- Generated by graphviz version 2.43.0 (0)
 -->
<!-- Title: includes/libserv/logic_adapter.hpp Pages: 1 -->
<svg width="506pt" height="263pt"
 viewBox="0.00 0.00 505.75 263.00" xmlns="http://www.w3.org/2000/svg" xmlns:xlink="http://www.w3.org/1999/xlink">
<g id="graph0" class="graph" transform="scale(1 1) rotate(0) translate(4 259)">
<title>includes/libserv/logic_adapter.hpp</title>
<polygon fill="white" stroke="transparent" points="-4,4 -4,-259 501.75,-259 501.75,4 -4,4"/>
<!-- Node1 -->
<g id="node1" class="node">
<title>Node1</title>
<g id="a_node1"><a xlink:title=" ">
<polygon fill="#bfbfbf" stroke="black" points="152,-224.5 152,-254.5 271,-254.5 271,-224.5 152,-224.5"/>
<text text-anchor="start" x="160" y="-242.5" font-family="Helvetica,sans-Serif" font-size="10.00">includes/libserv/logic</text>
<text text-anchor="middle" x="211.5" y="-231.5" font-family="Helvetica,sans-Serif" font-size="10.00">_adapter.hpp</text>
</a>
</g>
</g>
<!-- Node2 -->
<g id="node2" class="node">
<title>Node2</title>
<g id="a_node2"><a xlink:href="event__handler__base_8hpp.html" target="_top" xlink:title=" ">
<polygon fill="white" stroke="black" points="347.5,-112.5 347.5,-131.5 483.5,-131.5 483.5,-112.5 347.5,-112.5"/>
<text text-anchor="middle" x="415.5" y="-119.5" font-family="Helvetica,sans-Serif" font-size="10.00">event_handler_base.hpp</text>
</a>
</g>
</g>
<!-- Node1&#45;&gt;Node2 -->
<g id="edge1" class="edge">
<title>Node1&#45;&gt;Node2</title>
<path fill="none" stroke="midnightblue" d="M236.51,-224.34C276.04,-201.96 352.44,-158.7 391.4,-136.65"/>
<polygon fill="midnightblue" stroke="midnightblue" points="393.47,-139.49 400.45,-131.52 390.02,-133.4 393.47,-139.49"/>
</g>
<!-- Node7 -->
<g id="node7" class="node">
<title>Node7</title>
<g id="a_node7"><a xlink:title=" ">
<polygon fill="white" stroke="#bfbfbf" points="0,-56.5 0,-75.5 139,-75.5 139,-56.5 0,-56.5"/>
<text text-anchor="middle" x="69.5" y="-63.5" font-family="Helvetica,sans-Serif" font-size="10.00">smart_ptr/shared_ptr.hpp</text>
</a>
</g>
</g>
<!-- Node1&#45;&gt;Node7 -->
<g id="edge15" class="edge">
<title>Node1&#45;&gt;Node7</title>
<path fill="none" stroke="midnightblue" d="M180.45,-224.42C147.46,-207.61 96.89,-176.12 73.5,-132 65.97,-117.8 65.57,-99.32 66.7,-85.7"/>
<polygon fill="midnightblue" stroke="midnightblue" points="70.2,-85.94 67.89,-75.6 63.25,-85.12 70.2,-85.94"/>
</g>
<!-- Node9 -->
<g id="node9" class="node">
<title>Node9</title>
<g id="a_node9"><a xlink:href="event__layer_8hpp.html" target="_top" xlink:title=" ">
<polygon fill="white" stroke="black" points="164,-168.5 164,-187.5 259,-187.5 259,-168.5 164,-168.5"/>
<text text-anchor="middle" x="211.5" y="-175.5" font-family="Helvetica,sans-Serif" font-size="10.00">event_layer.hpp</text>
</a>
</g>
</g>
<!-- Node1&#45;&gt;Node9 -->
<g id="edge8" class="edge">
<title>Node1&#45;&gt;Node9</title>
<path fill="none" stroke="midnightblue" d="M211.5,-224.4C211.5,-216.47 211.5,-206.46 211.5,-197.86"/>
<polygon fill="midnightblue" stroke="midnightblue" points="215,-197.66 211.5,-187.66 208,-197.66 215,-197.66"/>
</g>
<!-- Node3 -->
<g id="node3" class="node">
<title>Node3</title>
<g id="a_node3"><a xlink:href="serv__types_8hpp.html" target="_top" xlink:title=" ">
<polygon fill="white" stroke="black" points="264,-56.5 264,-75.5 355,-75.5 355,-56.5 264,-56.5"/>
<text text-anchor="middle" x="309.5" y="-63.5" font-family="Helvetica,sans-Serif" font-size="10.00">serv_types.hpp</text>
</a>
</g>
</g>
<!-- Node2&#45;&gt;Node3 -->
<g id="edge2" class="edge">
<title>Node2&#45;&gt;Node3</title>
<path fill="none" stroke="midnightblue" d="M398.47,-112.32C381.47,-103.66 355.12,-90.24 335.51,-80.25"/>
<polygon fill="midnightblue" stroke="midnightblue" points="336.99,-77.08 326.49,-75.65 333.81,-83.31 336.99,-77.08"/>
</g>
<!-- Node2&#45;&gt;Node7 -->
<g id="edge6" class="edge">
<title>Node2&#45;&gt;Node7</title>
<path fill="none" stroke="midnightblue" d="M360.68,-112.44C299.18,-102.85 199.52,-87.29 134.24,-77.1"/>
<polygon fill="midnightblue" stroke="midnightblue" points="134.49,-73.6 124.07,-75.52 133.41,-80.52 134.49,-73.6"/>
</g>
<!-- Node8 -->
<g id="node8" class="node">
<title>Node8</title>
<g id="a_node8"><a xlink:title=" ">
<polygon fill="white" stroke="#bfbfbf" points="431,-56.5 431,-75.5 496,-75.5 496,-56.5 431,-56.5"/>
<text text-anchor="middle" x="463.5" y="-63.5" font-family="Helvetica,sans-Serif" font-size="10.00">exception</text>
</a>
</g>
</g>
<!-- Node2&#45;&gt;Node8 -->
<g id="edge7" class="edge">
<title>Node2&#45;&gt;Node8</title>
<path fill="none" stroke="midnightblue" d="M423.43,-112.08C430.35,-104.3 440.57,-92.8 448.95,-83.37"/>
<polygon fill="midnightblue" stroke="midnightblue" points="451.69,-85.55 455.72,-75.75 446.46,-80.9 451.69,-85.55"/>
</g>
<!-- Node4 -->
<g id="node4" class="node">
<title>Node4</title>
<g id="a_node4"><a xlink:title=" ">
<polygon fill="white" stroke="#bfbfbf" points="225,-0.5 225,-19.5 272,-19.5 272,-0.5 225,-0.5"/>
<text text-anchor="middle" x="248.5" y="-7.5" font-family="Helvetica,sans-Serif" font-size="10.00">deque</text>
</a>
</g>
</g>
<!-- Node3&#45;&gt;Node4 -->
<g id="edge3" class="edge">
<title>Node3&#45;&gt;Node4</title>
<path fill="none" stroke="midnightblue" d="M299.7,-56.32C290.68,-48.34 277.09,-36.31 266.18,-26.65"/>
<polygon fill="midnightblue" stroke="midnightblue" points="268.29,-23.84 258.48,-19.83 263.65,-29.08 268.29,-23.84"/>
</g>
<!-- Node5 -->
<g id="node5" class="node">
<title>Node5</title>
<g id="a_node5"><a xlink:title=" ">
<polygon fill="white" stroke="#bfbfbf" points="290.5,-0.5 290.5,-19.5 328.5,-19.5 328.5,-0.5 290.5,-0.5"/>
<text text-anchor="middle" x="309.5" y="-7.5" font-family="Helvetica,sans-Serif" font-size="10.00">map</text>
</a>
</g>
</g>
<!-- Node3&#45;&gt;Node5 -->
<g id="edge4" class="edge">
<title>Node3&#45;&gt;Node5</title>
<path fill="none" stroke="midnightblue" d="M309.5,-56.08C309.5,-49.01 309.5,-38.86 309.5,-29.99"/>
<polygon fill="midnightblue" stroke="midnightblue" points="313,-29.75 309.5,-19.75 306,-29.75 313,-29.75"/>
</g>
<!-- Node6 -->
<g id="node6" class="node">
<title>Node6</title>
<g id="a_node6"><a xlink:title=" ">
<polygon fill="white" stroke="#bfbfbf" points="347,-0.5 347,-19.5 394,-19.5 394,-0.5 347,-0.5"/>
<text text-anchor="middle" x="370.5" y="-7.5" font-family="Helvetica,sans-Serif" font-size="10.00">vector</text>
</a>
</g>
</g>
<!-- Node3&#45;&gt;Node6 -->
<g id="edge5" class="edge">
<title>Node3&#45;&gt;Node6</title>
<path fill="none" stroke="midnightblue" d="M319.3,-56.32C328.32,-48.34 341.91,-36.31 352.82,-26.65"/>
<polygon fill="midnightblue" stroke="midnightblue" points="355.35,-29.08 360.52,-19.83 350.71,-23.84 355.35,-29.08"/>
</g>
<!-- Node9&#45;&gt;Node2 -->
<g id="edge9" class="edge">
<title>Node9&#45;&gt;Node2</title>
<path fill="none" stroke="midnightblue" d="M243.82,-168.44C278.89,-159.16 335,-144.31 373.46,-134.13"/>
<polygon fill="midnightblue" stroke="midnightblue" points="374.56,-137.46 383.33,-131.52 372.76,-130.69 374.56,-137.46"/>
</g>
<!-- Node9&#45;&gt;Node3 -->
<g id="edge10" class="edge">
<title>Node9&#45;&gt;Node3</title>
<path fill="none" stroke="midnightblue" d="M203.73,-168.33C192.94,-155.2 176.07,-129.89 188.5,-112 203.34,-90.65 229.58,-79.41 253.84,-73.5"/>
<polygon fill="midnightblue" stroke="midnightblue" points="254.69,-76.89 263.72,-71.35 253.2,-70.05 254.69,-76.89"/>
</g>
<!-- Node9&#45;&gt;Node7 -->
<g id="edge11" class="edge">
<title>Node9&#45;&gt;Node7</title>
<path fill="none" stroke="midnightblue" d="M163.7,-170.16C138.18,-164.15 108.08,-152.92 88.5,-132 76.84,-119.54 72.29,-100.3 70.54,-85.99"/>
<polygon fill="midnightblue" stroke="midnightblue" points="74.01,-85.44 69.66,-75.78 67.03,-86.05 74.01,-85.44"/>
</g>
<!-- Node9&#45;&gt;Node8 -->
<g id="edge13" class="edge">
<title>Node9&#45;&gt;Node8</title>
<path fill="none" stroke="midnightblue" d="M259.27,-176.52C331.46,-174.66 463.09,-166.49 492.5,-132 504.7,-117.69 492.15,-97.43 479.97,-83.35"/>
<polygon fill="midnightblue" stroke="midnightblue" points="482.39,-80.82 473.03,-75.86 477.26,-85.58 482.39,-80.82"/>
</g>
<!-- Node10 -->
<g id="node10" class="node">
<title>Node10</title>
<g id="a_node10"><a xlink:title=" ">
<polygon fill="white" stroke="#bfbfbf" points="197.5,-112.5 197.5,-131.5 329.5,-131.5 329.5,-112.5 197.5,-112.5"/>
<text text-anchor="middle" x="263.5" y="-119.5" font-family="Helvetica,sans-Serif" font-size="10.00">smart_ptr/weak_ptr.hpp</text>
</a>
</g>
</g>
<!-- Node9&#45;&gt;Node10 -->
<g id="edge12" class="edge">
<title>Node9&#45;&gt;Node10</title>
<path fill="none" stroke="midnightblue" d="M220.09,-168.08C227.66,-160.22 238.88,-148.57 248.01,-139.08"/>
<polygon fill="midnightblue" stroke="midnightblue" points="250.66,-141.38 255.07,-131.75 245.62,-136.53 250.66,-141.38"/>
</g>
<!-- Node11 -->
<g id="node11" class="node">
<title>Node11</title>
<g id="a_node11"><a xlink:title=" ">
<polygon fill="white" stroke="#bfbfbf" points="97.5,-112.5 97.5,-131.5 141.5,-131.5 141.5,-112.5 97.5,-112.5"/>
<text text-anchor="middle" x="119.5" y="-119.5" font-family="Helvetica,sans-Serif" font-size="10.00">string</text>
</a>
</g>
</g>
<!-- Node9&#45;&gt;Node11 -->
<g id="edge14" class="edge">
<title>Node9&#45;&gt;Node11</title>
<path fill="none" stroke="midnightblue" d="M196.72,-168.32C182.23,-159.82 159.93,-146.73 143.01,-136.8"/>
<polygon fill="midnightblue" stroke="midnightblue" points="144.64,-133.7 134.24,-131.65 141.1,-139.74 144.64,-133.7"/>
</g>
</g>
</svg>
