<?xml version="1.0" encoding="UTF-8" standalone="no"?>
<!DOCTYPE svg PUBLIC "-//W3C//DTD SVG 1.1//EN"
 "http://www.w3.org/Graphics/SVG/1.1/DTD/svg11.dtd">
<!-- Generated by graphviz version 2.43.0 (0)
 -->
<!-- Title: message.hpp Pages: 1 -->
<svg width="1297pt" height="252pt"
 viewBox="0.00 0.00 1297.24 252.00" xmlns="http://www.w3.org/2000/svg" xmlns:xlink="http://www.w3.org/1999/xlink">
<g id="graph0" class="graph" transform="scale(1 1) rotate(0) translate(4 248)">
<title>message.hpp</title>
<polygon fill="white" stroke="transparent" points="-4,4 -4,-248 1293.24,-248 1293.24,4 -4,4"/>
<!-- Node1 -->
<g id="node1" class="node">
<title>Node1</title>
<g id="a_node1"><a xlink:title=" ">
<polygon fill="#bfbfbf" stroke="black" points="648,-224.5 648,-243.5 730,-243.5 730,-224.5 648,-224.5"/>
<text text-anchor="middle" x="689" y="-231.5" font-family="Helvetica,sans-Serif" font-size="10.00">message.hpp</text>
</a>
</g>
</g>
<!-- Node2 -->
<g id="node2" class="node">
<title>Node2</title>
<g id="a_node2"><a xlink:href="channel_8cpp.html" target="_top" xlink:title=" ">
<polygon fill="white" stroke="black" points="1085.5,-56.5 1085.5,-75.5 1160.5,-75.5 1160.5,-56.5 1085.5,-56.5"/>
<text text-anchor="middle" x="1123" y="-63.5" font-family="Helvetica,sans-Serif" font-size="10.00">channel.cpp</text>
</a>
</g>
</g>
<!-- Node1&#45;&gt;Node2 -->
<g id="edge1" class="edge">
<title>Node1&#45;&gt;Node2</title>
<path fill="none" stroke="midnightblue" d="M740.52,-232.47C870.44,-229.91 1205.69,-215.21 1270,-132 1275.44,-124.97 1275.29,-119.15 1270,-112 1263.21,-102.83 1199.91,-85.83 1158.61,-75.55"/>
<polygon fill="midnightblue" stroke="midnightblue" points="740.36,-228.98 730.42,-232.66 740.48,-235.98 740.36,-228.98"/>
</g>
<!-- Node3 -->
<g id="node3" class="node">
<title>Node3</title>
<g id="a_node3"><a xlink:href="client__handler_8hpp.html" target="_top" xlink:title=" ">
<polygon fill="white" stroke="black" points="284,-112.5 284,-131.5 390,-131.5 390,-112.5 284,-112.5"/>
<text text-anchor="middle" x="337" y="-119.5" font-family="Helvetica,sans-Serif" font-size="10.00">client_handler.hpp</text>
</a>
</g>
</g>
<!-- Node1&#45;&gt;Node3 -->
<g id="edge2" class="edge">
<title>Node1&#45;&gt;Node3</title>
<path fill="none" stroke="midnightblue" d="M652.17,-221.36C626.97,-213.01 593,-200.97 564,-188 546.94,-180.37 544.47,-174.66 527,-168 481.86,-150.8 428.1,-138.81 389.31,-131.55"/>
<polygon fill="midnightblue" stroke="midnightblue" points="651.12,-224.7 661.72,-224.49 653.3,-218.05 651.12,-224.7"/>
</g>
<!-- Node6 -->
<g id="node6" class="node">
<title>Node6</title>
<g id="a_node6"><a xlink:href="message_8cpp.html" target="_top" xlink:title=" ">
<polygon fill="white" stroke="black" points="293.5,-168.5 293.5,-187.5 374.5,-187.5 374.5,-168.5 293.5,-168.5"/>
<text text-anchor="middle" x="334" y="-175.5" font-family="Helvetica,sans-Serif" font-size="10.00">message.cpp</text>
</a>
</g>
</g>
<!-- Node1&#45;&gt;Node6 -->
<g id="edge5" class="edge">
<title>Node1&#45;&gt;Node6</title>
<path fill="none" stroke="midnightblue" d="M637.91,-225.97C577.27,-217.5 473.13,-202.59 384,-188 380.95,-187.5 377.81,-186.97 374.64,-186.43"/>
<polygon fill="midnightblue" stroke="midnightblue" points="637.6,-229.46 647.99,-227.37 638.57,-222.52 637.6,-229.46"/>
</g>
<!-- Node7 -->
<g id="node7" class="node">
<title>Node7</title>
<g id="a_node7"><a xlink:href="message__decoder_8hpp.html" target="_top" xlink:title=" ">
<polygon fill="white" stroke="black" points="150.5,-168.5 150.5,-187.5 275.5,-187.5 275.5,-168.5 150.5,-168.5"/>
<text text-anchor="middle" x="213" y="-175.5" font-family="Helvetica,sans-Serif" font-size="10.00">message_decoder.hpp</text>
</a>
</g>
</g>
<!-- Node1&#45;&gt;Node7 -->
<g id="edge6" class="edge">
<title>Node1&#45;&gt;Node7</title>
<path fill="none" stroke="midnightblue" d="M637.63,-227.5C560.87,-219.23 411.68,-202.97 285,-188 282,-187.65 278.93,-187.28 275.82,-186.9"/>
<polygon fill="midnightblue" stroke="midnightblue" points="637.66,-231.02 647.98,-228.61 638.41,-224.06 637.66,-231.02"/>
</g>
<!-- Node10 -->
<g id="node10" class="node">
<title>Node10</title>
<g id="a_node10"><a xlink:href="message__encoder_8hpp.html" target="_top" xlink:title=" ">
<polygon fill="white" stroke="black" points="392.5,-168.5 392.5,-187.5 517.5,-187.5 517.5,-168.5 392.5,-168.5"/>
<text text-anchor="middle" x="455" y="-175.5" font-family="Helvetica,sans-Serif" font-size="10.00">message_encoder.hpp</text>
</a>
</g>
</g>
<!-- Node1&#45;&gt;Node10 -->
<g id="edge10" class="edge">
<title>Node1&#45;&gt;Node10</title>
<path fill="none" stroke="midnightblue" d="M642,-222.15C597.78,-211.95 532.48,-196.88 491.9,-187.52"/>
<polygon fill="midnightblue" stroke="midnightblue" points="641.39,-225.61 651.92,-224.44 642.97,-218.78 641.39,-225.61"/>
</g>
<!-- Node11 -->
<g id="node11" class="node">
<title>Node11</title>
<g id="a_node11"><a xlink:href="processor_8hpp.html" target="_top" xlink:title=" ">
<polygon fill="white" stroke="black" points="612,-168.5 612,-187.5 696,-187.5 696,-168.5 612,-168.5"/>
<text text-anchor="middle" x="654" y="-175.5" font-family="Helvetica,sans-Serif" font-size="10.00">processor.hpp</text>
</a>
</g>
</g>
<!-- Node1&#45;&gt;Node11 -->
<g id="edge13" class="edge">
<title>Node1&#45;&gt;Node11</title>
<path fill="none" stroke="midnightblue" d="M677.7,-215.57C671.68,-206.27 664.53,-195.25 659.67,-187.75"/>
<polygon fill="midnightblue" stroke="midnightblue" points="674.84,-217.6 683.22,-224.08 680.72,-213.79 674.84,-217.6"/>
</g>
<!-- Node13 -->
<g id="node13" class="node">
<title>Node13</title>
<g id="a_node13"><a xlink:href="processor__channel_8hpp.html" target="_top" xlink:title=" ">
<polygon fill="white" stroke="black" points="854,-56.5 854,-75.5 982,-75.5 982,-56.5 854,-56.5"/>
<text text-anchor="middle" x="918" y="-63.5" font-family="Helvetica,sans-Serif" font-size="10.00">processor_channel.hpp</text>
</a>
</g>
</g>
<!-- Node1&#45;&gt;Node13 -->
<g id="edge27" class="edge">
<title>Node1&#45;&gt;Node13</title>
<path fill="none" stroke="midnightblue" d="M740.18,-227.38C780.13,-221.52 836.18,-209.98 881,-188 916.46,-170.61 933.02,-167.66 950,-132 959.63,-111.79 940.4,-88.26 927.78,-75.8"/>
<polygon fill="midnightblue" stroke="midnightblue" points="739.55,-223.94 730.14,-228.79 740.52,-230.87 739.55,-223.94"/>
</g>
<!-- Node14 -->
<g id="node14" class="node">
<title>Node14</title>
<g id="a_node14"><a xlink:href="processor__misc_8hpp.html" target="_top" xlink:title=" ">
<polygon fill="white" stroke="black" points="666.5,-112.5 666.5,-131.5 779.5,-131.5 779.5,-112.5 666.5,-112.5"/>
<text text-anchor="middle" x="723" y="-119.5" font-family="Helvetica,sans-Serif" font-size="10.00">processor_misc.hpp</text>
</a>
</g>
</g>
<!-- Node1&#45;&gt;Node14 -->
<g id="edge28" class="edge">
<title>Node1&#45;&gt;Node14</title>
<path fill="none" stroke="midnightblue" d="M695.79,-214.85C698.75,-206.69 702.19,-196.91 705,-188 711.28,-168.12 717.53,-144.46 720.75,-131.89"/>
<polygon fill="midnightblue" stroke="midnightblue" points="692.43,-213.84 692.25,-224.43 699,-216.26 692.43,-213.84"/>
</g>
<!-- Node15 -->
<g id="node15" class="node">
<title>Node15</title>
<g id="a_node15"><a xlink:href="processor__register_8hpp.html" target="_top" xlink:title=" ">
<polygon fill="white" stroke="black" points="797.5,-112.5 797.5,-131.5 924.5,-131.5 924.5,-112.5 797.5,-112.5"/>
<text text-anchor="middle" x="861" y="-119.5" font-family="Helvetica,sans-Serif" font-size="10.00">processor_register.hpp</text>
</a>
</g>
</g>
<!-- Node1&#45;&gt;Node15 -->
<g id="edge29" class="edge">
<title>Node1&#45;&gt;Node15</title>
<path fill="none" stroke="midnightblue" d="M711.34,-218.71C747.58,-195.53 818.11,-150.43 847.57,-131.59"/>
<polygon fill="midnightblue" stroke="midnightblue" points="709.04,-216.03 702.5,-224.37 712.81,-221.93 709.04,-216.03"/>
</g>
<!-- Node16 -->
<g id="node16" class="node">
<title>Node16</title>
<g id="a_node16"><a xlink:href="processor__send__message_8hpp.html" target="_top" xlink:title=" ">
<polygon fill="white" stroke="black" points="408.5,-112.5 408.5,-131.5 571.5,-131.5 571.5,-112.5 408.5,-112.5"/>
<text text-anchor="middle" x="490" y="-119.5" font-family="Helvetica,sans-Serif" font-size="10.00">processor_send_message.hpp</text>
</a>
</g>
</g>
<!-- Node1&#45;&gt;Node16 -->
<g id="edge30" class="edge">
<title>Node1&#45;&gt;Node16</title>
<path fill="none" stroke="midnightblue" d="M662.73,-219.6C645.63,-210.79 622.88,-198.91 603,-188 567.29,-168.4 525.93,-144.23 504.52,-131.6"/>
<polygon fill="midnightblue" stroke="midnightblue" points="661.59,-222.95 672.09,-224.4 664.79,-216.72 661.59,-222.95"/>
</g>
<!-- Node17 -->
<g id="node17" class="node">
<title>Node17</title>
<g id="a_node17"><a xlink:href="processor__user_8hpp.html" target="_top" xlink:title=" ">
<polygon fill="white" stroke="black" points="1151,-112.5 1151,-131.5 1261,-131.5 1261,-112.5 1151,-112.5"/>
<text text-anchor="middle" x="1206" y="-119.5" font-family="Helvetica,sans-Serif" font-size="10.00">processor_user.hpp</text>
</a>
</g>
</g>
<!-- Node1&#45;&gt;Node17 -->
<g id="edge31" class="edge">
<title>Node1&#45;&gt;Node17</title>
<path fill="none" stroke="midnightblue" d="M740.12,-228.44C803.02,-222.21 912.81,-209.3 1005,-188 1071.29,-172.68 1147.05,-145.43 1183.75,-131.59"/>
<polygon fill="midnightblue" stroke="midnightblue" points="739.68,-224.97 730.07,-229.42 740.36,-231.93 739.68,-224.97"/>
</g>
<!-- Node18 -->
<g id="node18" class="node">
<title>Node18</title>
<g id="a_node18"><a xlink:href="reply_8hpp.html" target="_top" xlink:title=" ">
<polygon fill="white" stroke="black" points="810.5,-168.5 810.5,-187.5 871.5,-187.5 871.5,-168.5 810.5,-168.5"/>
<text text-anchor="middle" x="841" y="-175.5" font-family="Helvetica,sans-Serif" font-size="10.00">reply.hpp</text>
</a>
</g>
</g>
<!-- Node1&#45;&gt;Node18 -->
<g id="edge32" class="edge">
<title>Node1&#45;&gt;Node18</title>
<path fill="none" stroke="midnightblue" d="M722.67,-221.04C751.27,-210.88 791.61,-196.55 817.03,-187.52"/>
<polygon fill="midnightblue" stroke="midnightblue" points="721.34,-217.8 713.08,-224.44 723.68,-224.39 721.34,-217.8"/>
</g>
<!-- Node21 -->
<g id="node21" class="node">
<title>Node21</title>
<g id="a_node21"><a xlink:href="user_8cpp.html" target="_top" xlink:title=" ">
<polygon fill="white" stroke="black" points="1178.5,-56.5 1178.5,-75.5 1235.5,-75.5 1235.5,-56.5 1178.5,-56.5"/>
<text text-anchor="middle" x="1207" y="-63.5" font-family="Helvetica,sans-Serif" font-size="10.00">user.cpp</text>
</a>
</g>
</g>
<!-- Node1&#45;&gt;Node21 -->
<g id="edge49" class="edge">
<title>Node1&#45;&gt;Node21</title>
<path fill="none" stroke="midnightblue" d="M740.38,-231.63C852.55,-228.13 1116.02,-217 1200,-188 1243.11,-173.11 1264.26,-172.1 1286,-132 1300.18,-105.85 1261.98,-86.09 1233.88,-75.56"/>
<polygon fill="midnightblue" stroke="midnightblue" points="740.22,-228.13 730.33,-231.94 740.43,-235.13 740.22,-228.13"/>
</g>
<!-- Node22 -->
<g id="node22" class="node">
<title>Node22</title>
<g id="a_node22"><a xlink:href="string__line__encoder_8hpp.html" target="_top" xlink:title=" ">
<polygon fill="white" stroke="black" points="0,-168.5 0,-187.5 132,-187.5 132,-168.5 0,-168.5"/>
<text text-anchor="middle" x="66" y="-175.5" font-family="Helvetica,sans-Serif" font-size="10.00">string_line_encoder.hpp</text>
</a>
</g>
</g>
<!-- Node1&#45;&gt;Node22 -->
<g id="edge46" class="edge">
<title>Node1&#45;&gt;Node22</title>
<path fill="none" stroke="midnightblue" d="M637.67,-229.39C540.71,-222.44 324.04,-206.26 142,-188 138.83,-187.68 135.58,-187.34 132.3,-186.99"/>
<polygon fill="midnightblue" stroke="midnightblue" points="637.56,-232.89 647.78,-230.12 638.06,-225.91 637.56,-232.89"/>
</g>
<!-- Node4 -->
<g id="node4" class="node">
<title>Node4</title>
<g id="a_node4"><a xlink:href="server__handler_8hpp.html" target="_top" xlink:title=" ">
<polygon fill="white" stroke="black" points="49,-56.5 49,-75.5 159,-75.5 159,-56.5 49,-56.5"/>
<text text-anchor="middle" x="104" y="-63.5" font-family="Helvetica,sans-Serif" font-size="10.00">server_handler.hpp</text>
</a>
</g>
</g>
<!-- Node3&#45;&gt;Node4 -->
<g id="edge3" class="edge">
<title>Node3&#45;&gt;Node4</title>
<path fill="none" stroke="midnightblue" d="M290.2,-110.15C246.17,-99.95 181.15,-84.88 140.75,-75.52"/>
<polygon fill="midnightblue" stroke="midnightblue" points="289.55,-113.6 300.08,-112.44 291.13,-106.78 289.55,-113.6"/>
</g>
<!-- Node5 -->
<g id="node5" class="node">
<title>Node5</title>
<g id="a_node5"><a xlink:href="main_8cpp.html" target="_top" xlink:title=" ">
<polygon fill="white" stroke="black" points="73,-0.5 73,-19.5 135,-19.5 135,-0.5 73,-0.5"/>
<text text-anchor="middle" x="104" y="-7.5" font-family="Helvetica,sans-Serif" font-size="10.00">main.cpp</text>
</a>
</g>
</g>
<!-- Node4&#45;&gt;Node5 -->
<g id="edge4" class="edge">
<title>Node4&#45;&gt;Node5</title>
<path fill="none" stroke="midnightblue" d="M104,-45.8C104,-36.91 104,-26.78 104,-19.75"/>
<polygon fill="midnightblue" stroke="midnightblue" points="100.5,-46.08 104,-56.08 107.5,-46.08 100.5,-46.08"/>
</g>
<!-- Node7&#45;&gt;Node4 -->
<g id="edge9" class="edge">
<title>Node7&#45;&gt;Node4</title>
<path fill="none" stroke="midnightblue" d="M176.43,-164.62C159.73,-157.37 140.87,-146.71 128,-132 113.43,-115.34 107.4,-89.05 105.17,-75.58"/>
<polygon fill="midnightblue" stroke="midnightblue" points="175.36,-167.96 185.94,-168.49 178,-161.48 175.36,-167.96"/>
</g>
<!-- Node8 -->
<g id="node8" class="node">
<title>Node8</title>
<g id="a_node8"><a xlink:href="bot__handler_8hpp.html" target="_top" xlink:title=" ">
<polygon fill="white" stroke="black" points="170.5,-112.5 170.5,-131.5 265.5,-131.5 265.5,-112.5 170.5,-112.5"/>
<text text-anchor="middle" x="218" y="-119.5" font-family="Helvetica,sans-Serif" font-size="10.00">bot_handler.hpp</text>
</a>
</g>
</g>
<!-- Node7&#45;&gt;Node8 -->
<g id="edge7" class="edge">
<title>Node7&#45;&gt;Node8</title>
<path fill="none" stroke="midnightblue" d="M214.75,-158.1C215.58,-149.14 216.53,-138.86 217.19,-131.75"/>
<polygon fill="midnightblue" stroke="midnightblue" points="211.26,-157.8 213.83,-168.08 218.23,-158.45 211.26,-157.8"/>
</g>
<!-- Node9 -->
<g id="node9" class="node">
<title>Node9</title>
<g id="a_node9"><a xlink:href="bot__main_8cpp.html" target="_top" xlink:title=" ">
<polygon fill="white" stroke="black" points="177.5,-56.5 177.5,-75.5 260.5,-75.5 260.5,-56.5 177.5,-56.5"/>
<text text-anchor="middle" x="219" y="-63.5" font-family="Helvetica,sans-Serif" font-size="10.00">bot_main.cpp</text>
</a>
</g>
</g>
<!-- Node8&#45;&gt;Node9 -->
<g id="edge8" class="edge">
<title>Node8&#45;&gt;Node9</title>
<path fill="none" stroke="midnightblue" d="M218.36,-101.8C218.52,-92.91 218.71,-82.78 218.84,-75.75"/>
<polygon fill="midnightblue" stroke="midnightblue" points="214.85,-102.02 218.17,-112.08 221.85,-102.15 214.85,-102.02"/>
</g>
<!-- Node10&#45;&gt;Node4 -->
<g id="edge12" class="edge">
<title>Node10&#45;&gt;Node4</title>
<path fill="none" stroke="midnightblue" d="M382.46,-167.11C298.86,-155.52 171.66,-137.24 162,-132 137.28,-118.58 117.86,-90.35 109.09,-75.91"/>
<polygon fill="midnightblue" stroke="midnightblue" points="382.04,-170.58 392.43,-168.49 383,-163.65 382.04,-170.58"/>
</g>
<!-- Node10&#45;&gt;Node8 -->
<g id="edge11" class="edge">
<title>Node10&#45;&gt;Node8</title>
<path fill="none" stroke="midnightblue" d="M407.68,-166.22C362.89,-156.01 296.56,-140.9 255.38,-131.52"/>
<polygon fill="midnightblue" stroke="midnightblue" points="406.92,-169.63 417.45,-168.44 408.47,-162.81 406.92,-169.63"/>
</g>
<!-- Node11&#45;&gt;Node3 -->
<g id="edge15" class="edge">
<title>Node11&#45;&gt;Node3</title>
<path fill="none" stroke="midnightblue" d="M601.97,-168.14C542.49,-158 445.79,-141.53 387.12,-131.54"/>
<polygon fill="midnightblue" stroke="midnightblue" points="601.46,-171.6 611.9,-169.83 602.63,-164.7 601.46,-171.6"/>
</g>
<!-- Node11&#45;&gt;Node8 -->
<g id="edge14" class="edge">
<title>Node11&#45;&gt;Node8</title>
<path fill="none" stroke="midnightblue" d="M601.54,-171.42C528.32,-163.47 391.36,-148.09 275,-132 271.92,-131.57 268.76,-131.12 265.57,-130.65"/>
<polygon fill="midnightblue" stroke="midnightblue" points="601.55,-174.94 611.87,-172.53 602.3,-167.98 601.55,-174.94"/>
</g>
<!-- Node12 -->
<g id="node12" class="node">
<title>Node12</title>
<g id="a_node12"><a xlink:href="processor_8cpp.html" target="_top" xlink:title=" ">
<polygon fill="white" stroke="black" points="732.5,-0.5 732.5,-19.5 815.5,-19.5 815.5,-0.5 732.5,-0.5"/>
<text text-anchor="middle" x="774" y="-7.5" font-family="Helvetica,sans-Serif" font-size="10.00">processor.cpp</text>
</a>
</g>
</g>
<!-- Node11&#45;&gt;Node12 -->
<g id="edge16" class="edge">
<title>Node11&#45;&gt;Node12</title>
<path fill="none" stroke="midnightblue" d="M646.02,-158.47C641.46,-144.96 637.91,-126.55 645,-112 667.79,-65.2 723.92,-33.7 754.07,-19.54"/>
<polygon fill="midnightblue" stroke="midnightblue" points="642.86,-160.01 649.72,-168.09 649.4,-157.5 642.86,-160.01"/>
</g>
<!-- Node11&#45;&gt;Node13 -->
<g id="edge17" class="edge">
<title>Node11&#45;&gt;Node13</title>
<path fill="none" stroke="midnightblue" d="M649.51,-158.31C647.24,-143.87 646.94,-124.35 658,-112 683.41,-83.64 785.47,-73.13 853.91,-69.26"/>
<polygon fill="midnightblue" stroke="midnightblue" points="646.08,-159.03 651.48,-168.14 652.95,-157.65 646.08,-159.03"/>
</g>
<!-- Node11&#45;&gt;Node14 -->
<g id="edge19" class="edge">
<title>Node11&#45;&gt;Node14</title>
<path fill="none" stroke="midnightblue" d="M673.04,-162.1C685.46,-152.38 701.24,-140.03 711.71,-131.83"/>
<polygon fill="midnightblue" stroke="midnightblue" points="670.8,-159.4 665.09,-168.32 675.12,-164.92 670.8,-159.4"/>
</g>
<!-- Node11&#45;&gt;Node15 -->
<g id="edge21" class="edge">
<title>Node11&#45;&gt;Node15</title>
<path fill="none" stroke="midnightblue" d="M696.82,-165.83C735.91,-155.63 792.83,-140.78 828.35,-131.52"/>
<polygon fill="midnightblue" stroke="midnightblue" points="695.59,-162.53 686.8,-168.44 697.36,-169.31 695.59,-162.53"/>
</g>
<!-- Node11&#45;&gt;Node16 -->
<g id="edge23" class="edge">
<title>Node11&#45;&gt;Node16</title>
<path fill="none" stroke="midnightblue" d="M618.48,-165.3C587.58,-155.13 543.53,-140.62 515.86,-131.52"/>
<polygon fill="midnightblue" stroke="midnightblue" points="617.42,-168.64 628.01,-168.44 619.61,-161.99 617.42,-168.64"/>
</g>
<!-- Node11&#45;&gt;Node17 -->
<g id="edge25" class="edge">
<title>Node11&#45;&gt;Node17</title>
<path fill="none" stroke="midnightblue" d="M706.39,-171.88C810.77,-161.66 1043.81,-138.87 1150.61,-128.42"/>
<polygon fill="midnightblue" stroke="midnightblue" points="706.01,-168.4 696.4,-172.85 706.69,-175.36 706.01,-168.4"/>
</g>
<!-- Node13&#45;&gt;Node12 -->
<g id="edge18" class="edge">
<title>Node13&#45;&gt;Node12</title>
<path fill="none" stroke="midnightblue" d="M885.75,-52.91C858.68,-42.75 820.68,-28.51 796.71,-19.52"/>
<polygon fill="midnightblue" stroke="midnightblue" points="884.59,-56.21 895.18,-56.44 887.05,-49.66 884.59,-56.21"/>
</g>
<!-- Node14&#45;&gt;Node12 -->
<g id="edge20" class="edge">
<title>Node14&#45;&gt;Node12</title>
<path fill="none" stroke="midnightblue" d="M731.35,-103C742.47,-79 761.73,-37.47 770.02,-19.59"/>
<polygon fill="midnightblue" stroke="midnightblue" points="728.03,-101.82 727,-112.37 734.38,-104.77 728.03,-101.82"/>
</g>
<!-- Node15&#45;&gt;Node12 -->
<g id="edge22" class="edge">
<title>Node15&#45;&gt;Node12</title>
<path fill="none" stroke="midnightblue" d="M847.77,-104.27C828.96,-80.49 795.19,-37.79 780.8,-19.59"/>
<polygon fill="midnightblue" stroke="midnightblue" points="845.22,-106.7 854.17,-112.37 850.72,-102.35 845.22,-106.7"/>
</g>
<!-- Node16&#45;&gt;Node12 -->
<g id="edge24" class="edge">
<title>Node16&#45;&gt;Node12</title>
<path fill="none" stroke="midnightblue" d="M507.75,-106.07C526.18,-91.29 556.43,-69.03 586,-56 633.91,-34.89 693.24,-22.8 732.28,-16.57"/>
<polygon fill="midnightblue" stroke="midnightblue" points="505.45,-103.43 499.92,-112.46 509.88,-108.84 505.45,-103.43"/>
</g>
<!-- Node17&#45;&gt;Node12 -->
<g id="edge26" class="edge">
<title>Node17&#45;&gt;Node12</title>
<path fill="none" stroke="midnightblue" d="M1225.83,-105.67C1241.53,-91.73 1258.72,-71.09 1245,-56 1216.37,-24.51 925.4,-14.51 815.62,-11.85"/>
<polygon fill="midnightblue" stroke="midnightblue" points="1223.35,-103.19 1217.93,-112.29 1227.85,-108.55 1223.35,-103.19"/>
</g>
<!-- Node18&#45;&gt;Node2 -->
<g id="edge34" class="edge">
<title>Node18&#45;&gt;Node2</title>
<path fill="none" stroke="midnightblue" d="M881.88,-175.18C947.39,-171.45 1071.81,-160.68 1104,-132 1120.33,-117.45 1122.96,-89.73 1123.18,-75.66"/>
<polygon fill="midnightblue" stroke="midnightblue" points="881.31,-171.71 871.51,-175.74 881.69,-178.7 881.31,-171.71"/>
</g>
<!-- Node18&#45;&gt;Node3 -->
<g id="edge40" class="edge">
<title>Node18&#45;&gt;Node3</title>
<path fill="none" stroke="midnightblue" d="M800.14,-173.38C722.21,-166.36 547.01,-149.99 400,-132 396.82,-131.61 393.55,-131.19 390.26,-130.76"/>
<polygon fill="midnightblue" stroke="midnightblue" points="800.2,-176.9 810.48,-174.31 800.83,-169.93 800.2,-176.9"/>
</g>
<!-- Node18&#45;&gt;Node8 -->
<g id="edge33" class="edge">
<title>Node18&#45;&gt;Node8</title>
<path fill="none" stroke="midnightblue" d="M799.96,-174.15C687.66,-166.29 376.94,-144.08 275,-132 271.92,-131.63 268.74,-131.23 265.55,-130.79"/>
<polygon fill="midnightblue" stroke="midnightblue" points="799.97,-177.66 810.19,-174.87 800.46,-170.68 799.97,-177.66"/>
</g>
<!-- Node18&#45;&gt;Node13 -->
<g id="edge41" class="edge">
<title>Node18&#45;&gt;Node13</title>
<path fill="none" stroke="midnightblue" d="M881.46,-168.07C900.89,-161.53 922.42,-150.46 934,-132 945.24,-114.08 932.41,-88.79 924.05,-75.66"/>
<polygon fill="midnightblue" stroke="midnightblue" points="880.39,-164.74 871.85,-171.01 882.44,-171.44 880.39,-164.74"/>
</g>
<!-- Node18&#45;&gt;Node14 -->
<g id="edge42" class="edge">
<title>Node18&#45;&gt;Node14</title>
<path fill="none" stroke="midnightblue" d="M813.1,-164.23C791.03,-154.13 760.82,-140.31 741.61,-131.52"/>
<polygon fill="midnightblue" stroke="midnightblue" points="811.75,-167.46 822.3,-168.44 814.67,-161.1 811.75,-167.46"/>
</g>
<!-- Node18&#45;&gt;Node15 -->
<g id="edge43" class="edge">
<title>Node18&#45;&gt;Node15</title>
<path fill="none" stroke="midnightblue" d="M847.78,-158.69C851.15,-149.59 855.07,-139.01 857.76,-131.75"/>
<polygon fill="midnightblue" stroke="midnightblue" points="844.49,-157.49 844.3,-168.08 851.06,-159.92 844.49,-157.49"/>
</g>
<!-- Node18&#45;&gt;Node16 -->
<g id="edge44" class="edge">
<title>Node18&#45;&gt;Node16</title>
<path fill="none" stroke="midnightblue" d="M800.53,-170.77C737.69,-161.11 616.51,-142.46 545.53,-131.54"/>
<polygon fill="midnightblue" stroke="midnightblue" points="800.05,-174.24 810.47,-172.3 801.11,-167.32 800.05,-174.24"/>
</g>
<!-- Node18&#45;&gt;Node17 -->
<g id="edge45" class="edge">
<title>Node18&#45;&gt;Node17</title>
<path fill="none" stroke="midnightblue" d="M881.79,-170.97C947.51,-161.24 1076.94,-142.09 1150.84,-131.16"/>
<polygon fill="midnightblue" stroke="midnightblue" points="881.19,-167.52 871.81,-172.44 882.21,-174.44 881.19,-167.52"/>
</g>
<!-- Node19 -->
<g id="node19" class="node">
<title>Node19</title>
<g id="a_node19"><a xlink:href="channel_8hpp.html" target="_top" xlink:title=" ">
<polygon fill="white" stroke="black" points="1019,-112.5 1019,-131.5 1095,-131.5 1095,-112.5 1019,-112.5"/>
<text text-anchor="middle" x="1057" y="-119.5" font-family="Helvetica,sans-Serif" font-size="10.00">channel.hpp</text>
</a>
</g>
</g>
<!-- Node18&#45;&gt;Node19 -->
<g id="edge35" class="edge">
<title>Node18&#45;&gt;Node19</title>
<path fill="none" stroke="midnightblue" d="M881.84,-166.79C922.64,-156.59 984.65,-141.09 1022.9,-131.52"/>
<polygon fill="midnightblue" stroke="midnightblue" points="880.8,-163.44 871.95,-169.26 882.5,-170.23 880.8,-163.44"/>
</g>
<!-- Node19&#45;&gt;Node2 -->
<g id="edge36" class="edge">
<title>Node19&#45;&gt;Node2</title>
<path fill="none" stroke="midnightblue" d="M1075.55,-105.82C1087.38,-96.15 1102.29,-83.95 1112.2,-75.83"/>
<polygon fill="midnightblue" stroke="midnightblue" points="1073.13,-103.28 1067.6,-112.32 1077.56,-108.7 1073.13,-103.28"/>
</g>
<!-- Node19&#45;&gt;Node13 -->
<g id="edge37" class="edge">
<title>Node19&#45;&gt;Node13</title>
<path fill="none" stroke="midnightblue" d="M1025.52,-108.77C999.41,-98.63 962.96,-84.47 939.92,-75.52"/>
<polygon fill="midnightblue" stroke="midnightblue" points="1024.39,-112.08 1034.98,-112.44 1026.92,-105.56 1024.39,-112.08"/>
</g>
<!-- Node20 -->
<g id="node20" class="node">
<title>Node20</title>
<g id="a_node20"><a xlink:href="server_8cpp.html" target="_top" xlink:title=" ">
<polygon fill="white" stroke="black" points="1000.5,-56.5 1000.5,-75.5 1067.5,-75.5 1067.5,-56.5 1000.5,-56.5"/>
<text text-anchor="middle" x="1034" y="-63.5" font-family="Helvetica,sans-Serif" font-size="10.00">server.cpp</text>
</a>
</g>
</g>
<!-- Node19&#45;&gt;Node20 -->
<g id="edge38" class="edge">
<title>Node19&#45;&gt;Node20</title>
<path fill="none" stroke="midnightblue" d="M1049.2,-102.69C1045.32,-93.59 1040.82,-83.01 1037.73,-75.75"/>
<polygon fill="midnightblue" stroke="midnightblue" points="1046.06,-104.25 1053.2,-112.08 1052.5,-101.51 1046.06,-104.25"/>
</g>
<!-- Node19&#45;&gt;Node21 -->
<g id="edge39" class="edge">
<title>Node19&#45;&gt;Node21</title>
<path fill="none" stroke="midnightblue" d="M1090.22,-109.04C1118.45,-98.88 1158.26,-84.55 1183.34,-75.52"/>
<polygon fill="midnightblue" stroke="midnightblue" points="1088.99,-105.76 1080.77,-112.44 1091.36,-112.35 1088.99,-105.76"/>
</g>
<!-- Node22&#45;&gt;Node4 -->
<g id="edge48" class="edge">
<title>Node22&#45;&gt;Node4</title>
<path fill="none" stroke="midnightblue" d="M72.33,-158.67C80.64,-134.62 94.88,-93.39 101.03,-75.59"/>
<polygon fill="midnightblue" stroke="midnightblue" points="68.94,-157.77 68.98,-168.37 75.56,-160.06 68.94,-157.77"/>
</g>
<!-- Node22&#45;&gt;Node8 -->
<g id="edge47" class="edge">
<title>Node22&#45;&gt;Node8</title>
<path fill="none" stroke="midnightblue" d="M99.67,-165.04C128.27,-154.88 168.61,-140.55 194.03,-131.52"/>
<polygon fill="midnightblue" stroke="midnightblue" points="98.34,-161.8 90.08,-168.44 100.68,-168.39 98.34,-161.8"/>
</g>
</g>
</svg>
