<?xml version="1.0" encoding="UTF-8" standalone="no"?>
<!DOCTYPE svg PUBLIC "-//W3C//DTD SVG 1.1//EN"
 "http://www.w3.org/Graphics/SVG/1.1/DTD/svg11.dtd">
<!-- Generated by graphviz version 2.43.0 (0)
 -->
<!-- Title: message.hpp Pages: 1 -->
<svg width="1404pt" height="252pt"
 viewBox="0.00 0.00 1403.50 252.00" xmlns="http://www.w3.org/2000/svg" xmlns:xlink="http://www.w3.org/1999/xlink">
<g id="graph0" class="graph" transform="scale(1 1) rotate(0) translate(4 248)">
<title>message.hpp</title>
<polygon fill="white" stroke="transparent" points="-4,4 -4,-248 1399.5,-248 1399.5,4 -4,4"/>
<!-- Node1 -->
<g id="node1" class="node">
<title>Node1</title>
<g id="a_node1"><a xlink:title=" ">
<polygon fill="#bfbfbf" stroke="black" points="616,-224.5 616,-243.5 698,-243.5 698,-224.5 616,-224.5"/>
<text text-anchor="middle" x="657" y="-231.5" font-family="Helvetica,sans-Serif" font-size="10.00">message.hpp</text>
</a>
</g>
</g>
<!-- Node2 -->
<g id="node2" class="node">
<title>Node2</title>
<g id="a_node2"><a xlink:href="channel_8cpp.html" target="_top" xlink:title=" ">
<polygon fill="white" stroke="black" points="1320.5,-56.5 1320.5,-75.5 1395.5,-75.5 1395.5,-56.5 1320.5,-56.5"/>
<text text-anchor="middle" x="1358" y="-63.5" font-family="Helvetica,sans-Serif" font-size="10.00">channel.cpp</text>
</a>
</g>
</g>
<!-- Node1&#45;&gt;Node2 -->
<g id="edge1" class="edge">
<title>Node1&#45;&gt;Node2</title>
<path fill="none" stroke="midnightblue" d="M708.4,-231.5C823.33,-227.69 1097.91,-215.88 1186,-188 1258.4,-165.09 1326.7,-99.53 1349.76,-75.75"/>
<polygon fill="midnightblue" stroke="midnightblue" points="708,-228.01 698.12,-231.84 708.23,-235.01 708,-228.01"/>
</g>
<!-- Node3 -->
<g id="node3" class="node">
<title>Node3</title>
<g id="a_node3"><a xlink:href="client__handler_8hpp.html" target="_top" xlink:title=" ">
<polygon fill="white" stroke="black" points="398,-112.5 398,-131.5 504,-131.5 504,-112.5 398,-112.5"/>
<text text-anchor="middle" x="451" y="-119.5" font-family="Helvetica,sans-Serif" font-size="10.00">client_handler.hpp</text>
</a>
</g>
</g>
<!-- Node1&#45;&gt;Node3 -->
<g id="edge2" class="edge">
<title>Node1&#45;&gt;Node3</title>
<path fill="none" stroke="midnightblue" d="M637.65,-218.35C618.57,-204.32 588.24,-183.1 560,-168 532.02,-153.04 497.96,-139.7 475.44,-131.5"/>
<polygon fill="midnightblue" stroke="midnightblue" points="635.7,-221.27 645.82,-224.42 639.88,-215.65 635.7,-221.27"/>
</g>
<!-- Node6 -->
<g id="node6" class="node">
<title>Node6</title>
<g id="a_node6"><a xlink:href="message_8cpp.html" target="_top" xlink:title=" ">
<polygon fill="white" stroke="black" points="293.5,-168.5 293.5,-187.5 374.5,-187.5 374.5,-168.5 293.5,-168.5"/>
<text text-anchor="middle" x="334" y="-175.5" font-family="Helvetica,sans-Serif" font-size="10.00">message.cpp</text>
</a>
</g>
</g>
<!-- Node1&#45;&gt;Node6 -->
<g id="edge5" class="edge">
<title>Node1&#45;&gt;Node6</title>
<path fill="none" stroke="midnightblue" d="M605.63,-224.76C550.73,-215.91 461.16,-201.3 384,-188 380.96,-187.48 377.81,-186.93 374.65,-186.37"/>
<polygon fill="midnightblue" stroke="midnightblue" points="605.38,-228.27 615.81,-226.4 606.49,-221.36 605.38,-228.27"/>
</g>
<!-- Node7 -->
<g id="node7" class="node">
<title>Node7</title>
<g id="a_node7"><a xlink:href="message__decoder_8hpp.html" target="_top" xlink:title=" ">
<polygon fill="white" stroke="black" points="150.5,-168.5 150.5,-187.5 275.5,-187.5 275.5,-168.5 150.5,-168.5"/>
<text text-anchor="middle" x="213" y="-175.5" font-family="Helvetica,sans-Serif" font-size="10.00">message_decoder.hpp</text>
</a>
</g>
</g>
<!-- Node1&#45;&gt;Node7 -->
<g id="edge6" class="edge">
<title>Node1&#45;&gt;Node7</title>
<path fill="none" stroke="midnightblue" d="M605.87,-226.88C534.15,-218.28 399.62,-202.1 285,-188 282,-187.63 278.93,-187.25 275.83,-186.87"/>
<polygon fill="midnightblue" stroke="midnightblue" points="605.64,-230.38 615.98,-228.09 606.47,-223.43 605.64,-230.38"/>
</g>
<!-- Node10 -->
<g id="node10" class="node">
<title>Node10</title>
<g id="a_node10"><a xlink:href="message__encoder_8hpp.html" target="_top" xlink:title=" ">
<polygon fill="white" stroke="black" points="392.5,-168.5 392.5,-187.5 517.5,-187.5 517.5,-168.5 392.5,-168.5"/>
<text text-anchor="middle" x="455" y="-175.5" font-family="Helvetica,sans-Serif" font-size="10.00">message_encoder.hpp</text>
</a>
</g>
</g>
<!-- Node1&#45;&gt;Node10 -->
<g id="edge10" class="edge">
<title>Node1&#45;&gt;Node10</title>
<path fill="none" stroke="midnightblue" d="M615.21,-221.83C577.07,-211.63 521.52,-196.78 486.86,-187.52"/>
<polygon fill="midnightblue" stroke="midnightblue" points="614.43,-225.24 624.99,-224.44 616.24,-218.48 614.43,-225.24"/>
</g>
<!-- Node11 -->
<g id="node11" class="node">
<title>Node11</title>
<g id="a_node11"><a xlink:href="processor_8hpp.html" target="_top" xlink:title=" ">
<polygon fill="white" stroke="black" points="650,-168.5 650,-187.5 734,-187.5 734,-168.5 650,-168.5"/>
<text text-anchor="middle" x="692" y="-175.5" font-family="Helvetica,sans-Serif" font-size="10.00">processor.hpp</text>
</a>
</g>
</g>
<!-- Node1&#45;&gt;Node11 -->
<g id="edge13" class="edge">
<title>Node1&#45;&gt;Node11</title>
<path fill="none" stroke="midnightblue" d="M668.3,-215.57C674.32,-206.27 681.47,-195.25 686.33,-187.75"/>
<polygon fill="midnightblue" stroke="midnightblue" points="665.28,-213.79 662.78,-224.08 671.16,-217.6 665.28,-213.79"/>
</g>
<!-- Node13 -->
<g id="node13" class="node">
<title>Node13</title>
<g id="a_node13"><a xlink:href="processor__channel_8hpp.html" target="_top" xlink:title=" ">
<polygon fill="white" stroke="black" points="1014,-56.5 1014,-75.5 1142,-75.5 1142,-56.5 1014,-56.5"/>
<text text-anchor="middle" x="1078" y="-63.5" font-family="Helvetica,sans-Serif" font-size="10.00">processor_channel.hpp</text>
</a>
</g>
</g>
<!-- Node1&#45;&gt;Node13 -->
<g id="edge27" class="edge">
<title>Node1&#45;&gt;Node13</title>
<path fill="none" stroke="midnightblue" d="M708.32,-230.38C771.35,-226.09 880.97,-215.13 971,-188 1026.58,-171.25 1057.98,-181.06 1089,-132 1100.13,-114.39 1089.88,-88.97 1083.02,-75.74"/>
<polygon fill="midnightblue" stroke="midnightblue" points="707.99,-226.89 698.24,-231.04 708.45,-233.88 707.99,-226.89"/>
</g>
<!-- Node14 -->
<g id="node14" class="node">
<title>Node14</title>
<g id="a_node14"><a xlink:href="processor__misc_8hpp.html" target="_top" xlink:title=" ">
<polygon fill="white" stroke="black" points="764.5,-112.5 764.5,-131.5 877.5,-131.5 877.5,-112.5 764.5,-112.5"/>
<text text-anchor="middle" x="821" y="-119.5" font-family="Helvetica,sans-Serif" font-size="10.00">processor_misc.hpp</text>
</a>
</g>
</g>
<!-- Node1&#45;&gt;Node14 -->
<g id="edge28" class="edge">
<title>Node1&#45;&gt;Node14</title>
<path fill="none" stroke="midnightblue" d="M685.59,-219.94C702.75,-211.64 724.72,-200.2 743,-188 769.69,-170.19 797.85,-144.85 811.91,-131.69"/>
<polygon fill="midnightblue" stroke="midnightblue" points="683.64,-216.99 676.11,-224.44 686.64,-223.32 683.64,-216.99"/>
</g>
<!-- Node15 -->
<g id="node15" class="node">
<title>Node15</title>
<g id="a_node15"><a xlink:href="processor__register_8hpp.html" target="_top" xlink:title=" ">
<polygon fill="white" stroke="black" points="934.5,-112.5 934.5,-131.5 1061.5,-131.5 1061.5,-112.5 934.5,-112.5"/>
<text text-anchor="middle" x="998" y="-119.5" font-family="Helvetica,sans-Serif" font-size="10.00">processor_register.hpp</text>
</a>
</g>
</g>
<!-- Node1&#45;&gt;Node15 -->
<g id="edge29" class="edge">
<title>Node1&#45;&gt;Node15</title>
<path fill="none" stroke="midnightblue" d="M708.24,-229.48C780.12,-223.81 906.53,-210.87 946,-188 969.26,-174.52 986.17,-146.32 993.68,-131.9"/>
<polygon fill="midnightblue" stroke="midnightblue" points="707.75,-226.01 698.04,-230.27 708.28,-232.99 707.75,-226.01"/>
</g>
<!-- Node16 -->
<g id="node16" class="node">
<title>Node16</title>
<g id="a_node16"><a xlink:href="processor__send__message_8hpp.html" target="_top" xlink:title=" ">
<polygon fill="white" stroke="black" points="794.5,-56.5 794.5,-75.5 957.5,-75.5 957.5,-56.5 794.5,-56.5"/>
<text text-anchor="middle" x="876" y="-63.5" font-family="Helvetica,sans-Serif" font-size="10.00">processor_send_message.hpp</text>
</a>
</g>
</g>
<!-- Node1&#45;&gt;Node16 -->
<g id="edge30" class="edge">
<title>Node1&#45;&gt;Node16</title>
<path fill="none" stroke="midnightblue" d="M627.74,-220.44C608.27,-211.84 582.28,-199.88 560,-188 544.86,-179.93 542.8,-174.68 527,-168 468.62,-143.31 427.75,-182.16 389,-132 383.57,-124.97 383.01,-118.57 389,-112 415.73,-82.69 662.94,-72.19 794.5,-68.66"/>
<polygon fill="midnightblue" stroke="midnightblue" points="626.43,-223.69 636.99,-224.49 629.24,-217.27 626.43,-223.69"/>
</g>
<!-- Node17 -->
<g id="node17" class="node">
<title>Node17</title>
<g id="a_node17"><a xlink:href="processor__user_8hpp.html" target="_top" xlink:title=" ">
<polygon fill="white" stroke="black" points="560,-112.5 560,-131.5 670,-131.5 670,-112.5 560,-112.5"/>
<text text-anchor="middle" x="615" y="-119.5" font-family="Helvetica,sans-Serif" font-size="10.00">processor_user.hpp</text>
</a>
</g>
</g>
<!-- Node1&#45;&gt;Node17 -->
<g id="edge31" class="edge">
<title>Node1&#45;&gt;Node17</title>
<path fill="none" stroke="midnightblue" d="M650.13,-215C640.96,-191 625.11,-149.47 618.28,-131.59"/>
<polygon fill="midnightblue" stroke="midnightblue" points="646.87,-216.27 653.7,-224.37 653.41,-213.78 646.87,-216.27"/>
</g>
<!-- Node18 -->
<g id="node18" class="node">
<title>Node18</title>
<g id="a_node18"><a xlink:href="reply_8hpp.html" target="_top" xlink:title=" ">
<polygon fill="white" stroke="black" points="875.5,-168.5 875.5,-187.5 936.5,-187.5 936.5,-168.5 875.5,-168.5"/>
<text text-anchor="middle" x="906" y="-175.5" font-family="Helvetica,sans-Serif" font-size="10.00">reply.hpp</text>
</a>
</g>
</g>
<!-- Node1&#45;&gt;Node18 -->
<g id="edge32" class="edge">
<title>Node1&#45;&gt;Node18</title>
<path fill="none" stroke="midnightblue" d="M706.46,-222.27C756.79,-211.36 833.2,-194.79 875.36,-185.64"/>
<polygon fill="midnightblue" stroke="midnightblue" points="705.49,-218.9 696.45,-224.44 706.97,-225.74 705.49,-218.9"/>
</g>
<!-- Node21 -->
<g id="node21" class="node">
<title>Node21</title>
<g id="a_node21"><a xlink:href="user_8cpp.html" target="_top" xlink:title=" ">
<polygon fill="white" stroke="black" points="1245.5,-56.5 1245.5,-75.5 1302.5,-75.5 1302.5,-56.5 1245.5,-56.5"/>
<text text-anchor="middle" x="1274" y="-63.5" font-family="Helvetica,sans-Serif" font-size="10.00">user.cpp</text>
</a>
</g>
</g>
<!-- Node1&#45;&gt;Node21 -->
<g id="edge51" class="edge">
<title>Node1&#45;&gt;Node21</title>
<path fill="none" stroke="midnightblue" d="M708.39,-232.12C840.66,-228.7 1187.72,-212.14 1263,-132 1277.42,-116.65 1276.79,-89.79 1275.3,-75.89"/>
<polygon fill="midnightblue" stroke="midnightblue" points="708.04,-228.63 698.13,-232.37 708.21,-235.62 708.04,-228.63"/>
</g>
<!-- Node22 -->
<g id="node22" class="node">
<title>Node22</title>
<g id="a_node22"><a xlink:href="string__line__encoder_8hpp.html" target="_top" xlink:title=" ">
<polygon fill="white" stroke="black" points="0,-168.5 0,-187.5 132,-187.5 132,-168.5 0,-168.5"/>
<text text-anchor="middle" x="66" y="-175.5" font-family="Helvetica,sans-Serif" font-size="10.00">string_line_encoder.hpp</text>
</a>
</g>
</g>
<!-- Node1&#45;&gt;Node22 -->
<g id="edge48" class="edge">
<title>Node1&#45;&gt;Node22</title>
<path fill="none" stroke="midnightblue" d="M605.68,-229.04C513,-221.77 311.57,-205.44 142,-188 138.83,-187.67 135.58,-187.33 132.31,-186.97"/>
<polygon fill="midnightblue" stroke="midnightblue" points="605.66,-232.55 615.9,-229.84 606.21,-225.57 605.66,-232.55"/>
</g>
<!-- Node4 -->
<g id="node4" class="node">
<title>Node4</title>
<g id="a_node4"><a xlink:href="server__handler_8hpp.html" target="_top" xlink:title=" ">
<polygon fill="white" stroke="black" points="125,-56.5 125,-75.5 235,-75.5 235,-56.5 125,-56.5"/>
<text text-anchor="middle" x="180" y="-63.5" font-family="Helvetica,sans-Serif" font-size="10.00">server_handler.hpp</text>
</a>
</g>
</g>
<!-- Node3&#45;&gt;Node4 -->
<g id="edge3" class="edge">
<title>Node3&#45;&gt;Node4</title>
<path fill="none" stroke="midnightblue" d="M398.17,-110.47C346.96,-100.27 270.23,-84.98 222.74,-75.52"/>
<polygon fill="midnightblue" stroke="midnightblue" points="397.57,-113.92 408.06,-112.44 398.94,-107.06 397.57,-113.92"/>
</g>
<!-- Node5 -->
<g id="node5" class="node">
<title>Node5</title>
<g id="a_node5"><a xlink:href="main_8cpp.html" target="_top" xlink:title=" ">
<polygon fill="white" stroke="black" points="149,-0.5 149,-19.5 211,-19.5 211,-0.5 149,-0.5"/>
<text text-anchor="middle" x="180" y="-7.5" font-family="Helvetica,sans-Serif" font-size="10.00">main.cpp</text>
</a>
</g>
</g>
<!-- Node4&#45;&gt;Node5 -->
<g id="edge4" class="edge">
<title>Node4&#45;&gt;Node5</title>
<path fill="none" stroke="midnightblue" d="M180,-45.8C180,-36.91 180,-26.78 180,-19.75"/>
<polygon fill="midnightblue" stroke="midnightblue" points="176.5,-46.08 180,-56.08 183.5,-46.08 176.5,-46.08"/>
</g>
<!-- Node7&#45;&gt;Node4 -->
<g id="edge9" class="edge">
<title>Node7&#45;&gt;Node4</title>
<path fill="none" stroke="midnightblue" d="M207.5,-158.67C200.29,-134.62 187.92,-93.39 182.58,-75.59"/>
<polygon fill="midnightblue" stroke="midnightblue" points="204.18,-159.8 210.41,-168.37 210.89,-157.78 204.18,-159.8"/>
</g>
<!-- Node8 -->
<g id="node8" class="node">
<title>Node8</title>
<g id="a_node8"><a xlink:href="bot__handler_8hpp.html" target="_top" xlink:title=" ">
<polygon fill="white" stroke="black" points="246.5,-112.5 246.5,-131.5 341.5,-131.5 341.5,-112.5 246.5,-112.5"/>
<text text-anchor="middle" x="294" y="-119.5" font-family="Helvetica,sans-Serif" font-size="10.00">bot_handler.hpp</text>
</a>
</g>
</g>
<!-- Node7&#45;&gt;Node8 -->
<g id="edge7" class="edge">
<title>Node7&#45;&gt;Node8</title>
<path fill="none" stroke="midnightblue" d="M234.57,-162.62C249.36,-152.76 268.51,-139.99 281.02,-131.65"/>
<polygon fill="midnightblue" stroke="midnightblue" points="232.39,-159.86 226.01,-168.32 236.28,-165.69 232.39,-159.86"/>
</g>
<!-- Node9 -->
<g id="node9" class="node">
<title>Node9</title>
<g id="a_node9"><a xlink:href="bot__main_8cpp.html" target="_top" xlink:title=" ">
<polygon fill="white" stroke="black" points="253.5,-56.5 253.5,-75.5 336.5,-75.5 336.5,-56.5 253.5,-56.5"/>
<text text-anchor="middle" x="295" y="-63.5" font-family="Helvetica,sans-Serif" font-size="10.00">bot_main.cpp</text>
</a>
</g>
</g>
<!-- Node8&#45;&gt;Node9 -->
<g id="edge8" class="edge">
<title>Node8&#45;&gt;Node9</title>
<path fill="none" stroke="midnightblue" d="M294.36,-101.8C294.52,-92.91 294.71,-82.78 294.84,-75.75"/>
<polygon fill="midnightblue" stroke="midnightblue" points="290.85,-102.02 294.17,-112.08 297.85,-102.15 290.85,-102.02"/>
</g>
<!-- Node10&#45;&gt;Node4 -->
<g id="edge12" class="edge">
<title>Node10&#45;&gt;Node4</title>
<path fill="none" stroke="midnightblue" d="M382.29,-166.92C329.13,-158.63 262.26,-146 238,-132 213.63,-117.94 194.06,-90 185.17,-75.77"/>
<polygon fill="midnightblue" stroke="midnightblue" points="381.97,-170.42 392.38,-168.47 383.03,-163.5 381.97,-170.42"/>
</g>
<!-- Node10&#45;&gt;Node8 -->
<g id="edge11" class="edge">
<title>Node10&#45;&gt;Node8</title>
<path fill="none" stroke="midnightblue" d="M419.74,-165.17C389.42,-155 346.43,-140.59 319.39,-131.52"/>
<polygon fill="midnightblue" stroke="midnightblue" points="418.9,-168.58 429.49,-168.44 421.12,-161.95 418.9,-168.58"/>
</g>
<!-- Node11&#45;&gt;Node3 -->
<g id="edge15" class="edge">
<title>Node11&#45;&gt;Node3</title>
<path fill="none" stroke="midnightblue" d="M643.88,-166.22C598.34,-156.01 530.89,-140.9 489.01,-131.52"/>
<polygon fill="midnightblue" stroke="midnightblue" points="643.29,-169.67 653.81,-168.44 644.82,-162.84 643.29,-169.67"/>
</g>
<!-- Node11&#45;&gt;Node8 -->
<g id="edge14" class="edge">
<title>Node11&#45;&gt;Node8</title>
<path fill="none" stroke="midnightblue" d="M639.72,-169.91C561.88,-159.35 416.66,-139.64 341.61,-129.46"/>
<polygon fill="midnightblue" stroke="midnightblue" points="639.4,-173.4 649.78,-171.27 640.35,-166.46 639.4,-173.4"/>
</g>
<!-- Node12 -->
<g id="node12" class="node">
<title>Node12</title>
<g id="a_node12"><a xlink:href="processor_8cpp.html" target="_top" xlink:title=" ">
<polygon fill="white" stroke="black" points="779.5,-0.5 779.5,-19.5 862.5,-19.5 862.5,-0.5 779.5,-0.5"/>
<text text-anchor="middle" x="821" y="-7.5" font-family="Helvetica,sans-Serif" font-size="10.00">processor.cpp</text>
</a>
</g>
</g>
<!-- Node11&#45;&gt;Node12 -->
<g id="edge16" class="edge">
<title>Node11&#45;&gt;Node12</title>
<path fill="none" stroke="midnightblue" d="M639.68,-171.83C589.97,-164.66 526.23,-148.22 551,-112 602.43,-36.82 717.2,-17.49 779.25,-12.59"/>
<polygon fill="midnightblue" stroke="midnightblue" points="639.34,-175.31 649.72,-173.18 640.27,-168.38 639.34,-175.31"/>
</g>
<!-- Node11&#45;&gt;Node13 -->
<g id="edge17" class="edge">
<title>Node11&#45;&gt;Node13</title>
<path fill="none" stroke="midnightblue" d="M703.68,-159.92C715.12,-144.67 734,-123.06 756,-112 778.53,-100.67 926.59,-83.22 1013.89,-73.72"/>
<polygon fill="midnightblue" stroke="midnightblue" points="700.83,-157.88 697.84,-168.05 706.52,-161.97 700.83,-157.88"/>
</g>
<!-- Node11&#45;&gt;Node14 -->
<g id="edge19" class="edge">
<title>Node11&#45;&gt;Node14</title>
<path fill="none" stroke="midnightblue" d="M721.85,-164.5C746.04,-154.38 779.46,-140.39 800.66,-131.52"/>
<polygon fill="midnightblue" stroke="midnightblue" points="720.31,-161.35 712.44,-168.44 723.02,-167.81 720.31,-161.35"/>
</g>
<!-- Node11&#45;&gt;Node15 -->
<g id="edge21" class="edge">
<title>Node11&#45;&gt;Node15</title>
<path fill="none" stroke="midnightblue" d="M744.21,-167.79C801.79,-157.63 893.67,-141.41 949.66,-131.53"/>
<polygon fill="midnightblue" stroke="midnightblue" points="743.47,-164.36 734.23,-169.55 744.68,-171.26 743.47,-164.36"/>
</g>
<!-- Node11&#45;&gt;Node16 -->
<g id="edge23" class="edge">
<title>Node11&#45;&gt;Node16</title>
<path fill="none" stroke="midnightblue" d="M696.06,-158.53C700.19,-143.92 708.05,-124.03 722,-112 744.15,-92.91 774.04,-81.9 801.59,-75.57"/>
<polygon fill="midnightblue" stroke="midnightblue" points="692.6,-157.91 693.57,-168.46 699.39,-159.61 692.6,-157.91"/>
</g>
<!-- Node11&#45;&gt;Node17 -->
<g id="edge25" class="edge">
<title>Node11&#45;&gt;Node17</title>
<path fill="none" stroke="midnightblue" d="M671.1,-162.34C657.09,-152.52 639.12,-139.91 627.34,-131.65"/>
<polygon fill="midnightblue" stroke="midnightblue" points="669.43,-165.45 679.63,-168.32 673.45,-159.72 669.43,-165.45"/>
</g>
<!-- Node13&#45;&gt;Node12 -->
<g id="edge18" class="edge">
<title>Node13&#45;&gt;Node12</title>
<path fill="none" stroke="midnightblue" d="M1027.29,-54.35C978.72,-44.14 906.38,-28.94 861.53,-19.52"/>
<polygon fill="midnightblue" stroke="midnightblue" points="1026.77,-57.81 1037.28,-56.44 1028.21,-50.96 1026.77,-57.81"/>
</g>
<!-- Node14&#45;&gt;Node12 -->
<g id="edge20" class="edge">
<title>Node14&#45;&gt;Node12</title>
<path fill="none" stroke="midnightblue" d="M804.35,-105.04C797.23,-97.08 789.72,-86.84 786,-76 778.68,-54.66 797.97,-31.94 810.74,-19.82"/>
<polygon fill="midnightblue" stroke="midnightblue" points="802,-107.65 811.44,-112.45 807.05,-102.81 802,-107.65"/>
</g>
<!-- Node15&#45;&gt;Node12 -->
<g id="edge22" class="edge">
<title>Node15&#45;&gt;Node12</title>
<path fill="none" stroke="midnightblue" d="M993.6,-102.58C989.2,-87.99 981.02,-68.11 967,-56 937.79,-30.77 894.62,-19.69 862.8,-14.82"/>
<polygon fill="midnightblue" stroke="midnightblue" points="990.29,-103.74 996.26,-112.49 997.05,-101.92 990.29,-103.74"/>
</g>
<!-- Node16&#45;&gt;Node12 -->
<g id="edge24" class="edge">
<title>Node16&#45;&gt;Node12</title>
<path fill="none" stroke="midnightblue" d="M859.71,-49C849.96,-39.43 837.95,-27.64 829.91,-19.75"/>
<polygon fill="midnightblue" stroke="midnightblue" points="857.33,-51.57 866.92,-56.08 862.23,-46.58 857.33,-51.57"/>
</g>
<!-- Node17&#45;&gt;Node12 -->
<g id="edge26" class="edge">
<title>Node17&#45;&gt;Node12</title>
<path fill="none" stroke="midnightblue" d="M640.11,-107.59C683,-84.69 769.18,-38.67 804.91,-19.59"/>
<polygon fill="midnightblue" stroke="midnightblue" points="638.34,-104.57 631.16,-112.37 641.63,-110.75 638.34,-104.57"/>
</g>
<!-- Node18&#45;&gt;Node2 -->
<g id="edge34" class="edge">
<title>Node18&#45;&gt;Node2</title>
<path fill="none" stroke="midnightblue" d="M946.86,-174.28C1027.86,-168.48 1205.92,-153.66 1263,-132 1298.13,-118.67 1332.89,-89.86 1348.89,-75.5"/>
<polygon fill="midnightblue" stroke="midnightblue" points="946.28,-170.81 936.56,-175 946.78,-177.79 946.28,-170.81"/>
</g>
<!-- Node18&#45;&gt;Node3 -->
<g id="edge41" class="edge">
<title>Node18&#45;&gt;Node3</title>
<path fill="none" stroke="midnightblue" d="M865.46,-172.19C783.06,-162.41 596.07,-140.22 504.1,-129.3"/>
<polygon fill="midnightblue" stroke="midnightblue" points="865.1,-175.67 875.44,-173.37 865.92,-168.72 865.1,-175.67"/>
</g>
<!-- Node18&#45;&gt;Node8 -->
<g id="edge33" class="edge">
<title>Node18&#45;&gt;Node8</title>
<path fill="none" stroke="midnightblue" d="M865.39,-173.57C778.16,-166.18 566.4,-148.12 389,-132 373.66,-130.61 356.92,-129.04 341.84,-127.6"/>
<polygon fill="midnightblue" stroke="midnightblue" points="865.14,-177.06 875.4,-174.42 865.73,-170.09 865.14,-177.06"/>
</g>
<!-- Node18&#45;&gt;Node13 -->
<g id="edge42" class="edge">
<title>Node18&#45;&gt;Node13</title>
<path fill="none" stroke="midnightblue" d="M946.77,-171.2C990.24,-164.14 1055,-150.77 1071,-132 1084.55,-116.11 1082.24,-89.48 1079.87,-75.76"/>
<polygon fill="midnightblue" stroke="midnightblue" points="946.1,-167.77 936.77,-172.78 947.19,-174.68 946.1,-167.77"/>
</g>
<!-- Node18&#45;&gt;Node14 -->
<g id="edge43" class="edge">
<title>Node18&#45;&gt;Node14</title>
<path fill="none" stroke="midnightblue" d="M883.81,-162.9C868.22,-153 847.87,-140.07 834.62,-131.65"/>
<polygon fill="midnightblue" stroke="midnightblue" points="882.03,-165.92 892.34,-168.32 885.78,-160.01 882.03,-165.92"/>
</g>
<!-- Node18&#45;&gt;Node15 -->
<g id="edge44" class="edge">
<title>Node18&#45;&gt;Node15</title>
<path fill="none" stroke="midnightblue" d="M929.55,-163.18C946.48,-153.24 968.78,-140.15 983.26,-131.65"/>
<polygon fill="midnightblue" stroke="midnightblue" points="927.63,-160.24 920.78,-168.32 931.18,-166.28 927.63,-160.24"/>
</g>
<!-- Node18&#45;&gt;Node16 -->
<g id="edge45" class="edge">
<title>Node18&#45;&gt;Node16</title>
<path fill="none" stroke="midnightblue" d="M901,-158.67C894.44,-134.62 883.2,-93.39 878.34,-75.59"/>
<polygon fill="midnightblue" stroke="midnightblue" points="897.64,-159.64 903.65,-168.37 904.39,-157.8 897.64,-159.64"/>
</g>
<!-- Node18&#45;&gt;Node17 -->
<g id="edge46" class="edge">
<title>Node18&#45;&gt;Node17</title>
<path fill="none" stroke="midnightblue" d="M865.55,-169.49C811.83,-159.53 717.18,-141.96 660.86,-131.51"/>
<polygon fill="midnightblue" stroke="midnightblue" points="864.94,-172.94 875.41,-171.32 866.21,-166.06 864.94,-172.94"/>
</g>
<!-- Node19 -->
<g id="node19" class="node">
<title>Node19</title>
<g id="a_node19"><a xlink:href="channel_8hpp.html" target="_top" xlink:title=" ">
<polygon fill="white" stroke="black" points="1156,-112.5 1156,-131.5 1232,-131.5 1232,-112.5 1156,-112.5"/>
<text text-anchor="middle" x="1194" y="-119.5" font-family="Helvetica,sans-Serif" font-size="10.00">channel.hpp</text>
</a>
</g>
</g>
<!-- Node18&#45;&gt;Node19 -->
<g id="edge35" class="edge">
<title>Node18&#45;&gt;Node19</title>
<path fill="none" stroke="midnightblue" d="M946.39,-169.43C1001.91,-159.02 1101.12,-140.41 1155.59,-130.2"/>
<polygon fill="midnightblue" stroke="midnightblue" points="945.73,-165.99 936.55,-171.27 947.02,-172.87 945.73,-165.99"/>
</g>
<!-- Node18&#45;&gt;Node21 -->
<g id="edge47" class="edge">
<title>Node18&#45;&gt;Node21</title>
<path fill="none" stroke="midnightblue" d="M946.63,-176.18C1025.23,-173.85 1194.46,-165.03 1241,-132 1260.2,-118.37 1268.92,-90.24 1272.25,-75.87"/>
<polygon fill="midnightblue" stroke="midnightblue" points="946.51,-172.68 936.61,-176.45 946.71,-179.68 946.51,-172.68"/>
</g>
<!-- Node19&#45;&gt;Node2 -->
<g id="edge36" class="edge">
<title>Node19&#45;&gt;Node2</title>
<path fill="none" stroke="midnightblue" d="M1229.52,-109.3C1260.42,-99.13 1304.47,-84.62 1332.14,-75.52"/>
<polygon fill="midnightblue" stroke="midnightblue" points="1228.39,-105.99 1219.99,-112.44 1230.58,-112.64 1228.39,-105.99"/>
</g>
<!-- Node19&#45;&gt;Node13 -->
<g id="edge37" class="edge">
<title>Node19&#45;&gt;Node13</title>
<path fill="none" stroke="midnightblue" d="M1166.28,-108.1C1144.61,-98.01 1115.1,-84.27 1096.29,-75.52"/>
<polygon fill="midnightblue" stroke="midnightblue" points="1165.08,-111.4 1175.62,-112.44 1168.03,-105.05 1165.08,-111.4"/>
</g>
<!-- Node19&#45;&gt;Node16 -->
<g id="edge38" class="edge">
<title>Node19&#45;&gt;Node16</title>
<path fill="none" stroke="midnightblue" d="M1145.73,-112.8C1086.42,-102.73 986.26,-85.72 926.11,-75.51"/>
<polygon fill="midnightblue" stroke="midnightblue" points="1145.51,-116.32 1155.96,-114.54 1146.68,-109.42 1145.51,-116.32"/>
</g>
<!-- Node20 -->
<g id="node20" class="node">
<title>Node20</title>
<g id="a_node20"><a xlink:href="server_8cpp.html" target="_top" xlink:title=" ">
<polygon fill="white" stroke="black" points="1160.5,-56.5 1160.5,-75.5 1227.5,-75.5 1227.5,-56.5 1160.5,-56.5"/>
<text text-anchor="middle" x="1194" y="-63.5" font-family="Helvetica,sans-Serif" font-size="10.00">server.cpp</text>
</a>
</g>
</g>
<!-- Node19&#45;&gt;Node20 -->
<g id="edge39" class="edge">
<title>Node19&#45;&gt;Node20</title>
<path fill="none" stroke="midnightblue" d="M1194,-101.8C1194,-92.91 1194,-82.78 1194,-75.75"/>
<polygon fill="midnightblue" stroke="midnightblue" points="1190.5,-102.08 1194,-112.08 1197.5,-102.08 1190.5,-102.08"/>
</g>
<!-- Node19&#45;&gt;Node21 -->
<g id="edge40" class="edge">
<title>Node19&#45;&gt;Node21</title>
<path fill="none" stroke="midnightblue" d="M1215.3,-106.62C1229.92,-96.76 1248.83,-83.99 1261.18,-75.65"/>
<polygon fill="midnightblue" stroke="midnightblue" points="1213.18,-103.83 1206.85,-112.32 1217.1,-109.63 1213.18,-103.83"/>
</g>
<!-- Node22&#45;&gt;Node4 -->
<g id="edge50" class="edge">
<title>Node22&#45;&gt;Node4</title>
<path fill="none" stroke="midnightblue" d="M82.37,-161.21C106.8,-137.63 151.99,-94.03 171.1,-75.59"/>
<polygon fill="midnightblue" stroke="midnightblue" points="79.71,-158.91 74.95,-168.37 84.57,-163.94 79.71,-158.91"/>
</g>
<!-- Node22&#45;&gt;Node8 -->
<g id="edge49" class="edge">
<title>Node22&#45;&gt;Node8</title>
<path fill="none" stroke="midnightblue" d="M112.07,-166.09C155.15,-155.89 218.59,-140.86 258.04,-131.52"/>
<polygon fill="midnightblue" stroke="midnightblue" points="111.05,-162.73 102.13,-168.44 112.66,-169.54 111.05,-162.73"/>
</g>
</g>
</svg>
