<?xml version="1.0" encoding="UTF-8" standalone="no"?>
<!DOCTYPE svg PUBLIC "-//W3C//DTD SVG 1.1//EN"
 "http://www.w3.org/Graphics/SVG/1.1/DTD/svg11.dtd">
<!-- Generated by graphviz version 2.43.0 (0)
 -->
<!-- Title: includes/libserv/object_decoder.cpp Pages: 1 -->
<svg width="691pt" height="319pt"
 viewBox="0.00 0.00 690.50 319.00" xmlns="http://www.w3.org/2000/svg" xmlns:xlink="http://www.w3.org/1999/xlink">
<g id="graph0" class="graph" transform="scale(1 1) rotate(0) translate(4 315)">
<title>includes/libserv/object_decoder.cpp</title>
<polygon fill="white" stroke="transparent" points="-4,4 -4,-315 686.5,-315 686.5,4 -4,4"/>
<!-- Node1 -->
<g id="node1" class="node">
<title>Node1</title>
<g id="a_node1"><a xlink:title=" ">
<polygon fill="#bfbfbf" stroke="black" points="465.5,-280.5 465.5,-310.5 591.5,-310.5 591.5,-280.5 465.5,-280.5"/>
<text text-anchor="start" x="473.5" y="-298.5" font-family="Helvetica,sans-Serif" font-size="10.00">includes/libserv/object</text>
<text text-anchor="middle" x="528.5" y="-287.5" font-family="Helvetica,sans-Serif" font-size="10.00">_decoder.cpp</text>
</a>
</g>
</g>
<!-- Node2 -->
<g id="node2" class="node">
<title>Node2</title>
<g id="a_node2"><a xlink:href="object__decoder_8hpp.html" target="_top" xlink:title=" ">
<polygon fill="white" stroke="black" points="315,-224.5 315,-243.5 426,-243.5 426,-224.5 315,-224.5"/>
<text text-anchor="middle" x="370.5" y="-231.5" font-family="Helvetica,sans-Serif" font-size="10.00">object_decoder.hpp</text>
</a>
</g>
</g>
<!-- Node1&#45;&gt;Node2 -->
<g id="edge1" class="edge">
<title>Node1&#45;&gt;Node2</title>
<path fill="none" stroke="midnightblue" d="M491.06,-280.4C464.31,-270.33 428.68,-256.91 403.1,-247.28"/>
<polygon fill="midnightblue" stroke="midnightblue" points="404.08,-243.91 393.49,-243.66 401.62,-250.46 404.08,-243.91"/>
</g>
<!-- Node8 -->
<g id="node8" class="node">
<title>Node8</title>
<g id="a_node8"><a xlink:title=" ">
<polygon fill="white" stroke="#bfbfbf" points="476,-56.5 476,-75.5 615,-75.5 615,-56.5 476,-56.5"/>
<text text-anchor="middle" x="545.5" y="-63.5" font-family="Helvetica,sans-Serif" font-size="10.00">smart_ptr/shared_ptr.hpp</text>
</a>
</g>
</g>
<!-- Node1&#45;&gt;Node8 -->
<g id="edge19" class="edge">
<title>Node1&#45;&gt;Node8</title>
<path fill="none" stroke="midnightblue" d="M531.2,-280.35C536.77,-249.75 548.9,-175.06 547.5,-112 547.31,-103.39 546.91,-93.86 546.52,-85.8"/>
<polygon fill="midnightblue" stroke="midnightblue" points="550.01,-85.43 546,-75.62 543.02,-85.79 550.01,-85.43"/>
</g>
<!-- Node10 -->
<g id="node10" class="node">
<title>Node10</title>
<g id="a_node10"><a xlink:href="event__layer_8hpp.html" target="_top" xlink:title=" ">
<polygon fill="white" stroke="black" points="323,-168.5 323,-187.5 418,-187.5 418,-168.5 323,-168.5"/>
<text text-anchor="middle" x="370.5" y="-175.5" font-family="Helvetica,sans-Serif" font-size="10.00">event_layer.hpp</text>
</a>
</g>
</g>
<!-- Node1&#45;&gt;Node10 -->
<g id="edge18" class="edge">
<title>Node1&#45;&gt;Node10</title>
<path fill="none" stroke="midnightblue" d="M509.9,-280.29C491.03,-265.92 460.91,-243.18 434.5,-224 420.17,-213.59 403.84,-202.12 391.26,-193.36"/>
<polygon fill="midnightblue" stroke="midnightblue" points="393.06,-190.34 382.85,-187.52 389.07,-196.09 393.06,-190.34"/>
</g>
<!-- Node13 -->
<g id="node13" class="node">
<title>Node13</title>
<g id="a_node13"><a xlink:title=" ">
<polygon fill="white" stroke="#bfbfbf" points="630.5,-224.5 630.5,-243.5 682.5,-243.5 682.5,-224.5 630.5,-224.5"/>
<text text-anchor="middle" x="656.5" y="-231.5" font-family="Helvetica,sans-Serif" font-size="10.00">cassert</text>
</a>
</g>
</g>
<!-- Node1&#45;&gt;Node13 -->
<g id="edge20" class="edge">
<title>Node1&#45;&gt;Node13</title>
<path fill="none" stroke="midnightblue" d="M558.83,-280.4C580.02,-270.55 608.09,-257.5 628.7,-247.92"/>
<polygon fill="midnightblue" stroke="midnightblue" points="630.28,-251.05 637.87,-243.66 627.33,-244.7 630.28,-251.05"/>
</g>
<!-- Node3 -->
<g id="node3" class="node">
<title>Node3</title>
<g id="a_node3"><a xlink:href="event__handler__base_8hpp.html" target="_top" xlink:title=" ">
<polygon fill="white" stroke="black" points="112.5,-112.5 112.5,-131.5 248.5,-131.5 248.5,-112.5 112.5,-112.5"/>
<text text-anchor="middle" x="180.5" y="-119.5" font-family="Helvetica,sans-Serif" font-size="10.00">event_handler_base.hpp</text>
</a>
</g>
</g>
<!-- Node2&#45;&gt;Node3 -->
<g id="edge2" class="edge">
<title>Node2&#45;&gt;Node3</title>
<path fill="none" stroke="midnightblue" d="M355.59,-224.37C322.71,-205.33 243.74,-159.62 204.08,-136.65"/>
<polygon fill="midnightblue" stroke="midnightblue" points="205.75,-133.57 195.34,-131.59 202.24,-139.63 205.75,-133.57"/>
</g>
<!-- Node4 -->
<g id="node4" class="node">
<title>Node4</title>
<g id="a_node4"><a xlink:href="serv__types_8hpp.html" target="_top" xlink:title=" ">
<polygon fill="white" stroke="black" points="39,-56.5 39,-75.5 130,-75.5 130,-56.5 39,-56.5"/>
<text text-anchor="middle" x="84.5" y="-63.5" font-family="Helvetica,sans-Serif" font-size="10.00">serv_types.hpp</text>
</a>
</g>
</g>
<!-- Node2&#45;&gt;Node4 -->
<g id="edge16" class="edge">
<title>Node2&#45;&gt;Node4</title>
<path fill="none" stroke="midnightblue" d="M314.88,-230.68C248.69,-224.62 140.49,-203.6 87.5,-132 77.74,-118.82 78.09,-99.68 80.22,-85.58"/>
<polygon fill="midnightblue" stroke="midnightblue" points="83.69,-86.05 82.14,-75.57 76.82,-84.73 83.69,-86.05"/>
</g>
<!-- Node2&#45;&gt;Node8 -->
<g id="edge17" class="edge">
<title>Node2&#45;&gt;Node8</title>
<path fill="none" stroke="midnightblue" d="M394.55,-224.45C429.78,-210.65 494.96,-180.07 529.5,-132 539.14,-118.58 543.01,-100.02 544.54,-86.16"/>
<polygon fill="midnightblue" stroke="midnightblue" points="548.06,-86.09 545.36,-75.85 541.08,-85.54 548.06,-86.09"/>
</g>
<!-- Node2&#45;&gt;Node10 -->
<g id="edge9" class="edge">
<title>Node2&#45;&gt;Node10</title>
<path fill="none" stroke="midnightblue" d="M370.5,-224.08C370.5,-217.01 370.5,-206.86 370.5,-197.99"/>
<polygon fill="midnightblue" stroke="midnightblue" points="374,-197.75 370.5,-187.75 367,-197.75 374,-197.75"/>
</g>
<!-- Node3&#45;&gt;Node4 -->
<g id="edge3" class="edge">
<title>Node3&#45;&gt;Node4</title>
<path fill="none" stroke="midnightblue" d="M165.08,-112.32C149.96,-103.82 126.68,-90.73 109.03,-80.8"/>
<polygon fill="midnightblue" stroke="midnightblue" points="110.32,-77.51 99.89,-75.65 106.89,-83.61 110.32,-77.51"/>
</g>
<!-- Node3&#45;&gt;Node8 -->
<g id="edge7" class="edge">
<title>Node3&#45;&gt;Node8</title>
<path fill="none" stroke="midnightblue" d="M238.34,-112.44C303.34,-102.83 408.78,-87.23 477.63,-77.04"/>
<polygon fill="midnightblue" stroke="midnightblue" points="478.56,-80.44 487.94,-75.52 477.53,-73.52 478.56,-80.44"/>
</g>
<!-- Node9 -->
<g id="node9" class="node">
<title>Node9</title>
<g id="a_node9"><a xlink:title=" ">
<polygon fill="white" stroke="#bfbfbf" points="196,-56.5 196,-75.5 261,-75.5 261,-56.5 196,-56.5"/>
<text text-anchor="middle" x="228.5" y="-63.5" font-family="Helvetica,sans-Serif" font-size="10.00">exception</text>
</a>
</g>
</g>
<!-- Node3&#45;&gt;Node9 -->
<g id="edge8" class="edge">
<title>Node3&#45;&gt;Node9</title>
<path fill="none" stroke="midnightblue" d="M188.43,-112.08C195.35,-104.3 205.57,-92.8 213.95,-83.37"/>
<polygon fill="midnightblue" stroke="midnightblue" points="216.69,-85.55 220.72,-75.75 211.46,-80.9 216.69,-85.55"/>
</g>
<!-- Node5 -->
<g id="node5" class="node">
<title>Node5</title>
<g id="a_node5"><a xlink:title=" ">
<polygon fill="white" stroke="#bfbfbf" points="0,-0.5 0,-19.5 47,-19.5 47,-0.5 0,-0.5"/>
<text text-anchor="middle" x="23.5" y="-7.5" font-family="Helvetica,sans-Serif" font-size="10.00">deque</text>
</a>
</g>
</g>
<!-- Node4&#45;&gt;Node5 -->
<g id="edge4" class="edge">
<title>Node4&#45;&gt;Node5</title>
<path fill="none" stroke="midnightblue" d="M74.7,-56.32C65.68,-48.34 52.09,-36.31 41.18,-26.65"/>
<polygon fill="midnightblue" stroke="midnightblue" points="43.29,-23.84 33.48,-19.83 38.65,-29.08 43.29,-23.84"/>
</g>
<!-- Node6 -->
<g id="node6" class="node">
<title>Node6</title>
<g id="a_node6"><a xlink:title=" ">
<polygon fill="white" stroke="#bfbfbf" points="65.5,-0.5 65.5,-19.5 103.5,-19.5 103.5,-0.5 65.5,-0.5"/>
<text text-anchor="middle" x="84.5" y="-7.5" font-family="Helvetica,sans-Serif" font-size="10.00">map</text>
</a>
</g>
</g>
<!-- Node4&#45;&gt;Node6 -->
<g id="edge5" class="edge">
<title>Node4&#45;&gt;Node6</title>
<path fill="none" stroke="midnightblue" d="M84.5,-56.08C84.5,-49.01 84.5,-38.86 84.5,-29.99"/>
<polygon fill="midnightblue" stroke="midnightblue" points="88,-29.75 84.5,-19.75 81,-29.75 88,-29.75"/>
</g>
<!-- Node7 -->
<g id="node7" class="node">
<title>Node7</title>
<g id="a_node7"><a xlink:title=" ">
<polygon fill="white" stroke="#bfbfbf" points="122,-0.5 122,-19.5 169,-19.5 169,-0.5 122,-0.5"/>
<text text-anchor="middle" x="145.5" y="-7.5" font-family="Helvetica,sans-Serif" font-size="10.00">vector</text>
</a>
</g>
</g>
<!-- Node4&#45;&gt;Node7 -->
<g id="edge6" class="edge">
<title>Node4&#45;&gt;Node7</title>
<path fill="none" stroke="midnightblue" d="M94.3,-56.32C103.32,-48.34 116.91,-36.31 127.82,-26.65"/>
<polygon fill="midnightblue" stroke="midnightblue" points="130.35,-29.08 135.52,-19.83 125.71,-23.84 130.35,-29.08"/>
</g>
<!-- Node10&#45;&gt;Node3 -->
<g id="edge10" class="edge">
<title>Node10&#45;&gt;Node3</title>
<path fill="none" stroke="midnightblue" d="M340.39,-168.44C307.87,-159.2 255.92,-144.44 220.11,-134.26"/>
<polygon fill="midnightblue" stroke="midnightblue" points="221.04,-130.88 210.47,-131.52 219.13,-137.62 221.04,-130.88"/>
</g>
<!-- Node10&#45;&gt;Node4 -->
<g id="edge11" class="edge">
<title>Node10&#45;&gt;Node4</title>
<path fill="none" stroke="midnightblue" d="M322.8,-174.92C254.94,-171 135.21,-160.19 103.5,-132 90.48,-120.42 86.16,-100.46 84.84,-85.71"/>
<polygon fill="midnightblue" stroke="midnightblue" points="88.33,-85.47 84.32,-75.66 81.34,-85.83 88.33,-85.47"/>
</g>
<!-- Node10&#45;&gt;Node8 -->
<g id="edge12" class="edge">
<title>Node10&#45;&gt;Node8</title>
<path fill="none" stroke="midnightblue" d="M418.02,-170.1C446.44,-164 481.89,-152.69 507.5,-132 522.55,-119.84 532.91,-100 538.96,-85.43"/>
<polygon fill="midnightblue" stroke="midnightblue" points="542.29,-86.54 542.61,-75.95 535.75,-84.02 542.29,-86.54"/>
</g>
<!-- Node10&#45;&gt;Node9 -->
<g id="edge14" class="edge">
<title>Node10&#45;&gt;Node9</title>
<path fill="none" stroke="midnightblue" d="M353.71,-168.37C338.02,-159.99 314.28,-146.44 295.5,-132 275.95,-116.97 255.97,-96.85 242.98,-83"/>
<polygon fill="midnightblue" stroke="midnightblue" points="245.55,-80.62 236.2,-75.65 240.41,-85.37 245.55,-80.62"/>
</g>
<!-- Node11 -->
<g id="node11" class="node">
<title>Node11</title>
<g id="a_node11"><a xlink:title=" ">
<polygon fill="white" stroke="#bfbfbf" points="304.5,-112.5 304.5,-131.5 436.5,-131.5 436.5,-112.5 304.5,-112.5"/>
<text text-anchor="middle" x="370.5" y="-119.5" font-family="Helvetica,sans-Serif" font-size="10.00">smart_ptr/weak_ptr.hpp</text>
</a>
</g>
</g>
<!-- Node10&#45;&gt;Node11 -->
<g id="edge13" class="edge">
<title>Node10&#45;&gt;Node11</title>
<path fill="none" stroke="midnightblue" d="M370.5,-168.08C370.5,-161.01 370.5,-150.86 370.5,-141.99"/>
<polygon fill="midnightblue" stroke="midnightblue" points="374,-141.75 370.5,-131.75 367,-141.75 374,-141.75"/>
</g>
<!-- Node12 -->
<g id="node12" class="node">
<title>Node12</title>
<g id="a_node12"><a xlink:title=" ">
<polygon fill="white" stroke="#bfbfbf" points="454.5,-112.5 454.5,-131.5 498.5,-131.5 498.5,-112.5 454.5,-112.5"/>
<text text-anchor="middle" x="476.5" y="-119.5" font-family="Helvetica,sans-Serif" font-size="10.00">string</text>
</a>
</g>
</g>
<!-- Node10&#45;&gt;Node12 -->
<g id="edge15" class="edge">
<title>Node10&#45;&gt;Node12</title>
<path fill="none" stroke="midnightblue" d="M387.53,-168.32C404.53,-159.66 430.88,-146.24 450.49,-136.25"/>
<polygon fill="midnightblue" stroke="midnightblue" points="452.19,-139.31 459.51,-131.65 449.01,-133.08 452.19,-139.31"/>
</g>
</g>
</svg>
