<?xml version="1.0" encoding="UTF-8" standalone="no"?>
<!DOCTYPE svg PUBLIC "-//W3C//DTD SVG 1.1//EN"
 "http://www.w3.org/Graphics/SVG/1.1/DTD/svg11.dtd">
<!-- Generated by graphviz version 2.43.0 (0)
 -->
<!-- Title: includes/libserv/object_encoder.cpp Pages: 1 -->
<svg width="640pt" height="319pt"
 viewBox="0.00 0.00 639.50 319.00" xmlns="http://www.w3.org/2000/svg" xmlns:xlink="http://www.w3.org/1999/xlink">
<g id="graph0" class="graph" transform="scale(1 1) rotate(0) translate(4 315)">
<title>includes/libserv/object_encoder.cpp</title>
<polygon fill="white" stroke="transparent" points="-4,4 -4,-315 635.5,-315 635.5,4 -4,4"/>
<!-- Node1 -->
<g id="node1" class="node">
<title>Node1</title>
<g id="a_node1"><a xlink:title=" ">
<polygon fill="#bfbfbf" stroke="black" points="130.5,-280.5 130.5,-310.5 256.5,-310.5 256.5,-280.5 130.5,-280.5"/>
<text text-anchor="start" x="138.5" y="-298.5" font-family="Helvetica,sans-Serif" font-size="10.00">includes/libserv/object</text>
<text text-anchor="middle" x="193.5" y="-287.5" font-family="Helvetica,sans-Serif" font-size="10.00">_encoder.cpp</text>
</a>
</g>
</g>
<!-- Node2 -->
<g id="node2" class="node">
<title>Node2</title>
<g id="a_node2"><a xlink:href="object__encoder_8hpp.html" target="_top" xlink:title=" ">
<polygon fill="white" stroke="black" points="96,-224.5 96,-243.5 207,-243.5 207,-224.5 96,-224.5"/>
<text text-anchor="middle" x="151.5" y="-231.5" font-family="Helvetica,sans-Serif" font-size="10.00">object_encoder.hpp</text>
</a>
</g>
</g>
<!-- Node1&#45;&gt;Node2 -->
<g id="edge1" class="edge">
<title>Node1&#45;&gt;Node2</title>
<path fill="none" stroke="midnightblue" d="M183.55,-280.4C177.51,-271.84 169.76,-260.87 163.4,-251.86"/>
<polygon fill="midnightblue" stroke="midnightblue" points="166.24,-249.81 157.61,-243.66 160.52,-253.85 166.24,-249.81"/>
</g>
<!-- Node3 -->
<g id="node3" class="node">
<title>Node3</title>
<g id="a_node3"><a xlink:href="event__handler__base_8hpp.html" target="_top" xlink:title=" ">
<polygon fill="white" stroke="black" points="169.5,-112.5 169.5,-131.5 305.5,-131.5 305.5,-112.5 169.5,-112.5"/>
<text text-anchor="middle" x="237.5" y="-119.5" font-family="Helvetica,sans-Serif" font-size="10.00">event_handler_base.hpp</text>
</a>
</g>
</g>
<!-- Node1&#45;&gt;Node3 -->
<g id="edge18" class="edge">
<title>Node1&#45;&gt;Node3</title>
<path fill="none" stroke="midnightblue" d="M200.77,-280.25C205.57,-270.31 211.66,-256.63 215.5,-244 226.24,-208.72 232.5,-165.96 235.44,-141.88"/>
<polygon fill="midnightblue" stroke="midnightblue" points="238.95,-142.01 236.62,-131.67 231.99,-141.2 238.95,-142.01"/>
</g>
<!-- Node4 -->
<g id="node4" class="node">
<title>Node4</title>
<g id="a_node4"><a xlink:href="serv__types_8hpp.html" target="_top" xlink:title=" ">
<polygon fill="white" stroke="black" points="39,-56.5 39,-75.5 130,-75.5 130,-56.5 39,-56.5"/>
<text text-anchor="middle" x="84.5" y="-63.5" font-family="Helvetica,sans-Serif" font-size="10.00">serv_types.hpp</text>
</a>
</g>
</g>
<!-- Node1&#45;&gt;Node4 -->
<g id="edge20" class="edge">
<title>Node1&#45;&gt;Node4</title>
<path fill="none" stroke="midnightblue" d="M130.3,-280.61C111.01,-273.09 91.9,-261.58 80.5,-244 48.36,-194.43 66.73,-119.52 77.89,-85.27"/>
<polygon fill="midnightblue" stroke="midnightblue" points="81.25,-86.25 81.18,-75.65 74.63,-83.98 81.25,-86.25"/>
</g>
<!-- Node8 -->
<g id="node8" class="node">
<title>Node8</title>
<g id="a_node8"><a xlink:title=" ">
<polygon fill="white" stroke="#bfbfbf" points="158,-56.5 158,-75.5 297,-75.5 297,-56.5 158,-56.5"/>
<text text-anchor="middle" x="227.5" y="-63.5" font-family="Helvetica,sans-Serif" font-size="10.00">smart_ptr/shared_ptr.hpp</text>
</a>
</g>
</g>
<!-- Node1&#45;&gt;Node8 -->
<g id="edge21" class="edge">
<title>Node1&#45;&gt;Node8</title>
<path fill="none" stroke="midnightblue" d="M134.98,-280.43C116.23,-272.85 97.5,-261.35 86.5,-244 81.74,-236.49 84.28,-232.61 86.5,-224 100.73,-168.91 108.51,-152.48 148.5,-112 162,-98.33 180.53,-87.49 196.25,-79.87"/>
<polygon fill="midnightblue" stroke="midnightblue" points="197.99,-82.92 205.6,-75.55 195.05,-76.57 197.99,-82.92"/>
</g>
<!-- Node10 -->
<g id="node10" class="node">
<title>Node10</title>
<g id="a_node10"><a xlink:href="event__layer_8hpp.html" target="_top" xlink:title=" ">
<polygon fill="white" stroke="black" points="305,-168.5 305,-187.5 400,-187.5 400,-168.5 305,-168.5"/>
<text text-anchor="middle" x="352.5" y="-175.5" font-family="Helvetica,sans-Serif" font-size="10.00">event_layer.hpp</text>
</a>
</g>
</g>
<!-- Node1&#45;&gt;Node10 -->
<g id="edge19" class="edge">
<title>Node1&#45;&gt;Node10</title>
<path fill="none" stroke="midnightblue" d="M213,-280.34C243.34,-258.3 301.56,-216.01 332.31,-193.66"/>
<polygon fill="midnightblue" stroke="midnightblue" points="334.53,-196.38 340.57,-187.67 330.42,-190.71 334.53,-196.38"/>
</g>
<!-- Node13 -->
<g id="node13" class="node">
<title>Node13</title>
<g id="a_node13"><a xlink:title=" ">
<polygon fill="white" stroke="#bfbfbf" points="301.5,-224.5 301.5,-243.5 353.5,-243.5 353.5,-224.5 301.5,-224.5"/>
<text text-anchor="middle" x="327.5" y="-231.5" font-family="Helvetica,sans-Serif" font-size="10.00">cassert</text>
</a>
</g>
</g>
<!-- Node1&#45;&gt;Node13 -->
<g id="edge22" class="edge">
<title>Node1&#45;&gt;Node13</title>
<path fill="none" stroke="midnightblue" d="M225.26,-280.4C247.54,-270.51 277.09,-257.38 298.69,-247.79"/>
<polygon fill="midnightblue" stroke="midnightblue" points="300.28,-250.91 308,-243.66 297.44,-244.52 300.28,-250.91"/>
</g>
<!-- Node2&#45;&gt;Node3 -->
<g id="edge2" class="edge">
<title>Node2&#45;&gt;Node3</title>
<path fill="none" stroke="midnightblue" d="M158.25,-224.37C172.5,-206.14 205.89,-163.43 224.46,-139.68"/>
<polygon fill="midnightblue" stroke="midnightblue" points="227.38,-141.63 230.78,-131.59 221.87,-137.31 227.38,-141.63"/>
</g>
<!-- Node2&#45;&gt;Node4 -->
<g id="edge16" class="edge">
<title>Node2&#45;&gt;Node4</title>
<path fill="none" stroke="midnightblue" d="M146.32,-224.23C141.17,-215.3 133.22,-200.96 127.5,-188 111.81,-152.45 97.55,-109.22 90.05,-85.24"/>
<polygon fill="midnightblue" stroke="midnightblue" points="93.39,-84.2 87.1,-75.68 86.7,-86.27 93.39,-84.2"/>
</g>
<!-- Node2&#45;&gt;Node8 -->
<g id="edge17" class="edge">
<title>Node2&#45;&gt;Node8</title>
<path fill="none" stroke="midnightblue" d="M149.73,-224.34C145.94,-203.39 139,-148.96 160.5,-112 168.63,-98.03 183.04,-87.51 196.42,-80.17"/>
<polygon fill="midnightblue" stroke="midnightblue" points="198.1,-83.24 205.43,-75.59 194.92,-77 198.1,-83.24"/>
</g>
<!-- Node2&#45;&gt;Node10 -->
<g id="edge9" class="edge">
<title>Node2&#45;&gt;Node10</title>
<path fill="none" stroke="midnightblue" d="M183.35,-224.44C217.9,-215.16 273.18,-200.31 311.08,-190.13"/>
<polygon fill="midnightblue" stroke="midnightblue" points="312.05,-193.49 320.8,-187.52 310.23,-186.73 312.05,-193.49"/>
</g>
<!-- Node3&#45;&gt;Node4 -->
<g id="edge3" class="edge">
<title>Node3&#45;&gt;Node4</title>
<path fill="none" stroke="midnightblue" d="M213.26,-112.44C187.63,-103.4 147.01,-89.06 118.26,-78.92"/>
<polygon fill="midnightblue" stroke="midnightblue" points="119.22,-75.54 108.63,-75.52 116.89,-82.15 119.22,-75.54"/>
</g>
<!-- Node3&#45;&gt;Node8 -->
<g id="edge7" class="edge">
<title>Node3&#45;&gt;Node8</title>
<path fill="none" stroke="midnightblue" d="M235.85,-112.08C234.52,-104.93 232.62,-94.64 230.96,-85.69"/>
<polygon fill="midnightblue" stroke="midnightblue" points="234.38,-84.95 229.12,-75.75 227.5,-86.22 234.38,-84.95"/>
</g>
<!-- Node9 -->
<g id="node9" class="node">
<title>Node9</title>
<g id="a_node9"><a xlink:title=" ">
<polygon fill="white" stroke="#bfbfbf" points="346,-56.5 346,-75.5 411,-75.5 411,-56.5 346,-56.5"/>
<text text-anchor="middle" x="378.5" y="-63.5" font-family="Helvetica,sans-Serif" font-size="10.00">exception</text>
</a>
</g>
</g>
<!-- Node3&#45;&gt;Node9 -->
<g id="edge8" class="edge">
<title>Node3&#45;&gt;Node9</title>
<path fill="none" stroke="midnightblue" d="M259.84,-112.44C283.25,-103.48 320.24,-89.31 346.69,-79.18"/>
<polygon fill="midnightblue" stroke="midnightblue" points="348.18,-82.36 356.26,-75.52 345.67,-75.82 348.18,-82.36"/>
</g>
<!-- Node5 -->
<g id="node5" class="node">
<title>Node5</title>
<g id="a_node5"><a xlink:title=" ">
<polygon fill="white" stroke="#bfbfbf" points="0,-0.5 0,-19.5 47,-19.5 47,-0.5 0,-0.5"/>
<text text-anchor="middle" x="23.5" y="-7.5" font-family="Helvetica,sans-Serif" font-size="10.00">deque</text>
</a>
</g>
</g>
<!-- Node4&#45;&gt;Node5 -->
<g id="edge4" class="edge">
<title>Node4&#45;&gt;Node5</title>
<path fill="none" stroke="midnightblue" d="M74.7,-56.32C65.68,-48.34 52.09,-36.31 41.18,-26.65"/>
<polygon fill="midnightblue" stroke="midnightblue" points="43.29,-23.84 33.48,-19.83 38.65,-29.08 43.29,-23.84"/>
</g>
<!-- Node6 -->
<g id="node6" class="node">
<title>Node6</title>
<g id="a_node6"><a xlink:title=" ">
<polygon fill="white" stroke="#bfbfbf" points="65.5,-0.5 65.5,-19.5 103.5,-19.5 103.5,-0.5 65.5,-0.5"/>
<text text-anchor="middle" x="84.5" y="-7.5" font-family="Helvetica,sans-Serif" font-size="10.00">map</text>
</a>
</g>
</g>
<!-- Node4&#45;&gt;Node6 -->
<g id="edge5" class="edge">
<title>Node4&#45;&gt;Node6</title>
<path fill="none" stroke="midnightblue" d="M84.5,-56.08C84.5,-49.01 84.5,-38.86 84.5,-29.99"/>
<polygon fill="midnightblue" stroke="midnightblue" points="88,-29.75 84.5,-19.75 81,-29.75 88,-29.75"/>
</g>
<!-- Node7 -->
<g id="node7" class="node">
<title>Node7</title>
<g id="a_node7"><a xlink:title=" ">
<polygon fill="white" stroke="#bfbfbf" points="122,-0.5 122,-19.5 169,-19.5 169,-0.5 122,-0.5"/>
<text text-anchor="middle" x="145.5" y="-7.5" font-family="Helvetica,sans-Serif" font-size="10.00">vector</text>
</a>
</g>
</g>
<!-- Node4&#45;&gt;Node7 -->
<g id="edge6" class="edge">
<title>Node4&#45;&gt;Node7</title>
<path fill="none" stroke="midnightblue" d="M94.3,-56.32C103.32,-48.34 116.91,-36.31 127.82,-26.65"/>
<polygon fill="midnightblue" stroke="midnightblue" points="130.35,-29.08 135.52,-19.83 125.71,-23.84 130.35,-29.08"/>
</g>
<!-- Node10&#45;&gt;Node3 -->
<g id="edge10" class="edge">
<title>Node10&#45;&gt;Node3</title>
<path fill="none" stroke="midnightblue" d="M334.28,-168.44C315.6,-159.68 286.34,-145.94 264.88,-135.86"/>
<polygon fill="midnightblue" stroke="midnightblue" points="266.18,-132.6 255.64,-131.52 263.2,-138.93 266.18,-132.6"/>
</g>
<!-- Node10&#45;&gt;Node4 -->
<g id="edge11" class="edge">
<title>Node10&#45;&gt;Node4</title>
<path fill="none" stroke="midnightblue" d="M349.98,-168.24C345.4,-154.01 334.32,-126.08 314.5,-112 300.42,-102 203.83,-85.47 140.38,-75.47"/>
<polygon fill="midnightblue" stroke="midnightblue" points="140.54,-71.95 130.11,-73.86 139.45,-78.87 140.54,-71.95"/>
</g>
<!-- Node10&#45;&gt;Node8 -->
<g id="edge12" class="edge">
<title>Node10&#45;&gt;Node8</title>
<path fill="none" stroke="midnightblue" d="M354.5,-168.42C357.12,-154.94 360.01,-128.65 347.5,-112 335.21,-95.64 316.26,-85.23 297.03,-78.6"/>
<polygon fill="midnightblue" stroke="midnightblue" points="297.88,-75.2 287.29,-75.56 295.79,-81.88 297.88,-75.2"/>
</g>
<!-- Node10&#45;&gt;Node9 -->
<g id="edge14" class="edge">
<title>Node10&#45;&gt;Node9</title>
<path fill="none" stroke="midnightblue" d="M361.52,-168.34C369.57,-159.93 380.8,-146.36 385.5,-132 390.47,-116.83 387.86,-98.71 384.51,-85.46"/>
<polygon fill="midnightblue" stroke="midnightblue" points="387.81,-84.28 381.67,-75.65 381.09,-86.23 387.81,-84.28"/>
</g>
<!-- Node11 -->
<g id="node11" class="node">
<title>Node11</title>
<g id="a_node11"><a xlink:title=" ">
<polygon fill="white" stroke="#bfbfbf" points="499.5,-112.5 499.5,-131.5 631.5,-131.5 631.5,-112.5 499.5,-112.5"/>
<text text-anchor="middle" x="565.5" y="-119.5" font-family="Helvetica,sans-Serif" font-size="10.00">smart_ptr/weak_ptr.hpp</text>
</a>
</g>
</g>
<!-- Node10&#45;&gt;Node11 -->
<g id="edge13" class="edge">
<title>Node10&#45;&gt;Node11</title>
<path fill="none" stroke="midnightblue" d="M386.25,-168.44C423.02,-159.12 481.95,-144.18 522.12,-134"/>
<polygon fill="midnightblue" stroke="midnightblue" points="523.07,-137.37 531.91,-131.52 521.35,-130.58 523.07,-137.37"/>
</g>
<!-- Node12 -->
<g id="node12" class="node">
<title>Node12</title>
<g id="a_node12"><a xlink:title=" ">
<polygon fill="white" stroke="#bfbfbf" points="437.5,-112.5 437.5,-131.5 481.5,-131.5 481.5,-112.5 437.5,-112.5"/>
<text text-anchor="middle" x="459.5" y="-119.5" font-family="Helvetica,sans-Serif" font-size="10.00">string</text>
</a>
</g>
</g>
<!-- Node10&#45;&gt;Node12 -->
<g id="edge15" class="edge">
<title>Node10&#45;&gt;Node12</title>
<path fill="none" stroke="midnightblue" d="M369.69,-168.32C386.85,-159.66 413.45,-146.24 433.25,-136.25"/>
<polygon fill="midnightblue" stroke="midnightblue" points="435,-139.28 442.35,-131.65 431.85,-133.04 435,-139.28"/>
</g>
</g>
</svg>
