<?xml version="1.0" encoding="UTF-8" standalone="no"?>
<!DOCTYPE svg PUBLIC "-//W3C//DTD SVG 1.1//EN"
 "http://www.w3.org/Graphics/SVG/1.1/DTD/svg11.dtd">
<!-- Generated by graphviz version 2.43.0 (0)
 -->
<!-- Title: reply.hpp Pages: 1 -->
<!--zoomable 196 -->
<svg id="main" version="1.1" xmlns="http://www.w3.org/2000/svg" xmlns:xlink="http://www.w3.org/1999/xlink" xml:space="preserve" onload="init(evt)">
<style type="text/css"><![CDATA[
.edge:hover path { stroke: red; }
.edge:hover polygon { stroke: red; fill: red; }
]]></style>
<script type="text/javascript"><![CDATA[
var edges = document.getElementsByTagName('g');
if (edges && edges.length) {
  for (var i=0;i<edges.length;i++) {
    if (edges[i].id.substr(0,4)=='edge') {
      edges[i].setAttribute('class','edge');
    }
  }
}
]]></script>
        <defs>
                <circle id="rim" cx="0" cy="0" r="7"/>
                <circle id="rim2" cx="0" cy="0" r="3.5"/>
                <g id="zoomPlus">
                        <use xlink:href="#rim" fill="#404040">
                                <set attributeName="fill" to="#808080" begin="zoomplus.mouseover" end="zoomplus.mouseout"/>
                        </use>
                        <path d="M-4,0h8M0,-4v8" fill="none" stroke="white" stroke-width="1.5" pointer-events="none"/>
                </g>
                <g id="zoomMin">
                        <use xlink:href="#rim" fill="#404040">
                                <set attributeName="fill" to="#808080" begin="zoomminus.mouseover" end="zoomminus.mouseout"/>
                        </use>
                        <path d="M-4,0h8" fill="none" stroke="white" stroke-width="1.5" pointer-events="none"/>
                </g>
                <g id="dirArrow">
                        <path fill="none" stroke="white" stroke-width="1.5" d="M0,-3.0v7 M-2.5,-0.5L0,-3.0L2.5,-0.5"/>
                </g>
               <g id="resetDef">
                       <use xlink:href="#rim2" fill="#404040">
                               <set attributeName="fill" to="#808080" begin="reset.mouseover" end="reset.mouseout"/>
                       </use>
               </g>
        </defs>

<script type="text/javascript">
var viewWidth = 1028;
var viewHeight = 196;
var sectionId = 'dynsection-1';
</script>
<script xlink:href="svgpan.js"/>
<svg id="graph" class="graph">
<g id="viewport">
<title>reply.hpp</title>
<polygon fill="white" stroke="transparent" points="-4,4 -4,-192 1023.5,-192 1023.5,4 -4,4"/>
<!-- Node1 -->
<g id="node1" class="node">
<title>Node1</title>
<g id="a_node1"><a xlink:title=" ">
<polygon fill="#bfbfbf" stroke="black" points="429,-168.5 429,-187.5 490,-187.5 490,-168.5 429,-168.5"/>
<text text-anchor="middle" x="459.5" y="-175.5" font-family="Helvetica,sans-Serif" font-size="10.00">reply.hpp</text>
</a>
</g>
</g>
<!-- Node2 -->
<g id="node2" class="node">
<title>Node2</title>
<g id="a_node2"><a xlink:href="bot__handler_8hpp.html" target="_top" xlink:title=" ">
<polygon fill="white" stroke="black" points="45,-112.5 45,-131.5 140,-131.5 140,-112.5 45,-112.5"/>
<text text-anchor="middle" x="92.5" y="-119.5" font-family="Helvetica,sans-Serif" font-size="10.00">bot_handler.hpp</text>
</a>
</g>
</g>
<!-- Node1&#45;&gt;Node2 -->
<g id="edge1" class="edge">
<title>Node1&#45;&gt;Node2</title>
<path fill="none" stroke="midnightblue" d="M418.88,-171.02C350.54,-160.97 212.9,-140.72 140.12,-130.01"/>
<polygon fill="midnightblue" stroke="midnightblue" points="418.44,-174.5 428.84,-172.49 419.46,-167.57 418.44,-174.5"/>
</g>
<!-- Node4 -->
<g id="node4" class="node">
<title>Node4</title>
<g id="a_node4"><a xlink:href="channel_8cpp.html" target="_top" xlink:title=" ">
<polygon fill="white" stroke="black" points="101,-56.5 101,-75.5 176,-75.5 176,-56.5 101,-56.5"/>
<text text-anchor="middle" x="138.5" y="-63.5" font-family="Helvetica,sans-Serif" font-size="10.00">channel.cpp</text>
</a>
</g>
</g>
<!-- Node1&#45;&gt;Node4 -->
<g id="edge3" class="edge">
<title>Node1&#45;&gt;Node4</title>
<path fill="none" stroke="midnightblue" d="M418.8,-166.99C386.02,-158.6 338.89,-145.8 298.5,-132 246.58,-114.26 187.13,-88.67 157.45,-75.51"/>
<polygon fill="midnightblue" stroke="midnightblue" points="418.37,-170.49 428.92,-169.55 420.09,-163.7 418.37,-170.49"/>
</g>
<!-- Node5 -->
<g id="node5" class="node">
<title>Node5</title>
<g id="a_node5"><a xlink:href="channel_8hpp.html" target="_top" xlink:title=" ">
<polygon fill="white" stroke="black" points="336.5,-112.5 336.5,-131.5 412.5,-131.5 412.5,-112.5 336.5,-112.5"/>
<text text-anchor="middle" x="374.5" y="-119.5" font-family="Helvetica,sans-Serif" font-size="10.00">channel.hpp</text>
</a>
</g>
</g>
<!-- Node1&#45;&gt;Node5 -->
<g id="edge4" class="edge">
<title>Node1&#45;&gt;Node5</title>
<path fill="none" stroke="midnightblue" d="M437.31,-162.9C421.72,-153 401.37,-140.07 388.12,-131.65"/>
<polygon fill="midnightblue" stroke="midnightblue" points="435.53,-165.92 445.84,-168.32 439.28,-160.01 435.53,-165.92"/>
</g>
<!-- Node6 -->
<g id="node6" class="node">
<title>Node6</title>
<g id="a_node6"><a xlink:href="processor__channel_8hpp.html" target="_top" xlink:title=" ">
<polygon fill="white" stroke="black" points="194.5,-56.5 194.5,-75.5 322.5,-75.5 322.5,-56.5 194.5,-56.5"/>
<text text-anchor="middle" x="258.5" y="-63.5" font-family="Helvetica,sans-Serif" font-size="10.00">processor_channel.hpp</text>
</a>
</g>
</g>
<!-- Node1&#45;&gt;Node6 -->
<g id="edge15" class="edge">
<title>Node1&#45;&gt;Node6</title>
<path fill="none" stroke="midnightblue" d="M418.87,-167.96C391.72,-160.8 355.91,-149.11 327.5,-132 301.56,-116.38 277.26,-89.63 265.65,-75.83"/>
<polygon fill="midnightblue" stroke="midnightblue" points="418.26,-171.42 428.82,-170.49 419.99,-164.63 418.26,-171.42"/>
</g>
<!-- Node8 -->
<g id="node8" class="node">
<title>Node8</title>
<g id="a_node8"><a xlink:href="processor__send__message_8hpp.html" target="_top" xlink:title=" ">
<polygon fill="white" stroke="black" points="426,-56.5 426,-75.5 589,-75.5 589,-56.5 426,-56.5"/>
<text text-anchor="middle" x="507.5" y="-63.5" font-family="Helvetica,sans-Serif" font-size="10.00">processor_send_message.hpp</text>
</a>
</g>
</g>
<!-- Node1&#45;&gt;Node8 -->
<g id="edge20" class="edge">
<title>Node1&#45;&gt;Node8</title>
<path fill="none" stroke="midnightblue" d="M457.68,-158.15C457.15,-144.71 458.01,-126.53 464.5,-112 471.28,-96.8 485.46,-83.61 495.69,-75.5"/>
<polygon fill="midnightblue" stroke="midnightblue" points="454.19,-158.4 458.37,-168.13 461.17,-157.92 454.19,-158.4"/>
</g>
<!-- Node10 -->
<g id="node10" class="node">
<title>Node10</title>
<g id="a_node10"><a xlink:href="user_8cpp.html" target="_top" xlink:title=" ">
<polygon fill="white" stroke="black" points="607,-56.5 607,-75.5 664,-75.5 664,-56.5 607,-56.5"/>
<text text-anchor="middle" x="635.5" y="-63.5" font-family="Helvetica,sans-Serif" font-size="10.00">user.cpp</text>
</a>
</g>
</g>
<!-- Node1&#45;&gt;Node10 -->
<g id="edge23" class="edge">
<title>Node1&#45;&gt;Node10</title>
<path fill="none" stroke="midnightblue" d="M466.03,-158.56C472.08,-143.99 482.43,-124.15 497.5,-112 514.47,-98.32 571.53,-82.58 606.74,-73.81"/>
<polygon fill="midnightblue" stroke="midnightblue" points="462.71,-157.46 462.38,-168.05 469.24,-159.97 462.71,-157.46"/>
</g>
<!-- Node11 -->
<g id="node11" class="node">
<title>Node11</title>
<g id="a_node11"><a xlink:href="client__handler_8hpp.html" target="_top" xlink:title=" ">
<polygon fill="white" stroke="black" points="911.5,-112.5 911.5,-131.5 1017.5,-131.5 1017.5,-112.5 911.5,-112.5"/>
<text text-anchor="middle" x="964.5" y="-119.5" font-family="Helvetica,sans-Serif" font-size="10.00">client_handler.hpp</text>
</a>
</g>
</g>
<!-- Node1&#45;&gt;Node11 -->
<g id="edge12" class="edge">
<title>Node1&#45;&gt;Node11</title>
<path fill="none" stroke="midnightblue" d="M500.55,-173.42C578.84,-166.47 754.85,-150.21 902.5,-132 905.41,-131.64 908.4,-131.26 911.42,-130.86"/>
<polygon fill="midnightblue" stroke="midnightblue" points="499.82,-169.97 490.16,-174.34 500.43,-176.95 499.82,-169.97"/>
</g>
<!-- Node14 -->
<g id="node14" class="node">
<title>Node14</title>
<g id="a_node14"><a xlink:href="processor__misc_8hpp.html" target="_top" xlink:title=" ">
<polygon fill="white" stroke="black" points="507,-112.5 507,-131.5 620,-131.5 620,-112.5 507,-112.5"/>
<text text-anchor="middle" x="563.5" y="-119.5" font-family="Helvetica,sans-Serif" font-size="10.00">processor_misc.hpp</text>
</a>
</g>
</g>
<!-- Node1&#45;&gt;Node14 -->
<g id="edge16" class="edge">
<title>Node1&#45;&gt;Node14</title>
<path fill="none" stroke="midnightblue" d="M485.33,-163.59C504.56,-153.61 530.24,-140.27 546.83,-131.65"/>
<polygon fill="midnightblue" stroke="midnightblue" points="483.47,-160.61 476.21,-168.32 486.7,-166.82 483.47,-160.61"/>
</g>
<!-- Node15 -->
<g id="node15" class="node">
<title>Node15</title>
<g id="a_node15"><a xlink:href="processor__register_8hpp.html" target="_top" xlink:title=" ">
<polygon fill="white" stroke="black" points="638,-112.5 638,-131.5 765,-131.5 765,-112.5 638,-112.5"/>
<text text-anchor="middle" x="701.5" y="-119.5" font-family="Helvetica,sans-Serif" font-size="10.00">processor_register.hpp</text>
</a>
</g>
</g>
<!-- Node1&#45;&gt;Node15 -->
<g id="edge18" class="edge">
<title>Node1&#45;&gt;Node15</title>
<path fill="none" stroke="midnightblue" d="M499.96,-167.97C545.39,-157.83 618.57,-141.5 663.13,-131.56"/>
<polygon fill="midnightblue" stroke="midnightblue" points="499.15,-164.57 490.15,-170.16 500.67,-171.4 499.15,-164.57"/>
</g>
<!-- Node16 -->
<g id="node16" class="node">
<title>Node16</title>
<g id="a_node16"><a xlink:href="processor__user_8hpp.html" target="_top" xlink:title=" ">
<polygon fill="white" stroke="black" points="783.5,-112.5 783.5,-131.5 893.5,-131.5 893.5,-112.5 783.5,-112.5"/>
<text text-anchor="middle" x="838.5" y="-119.5" font-family="Helvetica,sans-Serif" font-size="10.00">processor_user.hpp</text>
</a>
</g>
</g>
<!-- Node1&#45;&gt;Node16 -->
<g id="edge21" class="edge">
<title>Node1&#45;&gt;Node16</title>
<path fill="none" stroke="midnightblue" d="M500.15,-171.21C568.49,-161.47 706.46,-141.81 783.43,-130.85"/>
<polygon fill="midnightblue" stroke="midnightblue" points="499.6,-167.75 490.19,-172.63 500.59,-174.68 499.6,-167.75"/>
</g>
<!-- Node3 -->
<g id="node3" class="node">
<title>Node3</title>
<g id="a_node3"><a xlink:href="bot__main_8cpp.html" target="_top" xlink:title=" ">
<polygon fill="white" stroke="black" points="0,-56.5 0,-75.5 83,-75.5 83,-56.5 0,-56.5"/>
<text text-anchor="middle" x="41.5" y="-63.5" font-family="Helvetica,sans-Serif" font-size="10.00">bot_main.cpp</text>
</a>
</g>
</g>
<!-- Node2&#45;&gt;Node3 -->
<g id="edge2" class="edge">
<title>Node2&#45;&gt;Node3</title>
<path fill="none" stroke="midnightblue" d="M77.12,-104.72C68.13,-95.2 57.14,-83.56 49.76,-75.75"/>
<polygon fill="midnightblue" stroke="midnightblue" points="74.67,-107.22 84.08,-112.08 79.76,-102.41 74.67,-107.22"/>
</g>
<!-- Node5&#45;&gt;Node4 -->
<g id="edge5" class="edge">
<title>Node5&#45;&gt;Node4</title>
<path fill="none" stroke="midnightblue" d="M327.09,-110.15C282.5,-99.95 216.65,-84.88 175.72,-75.52"/>
<polygon fill="midnightblue" stroke="midnightblue" points="326.58,-113.62 337.11,-112.44 328.14,-106.8 326.58,-113.62"/>
</g>
<!-- Node5&#45;&gt;Node6 -->
<g id="edge6" class="edge">
<title>Node5&#45;&gt;Node6</title>
<path fill="none" stroke="midnightblue" d="M346.78,-108.1C325.11,-98.01 295.6,-84.27 276.79,-75.52"/>
<polygon fill="midnightblue" stroke="midnightblue" points="345.58,-111.4 356.12,-112.44 348.53,-105.05 345.58,-111.4"/>
</g>
<!-- Node5&#45;&gt;Node8 -->
<g id="edge8" class="edge">
<title>Node5&#45;&gt;Node8</title>
<path fill="none" stroke="midnightblue" d="M404.95,-108.64C429.91,-98.5 464.58,-84.43 486.52,-75.52"/>
<polygon fill="midnightblue" stroke="midnightblue" points="403.52,-105.44 395.57,-112.44 406.16,-111.92 403.52,-105.44"/>
</g>
<!-- Node9 -->
<g id="node9" class="node">
<title>Node9</title>
<g id="a_node9"><a xlink:href="server_8cpp.html" target="_top" xlink:title=" ">
<polygon fill="white" stroke="black" points="341,-56.5 341,-75.5 408,-75.5 408,-56.5 341,-56.5"/>
<text text-anchor="middle" x="374.5" y="-63.5" font-family="Helvetica,sans-Serif" font-size="10.00">server.cpp</text>
</a>
</g>
</g>
<!-- Node5&#45;&gt;Node9 -->
<g id="edge10" class="edge">
<title>Node5&#45;&gt;Node9</title>
<path fill="none" stroke="midnightblue" d="M374.5,-101.8C374.5,-92.91 374.5,-82.78 374.5,-75.75"/>
<polygon fill="midnightblue" stroke="midnightblue" points="371,-102.08 374.5,-112.08 378,-102.08 371,-102.08"/>
</g>
<!-- Node5&#45;&gt;Node10 -->
<g id="edge11" class="edge">
<title>Node5&#45;&gt;Node10</title>
<path fill="none" stroke="midnightblue" d="M422.69,-111.76C467.92,-102.97 537.42,-89.17 597.5,-76 600.55,-75.33 603.72,-74.61 606.89,-73.88"/>
<polygon fill="midnightblue" stroke="midnightblue" points="422.01,-108.33 412.86,-113.66 423.34,-115.2 422.01,-108.33"/>
</g>
<!-- Node7 -->
<g id="node7" class="node">
<title>Node7</title>
<g id="a_node7"><a xlink:href="processor_8cpp.html" target="_top" xlink:title=" ">
<polygon fill="white" stroke="black" points="651,-0.5 651,-19.5 734,-19.5 734,-0.5 651,-0.5"/>
<text text-anchor="middle" x="692.5" y="-7.5" font-family="Helvetica,sans-Serif" font-size="10.00">processor.cpp</text>
</a>
</g>
</g>
<!-- Node6&#45;&gt;Node7 -->
<g id="edge7" class="edge">
<title>Node6&#45;&gt;Node7</title>
<path fill="none" stroke="midnightblue" d="M332.59,-55.78C424.32,-44.37 577.39,-25.32 650.78,-16.19"/>
<polygon fill="midnightblue" stroke="midnightblue" points="332.03,-52.32 322.54,-57.03 332.89,-59.27 332.03,-52.32"/>
</g>
<!-- Node8&#45;&gt;Node7 -->
<g id="edge9" class="edge">
<title>Node8&#45;&gt;Node7</title>
<path fill="none" stroke="midnightblue" d="M546.67,-53.57C581.57,-43.38 631.85,-28.7 663.32,-19.52"/>
<polygon fill="midnightblue" stroke="midnightblue" points="545.43,-50.28 536.81,-56.44 547.39,-57 545.43,-50.28"/>
</g>
<!-- Node12 -->
<g id="node12" class="node">
<title>Node12</title>
<g id="a_node12"><a xlink:href="server__handler_8hpp.html" target="_top" xlink:title=" ">
<polygon fill="white" stroke="black" points="909.5,-56.5 909.5,-75.5 1019.5,-75.5 1019.5,-56.5 909.5,-56.5"/>
<text text-anchor="middle" x="964.5" y="-63.5" font-family="Helvetica,sans-Serif" font-size="10.00">server_handler.hpp</text>
</a>
</g>
</g>
<!-- Node11&#45;&gt;Node12 -->
<g id="edge13" class="edge">
<title>Node11&#45;&gt;Node12</title>
<path fill="none" stroke="midnightblue" d="M964.5,-101.8C964.5,-92.91 964.5,-82.78 964.5,-75.75"/>
<polygon fill="midnightblue" stroke="midnightblue" points="961,-102.08 964.5,-112.08 968,-102.08 961,-102.08"/>
</g>
<!-- Node13 -->
<g id="node13" class="node">
<title>Node13</title>
<g id="a_node13"><a xlink:href="main_8cpp.html" target="_top" xlink:title=" ">
<polygon fill="white" stroke="black" points="933.5,-0.5 933.5,-19.5 995.5,-19.5 995.5,-0.5 933.5,-0.5"/>
<text text-anchor="middle" x="964.5" y="-7.5" font-family="Helvetica,sans-Serif" font-size="10.00">main.cpp</text>
</a>
</g>
</g>
<!-- Node12&#45;&gt;Node13 -->
<g id="edge14" class="edge">
<title>Node12&#45;&gt;Node13</title>
<path fill="none" stroke="midnightblue" d="M964.5,-45.8C964.5,-36.91 964.5,-26.78 964.5,-19.75"/>
<polygon fill="midnightblue" stroke="midnightblue" points="961,-46.08 964.5,-56.08 968,-46.08 961,-46.08"/>
</g>
<!-- Node14&#45;&gt;Node7 -->
<g id="edge17" class="edge">
<title>Node14&#45;&gt;Node7</title>
<path fill="none" stroke="midnightblue" d="M616.3,-109.47C636.29,-102.71 657.75,-92.19 672.5,-76 687.13,-59.94 691.06,-33.39 692.12,-19.72"/>
<polygon fill="midnightblue" stroke="midnightblue" points="615.14,-106.16 606.65,-112.49 617.24,-112.84 615.14,-106.16"/>
</g>
<!-- Node15&#45;&gt;Node7 -->
<g id="edge19" class="edge">
<title>Node15&#45;&gt;Node7</title>
<path fill="none" stroke="midnightblue" d="M705.22,-102.05C707.22,-89.04 708.84,-71.4 706.5,-56 704.53,-43.06 699.56,-28.72 696.1,-19.78"/>
<polygon fill="midnightblue" stroke="midnightblue" points="701.73,-101.67 703.45,-112.12 708.63,-102.88 701.73,-101.67"/>
</g>
<!-- Node16&#45;&gt;Node7 -->
<g id="edge22" class="edge">
<title>Node16&#45;&gt;Node7</title>
<path fill="none" stroke="midnightblue" d="M818.75,-106.12C787.76,-82.77 728.69,-38.27 703.9,-19.59"/>
<polygon fill="midnightblue" stroke="midnightblue" points="816.95,-109.15 827.04,-112.37 821.16,-103.56 816.95,-109.15"/>
</g>
</g>
</svg>
        <g id="navigator" transform="translate(0 0)" fill="#404254">
                <rect fill="#f2f5e9" fill-opacity="0.5" stroke="#606060" stroke-width=".5" x="0" y="0" width="60" height="60"/>
                <use id="zoomplus" xlink:href="#zoomPlus" x="17" y="9" onmousedown="handleZoom(evt,'in')"/>
                <use id="zoomminus" xlink:href="#zoomMin" x="42" y="9" onmousedown="handleZoom(evt,'out')"/>
                <use id="reset" xlink:href="#resetDef" x="30" y="36" onmousedown="handleReset()"/>
                <g id="arrowUp" xlink:href="#dirArrow" transform="translate(30 24)" onmousedown="handlePan(0,-1)">
                  <use xlink:href="#rim" fill="#404040">
                        <set attributeName="fill" to="#808080" begin="arrowUp.mouseover" end="arrowUp.mouseout"/>
                  </use>
                  <path fill="none" stroke="white" stroke-width="1.5" d="M0,-3.0v7 M-2.5,-0.5L0,-3.0L2.5,-0.5"/>
                </g>
                <g id="arrowRight" xlink:href="#dirArrow" transform="rotate(90) translate(36 -43)" onmousedown="handlePan(1,0)">
                  <use xlink:href="#rim" fill="#404040">
                        <set attributeName="fill" to="#808080" begin="arrowRight.mouseover" end="arrowRight.mouseout"/>
                  </use>
                  <path fill="none" stroke="white" stroke-width="1.5" d="M0,-3.0v7 M-2.5,-0.5L0,-3.0L2.5,-0.5"/>
                </g>
                <g id="arrowDown" xlink:href="#dirArrow" transform="rotate(180) translate(-30 -48)" onmousedown="handlePan(0,1)">
                  <use xlink:href="#rim" fill="#404040">
                        <set attributeName="fill" to="#808080" begin="arrowDown.mouseover" end="arrowDown.mouseout"/>
                  </use>
                  <path fill="none" stroke="white" stroke-width="1.5" d="M0,-3.0v7 M-2.5,-0.5L0,-3.0L2.5,-0.5"/>
                </g>
                <g id="arrowLeft" xlink:href="#dirArrow" transform="rotate(270) translate(-36 17)" onmousedown="handlePan(-1,0)">
                  <use xlink:href="#rim" fill="#404040">
                        <set attributeName="fill" to="#808080" begin="arrowLeft.mouseover" end="arrowLeft.mouseout"/>
                  </use>
                  <path fill="none" stroke="white" stroke-width="1.5" d="M0,-3.0v7 M-2.5,-0.5L0,-3.0L2.5,-0.5"/>
                </g>
        </g>
        <svg viewBox="0 0 15 15" width="100%" height="30px" preserveAspectRatio="xMaxYMin meet">
         <g id="arrow_out" transform="scale(0.3 0.3)">
          <a xlink:href="reply_8hpp__dep__incl_org.svg" target="_base">
           <rect id="button" ry="5" rx="5" y="6" x="6" height="38" width="38"
                fill="#f2f5e9" fill-opacity="0.5" stroke="#606060" stroke-width="1.0"/>
           <path id="arrow"
             d="M 11.500037,31.436501 C 11.940474,20.09759 22.043105,11.32322 32.158766,21.979434 L 37.068811,17.246167 C 37.068811,17.246167 37.088388,32 37.088388,32 L 22.160133,31.978069 C 22.160133,31.978069 26.997745,27.140456 26.997745,27.140456 C 18.528582,18.264221 13.291696,25.230495 11.500037,31.436501 z"
             style="fill:#404040;"/>
          </a>
         </g>
        </svg>
</svg>
