<?xml version="1.0" encoding="UTF-8" standalone="no"?>
<!DOCTYPE svg PUBLIC "-//W3C//DTD SVG 1.1//EN"
 "http://www.w3.org/Graphics/SVG/1.1/DTD/svg11.dtd">
<!-- Generated by graphviz version 2.43.0 (0)
 -->
<!-- Title: includes/libserv/stream_channel.hpp Pages: 1 -->
<svg width="755pt" height="274pt"
 viewBox="0.00 0.00 754.50 274.00" xmlns="http://www.w3.org/2000/svg" xmlns:xlink="http://www.w3.org/1999/xlink">
<g id="graph0" class="graph" transform="scale(1 1) rotate(0) translate(4 270)">
<title>includes/libserv/stream_channel.hpp</title>
<polygon fill="white" stroke="transparent" points="-4,4 -4,-270 750.5,-270 750.5,4 -4,4"/>
<!-- Node1 -->
<g id="node1" class="node">
<title>Node1</title>
<g id="a_node1"><a xlink:title=" ">
<polygon fill="#bfbfbf" stroke="black" points="368,-235.5 368,-265.5 499,-265.5 499,-235.5 368,-235.5"/>
<text text-anchor="start" x="376" y="-253.5" font-family="Helvetica,sans-Serif" font-size="10.00">includes/libserv/stream</text>
<text text-anchor="middle" x="433.5" y="-242.5" font-family="Helvetica,sans-Serif" font-size="10.00">_channel.hpp</text>
</a>
</g>
</g>
<!-- Node2 -->
<g id="node2" class="node">
<title>Node2</title>
<g id="a_node2"><a xlink:href="event__channel__base_8hpp.html" target="_top" xlink:title=" ">
<polygon fill="white" stroke="black" points="317,-179.5 317,-198.5 454,-198.5 454,-179.5 317,-179.5"/>
<text text-anchor="middle" x="385.5" y="-186.5" font-family="Helvetica,sans-Serif" font-size="10.00">event_channel_base.hpp</text>
</a>
</g>
</g>
<!-- Node1&#45;&gt;Node2 -->
<g id="edge1" class="edge">
<title>Node1&#45;&gt;Node2</title>
<path fill="none" stroke="midnightblue" d="M422.12,-235.4C415.15,-226.75 406.19,-215.64 398.87,-206.58"/>
<polygon fill="midnightblue" stroke="midnightblue" points="401.49,-204.24 392.48,-198.66 396.04,-208.64 401.49,-204.24"/>
</g>
<!-- Node4 -->
<g id="node4" class="node">
<title>Node4</title>
<g id="a_node4"><a xlink:href="serv__types_8hpp.html" target="_top" xlink:title=" ">
<polygon fill="white" stroke="black" points="39,-56.5 39,-75.5 130,-75.5 130,-56.5 39,-56.5"/>
<text text-anchor="middle" x="84.5" y="-63.5" font-family="Helvetica,sans-Serif" font-size="10.00">serv_types.hpp</text>
</a>
</g>
</g>
<!-- Node1&#45;&gt;Node4 -->
<g id="edge14" class="edge">
<title>Node1&#45;&gt;Node4</title>
<path fill="none" stroke="midnightblue" d="M367.93,-248.98C289.67,-244.52 160.94,-224.29 93.5,-143 80.4,-127.21 79.83,-102.83 81.44,-85.96"/>
<polygon fill="midnightblue" stroke="midnightblue" points="84.96,-86.04 82.77,-75.68 78.01,-85.14 84.96,-86.04"/>
</g>
<!-- Node13 -->
<g id="node13" class="node">
<title>Node13</title>
<g id="a_node13"><a xlink:title=" ">
<polygon fill="white" stroke="#bfbfbf" points="702.5,-118 702.5,-137 746.5,-137 746.5,-118 702.5,-118"/>
<text text-anchor="middle" x="724.5" y="-125" font-family="Helvetica,sans-Serif" font-size="10.00">string</text>
</a>
</g>
</g>
<!-- Node1&#45;&gt;Node13 -->
<g id="edge16" class="edge">
<title>Node1&#45;&gt;Node13</title>
<path fill="none" stroke="midnightblue" d="M443.15,-235.34C455.08,-219 476.98,-192.65 502.5,-179 578.67,-138.25 611.28,-169.51 693.5,-143 695.17,-142.46 696.87,-141.85 698.57,-141.2"/>
<polygon fill="midnightblue" stroke="midnightblue" points="700.27,-144.28 708.08,-137.12 697.51,-137.85 700.27,-144.28"/>
</g>
<!-- Node14 -->
<g id="node14" class="node">
<title>Node14</title>
<g id="a_node14"><a xlink:title=" ">
<polygon fill="white" stroke="#bfbfbf" points="511,-179.5 511,-198.5 560,-198.5 560,-179.5 511,-179.5"/>
<text text-anchor="middle" x="535.5" y="-186.5" font-family="Helvetica,sans-Serif" font-size="10.00">cstdlib</text>
</a>
</g>
</g>
<!-- Node1&#45;&gt;Node14 -->
<g id="edge15" class="edge">
<title>Node1&#45;&gt;Node14</title>
<path fill="none" stroke="midnightblue" d="M457.67,-235.4C474.02,-225.86 495.51,-213.32 511.77,-203.84"/>
<polygon fill="midnightblue" stroke="midnightblue" points="513.78,-206.72 520.66,-198.66 510.26,-200.67 513.78,-206.72"/>
</g>
<!-- Node3 -->
<g id="node3" class="node">
<title>Node3</title>
<g id="a_node3"><a xlink:href="byte__buffer_8hpp.html" target="_top" xlink:title=" ">
<polygon fill="white" stroke="black" points="128.5,-118 128.5,-137 220.5,-137 220.5,-118 128.5,-118"/>
<text text-anchor="middle" x="174.5" y="-125" font-family="Helvetica,sans-Serif" font-size="10.00">byte_buffer.hpp</text>
</a>
</g>
</g>
<!-- Node2&#45;&gt;Node3 -->
<g id="edge2" class="edge">
<title>Node2&#45;&gt;Node3</title>
<path fill="none" stroke="midnightblue" d="M355.27,-179.48C318.21,-169.03 255.31,-151.29 214.34,-139.73"/>
<polygon fill="midnightblue" stroke="midnightblue" points="215.25,-136.35 204.68,-137.01 213.35,-143.09 215.25,-136.35"/>
</g>
<!-- Node2&#45;&gt;Node4 -->
<g id="edge9" class="edge">
<title>Node2&#45;&gt;Node4</title>
<path fill="none" stroke="midnightblue" d="M316.75,-183.61C248.45,-177.99 149.67,-166.1 119.5,-143 101.25,-129.03 92.19,-103.29 87.93,-85.67"/>
<polygon fill="midnightblue" stroke="midnightblue" points="91.31,-84.75 85.82,-75.7 84.46,-86.2 91.31,-84.75"/>
</g>
<!-- Node10 -->
<g id="node10" class="node">
<title>Node10</title>
<g id="a_node10"><a xlink:title=" ">
<polygon fill="white" stroke="#bfbfbf" points="238.5,-112.5 238.5,-142.5 376.5,-142.5 376.5,-112.5 238.5,-112.5"/>
<text text-anchor="start" x="246.5" y="-130.5" font-family="Helvetica,sans-Serif" font-size="10.00">smart_ptr/enable_shared</text>
<text text-anchor="middle" x="307.5" y="-119.5" font-family="Helvetica,sans-Serif" font-size="10.00">_from_this.hpp</text>
</a>
</g>
</g>
<!-- Node2&#45;&gt;Node10 -->
<g id="edge10" class="edge">
<title>Node2&#45;&gt;Node10</title>
<path fill="none" stroke="midnightblue" d="M374.32,-179.48C363.86,-171.49 347.82,-159.25 334.07,-148.77"/>
<polygon fill="midnightblue" stroke="midnightblue" points="335.96,-145.81 325.88,-142.52 331.71,-151.37 335.96,-145.81"/>
</g>
<!-- Node11 -->
<g id="node11" class="node">
<title>Node11</title>
<g id="a_node11"><a xlink:title=" ">
<polygon fill="white" stroke="#bfbfbf" points="395,-118 395,-137 534,-137 534,-118 395,-118"/>
<text text-anchor="middle" x="464.5" y="-125" font-family="Helvetica,sans-Serif" font-size="10.00">smart_ptr/shared_ptr.hpp</text>
</a>
</g>
</g>
<!-- Node2&#45;&gt;Node11 -->
<g id="edge11" class="edge">
<title>Node2&#45;&gt;Node11</title>
<path fill="none" stroke="midnightblue" d="M396.82,-179.48C409.37,-170.02 429.85,-154.6 445,-143.19"/>
<polygon fill="midnightblue" stroke="midnightblue" points="447.32,-145.82 453.2,-137.01 443.11,-140.23 447.32,-145.82"/>
</g>
<!-- Node12 -->
<g id="node12" class="node">
<title>Node12</title>
<g id="a_node12"><a xlink:title=" ">
<polygon fill="white" stroke="#bfbfbf" points="552.5,-118 552.5,-137 684.5,-137 684.5,-118 552.5,-118"/>
<text text-anchor="middle" x="618.5" y="-125" font-family="Helvetica,sans-Serif" font-size="10.00">smart_ptr/weak_ptr.hpp</text>
</a>
</g>
</g>
<!-- Node2&#45;&gt;Node12 -->
<g id="edge12" class="edge">
<title>Node2&#45;&gt;Node12</title>
<path fill="none" stroke="midnightblue" d="M418.88,-179.48C460.06,-168.96 530.15,-151.06 575.37,-139.51"/>
<polygon fill="midnightblue" stroke="midnightblue" points="576.36,-142.87 585.18,-137.01 574.62,-136.09 576.36,-142.87"/>
</g>
<!-- Node2&#45;&gt;Node13 -->
<g id="edge13" class="edge">
<title>Node2&#45;&gt;Node13</title>
<path fill="none" stroke="midnightblue" d="M454.25,-180.32C530.96,-171.34 650.02,-156.04 693.5,-143 695.38,-142.44 697.29,-141.78 699.19,-141.06"/>
<polygon fill="midnightblue" stroke="midnightblue" points="700.62,-144.25 708.44,-137.1 697.87,-137.81 700.62,-144.25"/>
</g>
<!-- Node3&#45;&gt;Node4 -->
<g id="edge3" class="edge">
<title>Node3&#45;&gt;Node4</title>
<path fill="none" stroke="midnightblue" d="M161.61,-117.98C147.04,-108.34 123.1,-92.52 105.75,-81.05"/>
<polygon fill="midnightblue" stroke="midnightblue" points="107.64,-78.1 97.37,-75.51 103.78,-83.94 107.64,-78.1"/>
</g>
<!-- Node8 -->
<g id="node8" class="node">
<title>Node8</title>
<g id="a_node8"><a xlink:title=" ">
<polygon fill="white" stroke="#bfbfbf" points="148.5,-56.5 148.5,-75.5 200.5,-75.5 200.5,-56.5 148.5,-56.5"/>
<text text-anchor="middle" x="174.5" y="-63.5" font-family="Helvetica,sans-Serif" font-size="10.00">cassert</text>
</a>
</g>
</g>
<!-- Node3&#45;&gt;Node8 -->
<g id="edge7" class="edge">
<title>Node3&#45;&gt;Node8</title>
<path fill="none" stroke="midnightblue" d="M174.5,-117.98C174.5,-109.58 174.5,-96.48 174.5,-85.66"/>
<polygon fill="midnightblue" stroke="midnightblue" points="178,-85.51 174.5,-75.51 171,-85.51 178,-85.51"/>
</g>
<!-- Node9 -->
<g id="node9" class="node">
<title>Node9</title>
<g id="a_node9"><a xlink:title=" ">
<polygon fill="white" stroke="#bfbfbf" points="218.5,-56.5 218.5,-75.5 268.5,-75.5 268.5,-56.5 218.5,-56.5"/>
<text text-anchor="middle" x="243.5" y="-63.5" font-family="Helvetica,sans-Serif" font-size="10.00">cstring</text>
</a>
</g>
</g>
<!-- Node3&#45;&gt;Node9 -->
<g id="edge8" class="edge">
<title>Node3&#45;&gt;Node9</title>
<path fill="none" stroke="midnightblue" d="M184.39,-117.98C195.15,-108.7 212.57,-93.67 225.72,-82.33"/>
<polygon fill="midnightblue" stroke="midnightblue" points="228.34,-84.69 233.63,-75.51 223.77,-79.39 228.34,-84.69"/>
</g>
<!-- Node5 -->
<g id="node5" class="node">
<title>Node5</title>
<g id="a_node5"><a xlink:title=" ">
<polygon fill="white" stroke="#bfbfbf" points="0,-0.5 0,-19.5 47,-19.5 47,-0.5 0,-0.5"/>
<text text-anchor="middle" x="23.5" y="-7.5" font-family="Helvetica,sans-Serif" font-size="10.00">deque</text>
</a>
</g>
</g>
<!-- Node4&#45;&gt;Node5 -->
<g id="edge4" class="edge">
<title>Node4&#45;&gt;Node5</title>
<path fill="none" stroke="midnightblue" d="M74.7,-56.32C65.68,-48.34 52.09,-36.31 41.18,-26.65"/>
<polygon fill="midnightblue" stroke="midnightblue" points="43.29,-23.84 33.48,-19.83 38.65,-29.08 43.29,-23.84"/>
</g>
<!-- Node6 -->
<g id="node6" class="node">
<title>Node6</title>
<g id="a_node6"><a xlink:title=" ">
<polygon fill="white" stroke="#bfbfbf" points="65.5,-0.5 65.5,-19.5 103.5,-19.5 103.5,-0.5 65.5,-0.5"/>
<text text-anchor="middle" x="84.5" y="-7.5" font-family="Helvetica,sans-Serif" font-size="10.00">map</text>
</a>
</g>
</g>
<!-- Node4&#45;&gt;Node6 -->
<g id="edge5" class="edge">
<title>Node4&#45;&gt;Node6</title>
<path fill="none" stroke="midnightblue" d="M84.5,-56.08C84.5,-49.01 84.5,-38.86 84.5,-29.99"/>
<polygon fill="midnightblue" stroke="midnightblue" points="88,-29.75 84.5,-19.75 81,-29.75 88,-29.75"/>
</g>
<!-- Node7 -->
<g id="node7" class="node">
<title>Node7</title>
<g id="a_node7"><a xlink:title=" ">
<polygon fill="white" stroke="#bfbfbf" points="122,-0.5 122,-19.5 169,-19.5 169,-0.5 122,-0.5"/>
<text text-anchor="middle" x="145.5" y="-7.5" font-family="Helvetica,sans-Serif" font-size="10.00">vector</text>
</a>
</g>
</g>
<!-- Node4&#45;&gt;Node7 -->
<g id="edge6" class="edge">
<title>Node4&#45;&gt;Node7</title>
<path fill="none" stroke="midnightblue" d="M94.3,-56.32C103.32,-48.34 116.91,-36.31 127.82,-26.65"/>
<polygon fill="midnightblue" stroke="midnightblue" points="130.35,-29.08 135.52,-19.83 125.71,-23.84 130.35,-29.08"/>
</g>
</g>
</svg>
